<svg width="30" height="30" viewBox="0 0 30 30" fill="none" xmlns="http://www.w3.org/2000/svg">
<g clip-path="url(#clip0_1050_5513)">
<path d="M15 30C23.2843 30 30 23.2843 30 15C30 6.71573 23.2843 0 15 0C6.71573 0 0 6.71573 0 15C0 23.2843 6.71573 30 15 30Z" fill="black"/>
<path d="M11.4156 8.87574L9.37891 7.69199L14.9189 4.45312L20.4751 7.69199L18.4383 8.87574L14.9189 6.83706L11.4156 8.87574ZM21.9253 10.9144V13.2984L23.962 12.1146V9.73067L21.9253 8.53048L19.8885 9.71424L21.9253 10.9144ZM12.8821 9.73067L14.9189 10.9144L16.9556 9.73067L14.9189 8.53048L12.8821 9.73067ZM20.4751 11.7693L18.4383 10.5856L14.9189 12.6243L11.4156 10.5856L9.37891 11.7693V14.1533L12.8821 16.1919V20.2693L14.9189 21.453L16.9556 20.2693V16.1919L20.4751 14.1533V11.7693ZM21.9253 19.0856L18.4221 21.1243V23.5082L23.9784 20.2693V13.808L21.9253 15.0082V19.0856ZM18.4221 19.4308L20.4588 18.2471V15.8467L18.4221 17.0304V19.4308ZM12.8821 21.9792V24.3631L14.9189 25.5469L16.9556 24.3631V21.9792L14.9189 23.1629L12.8821 21.9792ZM5.85938 12.1146L7.89613 13.2984V10.9144L9.9329 9.73067L7.91243 8.53048L5.87567 9.71424V12.1146H5.85938ZM7.91243 15.0082L5.87567 13.8245V20.2858L11.4319 23.5246V21.1407L7.91243 19.0856V15.0082ZM11.4156 17.0469L9.37891 15.8632V18.2471L11.4156 19.4308V17.0469Z" fill="#F1BA0D"/>
</g>
<defs>
<clipPath id="clip0_1050_5513">
<rect width="30" height="30" fill="white"/>
</clipPath>
</defs>
</svg>
