<svg width="30" height="30" viewBox="0 0 30 30" fill="none" xmlns="http://www.w3.org/2000/svg">
<g clip-path="url(#clip0_1050_5458)">
<path d="M15 30C23.2843 30 30 23.2843 30 15C30 6.71573 23.2843 0 15 0C6.71573 0 0 6.71573 0 15C0 23.2843 6.71573 30 15 30Z" fill="white"/>
<path d="M23.4412 6.32812L16.125 11.7619L17.4779 8.55607L23.4412 6.32812Z" fill="#E2761B" stroke="#E2761B" stroke-width="0.234375" stroke-linecap="round" stroke-linejoin="round"/>
<path d="M6.55176 6.32812L13.8091 11.8134L12.5223 8.55607L6.55176 6.32812Z" fill="#E4761B" stroke="#E4761B" stroke-width="0.234375" stroke-linecap="round" stroke-linejoin="round"/>
<path d="M20.8089 18.9237L18.8604 21.909L23.0295 23.0561L24.228 18.9899L20.8089 18.9237Z" fill="#E4761B" stroke="#E4761B" stroke-width="0.234375" stroke-linecap="round" stroke-linejoin="round"/>
<path d="M5.7793 18.9899L6.97047 23.0561L11.1396 21.909L9.19106 18.9237L5.7793 18.9899Z" fill="#E4761B" stroke="#E4761B" stroke-width="0.234375" stroke-linecap="round" stroke-linejoin="round"/>
<path d="M10.9044 13.8796L9.74268 15.6369L13.8824 15.8208L13.7353 11.3722L10.9044 13.8796Z" fill="#E4761B" stroke="#E4761B" stroke-width="0.234375" stroke-linecap="round" stroke-linejoin="round"/>
<path d="M19.0882 13.8796L16.2206 11.3208L16.125 15.8208L20.2574 15.6369L19.0882 13.8796Z" fill="#E4761B" stroke="#E4761B" stroke-width="0.234375" stroke-linecap="round" stroke-linejoin="round"/>
<path d="M11.1401 21.909L13.6254 20.6958L11.4784 19.0193L11.1401 21.909Z" fill="#E4761B" stroke="#E4761B" stroke-width="0.234375" stroke-linecap="round" stroke-linejoin="round"/>
<path d="M16.3677 20.6958L18.8603 21.909L18.5147 19.0193L16.3677 20.6958Z" fill="#E4761B" stroke="#E4761B" stroke-width="0.234375" stroke-linecap="round" stroke-linejoin="round"/>
<path d="M18.8603 21.909L16.3677 20.6958L16.5662 22.3208L16.5441 23.0046L18.8603 21.909Z" fill="#D7C1B3" stroke="#D7C1B3" stroke-width="0.234375" stroke-linecap="round" stroke-linejoin="round"/>
<path d="M11.1396 21.909L13.4558 23.0046L13.4411 22.3208L13.6249 20.6958L11.1396 21.909Z" fill="#D7C1B3" stroke="#D7C1B3" stroke-width="0.234375" stroke-linecap="round" stroke-linejoin="round"/>
<path d="M13.4925 17.9458L11.4189 17.3355L12.8822 16.6664L13.4925 17.9458Z" fill="#233447" stroke="#233447" stroke-width="0.234375" stroke-linecap="round" stroke-linejoin="round"/>
<path d="M16.5 17.9458L17.1103 16.6664L18.5809 17.3355L16.5 17.9458Z" fill="#233447" stroke="#233447" stroke-width="0.234375" stroke-linecap="round" stroke-linejoin="round"/>
<path d="M11.1399 21.909L11.4929 18.9237L9.19141 18.9899L11.1399 21.909Z" fill="#CD6116" stroke="#CD6116" stroke-width="0.234375" stroke-linecap="round" stroke-linejoin="round"/>
<path d="M18.5073 18.9237L18.8603 21.909L20.8088 18.9899L18.5073 18.9237Z" fill="#CD6116" stroke="#CD6116" stroke-width="0.234375" stroke-linecap="round" stroke-linejoin="round"/>
<path d="M20.2574 15.6369L16.125 15.8208L16.5074 17.9458L17.1176 16.6664L18.5882 17.3355L20.2574 15.6369Z" fill="#CD6116" stroke="#CD6116" stroke-width="0.234375" stroke-linecap="round" stroke-linejoin="round"/>
<path d="M11.4191 17.3355L12.8897 16.6664L13.4927 17.9458L13.8824 15.8208L9.74268 15.6369L11.4191 17.3355Z" fill="#CD6116" stroke="#CD6116" stroke-width="0.234375" stroke-linecap="round" stroke-linejoin="round"/>
<path d="M9.74316 15.6369L11.4785 19.0193L11.4196 17.3355L9.74316 15.6369Z" fill="#E4751F" stroke="#E4751F" stroke-width="0.234375" stroke-linecap="round" stroke-linejoin="round"/>
<path d="M18.5887 17.3355L18.5151 19.0193L20.2578 15.6369L18.5887 17.3355Z" fill="#E4751F" stroke="#E4751F" stroke-width="0.234375" stroke-linecap="round" stroke-linejoin="round"/>
<path d="M13.8829 15.8208L13.4932 17.9458L13.9785 20.4531L14.0888 17.1517L13.8829 15.8208Z" fill="#E4751F" stroke="#E4751F" stroke-width="0.234375" stroke-linecap="round" stroke-linejoin="round"/>
<path d="M16.1253 15.8208L15.9268 17.1443L16.015 20.4531L16.5076 17.9458L16.1253 15.8208Z" fill="#E4751F" stroke="#E4751F" stroke-width="0.234375" stroke-linecap="round" stroke-linejoin="round"/>
<path d="M16.5073 17.9458L16.0146 20.4531L16.3676 20.6958L18.5146 19.0193L18.5882 17.3355L16.5073 17.9458Z" fill="#F6851B" stroke="#F6851B" stroke-width="0.234375" stroke-linecap="round" stroke-linejoin="round"/>
<path d="M11.4189 17.3355L11.4778 19.0193L13.6248 20.6958L13.9778 20.4531L13.4925 17.9458L11.4189 17.3355Z" fill="#F6851B" stroke="#F6851B" stroke-width="0.234375" stroke-linecap="round" stroke-linejoin="round"/>
<path d="M16.5441 23.0046L16.5661 22.3208L16.3823 22.159H13.6102L13.4411 22.3208L13.4558 23.0046L11.1396 21.909L11.9485 22.5708L13.5882 23.7105H16.4044L18.0514 22.5708L18.8602 21.909L16.5441 23.0046Z" fill="#C0AD9E" stroke="#C0AD9E" stroke-width="0.234375" stroke-linecap="round" stroke-linejoin="round"/>
<path d="M16.3674 20.6958L16.0144 20.4531H13.9777L13.6247 20.6958L13.4409 22.3208L13.61 22.159H16.3821L16.5659 22.3208L16.3674 20.6958Z" fill="#161616" stroke="#161616" stroke-width="0.234375" stroke-linecap="round" stroke-linejoin="round"/>
<path d="M23.75 12.1149L24.375 9.11489L23.4412 6.32812L16.3677 11.5781L19.0883 13.8796L22.9339 15.0046L23.7868 14.0119L23.4191 13.7472L24.0074 13.2105L23.5515 12.8575L24.1397 12.409L23.75 12.1149Z" fill="#763D16" stroke="#763D16" stroke-width="0.234375" stroke-linecap="round" stroke-linejoin="round"/>
<path d="M5.625 9.11489L6.25 12.1149L5.85294 12.409L6.44118 12.8575L5.99265 13.2105L6.58088 13.7472L6.21324 14.0119L7.05882 15.0046L10.9044 13.8796L13.625 11.5781L6.55147 6.32812L5.625 9.11489Z" fill="#763D16" stroke="#763D16" stroke-width="0.234375" stroke-linecap="round" stroke-linejoin="round"/>
<path d="M22.9338 15.0046L19.0882 13.8796L20.2573 15.6369L18.5146 19.0193L20.8088 18.9899H24.2279L22.9338 15.0046Z" fill="#F6851B" stroke="#F6851B" stroke-width="0.234375" stroke-linecap="round" stroke-linejoin="round"/>
<path d="M10.9043 13.8796L7.05871 15.0046L5.7793 18.9899H9.19106L11.4778 19.0193L9.74253 15.6369L10.9043 13.8796Z" fill="#F6851B" stroke="#F6851B" stroke-width="0.234375" stroke-linecap="round" stroke-linejoin="round"/>
<path d="M16.1249 15.8208L16.3676 11.5781L17.4852 8.55606H12.522L13.6249 11.5781L13.8823 15.8208L13.9705 17.159L13.9779 20.4531H16.0146L16.0293 17.159L16.1249 15.8208Z" fill="#F6851B" stroke="#F6851B" stroke-width="0.234375" stroke-linecap="round" stroke-linejoin="round"/>
</g>
<defs>
<clipPath id="clip0_1050_5458">
<rect width="30" height="30" rx="5.625" fill="white"/>
</clipPath>
</defs>
</svg>
