<svg width="30" height="30" viewBox="0 0 30 30" fill="none" xmlns="http://www.w3.org/2000/svg">
<g clip-path="url(#clip0_1050_5510)">
<path d="M15 30C23.2843 30 30 23.2843 30 15C30 6.71573 23.2843 0 15 0C6.71573 0 0 6.71573 0 15C0 23.2843 6.71573 30 15 30Z" fill="url(#paint0_linear_1050_5510)"/>
<path d="M25.9181 15.2143H23.2364C23.2364 9.7887 18.7905 5.39062 13.306 5.39062C7.88931 5.39062 3.48549 9.68102 3.37773 15.0137C3.26621 20.5259 8.49395 25.3125 14.0668 25.3125H14.7678C19.681 25.3125 26.2661 21.5078 27.295 16.872C27.4851 16.0175 26.8026 15.2143 25.9181 15.2143ZM9.3208 15.456C9.3208 16.1815 8.72094 16.7749 7.98751 16.7749C7.25408 16.7749 6.65424 16.1812 6.65424 15.456V13.3222C6.65424 12.5966 7.25408 12.0033 7.98751 12.0033C8.72094 12.0033 9.3208 12.5966 9.3208 13.3222V15.456ZM13.9505 15.456C13.9505 16.1815 13.3507 16.7749 12.6173 16.7749C11.8838 16.7749 11.284 16.1812 11.284 15.456V13.3222C11.284 12.5966 11.8841 12.0033 12.6173 12.0033C13.3507 12.0033 13.9505 12.5966 13.9505 13.3222V15.456Z" fill="url(#paint1_linear_1050_5510)"/>
</g>
<defs>
<linearGradient id="paint0_linear_1050_5510" x1="15" y1="0" x2="15" y2="30" gradientUnits="userSpaceOnUse">
<stop stop-color="#534BB1"/>
<stop offset="1" stop-color="#551BF9"/>
</linearGradient>
<linearGradient id="paint1_linear_1050_5510" x1="15.3515" y1="5.39062" x2="15.3515" y2="25.3125" gradientUnits="userSpaceOnUse">
<stop stop-color="white"/>
<stop offset="1" stop-color="white" stop-opacity="0.82"/>
</linearGradient>
<clipPath id="clip0_1050_5510">
<rect width="30" height="30" fill="white"/>
</clipPath>
</defs>
</svg>
