<svg version="1.2" xmlns="http://www.w3.org/2000/svg" viewBox="0 0 1290 723" width="1290" height="723">
	<title>dashboardbg-svg</title>
	<defs>
		<linearGradient id="g1" x2="1" gradientUnits="userSpaceOnUse" gradientTransform="matrix(346.283,793.072,-977.737,426.915,45.418,5.369)">
			<stop offset="0" stop-color="#ffffff"/>
			<stop offset="1" stop-color="#999999"/>
		</linearGradient>
		<radialGradient id="g2" cx="0" cy="0" r="1" gradientUnits="userSpaceOnUse" gradientTransform="matrix(0,78.436,-78.436,0,683.237,0)">
			<stop offset="0" stop-color="#ffffff" stop-opacity="1"/>
			<stop offset="1" stop-color="#999999" stop-opacity="0"/>
		</radialGradient>
		<clipPath clipPathUnits="userSpaceOnUse" id="cp1">
			<path d="m193.99 31.91c0-11.4 0-17.1-2.29-21.43-1.84-3.49-4.7-6.34-8.19-8.19-4.32-2.29-10.02-2.29-21.42-2.29h-130.18c-11.41 0-17.11 0-21.43 2.29-3.49 1.85-6.34 4.7-8.19 8.19-2.29 4.33-2.29 10.03-2.29 21.43v13.8 0.76 625.47c0 18.25 0 27.37 3.66 34.29 2.96 5.58 7.52 10.15 13.11 13.11 6.91 3.66 16.04 3.66 34.28 3.66h1187.9c18.25 0 27.37 0 34.28-3.66 5.58-2.96 10.15-7.53 13.11-13.11 3.66-6.92 3.66-16.04 3.66-34.29v-575.17c0-18.24 0-27.37-3.66-34.29-2.96-5.58-7.53-10.15-13.11-13.11-6.91-3.66-16.03-3.66-34.28-3.66h-1023.29c-11.97 0-21.67-7.5-21.67-16.76z"/>
		</clipPath>
		<clipPath clipPathUnits="userSpaceOnUse" id="cp2">
			<path d="m193.99 31.91c0-11.4 0-17.1-2.29-21.43-1.84-3.49-4.7-6.34-8.19-8.19-4.32-2.29-10.02-2.29-21.42-2.29h-130.18c-11.41 0-17.11 0-21.43 2.29-3.49 1.85-6.34 4.7-8.19 8.19-2.29 4.33-2.29 10.03-2.29 21.43v13.8 0.76 625.47c0 18.25 0 27.37 3.66 34.29 2.96 5.58 7.52 10.15 13.11 13.11 6.91 3.66 16.04 3.66 34.28 3.66h1187.9c18.25 0 27.37 0 34.28-3.66 5.58-2.96 10.15-7.53 13.11-13.11 3.66-6.92 3.66-16.04 3.66-34.29v-575.17c0-18.24 0-27.37-3.66-34.29-2.96-5.58-7.53-10.15-13.11-13.11-6.91-3.66-16.03-3.66-34.28-3.66h-1023.29c-11.97 0-21.67-7.5-21.67-16.76z"/>
		</clipPath>
		<linearGradient id="g3" x2="1" gradientUnits="userSpaceOnUse" gradientTransform="matrix(-285.046,713.217,-950.002,-379.68,1186.407,13.147)">
			<stop offset="0" stop-color="#0b3870"/>
			<stop offset="1" stop-color="#0b3870"/>
		</linearGradient>
		<clipPath clipPathUnits="userSpaceOnUse" id="cp3">
			<path d="m193.99 31.91c0-11.4 0-17.1-2.29-21.43-1.84-3.49-4.7-6.34-8.19-8.19-4.32-2.29-10.02-2.29-21.42-2.29h-130.18c-11.41 0-17.11 0-21.43 2.29-3.49 1.85-6.34 4.7-8.19 8.19-2.29 4.33-2.29 10.03-2.29 21.43v13.8 0.76 625.47c0 18.25 0 27.37 3.66 34.29 2.96 5.58 7.52 10.15 13.11 13.11 6.91 3.66 16.04 3.66 34.28 3.66h1187.9c18.25 0 27.37 0 34.28-3.66 5.58-2.96 10.15-7.53 13.11-13.11 3.66-6.92 3.66-16.04 3.66-34.29v-575.17c0-18.24 0-27.37-3.66-34.29-2.96-5.58-7.53-10.15-13.11-13.11-6.91-3.66-16.03-3.66-34.28-3.66h-1023.29c-11.97 0-21.67-7.5-21.67-16.76z"/>
		</clipPath>
		<radialGradient id="g4" cx="0" cy="0" r="1" gradientUnits="userSpaceOnUse" gradientTransform="matrix(907.229,-439.345,439.345,907.229,.001,431.209)">
			<stop offset=".218" stop-color="#ff895b" stop-opacity="1"/>
			<stop offset="1" stop-color="#ff895b" stop-opacity="0"/>
		</radialGradient>
	</defs>
	<style>
		.s0 { opacity: .1;fill: url(#g1) } 
		.s1 { opacity: .3;fill: url(#g2) } 
		.s2 { fill: #eaeaea } 
		.s3 { fill: url(#g3) } 
		.s4 { fill: url(#g4) } 
	</style>
	<g id="Layer">
		<path id="Layer" fill-rule="evenodd" class="s0" d="m194 31.9c0-11.4 0-17.1-2.3-21.4-1.8-3.5-4.7-6.4-8.2-8.2-4.3-2.3-10-2.3-21.4-2.3h-130.2c-11.4 0-17.1 0-21.4 2.3-3.5 1.8-6.4 4.7-8.2 8.2-2.3 4.3-2.3 10-2.3 21.4v13.8 0.8 625.4c0 18.3 0 27.4 3.7 34.3 2.9 5.6 7.5 10.2 13.1 13.1 6.9 3.7 16 3.7 34.2 3.7h1188c18.2 0 27.3 0 34.2-3.7 5.6-2.9 10.2-7.5 13.1-13.1 3.7-6.9 3.7-16 3.7-34.3v-575.1c0-18.3 0-27.4-3.7-34.3-2.9-5.6-7.5-10.2-13.1-13.1-6.9-3.7-16-3.7-34.2-3.7h-1023.3c-12 0-21.7-7.5-21.7-16.7z"/>
		<path id="Layer" fill-rule="evenodd" class="s1" d="m194 31.9c0-11.4 0-17.1-2.3-21.4-1.8-3.5-4.7-6.4-8.2-8.2-4.3-2.3-10-2.3-21.4-2.3h-130.2c-11.4 0-17.1 0-21.4 2.3-3.5 1.8-6.4 4.7-8.2 8.2-2.3 4.3-2.3 10-2.3 21.4v13.8 0.8 625.4c0 18.3 0 27.4 3.7 34.3 2.9 5.6 7.5 10.2 13.1 13.1 6.9 3.7 16 3.7 34.2 3.7h1188c18.2 0 27.3 0 34.2-3.7 5.6-2.9 10.2-7.5 13.1-13.1 3.7-6.9 3.7-16 3.7-34.3v-575.1c0-18.3 0-27.4-3.7-34.3-2.9-5.6-7.5-10.2-13.1-13.1-6.9-3.7-16-3.7-34.2-3.7h-1023.3c-12 0-21.7-7.5-21.7-16.7z"/>
		<g id="Clip-Path" clip-path="url(#cp1)">
			<path id="Layer" fill-rule="evenodd" class="s2" d="m194.7 18.5c0.2 2.8 0.3 6.2 0.3 10.5h-2v2.9c0-5.7 0-9.9-0.3-13.3-0.3-3.3-0.8-5.7-1.9-7.7-1.7-3.3-4.4-6-7.7-7.7-2-1.1-4.4-1.7-7.7-1.9-3.4-0.3-7.6-0.3-13.3-0.3h-130.2c-5.7 0-9.9 0-13.3 0.3-3.3 0.2-5.7 0.8-7.7 1.9-3.3 1.7-6 4.4-7.7 7.7-1.1 2-1.7 4.4-1.9 7.7-0.3 3.4-0.3 7.6-0.3 13.3v640c0 9.2 0 16 0.4 21.3 0.5 5.4 1.4 9.3 3.1 12.6 2.9 5.4 7.3 9.8 12.7 12.7 3.3 1.7 7.2 2.6 12.5 3.1 5.4 0.4 12.2 0.4 21.3 0.4h1188c9.1 0 15.9 0 21.3-0.4 5.3-0.5 9.2-1.4 12.5-3.1 5.4-2.9 9.8-7.3 12.7-12.7 1.7-3.3 2.6-7.2 3.1-12.6 0.4-5.3 0.4-12.1 0.4-21.3v-575.1c0-9.2 0-16-0.4-21.3-0.5-5.4-1.4-9.3-3.1-12.6-2.9-5.4-7.3-9.8-12.7-12.7-3.3-1.7-7.2-2.6-12.5-3-5.4-0.5-12.2-0.5-21.3-0.5h-1023.3c-11.1 0-20.6-6.2-22.4-14.8h1.7v-2.9c0 8.4 9 15.7 20.7 15.7h1023.3c9.1 0 15.9 0 21.4 0.5 5.5 0.5 9.7 1.4 13.3 3.3 5.8 3.1 10.5 7.8 13.5 13.5 1.9 3.6 2.9 7.8 3.3 13.3 0.5 5.5 0.5 12.4 0.5 21.5v575.1c0 9.1 0 16-0.5 21.5-0.4 5.5-1.4 9.7-3.3 13.3-3 5.7-7.7 10.5-13.5 13.5-3.6 1.9-7.8 2.9-13.3 3.3-5.5 0.5-12.3 0.5-21.4 0.5h-1188c-9.1 0-15.9 0-21.4-0.5-5.5-0.4-9.7-1.4-13.3-3.3-5.8-3-10.5-7.8-13.5-13.5-1.9-3.6-2.9-7.8-3.3-13.3-0.5-5.5-0.5-12.4-0.5-21.5v-640c0-5.7 0-10 0.3-13.4 0.3-3.5 0.9-6.2 2.1-8.5 2-3.6 5-6.6 8.6-8.6 2.3-1.2 5-1.8 8.5-2.1 3.4-0.3 7.7-0.3 13.4-0.3h130.2c5.7 0 10 0 13.4 0.3 3.5 0.3 6.1 0.9 8.5 2.1 3.6 2 6.6 5 8.6 8.6 1.2 2.3 1.8 5 2.1 8.5zm-3-8l-0.9 0.4zm-8.2-8.1l-0.4 0.8zm-173.1 0l-0.4-0.8zm-8.2 8.1l-0.9-0.4zm1.4 695.7l0.9-0.4zm13.1 13.1l0.4-0.9zm1256.5 0l-0.5-0.9zm13.2-13.1l-0.9-0.4zm0-643.8l-0.9 0.5zm-13.1-13.1l-0.4 0.8z"/>
		</g>
		<g id="Clip-Path" clip-path="url(#cp2)">
			<path id="Layer" fill-rule="evenodd" class="s3" d="m194.7 18.5c0.2 2.8 0.3 6.2 0.3 10.5h-2v2.9c0-5.7 0-9.9-0.3-13.3-0.3-3.3-0.8-5.7-1.9-7.7-1.7-3.3-4.4-6-7.7-7.7-2-1.1-4.4-1.7-7.7-1.9-3.4-0.3-7.6-0.3-13.3-0.3h-130.2c-5.7 0-9.9 0-13.3 0.3-3.3 0.2-5.7 0.8-7.7 1.9-3.3 1.7-6 4.4-7.7 7.7-1.1 2-1.7 4.4-1.9 7.7-0.3 3.4-0.3 7.6-0.3 13.3v640c0 9.2 0 16 0.4 21.3 0.5 5.4 1.4 9.3 3.1 12.6 2.9 5.4 7.3 9.8 12.7 12.7 3.3 1.7 7.2 2.6 12.5 3.1 5.4 0.4 12.2 0.4 21.3 0.4h1188c9.1 0 15.9 0 21.3-0.4 5.3-0.5 9.2-1.4 12.5-3.1 5.4-2.9 9.8-7.3 12.7-12.7 1.7-3.3 2.6-7.2 3.1-12.6 0.4-5.3 0.4-12.1 0.4-21.3v-575.1c0-9.2 0-16-0.4-21.3-0.5-5.4-1.4-9.3-3.1-12.6-2.9-5.4-7.3-9.8-12.7-12.7-3.3-1.7-7.2-2.6-12.5-3-5.4-0.5-12.2-0.5-21.3-0.5h-1023.3c-11.1 0-20.6-6.2-22.4-14.8h1.7v-2.9c0 8.4 9 15.7 20.7 15.7h1023.3c9.1 0 15.9 0 21.4 0.5 5.5 0.5 9.7 1.4 13.3 3.3 5.8 3.1 10.5 7.8 13.5 13.5 1.9 3.6 2.9 7.8 3.3 13.3 0.5 5.5 0.5 12.4 0.5 21.5v575.1c0 9.1 0 16-0.5 21.5-0.4 5.5-1.4 9.7-3.3 13.3-3 5.7-7.7 10.5-13.5 13.5-3.6 1.9-7.8 2.9-13.3 3.3-5.5 0.5-12.3 0.5-21.4 0.5h-1188c-9.1 0-15.9 0-21.4-0.5-5.5-0.4-9.7-1.4-13.3-3.3-5.8-3-10.5-7.8-13.5-13.5-1.9-3.6-2.9-7.8-3.3-13.3-0.5-5.5-0.5-12.4-0.5-21.5v-640c0-5.7 0-10 0.3-13.4 0.3-3.5 0.9-6.2 2.1-8.5 2-3.6 5-6.6 8.6-8.6 2.3-1.2 5-1.8 8.5-2.1 3.4-0.3 7.7-0.3 13.4-0.3h130.2c5.7 0 10 0 13.4 0.3 3.5 0.3 6.1 0.9 8.5 2.1 3.6 2 6.6 5 8.6 8.6 1.2 2.3 1.8 5 2.1 8.5zm-3-8l-0.9 0.4zm-8.2-8.1l-0.4 0.8zm-173.1 0l-0.4-0.8zm-8.2 8.1l-0.9-0.4zm1.4 695.7l0.9-0.4zm13.1 13.1l0.4-0.9zm1256.5 0l-0.5-0.9zm13.2-13.1l-0.9-0.4zm0-643.8l-0.9 0.5zm-13.1-13.1l-0.4 0.8z"/>
		</g>
		<g id="Clip-Path" clip-path="url(#cp3)">
			<path id="Layer" fill-rule="evenodd" class="s4" d="m194.7 18.5c0.2 2.8 0.3 6.2 0.3 10.5h-2v2.9c0-5.7 0-9.9-0.3-13.3-0.3-3.3-0.8-5.7-1.9-7.7-1.7-3.3-4.4-6-7.7-7.7-2-1.1-4.4-1.7-7.7-1.9-3.4-0.3-7.6-0.3-13.3-0.3h-130.2c-5.7 0-9.9 0-13.3 0.3-3.3 0.2-5.7 0.8-7.7 1.9-3.3 1.7-6 4.4-7.7 7.7-1.1 2-1.7 4.4-1.9 7.7-0.3 3.4-0.3 7.6-0.3 13.3v640c0 9.2 0 16 0.4 21.3 0.5 5.4 1.4 9.3 3.1 12.6 2.9 5.4 7.3 9.8 12.7 12.7 3.3 1.7 7.2 2.6 12.5 3.1 5.4 0.4 12.2 0.4 21.3 0.4h1188c9.1 0 15.9 0 21.3-0.4 5.3-0.5 9.2-1.4 12.5-3.1 5.4-2.9 9.8-7.3 12.7-12.7 1.7-3.3 2.6-7.2 3.1-12.6 0.4-5.3 0.4-12.1 0.4-21.3v-575.1c0-9.2 0-16-0.4-21.3-0.5-5.4-1.4-9.3-3.1-12.6-2.9-5.4-7.3-9.8-12.7-12.7-3.3-1.7-7.2-2.6-12.5-3-5.4-0.5-12.2-0.5-21.3-0.5h-1023.3c-11.1 0-20.6-6.2-22.4-14.8h1.7v-2.9c0 8.4 9 15.7 20.7 15.7h1023.3c9.1 0 15.9 0 21.4 0.5 5.5 0.5 9.7 1.4 13.3 3.3 5.8 3.1 10.5 7.8 13.5 13.5 1.9 3.6 2.9 7.8 3.3 13.3 0.5 5.5 0.5 12.4 0.5 21.5v575.1c0 9.1 0 16-0.5 21.5-0.4 5.5-1.4 9.7-3.3 13.3-3 5.7-7.7 10.5-13.5 13.5-3.6 1.9-7.8 2.9-13.3 3.3-5.5 0.5-12.3 0.5-21.4 0.5h-1188c-9.1 0-15.9 0-21.4-0.5-5.5-0.4-9.7-1.4-13.3-3.3-5.8-3-10.5-7.8-13.5-13.5-1.9-3.6-2.9-7.8-3.3-13.3-0.5-5.5-0.5-12.4-0.5-21.5v-640c0-5.7 0-10 0.3-13.4 0.3-3.5 0.9-6.2 2.1-8.5 2-3.6 5-6.6 8.6-8.6 2.3-1.2 5-1.8 8.5-2.1 3.4-0.3 7.7-0.3 13.4-0.3h130.2c5.7 0 10 0 13.4 0.3 3.5 0.3 6.1 0.9 8.5 2.1 3.6 2 6.6 5 8.6 8.6 1.2 2.3 1.8 5 2.1 8.5zm-3-8l-0.9 0.4zm-8.2-8.1l-0.4 0.8zm-173.1 0l-0.4-0.8zm-8.2 8.1l-0.9-0.4zm1.4 695.7l0.9-0.4zm13.1 13.1l0.4-0.9zm1256.5 0l-0.5-0.9zm13.2-13.1l-0.9-0.4zm0-643.8l-0.9 0.5zm-13.1-13.1l-0.4 0.8z"/>
		</g>
	</g>
</svg>