<svg width="199" height="159" viewBox="0 0 199 159" fill="none" xmlns="http://www.w3.org/2000/svg">
<g opacity="0.1" clip-path="url(#clip0_1892_15544)">
<mask id="mask0_1892_15544" style="mask-type:luminance" maskUnits="userSpaceOnUse" x="-213" y="0" width="413" height="247">
<path d="M199.001 0H-212.723V246.037H199.001V0Z" fill="white"/>
</mask>
<g mask="url(#mask0_1892_15544)">
<path d="M203.484 133.05L188.039 125.056L203.073 117.275L203.21 117.204V101.217L203.484 101.076L203.21 100.933V84.9465L188.045 77.0984L203.085 69.3152L203.222 69.2449V52.691L187.365 60.8973L187.227 60.9682V76.6762L187.215 76.6698V92.9412L172.809 100.397C172.676 100.277 172.507 100.19 172.318 100.146V68.9639L156.872 60.9706V44.9846L142.187 37.3855C142.212 37.3038 142.23 37.2197 142.23 37.1316C142.23 37.044 142.213 36.9604 142.188 36.8796L156.736 29.3519L156.873 29.281V13.5848L171.757 21.2873V53.5433L186.713 45.8039C186.908 45.9806 187.178 46.0898 187.478 46.0898C188.073 46.0898 188.556 45.6573 188.556 45.1239C188.556 44.6761 188.214 44.3026 187.753 44.1934V13.3117L203.086 5.37654L203.223 5.30568V-11.2502L187.752 -3.24362V-3.25937L172.032 4.87561L156.312 -3.25937V13.0165L141.015 20.9325L140.878 21.0034V36.2011C140.417 36.3103 140.075 36.6838 140.075 37.1316C140.075 37.5794 140.417 37.9524 140.878 38.0621V53.2623L156.324 61.2551V76.9572L141.427 84.666V68.9614L125.981 60.9677V60.6833L125.706 60.8255L125.432 60.6838V60.9672L110.124 68.8901L109.987 68.9609V85.5163L124.942 77.777C125.137 77.9536 125.408 78.0638 125.707 78.0638C126.007 78.0638 126.278 77.9541 126.473 77.777L140.879 85.2314V117.49L156.599 109.355L171.771 117.205L186.942 125.056L172.045 132.766L171.771 132.624V132.908L171.496 133.05L171.771 133.192V149.179L187.216 157.173V172.087C186.755 172.196 186.413 172.569 186.413 173.018C186.413 173.551 186.896 173.983 187.491 173.983C188.086 173.983 188.568 173.551 188.568 173.018C188.568 172.93 188.551 172.846 188.527 172.765L203.074 165.237L203.211 165.166V148.611L187.765 156.605V141.186L203.484 133.05ZM187.777 61.2521L202.673 53.5433V68.9605L187.777 76.6693V61.2521ZM202.661 116.921L187.764 124.63V109.212L202.661 101.502V116.921ZM202.661 100.65L187.764 92.9407V77.5221L202.661 85.2319V100.65ZM187.49 93.3669L202.386 101.076L195.619 104.578L187.49 108.786L173.08 101.328C173.104 101.247 173.122 101.164 173.122 101.076C173.122 100.988 173.104 100.905 173.08 100.824L187.49 93.3669ZM171.77 85.2339V100.146C171.582 100.191 171.412 100.277 171.279 100.397L164.321 96.7966L156.873 92.9422V77.525L164.321 81.3794L171.77 85.2339ZM172.306 21.2873L187.203 13.5784V28.9961L172.306 36.705V21.2873ZM172.306 52.691V37.2738L187.203 29.565V44.1938C186.742 44.3036 186.4 44.6766 186.4 45.1244C186.4 45.212 186.418 45.2956 186.442 45.3763L172.306 52.691ZM187.777 -2.68807L202.673 -10.3974V5.02126L187.777 12.7306V-2.68807ZM187.203 13.0101L172.306 20.7189V5.30175L187.203 -2.40709V13.0101ZM156.861 -2.40709L171.757 5.30175V20.7189L156.873 13.0165V12.7262L156.861 12.7321V-2.40709H156.861ZM156.324 13.5784V28.9961L141.918 36.451C141.785 36.331 141.615 36.2454 141.428 36.2006V21.2873L156.324 13.5784ZM141.427 52.9774V38.0616C141.614 38.0173 141.783 37.9322 141.916 37.8131L156.324 45.269V60.6862L141.427 52.9774ZM171.77 69.2478V84.665L164.322 80.8106L156.873 76.9562V61.5385L171.77 69.2478ZM110.536 84.663V69.2449L125.433 61.5355V76.1669C124.972 76.2761 124.63 76.6491 124.63 77.0974C124.63 77.185 124.647 77.2676 124.671 77.3484L110.536 84.663ZM125.981 76.1669V61.536L140.878 69.2454V84.6626L126.743 77.3479C126.767 77.2677 126.784 77.1845 126.784 77.0969C126.784 76.6496 126.443 76.2761 125.981 76.1669ZM141.427 85.2339L156.324 77.525V92.9412L141.427 100.651V85.2339ZM141.427 101.219L156.324 93.5105V108.929L141.427 116.638V101.219ZM156.873 108.928V93.5105L164.321 97.365L171.008 100.825C170.984 100.906 170.966 100.989 170.966 101.076C170.966 101.524 171.308 101.897 171.769 102.007V116.637L156.873 108.928ZM172.319 102.006C172.507 101.961 172.676 101.876 172.809 101.756L187.216 109.211V124.629L172.319 116.92V102.006ZM187.215 125.482L187.49 125.34L187.764 125.483V125.482L202.386 133.05L187.49 140.759L172.593 133.05L187.215 125.482ZM172.319 133.476L187.216 141.186V156.604L172.319 148.895V133.476ZM202.661 149.463V164.881L188.254 172.336C188.121 172.216 187.952 172.131 187.765 172.087V157.172L202.661 149.463ZM111.339 53.1171C111.339 53.0295 111.322 52.9459 111.298 52.8652L125.845 45.3369L125.982 45.2661V13.3108L140.302 5.89962C140.497 6.14516 140.815 6.30607 141.177 6.30607C141.772 6.30607 142.255 5.87354 142.255 5.34013C142.255 4.89234 141.913 4.51886 141.452 4.40961V-11.2512L126.005 -3.25641V-18.9595L110.011 -27.2367V-10.6813L125.167 -2.83815L110.262 4.87561L95.8514 -2.58129C95.8755 -2.66199 95.8931 -2.74515 95.8931 -2.83323C95.8931 -3.36664 95.4106 -3.79918 94.8155 -3.79918C94.2204 -3.79918 93.7379 -3.36664 93.7379 -2.83323C93.7379 -2.38544 94.0793 -2.01196 94.541 -1.90272V12.7257L94.5405 28.9971L79.3698 36.8477L64.473 29.1383L79.507 21.3572L79.6443 21.2863V5.30027L79.9187 5.15806L79.6443 5.01585V-10.6867L94.9527 -18.6087L95.09 -18.6795V-35.2344L79.2325 -27.0276L79.0953 -26.9572V-11.2551L64.1985 -18.9644V-19.2483L63.9241 -19.1061L48.2039 -27.2421V-11.7595C48.0156 -11.7147 47.846 -11.6286 47.7126 -11.5085L33.3066 -18.9629V-35.2299L17.8609 -27.2362V-27.2396L2.00402 -19.0333L1.86679 -18.9625V-3.26084L-13.0299 -10.9697V-11.2536L-13.3044 -11.1119L-13.5789 -11.2536V-10.9697L-28.7496 -3.11962L-44.4703 -11.2541V5.01585L-59.3665 12.7247V-2.97839L-75.3611 -11.2556L-90.8068 -19.2488V-2.97741L-105.213 4.47752C-105.409 4.30136 -105.679 4.19162 -105.978 4.19162C-106.573 4.19162 -107.056 4.62416 -107.056 5.15757C-107.056 5.69098 -106.573 6.12351 -105.978 6.12351C-105.679 6.12351 -105.408 6.01378 -105.213 5.83762L-90.8068 13.293V29.5645L-74.9494 21.3572L-74.8122 21.2863V5.58371L-59.9154 13.2925V29.5625L-44.9605 21.8232C-44.8277 21.9432 -44.658 22.0293 -44.4703 22.0736V37.2713L-28.4751 45.548V29.5625L-13.0294 37.5558V21.0009L-28.2001 13.1503L-13.305 5.44199L2.41576 13.5779V-2.6925L17.3125 -10.4013V21.0048L2.00402 28.9272L1.86679 28.9981V45.5539L16.8223 37.8141C17.0177 37.9908 17.2878 38.1 17.587 38.1C18.1821 38.1 18.6646 37.6675 18.6646 37.134C18.6646 36.6863 18.3226 36.3133 17.8615 36.2035V21.2878L33.1699 13.3649L33.3071 13.294V-2.40857L48.2044 5.30027V20.2151C47.7433 20.3243 47.4013 20.6973 47.4013 21.1456C47.4013 21.2332 47.4189 21.3163 47.443 21.3975L32.896 28.9258L32.7587 28.9961V45.5505L48.4789 37.4155L63.9252 45.4093L79.3709 37.416L94.8166 45.4093L109.988 37.5582V52.1871C109.527 52.2963 109.185 52.6693 109.185 53.1176C109.185 53.651 109.668 54.0836 110.263 54.0836C110.857 54.0831 111.339 53.6505 111.339 53.1171ZM125.432 44.9822L111.026 52.4371C110.893 52.317 110.724 52.2314 110.536 52.1866V37.2738L110.81 37.1316L125.432 29.5645V44.9822ZM95.09 13.5784L109.987 21.2873V36.7055L95.09 28.9961V13.5784ZM110.536 21.2873L125.433 13.5784V28.9961L110.536 36.705V21.2873ZM125.432 13.0101L110.536 20.7189V5.30175L125.432 -2.40709V13.0101ZM140.902 -10.3974V4.41109C140.441 4.52033 140.1 4.89332 140.1 5.34111C140.1 5.37211 140.107 5.40115 140.11 5.43165L126.006 12.7306V-2.68807L140.902 -10.3974ZM110.56 -26.3844L125.457 -18.6751V-3.2569L110.56 -10.9662V-26.3844ZM95.0905 -1.90272C95.2782 -1.9475 95.4479 -2.03312 95.5807 -2.15318L109.987 5.30224V20.7189L95.0905 13.0101V-1.90272ZM63.9246 12.8674L49.0279 5.15806L55.795 1.65596L63.9241 -2.55127L78.8208 5.15806L72.0537 8.66016L63.9246 12.8674ZM48.7534 -9.89844C48.9411 -9.94322 49.1102 -10.0288 49.2436 -10.1489L63.3757 -2.83569L48.7534 4.73192V-9.89844ZM63.6496 -3.26134L49.5143 -10.5765C49.5384 -10.6572 49.556 -10.7409 49.556 -10.8285C49.556 -10.916 49.5384 -10.9992 49.5143 -11.0799L63.6496 -18.3951V-3.26134ZM63.6496 13.2935V28.7122L49.5143 21.3965C49.5384 21.3158 49.556 21.2327 49.556 21.1456C49.556 20.6978 49.2145 20.3248 48.7529 20.2151V5.58419L63.6496 13.2935ZM48.7534 22.0756C48.9417 22.0308 49.1108 21.9452 49.2442 21.8246L63.3757 29.1383L48.7534 36.7055V22.0756ZM79.0953 21.0024L64.1985 28.7122V13.2935L79.0953 5.58419V21.0024ZM79.6443 -26.6723L94.541 -34.3811V-18.9634L79.6443 -11.2546V-26.6723ZM79.0953 -10.6863V4.73192L64.1985 -2.97741V-18.3956L79.0953 -10.6863ZM63.3751 -18.8217L49.2436 -11.508C49.1108 -11.6286 48.9411 -11.7142 48.7529 -11.759V-26.3893L63.3751 -18.8217ZM32.7582 -34.3772V-18.9625L17.8615 -11.2536V-26.6678L32.7582 -34.3772ZM-13.5783 -10.4018V5.01536L-28.4751 12.7242V-2.69299L-13.5783 -10.4018ZM-43.9213 -10.4018L-29.0241 -2.69299V12.7242L-36.4724 8.86978L-43.9208 5.01536V-10.4018H-43.9213ZM-29.0241 28.7097L-36.4724 24.8553L-43.1594 21.395C-43.1347 21.3143 -43.1176 21.2312 -43.1176 21.1431C-43.1176 20.6953 -43.4596 20.3218 -43.9208 20.2126V5.58321L-36.4724 9.43763L-29.0241 13.2921V28.7097ZM-59.9154 12.7242L-74.8122 5.01487V-10.4033L-59.9154 -2.69397V12.7242ZM-90.2579 -18.3966L-75.3611 -10.6867V4.73143L-90.2579 -2.97791V-18.3966ZM-104.942 4.90563L-90.5323 -2.55177L-75.6356 5.15757L-82.4027 8.65966L-90.5323 12.8669L-104.942 5.40951C-104.918 5.32881 -104.9 5.24516 -104.9 5.15757C-104.9 5.06998 -104.918 4.98633 -104.942 4.90563ZM-75.3611 21.0019L-90.2579 28.7117V13.293L-75.3611 5.58371V21.0019ZM-59.3665 28.7097V13.2925L-44.4697 5.58371V20.2131C-44.9309 20.3223 -45.2729 20.6958 -45.2729 21.1436C-45.2729 21.2312 -45.2553 21.3143 -45.2312 21.3955L-59.3665 28.7097ZM-29.0241 44.6963L-43.9213 36.9874V22.0741C-43.733 22.0298 -43.564 21.9437 -43.4306 21.8236L-36.4724 25.4241L-29.0241 29.2786V44.6963ZM-13.5783 36.7035L-28.4751 28.9942V13.5765L-13.5783 21.2853V36.7035ZM1.86679 12.7257L-13.0299 5.01634V-10.4018L1.86679 -2.6925V12.7257ZM2.41576 -3.26084V-18.678L17.3125 -26.3869V-10.9697L2.41576 -3.26084ZM32.7582 -18.3912V-2.97692L17.8615 4.73192V-10.6823L32.7582 -18.3912ZM2.41576 44.7007V29.282L17.3125 21.5727V36.203C16.8514 36.3123 16.5094 36.6853 16.5094 37.1336C16.5094 37.2216 16.5269 37.3048 16.5511 37.3855L2.41576 44.7007ZM32.7582 13.0096L17.8615 20.7194V5.30076L32.7582 -2.40857V13.0096ZM33.3071 -18.3941L47.4425 -11.0794C47.4183 -10.9987 47.4007 -10.9156 47.4007 -10.8285C47.4007 -10.3807 47.7428 -10.0072 48.2039 -9.89795V4.73192L33.3071 -2.97692V-18.3941ZM33.3071 29.281L47.7137 21.8256C47.8465 21.9457 48.0161 22.0313 48.2039 22.0761V36.9894L33.3066 44.6982V29.281H33.3071ZM63.9241 44.8414L49.0273 37.1321L63.6496 29.565L63.9241 29.4228L64.1985 29.565L78.8208 37.1321L63.9241 44.8414ZM79.9187 37.1321L94.8149 29.4228L109.712 37.1321L94.8149 44.8414L79.9187 37.1321Z" fill="white"/>
</g>
</g>
<defs>
<clipPath id="clip0_1892_15544">
<rect width="199" height="158.514" fill="white"/>
</clipPath>
</defs>
</svg>
