<svg width="18" height="19" viewBox="0 0 18 19" fill="none" xmlns="http://www.w3.org/2000/svg">
<path d="M4.15201 14.3476L13.484 5.25793M13.484 5.25793V9.12207M13.484 5.25793H9.49966" stroke="white" stroke-width="1.7" stroke-linecap="round" stroke-linejoin="round"/>
<path d="M7.78786 14.4688H14.5748C15.9135 14.4688 16.9987 13.3835 16.9987 12.0448V4.04597C16.9987 2.70729 15.9135 1.62207 14.5748 1.62207H6.57591C5.23723 1.62207 4.15201 2.70729 4.15201 4.04597V10.1057" stroke="white" stroke-width="1.7" stroke-linecap="round"/>
<path d="M4.27227 4.53076H3.4239C2.08522 4.53076 0.999999 5.61598 0.999999 6.95466V14.9535C0.999999 16.2922 2.08522 17.3774 3.4239 17.3774H11.4228C12.7615 17.3774 13.8467 16.2922 13.8467 14.9535V14.4688" stroke="white" stroke-width="1.7"/>
</svg>
