<svg xmlns="http://www.w3.org/2000/svg" width="1310" height="734" viewBox="0 0 1310 734" fill="none">
  <g filter="url(#filter0_bi_1516_10516)">
    <mask id="path-1-inside-1_1516_10516" fill="white">
      <path fill-rule="evenodd" clip-rule="evenodd" d="M197 32.4C197 20.8213 197 15.032 194.675 10.6414C192.799 7.09825 189.902 4.20069 186.359 2.32469C181.968 0 176.179 0 164.6 0H32.4C20.8213 0 15.032 0 10.6414 2.32469C7.09825 4.20069 4.20069 7.09825 2.32469 10.6414C0 15.032 0 20.8213 0 32.4V46.4063V47.1802V682.16C0 700.686 0 709.949 3.7195 716.974C6.7211 722.643 11.3572 727.279 17.0262 730.281C24.0512 734 33.3141 734 51.84 734H1258.16C1276.69 734 1285.95 734 1292.97 730.281C1298.64 727.279 1303.28 722.643 1306.28 716.974C1310 709.949 1310 700.686 1310 682.16V98.2463C1310 79.7204 1310 70.4575 1306.28 63.4326C1303.28 57.7635 1298.64 53.1274 1292.97 50.1258C1285.95 46.4063 1276.69 46.4063 1258.16 46.4063H219C206.85 46.4063 197 38.7881 197 29.3905V32.4Z"/>
    </mask>
    <path fill-rule="evenodd" clip-rule="evenodd" d="M197 32.4C197 20.8213 197 15.032 194.675 10.6414C192.799 7.09825 189.902 4.20069 186.359 2.32469C181.968 0 176.179 0 164.6 0H32.4C20.8213 0 15.032 0 10.6414 2.32469C7.09825 4.20069 4.20069 7.09825 2.32469 10.6414C0 15.032 0 20.8213 0 32.4V46.4063V47.1802V682.16C0 700.686 0 709.949 3.7195 716.974C6.7211 722.643 11.3572 727.279 17.0262 730.281C24.0512 734 33.3141 734 51.84 734H1258.16C1276.69 734 1285.95 734 1292.97 730.281C1298.64 727.279 1303.28 722.643 1306.28 716.974C1310 709.949 1310 700.686 1310 682.16V98.2463C1310 79.7204 1310 70.4575 1306.28 63.4326C1303.28 57.7635 1298.64 53.1274 1292.97 50.1258C1285.95 46.4063 1276.69 46.4063 1258.16 46.4063H219C206.85 46.4063 197 38.7881 197 29.3905V32.4Z" fill="url(#paint0_linear_1516_10516)" fill-opacity="0.15"/>
    <path fill-rule="evenodd" clip-rule="evenodd" d="M197 32.4C197 20.8213 197 15.032 194.675 10.6414C192.799 7.09825 189.902 4.20069 186.359 2.32469C181.968 0 176.179 0 164.6 0H32.4C20.8213 0 15.032 0 10.6414 2.32469C7.09825 4.20069 4.20069 7.09825 2.32469 10.6414C0 15.032 0 20.8213 0 32.4V46.4063V47.1802V682.16C0 700.686 0 709.949 3.7195 716.974C6.7211 722.643 11.3572 727.279 17.0262 730.281C24.0512 734 33.3141 734 51.84 734H1258.16C1276.69 734 1285.95 734 1292.97 730.281C1298.64 727.279 1303.28 722.643 1306.28 716.974C1310 709.949 1310 700.686 1310 682.16V98.2463C1310 79.7204 1310 70.4575 1306.28 63.4326C1303.28 57.7635 1298.64 53.1274 1292.97 50.1258C1285.95 46.4063 1276.69 46.4063 1258.16 46.4063H219C206.85 46.4063 197 38.7881 197 29.3905V32.4Z" fill="url(#paint1_radial_1516_10516)" fill-opacity="0.3"/>
    <path d="M194.675 10.6414L193.792 11.1093L193.792 11.1093L194.675 10.6414ZM186.359 2.32469L185.891 3.20845V3.20845L186.359 2.32469ZM10.6414 2.32469L10.1735 1.44092L10.6414 2.32469ZM2.32469 10.6414L1.44092 10.1735L2.32469 10.6414ZM3.7195 716.974L4.60327 716.506H4.60327L3.7195 716.974ZM17.0262 730.281L17.4942 729.397L17.0262 730.281ZM1292.97 730.281L1292.51 729.397L1292.97 730.281ZM1306.28 716.974L1305.4 716.506L1306.28 716.974ZM1306.28 63.4326L1305.4 63.9005V63.9005L1306.28 63.4326ZM1292.97 50.1258L1292.51 51.0096L1292.97 50.1258ZM193.792 11.1093C194.865 13.1361 195.428 15.5298 195.713 18.9092C195.999 22.3009 196 26.5936 196 32.4H198C198 26.6277 198.001 22.2364 197.706 18.7411C197.41 15.2335 196.811 12.5373 195.559 10.1735L193.792 11.1093ZM185.891 3.20845C189.257 4.99066 192.009 7.74334 193.792 11.1093L195.559 10.1735C193.589 6.45316 190.547 3.41072 186.827 1.44092L185.891 3.20845ZM164.6 1C170.406 1 174.699 1.00083 178.091 1.28704C181.47 1.57222 183.864 2.13535 185.891 3.20845L186.827 1.44092C184.463 0.189332 181.766 -0.409879 178.259 -0.705872C174.764 -1.00083 170.372 -1 164.6 -1V1ZM32.4 1H164.6V-1H32.4V1ZM11.1093 3.20845C13.1361 2.13535 15.5298 1.57222 18.9092 1.28704C22.3009 1.00083 26.5936 1 32.4 1V-1C26.6277 -1 22.2364 -1.00083 18.7411 -0.705872C15.2335 -0.409879 12.5373 0.189333 10.1735 1.44092L11.1093 3.20845ZM3.20845 11.1093C4.99066 7.74334 7.74334 4.99066 11.1093 3.20845L10.1735 1.44092C6.45316 3.41072 3.41072 6.45316 1.44092 10.1735L3.20845 11.1093ZM1 32.4C1 26.5936 1.00083 22.3009 1.28704 18.9092C1.57222 15.5298 2.13535 13.1361 3.20845 11.1093L1.44092 10.1735C0.189333 12.5373 -0.409879 15.2335 -0.705872 18.7411C-1.00083 22.2364 -1 26.6277 -1 32.4H1ZM1 46.4063V32.4H-1V46.4063H1ZM1 47.1802V46.4063H-1V47.1802H1ZM1 682.16V47.1802H-1V682.16H1ZM4.60327 716.506C2.83276 713.162 1.92093 709.241 1.4614 703.796C1.00083 698.338 1 691.44 1 682.16H-1C-1 691.406 -1.00083 698.402 -0.531521 703.964C-0.0611763 709.538 0.886739 713.761 2.83573 717.442L4.60327 716.506ZM17.4942 729.397C12.0023 726.489 7.51107 721.998 4.60327 716.506L2.83573 717.442C5.93114 723.288 10.7121 728.069 16.5583 731.164L17.4942 729.397ZM51.84 733C42.56 733 35.6621 732.999 30.2043 732.539C24.7588 732.079 20.8381 731.167 17.4942 729.397L16.5583 731.164C20.2393 733.113 24.4625 734.061 30.0362 734.531C35.5976 735.001 42.5941 735 51.84 735V733ZM1258.16 733H51.84V735H1258.16V733ZM1292.51 729.397C1289.16 731.167 1285.24 732.079 1279.8 732.539C1274.34 732.999 1267.44 733 1258.16 733V735C1267.41 735 1274.4 735.001 1279.96 734.531C1285.54 734.061 1289.76 733.113 1293.44 731.164L1292.51 729.397ZM1305.4 716.506C1302.49 721.998 1298 726.489 1292.51 729.397L1293.44 731.164C1299.29 728.069 1304.07 723.288 1307.16 717.442L1305.4 716.506ZM1309 682.16C1309 691.44 1309 698.338 1308.54 703.796C1308.08 709.241 1307.17 713.162 1305.4 716.506L1307.16 717.442C1309.11 713.761 1310.06 709.537 1310.53 703.964C1311 698.402 1311 691.406 1311 682.16H1309ZM1309 98.2463V682.16H1311V98.2463H1309ZM1305.4 63.9005C1307.17 67.2444 1308.08 71.1651 1308.54 76.6107C1309 82.0685 1309 88.9663 1309 98.2463H1311C1311 89.0005 1311 82.0039 1310.53 76.4425C1310.06 70.8688 1309.11 66.6456 1307.16 62.9646L1305.4 63.9005ZM1292.51 51.0096C1298 53.9174 1302.49 58.4086 1305.4 63.9005L1307.16 62.9646C1304.07 57.1184 1299.29 52.3375 1293.44 49.2421L1292.51 51.0096ZM1258.16 47.4063C1267.44 47.4063 1274.34 47.4072 1279.8 47.8677C1285.24 48.3272 1289.16 49.2391 1292.51 51.0096L1293.44 49.2421C1289.76 47.2931 1285.54 46.3451 1279.96 45.8748C1274.4 45.4055 1267.41 45.4063 1258.16 45.4063V47.4063ZM219 47.4063H1258.16V45.4063H219V47.4063ZM196 29.3905C196 39.5641 206.552 47.4063 219 47.4063V45.4063C207.148 45.4063 198 38.0121 198 29.3905H196ZM198 32.4V29.3905H196V32.4H198Z" fill="#EAEAEA" mask="url(#path-1-inside-1_1516_10516)"/>
    <path d="M194.675 10.6414L193.792 11.1093L193.792 11.1093L194.675 10.6414ZM186.359 2.32469L185.891 3.20845V3.20845L186.359 2.32469ZM10.6414 2.32469L10.1735 1.44092L10.6414 2.32469ZM2.32469 10.6414L1.44092 10.1735L2.32469 10.6414ZM3.7195 716.974L4.60327 716.506H4.60327L3.7195 716.974ZM17.0262 730.281L17.4942 729.397L17.0262 730.281ZM1292.97 730.281L1292.51 729.397L1292.97 730.281ZM1306.28 716.974L1305.4 716.506L1306.28 716.974ZM1306.28 63.4326L1305.4 63.9005V63.9005L1306.28 63.4326ZM1292.97 50.1258L1292.51 51.0096L1292.97 50.1258ZM193.792 11.1093C194.865 13.1361 195.428 15.5298 195.713 18.9092C195.999 22.3009 196 26.5936 196 32.4H198C198 26.6277 198.001 22.2364 197.706 18.7411C197.41 15.2335 196.811 12.5373 195.559 10.1735L193.792 11.1093ZM185.891 3.20845C189.257 4.99066 192.009 7.74334 193.792 11.1093L195.559 10.1735C193.589 6.45316 190.547 3.41072 186.827 1.44092L185.891 3.20845ZM164.6 1C170.406 1 174.699 1.00083 178.091 1.28704C181.47 1.57222 183.864 2.13535 185.891 3.20845L186.827 1.44092C184.463 0.189332 181.766 -0.409879 178.259 -0.705872C174.764 -1.00083 170.372 -1 164.6 -1V1ZM32.4 1H164.6V-1H32.4V1ZM11.1093 3.20845C13.1361 2.13535 15.5298 1.57222 18.9092 1.28704C22.3009 1.00083 26.5936 1 32.4 1V-1C26.6277 -1 22.2364 -1.00083 18.7411 -0.705872C15.2335 -0.409879 12.5373 0.189333 10.1735 1.44092L11.1093 3.20845ZM3.20845 11.1093C4.99066 7.74334 7.74334 4.99066 11.1093 3.20845L10.1735 1.44092C6.45316 3.41072 3.41072 6.45316 1.44092 10.1735L3.20845 11.1093ZM1 32.4C1 26.5936 1.00083 22.3009 1.28704 18.9092C1.57222 15.5298 2.13535 13.1361 3.20845 11.1093L1.44092 10.1735C0.189333 12.5373 -0.409879 15.2335 -0.705872 18.7411C-1.00083 22.2364 -1 26.6277 -1 32.4H1ZM1 46.4063V32.4H-1V46.4063H1ZM1 47.1802V46.4063H-1V47.1802H1ZM1 682.16V47.1802H-1V682.16H1ZM4.60327 716.506C2.83276 713.162 1.92093 709.241 1.4614 703.796C1.00083 698.338 1 691.44 1 682.16H-1C-1 691.406 -1.00083 698.402 -0.531521 703.964C-0.0611763 709.538 0.886739 713.761 2.83573 717.442L4.60327 716.506ZM17.4942 729.397C12.0023 726.489 7.51107 721.998 4.60327 716.506L2.83573 717.442C5.93114 723.288 10.7121 728.069 16.5583 731.164L17.4942 729.397ZM51.84 733C42.56 733 35.6621 732.999 30.2043 732.539C24.7588 732.079 20.8381 731.167 17.4942 729.397L16.5583 731.164C20.2393 733.113 24.4625 734.061 30.0362 734.531C35.5976 735.001 42.5941 735 51.84 735V733ZM1258.16 733H51.84V735H1258.16V733ZM1292.51 729.397C1289.16 731.167 1285.24 732.079 1279.8 732.539C1274.34 732.999 1267.44 733 1258.16 733V735C1267.41 735 1274.4 735.001 1279.96 734.531C1285.54 734.061 1289.76 733.113 1293.44 731.164L1292.51 729.397ZM1305.4 716.506C1302.49 721.998 1298 726.489 1292.51 729.397L1293.44 731.164C1299.29 728.069 1304.07 723.288 1307.16 717.442L1305.4 716.506ZM1309 682.16C1309 691.44 1309 698.338 1308.54 703.796C1308.08 709.241 1307.17 713.162 1305.4 716.506L1307.16 717.442C1309.11 713.761 1310.06 709.537 1310.53 703.964C1311 698.402 1311 691.406 1311 682.16H1309ZM1309 98.2463V682.16H1311V98.2463H1309ZM1305.4 63.9005C1307.17 67.2444 1308.08 71.1651 1308.54 76.6107C1309 82.0685 1309 88.9663 1309 98.2463H1311C1311 89.0005 1311 82.0039 1310.53 76.4425C1310.06 70.8688 1309.11 66.6456 1307.16 62.9646L1305.4 63.9005ZM1292.51 51.0096C1298 53.9174 1302.49 58.4086 1305.4 63.9005L1307.16 62.9646C1304.07 57.1184 1299.29 52.3375 1293.44 49.2421L1292.51 51.0096ZM1258.16 47.4063C1267.44 47.4063 1274.34 47.4072 1279.8 47.8677C1285.24 48.3272 1289.16 49.2391 1292.51 51.0096L1293.44 49.2421C1289.76 47.2931 1285.54 46.3451 1279.96 45.8748C1274.4 45.4055 1267.41 45.4063 1258.16 45.4063V47.4063ZM219 47.4063H1258.16V45.4063H219V47.4063ZM196 29.3905C196 39.5641 206.552 47.4063 219 47.4063V45.4063C207.148 45.4063 198 38.0121 198 29.3905H196ZM198 32.4V29.3905H196V32.4H198Z" fill="url(#paint2_linear_1516_10516)" mask="url(#path-1-inside-1_1516_10516)"/>
    <path d="M194.675 10.6414L193.792 11.1093L193.792 11.1093L194.675 10.6414ZM186.359 2.32469L185.891 3.20845V3.20845L186.359 2.32469ZM10.6414 2.32469L10.1735 1.44092L10.6414 2.32469ZM2.32469 10.6414L1.44092 10.1735L2.32469 10.6414ZM3.7195 716.974L4.60327 716.506H4.60327L3.7195 716.974ZM17.0262 730.281L17.4942 729.397L17.0262 730.281ZM1292.97 730.281L1292.51 729.397L1292.97 730.281ZM1306.28 716.974L1305.4 716.506L1306.28 716.974ZM1306.28 63.4326L1305.4 63.9005V63.9005L1306.28 63.4326ZM1292.97 50.1258L1292.51 51.0096L1292.97 50.1258ZM193.792 11.1093C194.865 13.1361 195.428 15.5298 195.713 18.9092C195.999 22.3009 196 26.5936 196 32.4H198C198 26.6277 198.001 22.2364 197.706 18.7411C197.41 15.2335 196.811 12.5373 195.559 10.1735L193.792 11.1093ZM185.891 3.20845C189.257 4.99066 192.009 7.74334 193.792 11.1093L195.559 10.1735C193.589 6.45316 190.547 3.41072 186.827 1.44092L185.891 3.20845ZM164.6 1C170.406 1 174.699 1.00083 178.091 1.28704C181.47 1.57222 183.864 2.13535 185.891 3.20845L186.827 1.44092C184.463 0.189332 181.766 -0.409879 178.259 -0.705872C174.764 -1.00083 170.372 -1 164.6 -1V1ZM32.4 1H164.6V-1H32.4V1ZM11.1093 3.20845C13.1361 2.13535 15.5298 1.57222 18.9092 1.28704C22.3009 1.00083 26.5936 1 32.4 1V-1C26.6277 -1 22.2364 -1.00083 18.7411 -0.705872C15.2335 -0.409879 12.5373 0.189333 10.1735 1.44092L11.1093 3.20845ZM3.20845 11.1093C4.99066 7.74334 7.74334 4.99066 11.1093 3.20845L10.1735 1.44092C6.45316 3.41072 3.41072 6.45316 1.44092 10.1735L3.20845 11.1093ZM1 32.4C1 26.5936 1.00083 22.3009 1.28704 18.9092C1.57222 15.5298 2.13535 13.1361 3.20845 11.1093L1.44092 10.1735C0.189333 12.5373 -0.409879 15.2335 -0.705872 18.7411C-1.00083 22.2364 -1 26.6277 -1 32.4H1ZM1 46.4063V32.4H-1V46.4063H1ZM1 47.1802V46.4063H-1V47.1802H1ZM1 682.16V47.1802H-1V682.16H1ZM4.60327 716.506C2.83276 713.162 1.92093 709.241 1.4614 703.796C1.00083 698.338 1 691.44 1 682.16H-1C-1 691.406 -1.00083 698.402 -0.531521 703.964C-0.0611763 709.538 0.886739 713.761 2.83573 717.442L4.60327 716.506ZM17.4942 729.397C12.0023 726.489 7.51107 721.998 4.60327 716.506L2.83573 717.442C5.93114 723.288 10.7121 728.069 16.5583 731.164L17.4942 729.397ZM51.84 733C42.56 733 35.6621 732.999 30.2043 732.539C24.7588 732.079 20.8381 731.167 17.4942 729.397L16.5583 731.164C20.2393 733.113 24.4625 734.061 30.0362 734.531C35.5976 735.001 42.5941 735 51.84 735V733ZM1258.16 733H51.84V735H1258.16V733ZM1292.51 729.397C1289.16 731.167 1285.24 732.079 1279.8 732.539C1274.34 732.999 1267.44 733 1258.16 733V735C1267.41 735 1274.4 735.001 1279.96 734.531C1285.54 734.061 1289.76 733.113 1293.44 731.164L1292.51 729.397ZM1305.4 716.506C1302.49 721.998 1298 726.489 1292.51 729.397L1293.44 731.164C1299.29 728.069 1304.07 723.288 1307.16 717.442L1305.4 716.506ZM1309 682.16C1309 691.44 1309 698.338 1308.54 703.796C1308.08 709.241 1307.17 713.162 1305.4 716.506L1307.16 717.442C1309.11 713.761 1310.06 709.537 1310.53 703.964C1311 698.402 1311 691.406 1311 682.16H1309ZM1309 98.2463V682.16H1311V98.2463H1309ZM1305.4 63.9005C1307.17 67.2444 1308.08 71.1651 1308.54 76.6107C1309 82.0685 1309 88.9663 1309 98.2463H1311C1311 89.0005 1311 82.0039 1310.53 76.4425C1310.06 70.8688 1309.11 66.6456 1307.16 62.9646L1305.4 63.9005ZM1292.51 51.0096C1298 53.9174 1302.49 58.4086 1305.4 63.9005L1307.16 62.9646C1304.07 57.1184 1299.29 52.3375 1293.44 49.2421L1292.51 51.0096ZM1258.16 47.4063C1267.44 47.4063 1274.34 47.4072 1279.8 47.8677C1285.24 48.3272 1289.16 49.2391 1292.51 51.0096L1293.44 49.2421C1289.76 47.2931 1285.54 46.3451 1279.96 45.8748C1274.4 45.4055 1267.41 45.4063 1258.16 45.4063V47.4063ZM219 47.4063H1258.16V45.4063H219V47.4063ZM196 29.3905C196 39.5641 206.552 47.4063 219 47.4063V45.4063C207.148 45.4063 198 38.0121 198 29.3905H196ZM198 32.4V29.3905H196V32.4H198Z" fill="url(#paint3_radial_1516_10516)" mask="url(#path-1-inside-1_1516_10516)"/>
  </g>
  <defs>
    <filter id="filter0_bi_1516_10516" x="-50" y="-50" width="1410" height="834" filterUnits="userSpaceOnUse" color-interpolation-filters="sRGB">
      <feFlood flood-opacity="0" result="BackgroundImageFix"/>
      <feGaussianBlur in="BackgroundImageFix" stdDeviation="25"/>
      <feComposite in2="SourceAlpha" operator="in" result="effect1_backgroundBlur_1516_10516"/>
      <feBlend mode="normal" in="SourceGraphic" in2="effect1_backgroundBlur_1516_10516" result="shape"/>
      <feColorMatrix in="SourceAlpha" type="matrix" values="0 0 0 0 0 0 0 0 0 0 0 0 0 0 0 0 0 0 127 0" result="hardAlpha"/>
      <feOffset dy="3"/>
      <feGaussianBlur stdDeviation="2"/>
      <feComposite in2="hardAlpha" operator="arithmetic" k2="-1" k3="1"/>
      <feColorMatrix type="matrix" values="0 0 0 0 0.162276 0 0 0 0 0.498862 0 0 0 0 0.917724 0 0 0 0.15 0"/>
      <feBlend mode="normal" in2="shape" result="effect2_innerShadow_1516_10516"/>
    </filter>
    <linearGradient id="paint0_linear_1516_10516" x1="46.1721" y1="5.45116" x2="397.724" y2="810.589" gradientUnits="userSpaceOnUse">
      <stop stop-color="white"/>
      <stop offset="1" stop-color="#999999"/>
    </linearGradient>
    <radialGradient id="paint1_radial_1516_10516" cx="0" cy="0" r="1" gradientUnits="userSpaceOnUse" gradientTransform="translate(693.83 9.01847e-06) rotate(90) scale(79.6289 801.73)">
      <stop stop-color="white"/>
      <stop offset="1" stop-color="#999999" stop-opacity="0"/>
    </radialGradient>
    <linearGradient id="paint2_linear_1516_10516" x1="1204.76" y1="13.3467" x2="915.377" y2="737.415" gradientUnits="userSpaceOnUse">
      <stop stop-color="#0B3870"/>
      <stop offset="1" stop-color="#0B3870"/>
    </linearGradient>
    <radialGradient id="paint3_radial_1516_10516" cx="0" cy="0" r="1" gradientUnits="userSpaceOnUse" gradientTransform="translate(0.00123369 437.77) rotate(-25.8396) scale(1023.64 1366.69)">
      <stop offset="0.218187" stop-color="#FF895B"/>
      <stop offset="1" stop-color="#FF895B" stop-opacity="0"/>
    </radialGradient>
  </defs>
</svg>