<svg width="20" height="20" viewBox="0 0 20 20" fill="none" xmlns="http://www.w3.org/2000/svg">
<path d="M3.87371 2.75C3.87371 2.6875 3.87371 2.625 3.87371 2.5625C3.87371 2.25 4.15496 1.9375 4.49871 1.9375C4.84246 1.9375 5.12371 2.21875 5.12371 2.5625V2.75H12.8425V2.71875C12.8425 2.65625 12.8425 2.59375 12.8425 2.53125C12.8425 2.21875 13.1237 1.90625 13.4675 1.90625C13.8112 1.90625 14.0925 2.1875 14.0925 2.53125V2.78125C15.53 2.78125 16.7175 3.96875 16.7175 5.40625V7.8125C16.7487 7.90625 16.78 7.96875 16.78 8.0625C16.9675 9.40625 17.28 10.75 17.7175 12.0313C17.9362 12.625 18.1862 13.25 18.4675 13.8125C18.7175 14.3438 18.6862 14.9375 18.3737 15.4063C18.0612 15.875 17.5612 16.1563 16.9987 16.1563H16.655C16.3737 17.3125 15.3425 18.9896 14.0925 18.9896H3.96746C2.52996 18.9896 1.34246 17.8021 1.34246 16.3646V5.375C1.34246 3.9375 2.46746 2.8125 3.87371 2.75ZM14.1237 4V4.125C14.1237 4.4375 13.8425 4.75 13.4987 4.75C13.155 4.75 12.8737 4.46875 12.8737 4.125C12.8737 4.09375 12.8737 4.03125 12.8737 4H5.12371V4.1875C5.12371 4.5 4.84246 4.8125 4.49871 4.8125C4.15496 4.8125 3.87371 4.53125 3.87371 4.1875C3.87371 4.125 3.87371 4.0625 3.87371 4C3.15496 4.0625 2.59246 4.65625 2.59246 5.375V6.875C2.62371 6.875 2.68621 6.875 2.71746 6.875H15.4987V5.375C15.4987 4.59375 14.8737 4 14.1237 4ZM17.3425 14.7188C17.405 14.5938 17.4362 14.4688 17.3737 14.3438C17.0925 13.7188 16.8112 13.0938 16.5925 12.4375C16.1237 11.0625 15.78 9.65625 15.5925 8.21875C15.5925 8.1875 15.5612 8.15625 15.53 8.15625H2.74871C2.74871 8.15625 2.71746 8.15625 2.68621 8.1875C2.68621 8.1875 2.65496 8.21875 2.65496 8.25C2.81121 9.65625 3.12371 11.0313 3.56121 12.3438C3.77996 13 4.06121 13.6563 4.37371 14.3125C4.56121 14.6875 4.96746 14.9375 5.40496 14.9375H16.9987C17.155 14.875 17.28 14.8125 17.3425 14.7188ZM3.96746 17.7083H14.1237C14.655 17.7083 15.0925 16.5625 15.3425 16.125H5.43621C4.52996 16.125 3.68621 15.5938 3.27996 14.7813C3.02996 14.2813 2.81121 13.75 2.62371 13.2188V16.3333C2.59246 17.0833 3.21746 17.7083 3.96746 17.7083Z" fill="white"/>
<path d="M13.1788 10.0017C13.0915 9.7572 13.2728 9.5 13.5324 9.5H14.6134C14.9307 9.5 15.2138 9.69948 15.3205 9.99831C15.4078 10.2428 15.2266 10.5 14.9669 10.5H13.8859C13.5686 10.5 13.2856 10.3005 13.1788 10.0017Z" fill="white"/>
<path d="M10.1792 10.0017C10.0919 9.7572 10.2731 9.5 10.5327 9.5H11.6137C11.931 9.5 12.2141 9.69948 12.3208 9.99831C12.4081 10.2428 12.2269 10.5 11.9673 10.5H10.8863C10.569 10.5 10.2859 10.3005 10.1792 10.0017Z" fill="white"/>
<path d="M7.17951 10.0017C7.09219 9.7572 7.27345 9.5 7.53306 9.5H8.61406C8.93138 9.5 9.21443 9.69948 9.32116 9.99831C9.40848 10.2428 9.22723 10.5 8.96761 10.5H7.88661C7.5693 10.5 7.28624 10.3005 7.17951 10.0017Z" fill="white"/>
<path d="M8.17918 12.5017C8.09186 12.2572 8.27311 12 8.53273 12H9.61372C9.93104 12 10.2141 12.1995 10.3208 12.4983C10.4081 12.7428 10.2269 13 9.96727 13H8.88628C8.56896 13 8.2859 12.8005 8.17918 12.5017Z" fill="white"/>
<path d="M4.17982 10.0017C4.0925 9.7572 4.27375 9.5 4.53337 9.5H5.61436C5.93168 9.5 6.21474 9.69948 6.32147 9.99831C6.40878 10.2428 6.22753 10.5 5.96791 10.5H4.88692C4.5696 10.5 4.28654 10.3005 4.17982 10.0017Z" fill="white"/>
<path d="M5.17918 12.5017C5.09186 12.2572 5.27311 12 5.53273 12H6.61372C6.93104 12 7.2141 12.1995 7.32082 12.4983C7.40814 12.7428 7.22689 13 6.96727 13H5.88628C5.56896 13 5.2859 12.8005 5.17918 12.5017Z" fill="white"/>
</svg>
