<svg width="20" height="19" viewBox="0 0 20 19" fill="none" xmlns="http://www.w3.org/2000/svg">
<path d="M5.15198 14.3474L14.484 5.25781M14.484 5.25781V9.12195M14.484 5.25781H10.4996" stroke="white" stroke-width="1.7" stroke-linecap="round" stroke-linejoin="round"/>
<path d="M8.78783 14.4688H15.5748C16.9134 14.4688 17.9987 13.3835 17.9987 12.0448V4.04597C17.9987 2.70729 16.9134 1.62207 15.5748 1.62207H7.57588C6.2372 1.62207 5.15198 2.70729 5.15198 4.04597V10.1057" stroke="white" stroke-width="1.7" stroke-linecap="round"/>
<path d="M5.27227 4.53125H4.4239C3.08522 4.53125 2 5.61647 2 6.95515V14.954C2 16.2927 3.08522 17.3779 4.4239 17.3779H12.4228C13.7615 17.3779 14.8467 16.2927 14.8467 14.954V14.4692" stroke="white" stroke-width="1.7"/>
</svg>
