<svg width="20" height="21" viewBox="0 0 20 21" fill="none" xmlns="http://www.w3.org/2000/svg">
<path d="M3.87435 3.70819C3.87435 3.64575 3.87435 3.58331 3.87435 3.52087C3.87435 3.20866 4.1556 2.89646 4.49935 2.89646C4.8431 2.89646 5.12435 3.17744 5.12435 3.52087V3.70819H12.8431V3.67697C12.8431 3.61453 12.8431 3.55209 12.8431 3.48965C12.8431 3.17744 13.1243 2.86523 13.4681 2.86523C13.8118 2.86523 14.0931 3.14622 14.0931 3.48965V3.73941C15.5306 3.73941 16.7181 4.9258 16.7181 6.36196V8.76595C16.7493 8.85962 16.7806 8.92206 16.7806 9.01572C16.9681 10.3582 17.2806 11.7007 17.7181 12.9808C17.9368 13.5739 18.1868 14.1984 18.4681 14.7603C18.7181 15.2911 18.6868 15.8843 18.3743 16.3526C18.0618 16.8209 17.5618 17.1019 16.9993 17.1019H16.6556C16.3743 18.2571 15.3431 19.9326 14.0931 19.9326H3.9681C2.5306 19.9326 1.3431 18.7462 1.3431 17.31V6.33074C1.3431 4.89458 2.4681 3.77064 3.87435 3.70819ZM14.1243 4.95702V5.08191C14.1243 5.39411 13.8431 5.70632 13.4993 5.70632C13.1556 5.70632 12.8743 5.42533 12.8743 5.08191C12.8743 5.05069 12.8743 4.98824 12.8743 4.95702H5.12435V5.14435C5.12435 5.45656 4.8431 5.76876 4.49935 5.76876C4.1556 5.76876 3.87435 5.48778 3.87435 5.14435C3.87435 5.08191 3.87435 5.01947 3.87435 4.95702C3.1556 5.01947 2.5931 5.61266 2.5931 6.33074V7.82933C2.62435 7.82933 2.68685 7.82933 2.7181 7.82933H15.4993V6.33074C15.4993 5.55022 14.8743 4.95702 14.1243 4.95702ZM17.3431 15.6657C17.4056 15.5409 17.4368 15.416 17.3743 15.2911C17.0931 14.6667 16.8118 14.0423 16.5931 13.3866C16.1243 12.0129 15.7806 10.608 15.5931 9.17182C15.5931 9.1406 15.5618 9.10938 15.5306 9.10938H2.74935C2.74935 9.10938 2.7181 9.10938 2.68685 9.1406C2.68685 9.1406 2.6556 9.17182 2.6556 9.20304C2.81185 10.608 3.12435 11.9817 3.56185 13.293C3.7806 13.9486 4.06185 14.6042 4.37435 15.2599C4.56185 15.6345 4.9681 15.8843 5.4056 15.8843H16.9993C17.1556 15.8218 17.2806 15.7594 17.3431 15.6657ZM3.9681 18.6525H14.1243C14.6556 18.6525 15.0931 17.5078 15.3431 17.0707H5.43685C4.5306 17.0707 3.68685 16.5399 3.2806 15.7282C3.0306 15.2286 2.81185 14.6979 2.62435 14.1671V17.2788C2.5931 18.0281 3.2181 18.6525 3.9681 18.6525Z" fill="black"/>
<path d="M13.1792 10.9626C13.0919 10.7181 13.2731 10.4609 13.5327 10.4609H14.6137C14.931 10.4609 15.2141 10.6604 15.3208 10.9592V10.9592C15.4081 11.2037 15.2269 11.4609 14.9673 11.4609H13.8863C13.569 11.4609 13.2859 11.2615 13.1792 10.9626V10.9626Z" fill="black"/>
<path d="M10.1792 10.9626C10.0919 10.7181 10.2731 10.4609 10.5327 10.4609H11.6137C11.931 10.4609 12.2141 10.6604 12.3208 10.9592V10.9592C12.4081 11.2037 12.2269 11.4609 11.9673 11.4609H10.8863C10.569 11.4609 10.2859 11.2615 10.1792 10.9626V10.9626Z" fill="black"/>
<path d="M7.17918 10.9626C7.09186 10.7181 7.27311 10.4609 7.53273 10.4609H8.61372C8.93104 10.4609 9.2141 10.6604 9.32082 10.9592V10.9592C9.40814 11.2037 9.22689 11.4609 8.96727 11.4609H7.88628C7.56896 11.4609 7.2859 11.2615 7.17918 10.9626V10.9626Z" fill="black"/>
<path d="M8.17918 13.4626C8.09186 13.2181 8.27311 12.9609 8.53273 12.9609H9.61372C9.93104 12.9609 10.2141 13.1604 10.3208 13.4592V13.4592C10.4081 13.7037 10.2269 13.9609 9.96727 13.9609H8.88628C8.56896 13.9609 8.2859 13.7615 8.17918 13.4626V13.4626Z" fill="black"/>
<path d="M4.17918 10.9626C4.09186 10.7181 4.27311 10.4609 4.53273 10.4609H5.61372C5.93104 10.4609 6.2141 10.6604 6.32082 10.9592V10.9592C6.40814 11.2037 6.22689 11.4609 5.96727 11.4609H4.88628C4.56896 11.4609 4.2859 11.2615 4.17918 10.9626V10.9626Z" fill="black"/>
<path d="M5.17918 13.4626C5.09186 13.2181 5.27311 12.9609 5.53273 12.9609H6.61372C6.93104 12.9609 7.2141 13.1604 7.32082 13.4592V13.4592C7.40814 13.7037 7.22689 13.9609 6.96727 13.9609H5.88628C5.56896 13.9609 5.2859 13.7615 5.17918 13.4626V13.4626Z" fill="black"/>
</svg>
