<svg width="20" height="20" viewBox="0 0 20 20" fill="none" xmlns="http://www.w3.org/2000/svg">
<path d="M3.87435 2.75C3.87435 2.6875 3.87435 2.625 3.87435 2.5625C3.87435 2.25 4.1556 1.9375 4.49935 1.9375C4.8431 1.9375 5.12435 2.21875 5.12435 2.5625V2.75H12.8431V2.71875C12.8431 2.65625 12.8431 2.59375 12.8431 2.53125C12.8431 2.21875 13.1243 1.90625 13.4681 1.90625C13.8118 1.90625 14.0931 2.1875 14.0931 2.53125V2.78125C15.5306 2.78125 16.7181 3.96875 16.7181 5.40625V7.8125C16.7493 7.90625 16.7806 7.96875 16.7806 8.0625C16.9681 9.40625 17.2806 10.75 17.7181 12.0313C17.9368 12.625 18.1868 13.25 18.4681 13.8125C18.7181 14.3438 18.6868 14.9375 18.3743 15.4063C18.0618 15.875 17.5618 16.1563 16.9993 16.1563H16.6556C16.3743 17.3125 15.3431 18.9896 14.0931 18.9896H3.9681C2.5306 18.9896 1.3431 17.8021 1.3431 16.3646V5.375C1.3431 3.9375 2.4681 2.8125 3.87435 2.75ZM14.1243 4V4.125C14.1243 4.4375 13.8431 4.75 13.4993 4.75C13.1556 4.75 12.8743 4.46875 12.8743 4.125C12.8743 4.09375 12.8743 4.03125 12.8743 4H5.12435V4.1875C5.12435 4.5 4.8431 4.8125 4.49935 4.8125C4.1556 4.8125 3.87435 4.53125 3.87435 4.1875C3.87435 4.125 3.87435 4.0625 3.87435 4C3.1556 4.0625 2.5931 4.65625 2.5931 5.375V6.875C2.62435 6.875 2.68685 6.875 2.7181 6.875H15.4993V5.375C15.4993 4.59375 14.8743 4 14.1243 4ZM17.3431 14.7188C17.4056 14.5938 17.4368 14.4688 17.3743 14.3438C17.0931 13.7188 16.8118 13.0938 16.5931 12.4375C16.1243 11.0625 15.7806 9.65625 15.5931 8.21875C15.5931 8.1875 15.5618 8.15625 15.5306 8.15625H2.74935C2.74935 8.15625 2.7181 8.15625 2.68685 8.1875C2.68685 8.1875 2.6556 8.21875 2.6556 8.25C2.81185 9.65625 3.12435 11.0313 3.56185 12.3438C3.7806 13 4.06185 13.6563 4.37435 14.3125C4.56185 14.6875 4.9681 14.9375 5.4056 14.9375H16.9993C17.1556 14.875 17.2806 14.8125 17.3431 14.7188ZM3.9681 17.7083H14.1243C14.6556 17.7083 15.0931 16.5625 15.3431 16.125H5.43685C4.5306 16.125 3.68685 15.5938 3.2806 14.7813C3.0306 14.2813 2.81185 13.75 2.62435 13.2188V16.3333C2.5931 17.0833 3.2181 17.7083 3.9681 17.7083Z" fill="white"/>
<path d="M13.1792 10.0017C13.0919 9.7572 13.2731 9.5 13.5327 9.5H14.6137C14.931 9.5 15.2141 9.69948 15.3208 9.99831C15.4081 10.2428 15.2269 10.5 14.9673 10.5H13.8863C13.569 10.5 13.2859 10.3005 13.1792 10.0017Z" fill="white"/>
<path d="M10.1792 10.0017C10.0919 9.7572 10.2731 9.5 10.5327 9.5H11.6137C11.931 9.5 12.2141 9.69948 12.3208 9.99831C12.4081 10.2428 12.2269 10.5 11.9673 10.5H10.8863C10.569 10.5 10.2859 10.3005 10.1792 10.0017Z" fill="white"/>
<path d="M7.17918 10.0017C7.09186 9.7572 7.27311 9.5 7.53273 9.5H8.61372C8.93104 9.5 9.2141 9.69948 9.32082 9.99831C9.40814 10.2428 9.22689 10.5 8.96727 10.5H7.88628C7.56896 10.5 7.2859 10.3005 7.17918 10.0017Z" fill="white"/>
<path d="M8.17918 12.5017C8.09186 12.2572 8.27311 12 8.53273 12H9.61372C9.93104 12 10.2141 12.1995 10.3208 12.4983C10.4081 12.7428 10.2269 13 9.96727 13H8.88628C8.56896 13 8.2859 12.8005 8.17918 12.5017Z" fill="white"/>
<path d="M4.17918 10.0017C4.09186 9.7572 4.27311 9.5 4.53273 9.5H5.61372C5.93104 9.5 6.2141 9.69948 6.32082 9.99831C6.40814 10.2428 6.22689 10.5 5.96727 10.5H4.88628C4.56896 10.5 4.2859 10.3005 4.17918 10.0017Z" fill="white"/>
<path d="M5.17918 12.5017C5.09186 12.2572 5.27311 12 5.53273 12H6.61372C6.93104 12 7.2141 12.1995 7.32082 12.4983C7.40814 12.7428 7.22689 13 6.96727 13H5.88628C5.56896 13 5.2859 12.8005 5.17918 12.5017Z" fill="white"/>
</svg>
