<svg width="81" height="80" viewBox="0 0 81 80" fill="none" xmlns="http://www.w3.org/2000/svg">
<path d="M69.6161 9.11249L63.5177 3.01405C63.3387 2.83506 63.1233 2.69659 62.8862 2.60801C62.649 2.51943 62.3956 2.48281 62.1431 2.50062C61.2066 2.56655 57.6561 2.46452 57.1431 2.50062C56.2069 2.56671 55.5 3.38499 55.5 4.32374V6.2464H13C11.6192 6.2464 10.5 7.36562 10.5 8.7464V13.7464C10.5 15.1272 11.6192 16.2464 13 16.2464H55.5V18.1691C55.5 19.1078 56.2069 19.9262 57.1433 19.992C57.6562 20.0281 61.2067 19.9261 62.1433 19.992C62.3958 20.0098 62.6492 19.9732 62.8863 19.8846C63.1235 19.796 63.3388 19.6576 63.5178 19.4786L69.5681 13.4283C69.9823 13.0141 70.2912 12.4989 70.4225 11.928C70.538 11.4288 70.5245 10.9085 70.3835 10.4159C70.2424 9.92338 69.9783 9.47483 69.6161 9.11249Z" fill="#FAA019"/>
<path d="M55.5 4.3203V6.2428H13C11.6192 6.2428 10.5 7.36202 10.5 8.7428V13.7428C10.5 15.1236 11.6192 16.2428 13 16.2428H55.5V18.1653C55.5 19.1041 56.2069 19.9225 57.1433 19.9884C57.3958 20.0062 57.6492 19.9696 57.8863 19.881C58.1235 19.7924 58.3388 19.654 58.5178 19.475L64.5681 13.4247C64.9823 13.0105 65.2912 12.4955 65.4225 11.9244C65.538 11.4252 65.5245 10.9049 65.3835 10.4124C65.2425 9.91983 64.9784 9.47127 64.6162 9.1089L58.5178 3.01062C58.3388 2.83162 58.1235 2.69315 57.8863 2.60457C57.6492 2.51599 57.3958 2.47937 57.1433 2.49718C56.2069 2.56312 55.5 3.3814 55.5 4.3203Z" fill="#FFD205"/>
<path d="M11.3841 26.6197L17.4825 20.5213C17.6615 20.3423 17.8769 20.2038 18.114 20.1152C18.3512 20.0266 18.6046 19.99 18.8571 20.0078C19.7936 20.0738 23.3441 19.9717 23.8571 20.0078C24.7936 20.0738 25.5004 20.892 25.5004 21.8308V23.7534H68.0004C69.3811 23.7534 70.5004 24.8727 70.5004 26.2534V31.2534C70.5004 32.6342 69.3811 33.7534 68.0004 33.7534H25.5002V35.6761C25.5002 36.6148 24.7933 37.4333 23.8569 37.4991C23.3439 37.5352 19.7935 37.4331 18.8569 37.4991C18.6044 37.5169 18.351 37.4802 18.1139 37.3916C17.8767 37.3031 17.6614 37.1646 17.4824 36.9856L11.4321 30.9353C11.0179 30.5211 10.7089 30.0059 10.5777 29.435C10.4622 28.9359 10.4757 28.4156 10.6167 27.923C10.7578 27.4305 11.0219 26.982 11.3841 26.6197Z" fill="#FFA81C"/>
<path d="M20.5002 21.8275V23.75H63.0002C64.381 23.75 65.5002 24.8692 65.5002 26.25V31.25C65.5002 32.6308 64.381 33.75 63.0002 33.75H20.5002V35.6725C20.5002 36.6113 19.7934 37.4297 18.857 37.4956C18.6044 37.5134 18.3511 37.4768 18.1139 37.3882C17.8768 37.2996 17.6614 37.1612 17.4824 36.9822L11.4321 30.9319C11.0179 30.5177 10.709 30.0027 10.5777 29.4316C10.4622 28.9324 10.4756 28.4121 10.6167 27.9195C10.7577 27.427 11.0218 26.9785 11.384 26.6161L17.4824 20.5178C17.6614 20.3388 17.8768 20.2004 18.1139 20.1118C18.351 20.0232 18.6044 19.9866 18.857 20.0044C19.7934 20.0703 20.5002 20.8886 20.5002 21.8275Z" fill="#FFD205"/>
<path d="M43 77.5H38C28.335 77.5 20.5 69.665 20.5 60C20.5 50.335 28.335 42.5 38 42.5H43C52.665 42.5 60.5 50.335 60.5 60C60.5 69.665 52.665 77.5 43 77.5Z" fill="#FAA019"/>
<path d="M38 77.5C47.665 77.5 55.5 69.665 55.5 60C55.5 50.335 47.665 42.5 38 42.5C28.335 42.5 20.5 50.335 20.5 60C20.5 69.665 28.335 77.5 38 77.5Z" fill="#FFD205"/>
<path d="M38 72.5C44.9036 72.5 50.5 66.9036 50.5 60C50.5 53.0964 44.9036 47.5 38 47.5C31.0964 47.5 25.5 53.0964 25.5 60C25.5 66.9036 31.0964 72.5 38 72.5Z" fill="#FAA019"/>
<path d="M39.875 58.75H36.125C35.0911 58.75 34.25 57.9089 34.25 56.875C34.25 55.8411 35.0911 55 36.125 55H39.875C40.9089 55 41.75 55.8411 41.75 56.875C41.75 57.2065 41.8817 57.5245 42.1161 57.7589C42.3505 57.9933 42.6685 58.125 43 58.125C43.3315 58.125 43.6495 57.9933 43.8839 57.7589C44.1183 57.5245 44.25 57.2065 44.25 56.875C44.25 54.4627 42.2873 52.5 39.875 52.5H39.25V51.25C39.25 50.9185 39.1183 50.6005 38.8839 50.3661C38.6495 50.1317 38.3315 50 38 50C37.6685 50 37.3505 50.1317 37.1161 50.3661C36.8817 50.6005 36.75 50.9185 36.75 51.25V52.5H36.125C33.7127 52.5 31.75 54.4627 31.75 56.875C31.75 59.2873 33.7127 61.25 36.125 61.25H39.875C40.9089 61.25 41.75 62.0911 41.75 63.125C41.75 64.1589 40.9089 65 39.875 65H36.125C35.0911 65 34.25 64.1589 34.25 63.125C34.25 62.7935 34.1183 62.4755 33.8839 62.2411C33.6495 62.0067 33.3315 61.875 33 61.875C32.6685 61.875 32.3505 62.0067 32.1161 62.2411C31.8817 62.4755 31.75 62.7935 31.75 63.125C31.75 65.5373 33.7127 67.5 36.125 67.5H36.75V68.75C36.75 69.0815 36.8817 69.3995 37.1161 69.6339C37.3505 69.8683 37.6685 70 38 70C38.3315 70 38.6495 69.8683 38.8839 69.6339C39.1183 69.3995 39.25 69.0815 39.25 68.75V67.5H39.875C42.2873 67.5 44.25 65.5373 44.25 63.125C44.25 60.7127 42.2873 58.75 39.875 58.75Z" fill="#FFD205"/>
<path d="M58 46.25C57.6685 46.25 57.3505 46.1183 57.1161 45.8839C56.8817 45.6495 56.75 45.3315 56.75 45V40C56.75 39.6685 56.8817 39.3505 57.1161 39.1161C57.3505 38.8817 57.6685 38.75 58 38.75C58.3315 38.75 58.6495 38.8817 58.8839 39.1161C59.1183 39.3505 59.25 39.6685 59.25 40V45C59.25 45.3315 59.1183 45.6495 58.8839 45.8839C58.6495 46.1183 58.3315 46.25 58 46.25ZM63 53.75C62.6685 53.75 62.3505 53.6183 62.1161 53.3839C61.8817 53.1495 61.75 52.8315 61.75 52.5V42.5C61.75 42.1685 61.8817 41.8505 62.1161 41.6161C62.3505 41.3817 62.6685 41.25 63 41.25C63.3315 41.25 63.6495 41.3817 63.8839 41.6161C64.1183 41.8505 64.25 42.1685 64.25 42.5V52.5C64.25 52.8315 64.1183 53.1495 63.8839 53.3839C63.6495 53.6183 63.3315 53.75 63 53.75ZM23 46.25C22.6685 46.25 22.3505 46.1183 22.1161 45.8839C21.8817 45.6495 21.75 45.3315 21.75 45V40C21.75 39.6685 21.8817 39.3505 22.1161 39.1161C22.3505 38.8817 22.6685 38.75 23 38.75C23.3315 38.75 23.6495 38.8817 23.8839 39.1161C24.1183 39.3505 24.25 39.6685 24.25 40V45C24.25 45.3315 24.1183 45.6495 23.8839 45.8839C23.6495 46.1183 23.3315 46.25 23 46.25ZM18 53.75C17.6685 53.75 17.3505 53.6183 17.1161 53.3839C16.8817 53.1495 16.75 52.8315 16.75 52.5V42.5C16.75 42.1685 16.8817 41.8505 17.1161 41.6161C17.3505 41.3817 17.6685 41.25 18 41.25C18.3315 41.25 18.6495 41.3817 18.8839 41.6161C19.1183 41.8505 19.25 42.1685 19.25 42.5V52.5C19.25 52.8315 19.1183 53.1495 18.8839 53.3839C18.6495 53.6183 18.3315 53.75 18 53.75Z" fill="#FAA019"/>
</svg>
