<svg width="31" height="31" viewBox="0 0 31 31" fill="none" xmlns="http://www.w3.org/2000/svg">
<circle cx="15.5005" cy="15.6058" r="14.1797" fill="#051A34" stroke="url(#paint0_linear_1324_15989)" stroke-width="0.956084"/>
<circle cx="15.4988" cy="15.607" r="12.3531" stroke="#FFFFDD" stroke-width="0.478042"/>
<circle cx="15.4988" cy="15.607" r="12.3531" stroke="url(#paint1_linear_1324_15989)" stroke-width="0.478042"/>
<circle cx="15.4988" cy="15.607" r="12.3531" stroke="#FFFFDD" stroke-width="0.478042"/>
<circle cx="15.4988" cy="15.607" r="12.3531" stroke="url(#paint2_linear_1324_15989)" stroke-width="0.478042"/>
<mask id="mask0_1324_15989" style="mask-type:alpha" maskUnits="userSpaceOnUse" x="8" y="5" width="15" height="21">
<path d="M21.9291 13.6721C20.2354 12.2395 18.3 11.2561 16.1694 10.5619C16.3662 10.1887 16.5084 9.91535 16.704 9.53022C16.7483 9.44305 16.6613 9.3267 16.566 9.34863C15.3384 9.63121 14.1435 9.98247 12.8953 10.2811C12.608 10.3498 12.4655 10.6805 12.6213 10.9314C12.6412 10.9634 12.661 10.9951 12.6811 11.0268C13.3275 12.0456 13.9753 13.0631 14.6231 14.081C14.7999 14.3583 14.8501 14.3559 15.0098 14.0649C15.0591 13.9749 15.1079 13.8848 15.1586 13.7957C15.3951 13.3797 15.396 13.3768 15.8576 13.4678C17.3361 13.7588 18.7649 14.1938 20.1094 14.89C20.9543 15.3274 21.6078 15.9292 21.9504 16.8339C22.1528 17.368 22.2049 17.9243 22.1746 18.4863C22.1016 19.8379 21.6595 21.0496 20.6126 21.9448C19.5758 22.8315 18.3683 23.4063 16.9968 23.5826C16.8215 23.6049 16.7732 23.6693 16.776 23.8347C16.7841 24.3077 16.7732 24.9994 16.7803 25.4723C16.7826 25.6329 16.7329 25.6979 16.5646 25.696C15.9803 25.6893 15.396 25.6908 14.8112 25.696C14.6586 25.6974 14.6018 25.6429 14.6037 25.4889C14.6089 24.9766 14.5951 24.2456 14.6075 23.7333C14.6122 23.539 14.5487 23.4608 14.3596 23.4144C12.9659 23.0713 11.7385 22.4149 10.7083 21.4131C9.54722 20.2829 8.85581 18.9332 8.82833 17.286C8.82738 17.2229 8.82975 17.1599 8.83638 17.0974C8.83828 17.077 8.85913 17.059 8.88472 17.0192C10.8395 18.701 13.1848 19.5517 15.669 20.1966C15.6409 20.243 15.3571 20.9388 15.2633 21.1478C15.2565 21.1629 15.1889 21.332 15.1295 21.4787C15.0973 21.5584 15.1842 21.6591 15.2672 21.6368C16.5141 21.3016 17.7083 20.8422 18.9784 20.4792C19.2583 20.3992 19.3895 20.0732 19.2417 19.8225C18.5664 18.6768 17.9054 17.3809 17.2213 16.2569C17.1675 16.1685 17.044 16.1681 16.9993 16.2614C16.8574 16.5575 16.7344 16.9622 16.5959 17.1376C16.5414 17.2068 16.4106 17.277 16.3353 17.2594C15.1055 16.976 13.8639 16.7315 12.6887 16.2543C12.0432 15.9922 11.4243 15.6823 10.8798 15.2373C9.73536 14.3028 9.42543 13.0911 9.69697 11.6917C10.0818 9.7103 11.3788 8.58386 13.228 8.00049C13.6322 7.87301 14.0554 7.7953 14.4752 7.73179C14.6984 7.69815 14.7638 7.61332 14.7615 7.39959C14.7525 6.69018 14.7638 6.47492 14.7567 5.7655C14.7548 5.58163 14.8127 5.51528 15.0013 5.51907C15.5301 5.5295 16.0595 5.5295 16.5883 5.52192C16.7888 5.51907 16.8646 5.5821 16.8613 5.79393C16.8509 6.50335 16.8679 6.71861 16.8575 7.42803C16.8547 7.63322 16.9305 7.71663 17.1205 7.77255C18.1868 8.08485 19.1971 8.51846 20.1184 9.15063C21.3709 10.0098 21.9315 11.2306 22.004 12.7082C22.0192 13.0129 22.0064 13.3195 22.0064 13.6251C21.9808 13.6413 21.9547 13.6569 21.9291 13.673V13.6721Z" fill="#FFFFDD"/>
</mask>
<g mask="url(#mask0_1324_15989)">
<path d="M21.9291 13.6721C20.2354 12.2395 18.3 11.2561 16.1694 10.5619C16.3662 10.1887 16.5084 9.91535 16.704 9.53022C16.7483 9.44305 16.6613 9.3267 16.566 9.34863C15.3384 9.63121 14.1435 9.98247 12.8953 10.2811C12.608 10.3498 12.4655 10.6805 12.6213 10.9314C12.6412 10.9634 12.661 10.9951 12.6811 11.0268C13.3275 12.0456 13.9753 13.0631 14.6231 14.081C14.7999 14.3583 14.8501 14.3559 15.0098 14.0649C15.0591 13.9749 15.1079 13.8848 15.1586 13.7957C15.3951 13.3797 15.396 13.3768 15.8576 13.4678C17.3361 13.7588 18.7649 14.1938 20.1094 14.89C20.9543 15.3274 21.6078 15.9292 21.9504 16.8339C22.1528 17.368 22.2049 17.9243 22.1746 18.4863C22.1016 19.8379 21.6595 21.0496 20.6126 21.9448C19.5758 22.8315 18.3683 23.4063 16.9968 23.5826C16.8215 23.6049 16.7732 23.6693 16.776 23.8347C16.7841 24.3077 16.7732 24.9994 16.7803 25.4723C16.7826 25.6329 16.7329 25.6979 16.5646 25.696C15.9803 25.6893 15.396 25.6908 14.8112 25.696C14.6586 25.6974 14.6018 25.6429 14.6037 25.4889C14.6089 24.9766 14.5951 24.2456 14.6075 23.7333C14.6122 23.539 14.5487 23.4608 14.3596 23.4144C12.9659 23.0713 11.7385 22.4149 10.7083 21.4131C9.54722 20.2829 8.85581 18.9332 8.82833 17.286C8.82738 17.2229 8.82975 17.1599 8.83638 17.0974C8.83828 17.077 8.85913 17.059 8.88472 17.0192C10.8395 18.701 13.1848 19.5517 15.669 20.1966C15.6409 20.243 15.3571 20.9388 15.2633 21.1478C15.2565 21.1629 15.1889 21.332 15.1295 21.4787C15.0973 21.5584 15.1842 21.6591 15.2672 21.6368C16.5141 21.3016 17.7083 20.8422 18.9784 20.4792C19.2583 20.3992 19.3895 20.0732 19.2417 19.8225C18.5664 18.6768 17.9054 17.3809 17.2213 16.2569C17.1675 16.1685 17.044 16.1681 16.9993 16.2614C16.8574 16.5575 16.7344 16.9622 16.5959 17.1376C16.5414 17.2068 16.4106 17.277 16.3353 17.2594C15.1055 16.976 13.8639 16.7315 12.6887 16.2543C12.0432 15.9922 11.4243 15.6823 10.8798 15.2373C9.73536 14.3028 9.42543 13.0911 9.69697 11.6917C10.0818 9.7103 11.3788 8.58386 13.228 8.00049C13.6322 7.87301 14.0554 7.7953 14.4752 7.73179C14.6984 7.69815 14.7638 7.61332 14.7615 7.39959C14.7525 6.69018 14.7638 6.47492 14.7567 5.7655C14.7548 5.58163 14.8127 5.51528 15.0013 5.51907C15.5301 5.5295 16.0595 5.5295 16.5883 5.52192C16.7888 5.51907 16.8646 5.5821 16.8613 5.79393C16.8509 6.50335 16.8679 6.71861 16.8575 7.42803C16.8547 7.63322 16.9305 7.71663 17.1205 7.77255C18.1868 8.08485 19.1971 8.51846 20.1184 9.15063C21.3709 10.0098 21.9315 11.2306 22.004 12.7082C22.0192 13.0129 22.0064 13.3195 22.0064 13.6251C21.9808 13.6413 21.9547 13.6569 21.9291 13.673V13.6721Z" fill="#FFFFDD"/>
</g>
<defs>
<linearGradient id="paint0_linear_1324_15989" x1="15.5005" y1="1.90417" x2="18.8206" y2="27.7918" gradientUnits="userSpaceOnUse">
<stop stop-color="#FFFFDD"/>
<stop offset="0.260417" stop-color="#E6CD9B"/>
<stop offset="0.520833" stop-color="#878764"/>
<stop offset="0.760417" stop-color="#EEDDAF"/>
<stop offset="1" stop-color="#FFFFDD"/>
</linearGradient>
<linearGradient id="paint1_linear_1324_15989" x1="15.4988" y1="3.49292" x2="18.4342" y2="26.381" gradientUnits="userSpaceOnUse">
<stop stop-color="#FFFFDD"/>
<stop offset="0.260417" stop-color="#E6CD9B"/>
<stop offset="0.520833" stop-color="#878764"/>
<stop offset="0.760417" stop-color="#EEDDAF"/>
<stop offset="1" stop-color="#FFFFDD"/>
</linearGradient>
<linearGradient id="paint2_linear_1324_15989" x1="15.4988" y1="3.49292" x2="18.4342" y2="26.381" gradientUnits="userSpaceOnUse">
<stop stop-color="#FFFFDD"/>
<stop offset="0.260417" stop-color="#E6CD9B"/>
<stop offset="0.520833" stop-color="#878764"/>
<stop offset="0.760417" stop-color="#EEDDAF"/>
<stop offset="1" stop-color="#FFFFDD"/>
</linearGradient>
</defs>
</svg>
