<svg width="30" height="30" viewBox="0 0 30 30" fill="none" xmlns="http://www.w3.org/2000/svg">
<g filter="url(#filter0_bi_1324_16291)">
<rect width="30" height="30" rx="15" fill="url(#paint0_linear_1324_16291)" fill-opacity="0.25"/>
<rect x="0.6" y="0.6" width="28.8" height="28.8" rx="14.4" stroke="url(#paint1_linear_1324_16291)" stroke-width="1.2"/>
<rect x="0.6" y="0.6" width="28.8" height="28.8" rx="14.4" stroke="url(#paint2_linear_1324_16291)" stroke-width="1.2"/>
</g>
<path d="M13.3435 14.3408C13.2852 14.335 13.2152 14.335 13.151 14.3408C11.7627 14.2942 10.6602 13.1567 10.6602 11.7567C10.6602 10.3275 11.8152 9.16667 13.2502 9.16667C14.6793 9.16667 15.8402 10.3275 15.8402 11.7567C15.8343 13.1567 14.7318 14.2942 13.3435 14.3408Z" stroke="white" stroke-linecap="round" stroke-linejoin="round"/>
<path d="M17.5719 10.3333C18.7036 10.3333 19.6136 11.2492 19.6136 12.375C19.6136 13.4775 18.7386 14.3758 17.6478 14.4167C17.6011 14.4108 17.5486 14.4108 17.4961 14.4167" stroke="white" stroke-linecap="round" stroke-linejoin="round"/>
<path d="M10.4259 16.4933C9.01427 17.4383 9.01427 18.9783 10.4259 19.9175C12.0301 20.9908 14.6609 20.9908 16.2651 19.9175C17.6768 18.9725 17.6768 17.4325 16.2651 16.4933C14.6668 15.4258 12.0359 15.4258 10.4259 16.4933Z" stroke="white" stroke-linecap="round" stroke-linejoin="round"/>
<path d="M18.6992 19.6667C19.1192 19.5792 19.5159 19.41 19.8426 19.1592C20.7526 18.4767 20.7526 17.3508 19.8426 16.6683C19.5217 16.4233 19.1309 16.26 18.7167 16.1667" stroke="white" stroke-linecap="round" stroke-linejoin="round"/>
<defs>
<filter id="filter0_bi_1324_16291" x="-6.6" y="-6.6" width="43.2" height="43.2" filterUnits="userSpaceOnUse" color-interpolation-filters="sRGB">
<feFlood flood-opacity="0" result="BackgroundImageFix"/>
<feGaussianBlur in="BackgroundImageFix" stdDeviation="3.3"/>
<feComposite in2="SourceAlpha" operator="in" result="effect1_backgroundBlur_1324_16291"/>
<feBlend mode="normal" in="SourceGraphic" in2="effect1_backgroundBlur_1324_16291" result="shape"/>
<feColorMatrix in="SourceAlpha" type="matrix" values="0 0 0 0 0 0 0 0 0 0 0 0 0 0 0 0 0 0 127 0" result="hardAlpha"/>
<feOffset dy="2.4"/>
<feGaussianBlur stdDeviation="3"/>
<feComposite in2="hardAlpha" operator="arithmetic" k2="-1" k3="1"/>
<feColorMatrix type="matrix" values="0 0 0 0 0 0 0 0 0 0 0 0 0 0 0 0 0 0 0.1 0"/>
<feBlend mode="normal" in2="shape" result="effect2_innerShadow_1324_16291"/>
</filter>
<linearGradient id="paint0_linear_1324_16291" x1="14.1495" y1="2" x2="14.1495" y2="30" gradientUnits="userSpaceOnUse">
<stop stop-color="white"/>
<stop offset="1" stop-color="white" stop-opacity="0"/>
</linearGradient>
<linearGradient id="paint1_linear_1324_16291" x1="15" y1="0" x2="15" y2="30" gradientUnits="userSpaceOnUse">
<stop stop-color="#F5F5F5"/>
<stop offset="1" stop-color="#999999"/>
</linearGradient>
<linearGradient id="paint2_linear_1324_16291" x1="15" y1="0" x2="15" y2="30" gradientUnits="userSpaceOnUse">
<stop offset="0.321699" stop-color="white" stop-opacity="0.0666667"/>
</linearGradient>
</defs>
</svg>
