<svg width="18" height="18" viewBox="0 0 18 18" fill="none" xmlns="http://www.w3.org/2000/svg">
<g id="Group 18902">
<path id="Vector 382" d="M4.15204 13.7254L13.4841 4.63574M13.4841 4.63574V8.49988M13.4841 4.63574H9.49969" stroke="white" stroke-width="1.2" stroke-linecap="round" stroke-linejoin="round"/>
<path id="Rectangle 12364" d="M7.78789 13.8467H14.5748C15.9135 13.8467 16.9987 12.7615 16.9987 11.4228V3.4239C16.9987 2.08522 15.9135 1 14.5748 1H6.57594C5.23726 1 4.15204 2.08522 4.15204 3.4239V9.48366" stroke="white" stroke-width="1.2" stroke-linecap="round"/>
<path id="Rectangle 12365" d="M4.27227 3.90918H3.4239C2.08522 3.90918 0.999999 4.9944 0.999999 6.33308V14.332C0.999999 15.6706 2.08522 16.7559 3.4239 16.7559H11.4228C12.7615 16.7559 13.8467 15.6706 13.8467 14.332V13.8472" stroke="white" stroke-width="1.2"/>
</g>
</svg>
