<svg width="30" height="30" viewBox="0 0 30 30" fill="none" xmlns="http://www.w3.org/2000/svg">
<g filter="url(#filter0_bi_993_7232)">
<rect width="30" height="30" rx="15" fill="url(#paint0_linear_993_7232)" fill-opacity="0.25"/>
<rect x="0.6" y="0.6" width="28.8" height="28.8" rx="14.4" stroke="url(#paint1_linear_993_7232)" stroke-width="1.2"/>
<rect x="0.6" y="0.6" width="28.8" height="28.8" rx="14.4" stroke="url(#paint2_linear_993_7232)" stroke-width="1.2"/>
</g>
<path d="M15 9.16675V12.6667L16.1667 11.5001" stroke="white" stroke-linecap="round" stroke-linejoin="round"/>
<path d="M15.0002 12.6667L13.8335 11.5" stroke="white" stroke-linecap="round" stroke-linejoin="round"/>
<path d="M12.0833 15C9.75 15 9.75 16.0442 9.75 17.3333V17.9167C9.75 19.5267 9.75 20.8333 12.6667 20.8333H17.3333C19.6667 20.8333 20.25 19.5267 20.25 17.9167V17.3333C20.25 16.0442 20.25 15 17.9167 15C17.3333 15 17.17 15.1225 16.8667 15.35L16.2717 15.98C15.5833 16.715 14.4167 16.715 13.7225 15.98L13.1333 15.35C12.83 15.1225 12.6667 15 12.0833 15Z" stroke="white" stroke-miterlimit="10" stroke-linecap="round" stroke-linejoin="round"/>
<path d="M10.9165 15V12.6667C10.9165 11.4942 10.9165 10.5259 12.6665 10.3567" stroke="white" stroke-miterlimit="10" stroke-linecap="round" stroke-linejoin="round"/>
<path d="M19.0835 15V12.6667C19.0835 11.4942 19.0835 10.5259 17.3335 10.3567" stroke="white" stroke-miterlimit="10" stroke-linecap="round" stroke-linejoin="round"/>
<defs>
<filter id="filter0_bi_993_7232" x="-6.6" y="-6.6" width="43.2" height="43.2" filterUnits="userSpaceOnUse" color-interpolation-filters="sRGB">
<feFlood flood-opacity="0" result="BackgroundImageFix"/>
<feGaussianBlur in="BackgroundImageFix" stdDeviation="3.3"/>
<feComposite in2="SourceAlpha" operator="in" result="effect1_backgroundBlur_993_7232"/>
<feBlend mode="normal" in="SourceGraphic" in2="effect1_backgroundBlur_993_7232" result="shape"/>
<feColorMatrix in="SourceAlpha" type="matrix" values="0 0 0 0 0 0 0 0 0 0 0 0 0 0 0 0 0 0 127 0" result="hardAlpha"/>
<feOffset dy="2.4"/>
<feGaussianBlur stdDeviation="3"/>
<feComposite in2="hardAlpha" operator="arithmetic" k2="-1" k3="1"/>
<feColorMatrix type="matrix" values="0 0 0 0 0 0 0 0 0 0 0 0 0 0 0 0 0 0 0.1 0"/>
<feBlend mode="normal" in2="shape" result="effect2_innerShadow_993_7232"/>
</filter>
<linearGradient id="paint0_linear_993_7232" x1="14.1495" y1="2" x2="14.1495" y2="30" gradientUnits="userSpaceOnUse">
<stop stop-color="white"/>
<stop offset="1" stop-color="white" stop-opacity="0"/>
</linearGradient>
<linearGradient id="paint1_linear_993_7232" x1="15" y1="0" x2="15" y2="30" gradientUnits="userSpaceOnUse">
<stop stop-color="#F5F5F5"/>
<stop offset="1" stop-color="#999999"/>
</linearGradient>
<linearGradient id="paint2_linear_993_7232" x1="15" y1="0" x2="15" y2="30" gradientUnits="userSpaceOnUse">
<stop offset="0.321699" stop-color="white" stop-opacity="0.0666667"/>
</linearGradient>
</defs>
</svg>
