<svg width="167" height="40" viewBox="0 0 167 40" fill="none" xmlns="http://www.w3.org/2000/svg">
<path d="M53.0203 32.8653V32.2957L66.6201 11.9543H53.9795V8.06055H74.6074V8.64677L61.0842 28.9549H74.281V32.8653H53.0203Z" fill="#2A44FF"/>
<path d="M77.2388 32.8653V8.06055H95.0521V11.9543H81.8553V18.0697H92.7538V21.9635H81.8553V28.9749H95.0521V32.8686H77.2388V32.8653Z" fill="#2A44FF"/>
<path d="M98.1165 32.8653V8.06055H115.93V11.9543H102.733V18.0697H113.631V21.9635H102.733V28.9749H115.93V32.8686H98.1165V32.8653Z" fill="#2A44FF"/>
<path d="M118.994 32.8653V8.06055H129.929C131.794 8.06055 133.323 8.39696 134.516 9.06646C135.708 9.73929 136.598 10.5953 137.177 11.6412C137.757 12.6871 138.05 13.7663 138.05 14.8788C138.05 16.2444 137.69 17.4035 136.967 18.3595C136.244 19.3121 135.265 19.955 134.026 20.288V19.4254C135.761 19.7818 137.08 20.5212 137.983 21.647C138.882 22.7728 139.332 24.0519 139.332 25.4875C139.332 26.9231 139.019 28.2454 138.393 29.3446C137.767 30.4471 136.837 31.3098 135.605 31.9293C134.373 32.5488 132.85 32.8586 131.038 32.8586H118.991L118.994 32.8653ZM123.667 17.9665H129.873C130.535 17.9665 131.132 17.8532 131.655 17.6234C132.178 17.3935 132.594 17.0538 132.9 16.6075C133.207 16.1611 133.36 15.6082 133.36 14.9554C133.36 14.0927 133.054 13.3766 132.441 12.8037C131.828 12.2308 130.972 11.941 129.873 11.941H123.667V17.9698V17.9665ZM123.667 28.9549H130.465C131.272 28.9549 131.991 28.8083 132.63 28.5152C133.27 28.2221 133.77 27.8091 134.133 27.2761C134.496 26.7432 134.679 26.107 134.679 25.3742C134.679 24.7081 134.519 24.1118 134.199 23.5822C133.88 23.056 133.413 22.633 132.8 22.3165C132.187 22.0001 131.455 21.8435 130.599 21.8435H123.664V28.9582L123.667 28.9549Z" fill="#2A44FF"/>
<path d="M153.175 33.3816C150.98 33.3816 149.048 32.9785 147.383 32.1758C145.717 31.3731 144.415 30.2406 143.476 28.7817C142.536 27.3228 142.067 25.614 142.067 23.6489V8.09719L146.74 8.06388V23.5489C146.74 24.4782 146.916 25.3109 147.266 26.0471C147.616 26.7832 148.092 27.406 148.692 27.9157C149.291 28.4286 149.981 28.815 150.76 29.0781C151.54 29.3413 152.342 29.4745 153.175 29.4745C154.008 29.4745 154.844 29.3379 155.617 29.0681C156.389 28.7983 157.076 28.4086 157.675 27.8957C158.275 27.3861 158.748 26.7632 159.094 26.0271C159.437 25.291 159.61 24.4649 159.61 23.5456V8.06055H164.283V23.6489C164.283 25.614 163.814 27.3228 162.875 28.7817C161.935 30.2406 160.633 31.3697 158.967 32.1758C157.302 32.9785 155.37 33.3816 153.175 33.3816Z" fill="#2A44FF"/>
<path d="M39.2439 9.507L35.6732 3.33496L21.2407 28.3329L30.8802 28.3429L39.2472 13.7971C40.0133 12.4681 40.0133 10.8327 39.2439 9.50367V9.507Z" fill="url(#paint0_linear_1162_3899)"/>
<path d="M35.6732 3.33812L8.91661 3.32812C7.6309 3.32812 6.43847 4.01428 5.79561 5.13011L3.26085 9.52015C2.49476 10.8492 2.49476 12.4846 3.26085 13.8103L6.82484 20.0056L11.6179 11.6752H30.8568" fill="url(#paint1_linear_1162_3899)"/>
<path d="M3.26755 30.4911L6.8382 36.6631L21.2674 11.6719H11.6213L3.26422 26.1976C2.49812 27.5267 2.49812 29.1621 3.26755 30.4911Z" fill="url(#paint2_linear_1162_3899)"/>
<path d="M6.83813 36.6634L33.5947 36.6734C34.8804 36.6734 36.0729 35.9872 36.7157 34.8714L39.2505 30.4813C40.0166 29.1523 40.0166 27.5169 39.2505 26.1912L35.6798 20.0059L30.8801 28.3463L11.6512 28.3263" fill="url(#paint3_linear_1162_3899)"/>
<defs>
<linearGradient id="paint0_linear_1162_3899" x1="44.2235" y1="4.89379" x2="23.3125" y2="25.8081" gradientUnits="userSpaceOnUse">
<stop stop-color="#F6A23A"/>
<stop offset="0.92" stop-color="#F15729"/>
<stop offset="1" stop-color="#F15729"/>
</linearGradient>
<linearGradient id="paint1_linear_1162_3899" x1="-4.67653" y1="13.3972" x2="42.7013" y2="6.79552" gradientUnits="userSpaceOnUse">
<stop stop-color="white"/>
<stop offset="0.04" stop-color="#FCFEFF"/>
<stop offset="0.06" stop-color="#F2FDFF"/>
<stop offset="0.08" stop-color="#E2FCFF"/>
<stop offset="0.1" stop-color="#CCF9FF"/>
<stop offset="0.12" stop-color="#AEF6FF"/>
<stop offset="0.13" stop-color="#8BF3FF"/>
<stop offset="0.15" stop-color="#60EEFF"/>
<stop offset="0.16" stop-color="#30E9FF"/>
<stop offset="0.18" stop-color="#00E5FF"/>
<stop offset="0.83" stop-color="#2A44FF"/>
</linearGradient>
<linearGradient id="paint2_linear_1162_3899" x1="-5.96553" y1="39.3611" x2="28.3454" y2="5.05351" gradientUnits="userSpaceOnUse">
<stop stop-color="#F6A23A"/>
<stop offset="0.92" stop-color="#F15729"/>
<stop offset="1" stop-color="#F15729"/>
</linearGradient>
<linearGradient id="paint3_linear_1162_3899" x1="45.7989" y1="28.8126" x2="-0.542997" y2="27.9066" gradientUnits="userSpaceOnUse">
<stop stop-color="white"/>
<stop offset="0.04" stop-color="#FCFEFF"/>
<stop offset="0.06" stop-color="#F2FDFF"/>
<stop offset="0.08" stop-color="#E2FCFF"/>
<stop offset="0.1" stop-color="#CCF9FF"/>
<stop offset="0.12" stop-color="#AEF6FF"/>
<stop offset="0.13" stop-color="#8BF3FF"/>
<stop offset="0.15" stop-color="#60EEFF"/>
<stop offset="0.16" stop-color="#30E9FF"/>
<stop offset="0.18" stop-color="#00E5FF"/>
<stop offset="0.83" stop-color="#2A44FF"/>
</linearGradient>
</defs>
</svg>
