<svg width="101" height="100" viewBox="0 0 101 100" fill="none" xmlns="http://www.w3.org/2000/svg">
<path d="M50.557 99.999H50.4824C43.9381 99.999 38.614 94.6748 38.614 88.1305V85.3571C38.614 83.7392 39.9257 82.4276 41.5436 82.4276H59.4957C61.1137 82.4276 62.4253 83.7392 62.4253 85.3571V88.1305C62.4253 94.675 57.1011 99.999 50.557 99.999Z" fill="#FFA81C"/>
<path d="M59.4956 82.4277H50.5195V99.9992H50.5568C57.1011 99.9992 62.4252 94.675 62.4252 88.1307V85.3573C62.4252 83.7392 61.1135 82.4277 59.4956 82.4277Z" fill="#FF9300"/>
<path d="M56.3758 18.3119H44.6635C43.0456 18.3119 41.7339 17.0002 41.7339 15.3823V8.78815C41.7339 3.94358 45.6752 0.00250244 50.5195 0.00250244C55.3639 0.00250244 59.3052 3.94378 59.3052 8.78815V15.3823C59.3054 17.0002 57.9937 18.3119 56.3758 18.3119Z" fill="#FFA81C"/>
<path d="M56.3756 18.3119C57.9935 18.3119 59.3052 17.0002 59.3052 15.3823V8.78815C59.3052 3.94358 55.3639 0.00250244 50.5195 0.00250244V18.3119H56.3756Z" fill="#FF9300"/>
<path d="M81.5631 88.2869H19.4759C16.9402 88.2869 14.8772 86.2239 14.8772 83.6882V79.4997C14.8746 74.9187 16.5691 70.4991 19.6337 67.094C21.7306 64.7642 22.89 61.7402 22.8883 58.6057V39.6264C22.8883 24.3906 35.2834 11.9955 50.5192 11.9955C65.755 11.9955 78.1501 24.3906 78.1501 39.6264V58.6057C78.1483 61.7401 79.3078 64.7641 81.4047 67.0939C84.4694 70.4988 86.164 74.9184 86.1614 79.4995V83.688C86.1616 86.2239 84.0987 88.2869 81.5631 88.2869Z" fill="#FFCF2C"/>
<path d="M81.563 88.2869C84.0987 88.2869 86.1617 86.2239 86.1617 83.6882V79.4997C86.1644 74.9186 84.4698 70.499 81.405 67.094C79.3081 64.7643 78.1486 61.7403 78.1505 58.6058V39.6266C78.1505 24.3908 65.7554 11.9957 50.5195 11.9957V88.2869H81.563Z" fill="#FFC12E"/>
<path d="M14.8774 79.4997V83.6882C14.8774 86.2239 16.9405 88.2869 19.4761 88.2869H81.5631C84.0988 88.2869 86.1618 86.2239 86.1618 83.6882V79.4997C86.1624 77.51 85.8429 75.5331 85.2157 73.6448H15.8235C15.1963 75.5331 14.8769 77.51 14.8774 79.4997Z" fill="#FFF566"/>
<path d="M50.5195 73.6448V88.2867H81.563C84.0987 88.2867 86.1617 86.2237 86.1617 83.688V79.4995C86.1623 77.5097 85.8428 75.5329 85.2156 73.6446H50.5195V73.6448Z" fill="#FFE645"/>
<path d="M3.43308 32.3567C3.22427 32.3567 3.01607 32.3344 2.81201 32.2901C1.23042 31.9487 0.225178 30.3898 0.566573 28.8082C2.91259 17.9416 8.89969 7.9593 17.4248 0.699966C18.6568 -0.349023 20.5058 -0.200395 21.5545 1.03121C22.6035 2.2632 22.4553 4.11196 21.2233 5.16095C13.672 11.591 8.36983 20.4282 6.29373 30.0447C5.99745 31.4179 4.78303 32.3567 3.43308 32.3567Z" fill="#FFA81C"/>
<path d="M97.5668 32.3567C96.2166 32.3567 95.0026 31.4181 94.7061 30.0449C92.63 20.4284 87.3279 11.5912 79.7768 5.16134C78.5448 4.11236 78.3965 2.26339 79.4455 1.0316C80.4943 -0.200392 82.3431 -0.348825 83.5753 0.700359C92.1004 7.9593 98.0873 17.9418 100.433 28.8084C100.775 30.39 99.7694 31.9489 98.1879 32.2903C97.9797 32.335 97.7717 32.3567 97.5668 32.3567Z" fill="#FFA81C"/>
<path d="M14.6967 35.784C14.5172 35.784 14.3352 35.7674 14.1524 35.733C12.5622 35.4342 11.5155 33.9028 11.8144 32.3128C13.4223 23.7564 17.9315 15.8528 24.511 10.0579C25.725 8.98817 27.5763 9.10594 28.6456 10.32C29.7151 11.5342 29.5976 13.3853 28.3835 14.4546C22.78 19.3902 18.9405 26.1165 17.5726 33.3948C17.3081 34.8023 16.0783 35.784 14.6967 35.784Z" fill="#FFA81C"/>
<path d="M86.3033 35.7842C84.9215 35.7842 83.6918 34.8025 83.4274 33.3952C82.0595 26.1171 78.2203 19.3906 72.6168 14.4552C71.4026 13.3857 71.2854 11.5346 72.3547 10.3204C73.4242 9.10633 75.2753 8.98895 76.4895 10.0583C83.0686 15.8532 87.5776 23.7566 89.1856 32.3128C89.4844 33.903 88.4376 35.4342 86.8474 35.733C86.665 35.7676 86.4828 35.7842 86.3033 35.7842Z" fill="#FFA81C"/>
</svg>
