<svg width="40" height="40" viewBox="0 0 40 40" fill="none" xmlns="http://www.w3.org/2000/svg">
<g clip-path="url(#clip0_1115_26718)">
<circle cx="19.3359" cy="19.3359" r="16.7578" fill="white"/>
<path fill-rule="evenodd" clip-rule="evenodd" d="M0.703125 19.2942C0.703125 9.04313 9.04313 0.703125 19.2942 0.703125C29.5453 0.703125 37.8853 9.04285 37.8853 19.2942C37.8853 29.5456 29.5456 37.8853 19.2942 37.8853C9.04285 37.8853 0.703125 29.5453 0.703125 19.2942ZM4.24146 19.2942C4.24146 27.5942 10.994 34.347 19.2942 34.347C27.5942 34.347 34.347 27.5942 34.347 19.2942C34.347 10.9942 27.5945 4.24146 19.2942 4.24146C10.994 4.24146 4.24146 10.9942 4.24146 19.2942ZM5.90812 19.2942C5.90812 11.9131 11.9131 5.90812 19.2942 5.90812C26.6753 5.90812 32.6803 11.9131 32.6803 19.2942C32.6803 26.6753 26.6753 32.6803 19.2942 32.6803C11.9131 32.6803 5.90812 26.6753 5.90812 19.2942ZM18.705 7.74415C18.5487 7.90043 18.4609 8.11239 18.4609 8.3334V9.5184C18.4609 9.73942 18.5487 9.95138 18.705 10.1077C18.8613 10.2639 19.0732 10.3517 19.2942 10.3517C19.5153 10.3517 19.7272 10.2639 19.8835 10.1077C20.0398 9.95138 20.1276 9.73942 20.1276 9.5184V8.3334C20.1276 8.11239 20.0398 7.90043 19.8835 7.74415C19.7272 7.58787 19.5153 7.50007 19.2942 7.50007C19.0732 7.50007 18.8613 7.58787 18.705 7.74415ZM8.3334 20.1276H9.5184C9.73942 20.1276 9.95138 20.0398 10.1077 19.8835C10.2639 19.7272 10.3517 19.5153 10.3517 19.2942C10.3517 19.0732 10.2639 18.8613 10.1077 18.705C9.95138 18.5487 9.73942 18.4609 9.5184 18.4609H8.3334C8.11239 18.4609 7.90043 18.5487 7.74415 18.705C7.58787 18.8613 7.50007 19.0732 7.50007 19.2942C7.50007 19.5153 7.58787 19.7272 7.74415 19.8835C7.90043 20.0398 8.11239 20.1276 8.3334 20.1276ZM12.1331 27.634L12.9709 26.7962C13.0483 26.7188 13.1097 26.627 13.1516 26.5259C13.1936 26.4248 13.2151 26.3165 13.2151 26.207C13.2151 26.0976 13.1936 25.9892 13.1516 25.8881C13.1097 25.787 13.0483 25.6952 12.9709 25.6178C12.8936 25.5404 12.8017 25.479 12.7006 25.4371C12.5995 25.3952 12.4912 25.3736 12.3817 25.3736C12.2723 25.3736 12.1639 25.3952 12.0628 25.4371C11.9618 25.479 11.8699 25.5404 11.7926 25.6178L10.9548 26.4556C10.8774 26.533 10.816 26.6248 10.774 26.7259C10.7321 26.827 10.7106 26.9354 10.7106 27.0448C10.7106 27.1542 10.7321 27.2626 10.774 27.3637C10.816 27.4648 10.8774 27.5566 10.9548 27.634C11.1176 27.7967 11.3309 27.8781 11.544 27.8781C11.757 27.8781 11.9703 27.7967 12.1331 27.634ZM12.3817 13.2151C12.5948 13.2151 12.8081 13.1337 12.9709 12.9709C13.0483 12.8936 13.1097 12.8017 13.1516 12.7006C13.1936 12.5995 13.2151 12.4912 13.2151 12.3817C13.2151 12.2723 13.1936 12.1639 13.1516 12.0628C13.1097 11.9618 13.0483 11.8699 12.9709 11.7926L12.1331 10.9548C12.0558 10.8774 11.9639 10.816 11.8628 10.774C11.7618 10.7321 11.6534 10.7106 11.544 10.7106C11.4345 10.7106 11.3262 10.7321 11.2251 10.774C11.124 10.816 11.0321 10.8774 10.9548 10.9548C10.8774 11.0321 10.816 11.124 10.774 11.2251C10.7321 11.3262 10.7106 11.4345 10.7106 11.544C10.7106 11.6534 10.7321 11.7618 10.774 11.8628C10.816 11.9639 10.8774 12.0558 10.9548 12.1331L11.7926 12.9709C11.9553 13.1337 12.1687 13.2151 12.3817 13.2151ZM19.8838 30.8446C20.0401 30.6883 20.1278 30.4764 20.1278 30.2553V29.0703C20.1278 28.8493 20.0401 28.6374 19.8838 28.4811C19.7275 28.3248 19.5155 28.237 19.2945 28.237C19.0735 28.237 18.8615 28.3248 18.7053 28.4811C18.549 28.6374 18.4612 28.8493 18.4612 29.0703V30.2553C18.4612 30.4764 18.549 30.6883 18.7053 30.8446C18.8615 31.0009 19.0735 31.0887 19.2945 31.0887C19.5155 31.0887 19.7275 31.0009 19.8838 30.8446ZM19.2945 20.1278H23.442C23.663 20.1278 23.875 20.0401 24.0313 19.8838C24.1876 19.7275 24.2753 19.5155 24.2753 19.2945C24.2753 19.0735 24.1876 18.8615 24.0313 18.7053C23.875 18.549 23.663 18.4612 23.442 18.4612H20.1278V13.6659C20.1278 13.4449 20.0401 13.2329 19.8838 13.0766C19.7275 12.9204 19.5155 12.8326 19.2945 12.8326C19.0735 12.8326 18.8615 12.9204 18.7053 13.0766C18.549 13.2329 18.4612 13.4449 18.4612 13.6659V19.2945C18.4612 19.5155 18.549 19.7275 18.7053 19.8838C18.8615 20.0401 19.0735 20.1278 19.2945 20.1278ZM27.0451 27.8781C27.2581 27.8781 27.4715 27.7967 27.6342 27.634C27.7117 27.5566 27.7731 27.4648 27.815 27.3637C27.8569 27.2626 27.8785 27.1542 27.8785 27.0448C27.8785 26.9354 27.8569 26.827 27.815 26.7259C27.7731 26.6248 27.7117 26.533 27.6342 26.4556L26.7965 25.6178C26.7191 25.5404 26.6273 25.479 26.5262 25.4371C26.4251 25.3952 26.3167 25.3736 26.2073 25.3736C26.0979 25.3736 25.9895 25.3952 25.8884 25.4371C25.7873 25.479 25.6955 25.5404 25.6181 25.6178C25.5407 25.6952 25.4793 25.787 25.4374 25.8881C25.3955 25.9892 25.3739 26.0976 25.3739 26.207C25.3739 26.3165 25.3955 26.4248 25.4374 26.5259C25.4793 26.627 25.5407 26.7188 25.6181 26.7962L26.4559 27.634C26.6187 27.7967 26.832 27.8781 27.0451 27.8781ZM26.7965 12.9709L27.6342 12.1331C27.7117 12.0558 27.7731 11.9639 27.815 11.8628C27.8569 11.7618 27.8785 11.6534 27.8785 11.544C27.8785 11.4345 27.8569 11.3262 27.815 11.2251C27.7731 11.124 27.7117 11.0321 27.6342 10.9548C27.5569 10.8774 27.4651 10.816 27.364 10.774C27.2629 10.7321 27.1545 10.7106 27.0451 10.7106C26.9356 10.7106 26.8273 10.7321 26.7262 10.774C26.6251 10.816 26.5332 10.8774 26.4559 10.9548L25.6181 11.7926C25.5407 11.8699 25.4793 11.9618 25.4374 12.0628C25.3955 12.1639 25.3739 12.2723 25.3739 12.3817C25.3739 12.4912 25.3955 12.5995 25.4374 12.7006C25.4793 12.8017 25.5407 12.8936 25.6181 12.9709C25.7809 13.1337 25.9942 13.2151 26.2073 13.2151C26.4203 13.2151 26.6337 13.1337 26.7965 12.9709ZM30.8449 18.705C30.6886 18.5487 30.4766 18.4609 30.2556 18.4609H29.0706C28.8496 18.4609 28.6376 18.5487 28.4814 18.705C28.3251 18.8613 28.2373 19.0732 28.2373 19.2942C28.2373 19.5153 28.3251 19.7272 28.4814 19.8835C28.6376 20.0398 28.8496 20.1276 29.0706 20.1276H30.2556C30.4766 20.1276 30.6886 20.0398 30.8449 19.8835C31.0012 19.7272 31.089 19.5153 31.089 19.2942C31.089 19.0732 31.0012 18.8613 30.8449 18.705Z" fill="url(#paint0_linear_1115_26718)"/>
<circle cx="28.6719" cy="28.6719" r="9.84375" fill="url(#paint1_linear_1115_26718)" stroke="white" stroke-width="1.5625"/>
<g clip-path="url(#clip1_1115_26718)">
<path fill-rule="evenodd" clip-rule="evenodd" d="M27.3636 26.491C27.3636 26.144 27.5015 25.8111 27.7469 25.5657C27.9923 25.3203 28.3251 25.1825 28.6722 25.1825C29.0193 25.1825 29.3521 25.3203 29.5975 25.5657C29.8429 25.8111 29.9808 26.144 29.9808 26.491V27.3634H27.3636V26.491ZM26.4912 27.3634V26.491C26.4912 25.9126 26.721 25.3579 27.13 24.9489C27.539 24.5398 28.0938 24.3101 28.6722 24.3101C29.2506 24.3101 29.8054 24.5398 30.2144 24.9489C30.6234 25.3579 30.8532 25.9126 30.8532 26.491V27.3634H31.7256C31.8413 27.3634 31.9522 27.4094 32.034 27.4912C32.1158 27.573 32.1618 27.684 32.1618 27.7996V31.7254C32.1618 32.0725 32.0239 32.4053 31.7785 32.6507C31.5331 32.8961 31.2003 33.034 30.8532 33.034H26.4912C26.1442 33.034 25.8113 32.8961 25.5659 32.6507C25.3205 32.4053 25.1826 32.0725 25.1826 31.7254V27.7996C25.1826 27.684 25.2286 27.573 25.3104 27.4912C25.3922 27.4094 25.5031 27.3634 25.6188 27.3634H26.4912ZM29.1084 30.1987C29.1084 30.0252 29.1773 29.8588 29.3 29.7361C29.4227 29.6134 29.5892 29.5444 29.7627 29.5444H29.7671C29.9406 29.5444 30.107 29.6134 30.2297 29.7361C30.3524 29.8588 30.4214 30.0252 30.4214 30.1987V30.2031C30.4214 30.3766 30.3524 30.543 30.2297 30.6658C30.107 30.7885 29.9406 30.8574 29.7671 30.8574H29.7627C29.5892 30.8574 29.4227 30.7885 29.3 30.6658C29.1773 30.543 29.1084 30.3766 29.1084 30.2031V30.1987Z" fill="white"/>
</g>
</g>
<defs>
<linearGradient id="paint0_linear_1115_26718" x1="19.2942" y1="0.703125" x2="19.2942" y2="37.8853" gradientUnits="userSpaceOnUse">
<stop stop-color="#F48833"/>
<stop offset="1" stop-color="#F1602B"/>
</linearGradient>
<linearGradient id="paint1_linear_1115_26718" x1="28.6719" y1="18.0469" x2="28.6719" y2="39.2969" gradientUnits="userSpaceOnUse">
<stop stop-color="#F48833"/>
<stop offset="1" stop-color="#F1602B"/>
</linearGradient>
<clipPath id="clip0_1115_26718">
<rect width="40" height="40" fill="white"/>
</clipPath>
<clipPath id="clip1_1115_26718">
<rect width="10.4688" height="10.4688" fill="white" transform="translate(23.4375 23.4375)"/>
</clipPath>
</defs>
</svg>
