
<svg width="61" height="76" viewBox="0 0 61 76" fill="none" xmlns="http://www.w3.org/2000/svg">
<path d="M59.6161 7.11252L53.5177 1.01408C53.3387 0.835088 53.1233 0.696617 52.8862 0.608038C52.649 0.519459 52.3956 0.482836 52.1431 0.500647C51.2066 0.566585 47.6561 0.464553 47.1431 0.500647C46.2069 0.566741 45.5 1.38502 45.5 2.32377V4.24643H3C1.61922 4.24643 0.5 5.36565 0.5 6.74643V11.7464C0.5 13.1272 1.61922 14.2464 3 14.2464H45.5V16.1691C45.5 17.1078 46.2069 17.9263 47.1433 17.9921C47.6562 18.0281 51.2067 17.9261 52.1433 17.9921C52.3958 18.0098 52.6492 17.9732 52.8863 17.8846C53.1235 17.7961 53.3388 17.6576 53.5178 17.4786L59.5681 11.4283C59.9823 11.0141 60.2912 10.4989 60.4225 9.92799C60.538 9.42883 60.5245 8.90849 60.3835 8.41595C60.2424 7.92341 59.9783 7.47486 59.6161 7.11252Z" fill="#FAA019"/>
<path d="M45.5 2.3203V4.2428H3C1.61922 4.2428 0.5 5.36202 0.5 6.7428V11.7428C0.5 13.1236 1.61922 14.2428 3 14.2428H45.5V16.1653C45.5 17.1041 46.2069 17.9225 47.1433 17.9884C47.3958 18.0062 47.6492 17.9696 47.8863 17.881C48.1235 17.7924 48.3388 17.654 48.5178 17.475L54.5681 11.4247C54.9823 11.0105 55.2912 10.4955 55.4225 9.92437C55.538 9.42522 55.5245 8.9049 55.3835 8.41236C55.2425 7.91983 54.9784 7.47127 54.6162 7.1089L48.5178 1.01062C48.3388 0.83162 48.1235 0.69315 47.8863 0.60457C47.6492 0.515991 47.3958 0.479369 47.1433 0.49718C46.2069 0.563117 45.5 1.3814 45.5 2.3203Z" fill="#FFD205"/>
<path d="M1.3841 24.6197L7.48254 18.5213C7.66154 18.3423 7.87689 18.2038 8.11402 18.1152C8.35116 18.0267 8.60456 17.99 8.85707 18.0078C9.79363 18.0738 13.3441 17.9718 13.8571 18.0078C14.7936 18.0738 15.5004 18.8921 15.5004 19.8308V21.7535H58.0004C59.3811 21.7535 60.5004 22.8727 60.5004 24.2535V29.2535C60.5004 30.6343 59.3811 31.7535 58.0004 31.7535H15.5002V33.6761C15.5002 34.6149 14.7933 35.4333 13.8569 35.4991C13.3439 35.5352 9.79348 35.4332 8.85691 35.4991C8.6044 35.5169 8.35101 35.4803 8.11388 35.3917C7.87674 35.3031 7.66139 35.1646 7.48238 34.9857L1.43207 28.9353C1.01785 28.5211 0.708945 28.006 0.577695 27.435C0.462221 26.9359 0.475653 26.4156 0.616727 25.9231C0.757802 25.4306 1.02188 24.982 1.3841 24.6197Z" fill="#FFA81C"/>
<path d="M10.5002 19.8275V21.75H53.0002C54.381 21.75 55.5002 22.8692 55.5002 24.25V29.25C55.5002 30.6308 54.381 31.75 53.0002 31.75H10.5002V33.6725C10.5002 34.6113 9.79336 35.4297 8.85696 35.4956C8.60444 35.5134 8.35105 35.4768 8.11392 35.3882C7.87678 35.2996 7.66143 35.1612 7.48242 34.9822L1.43211 28.9319C1.01789 28.5177 0.708988 28.0027 0.577738 27.4316C0.462231 26.9324 0.475632 26.4121 0.616679 25.9195C0.757725 25.427 1.02178 24.9785 1.38399 24.6161L7.48242 18.5178C7.66142 18.3388 7.87677 18.2004 8.11391 18.1118C8.35105 18.0232 8.60444 17.9866 8.85696 18.0044C9.79336 18.0703 10.5002 18.8886 10.5002 19.8275Z" fill="#FFD205"/>
<path d="M33 75.5H28C18.335 75.5 10.5 67.665 10.5 58C10.5 48.335 18.335 40.5 28 40.5H33C42.665 40.5 50.5 48.335 50.5 58C50.5 67.665 42.665 75.5 33 75.5Z" fill="#FAA019"/>
<path d="M28 75.5C37.665 75.5 45.5 67.665 45.5 58C45.5 48.335 37.665 40.5 28 40.5C18.335 40.5 10.5 48.335 10.5 58C10.5 67.665 18.335 75.5 28 75.5Z" fill="#FFD205"/>
<path d="M28 70.5C34.9036 70.5 40.5 64.9036 40.5 58C40.5 51.0964 34.9036 45.5 28 45.5C21.0964 45.5 15.5 51.0964 15.5 58C15.5 64.9036 21.0964 70.5 28 70.5Z" fill="#FAA019"/>
<path d="M29.875 56.75H26.125C25.0911 56.75 24.25 55.9089 24.25 54.875C24.25 53.8411 25.0911 53 26.125 53H29.875C30.9089 53 31.75 53.8411 31.75 54.875C31.75 55.2065 31.8817 55.5245 32.1161 55.7589C32.3505 55.9933 32.6685 56.125 33 56.125C33.3315 56.125 33.6495 55.9933 33.8839 55.7589C34.1183 55.5245 34.25 55.2065 34.25 54.875C34.25 52.4627 32.2873 50.5 29.875 50.5H29.25V49.25C29.25 48.9185 29.1183 48.6005 28.8839 48.3661C28.6495 48.1317 28.3315 48 28 48C27.6685 48 27.3505 48.1317 27.1161 48.3661C26.8817 48.6005 26.75 48.9185 26.75 49.25V50.5H26.125C23.7127 50.5 21.75 52.4627 21.75 54.875C21.75 57.2873 23.7127 59.25 26.125 59.25H29.875C30.9089 59.25 31.75 60.0911 31.75 61.125C31.75 62.1589 30.9089 63 29.875 63H26.125C25.0911 63 24.25 62.1589 24.25 61.125C24.25 60.7935 24.1183 60.4755 23.8839 60.2411C23.6495 60.0067 23.3315 59.875 23 59.875C22.6685 59.875 22.3505 60.0067 22.1161 60.2411C21.8817 60.4755 21.75 60.7935 21.75 61.125C21.75 63.5373 23.7127 65.5 26.125 65.5H26.75V66.75C26.75 67.0815 26.8817 67.3995 27.1161 67.6339C27.3505 67.8683 27.6685 68 28 68C28.3315 68 28.6495 67.8683 28.8839 67.6339C29.1183 67.3995 29.25 67.0815 29.25 66.75V65.5H29.875C32.2873 65.5 34.25 63.5373 34.25 61.125C34.25 58.7127 32.2873 56.75 29.875 56.75Z" fill="#FFD205"/>
<path d="M48 44.25C47.6685 44.25 47.3505 44.1183 47.1161 43.8839C46.8817 43.6495 46.75 43.3315 46.75 43V38C46.75 37.6685 46.8817 37.3505 47.1161 37.1161C47.3505 36.8817 47.6685 36.75 48 36.75C48.3315 36.75 48.6495 36.8817 48.8839 37.1161C49.1183 37.3505 49.25 37.6685 49.25 38V43C49.25 43.3315 49.1183 43.6495 48.8839 43.8839C48.6495 44.1183 48.3315 44.25 48 44.25ZM53 51.75C52.6685 51.75 52.3505 51.6183 52.1161 51.3839C51.8817 51.1495 51.75 50.8315 51.75 50.5V40.5C51.75 40.1685 51.8817 39.8505 52.1161 39.6161C52.3505 39.3817 52.6685 39.25 53 39.25C53.3315 39.25 53.6495 39.3817 53.8839 39.6161C54.1183 39.8505 54.25 40.1685 54.25 40.5V50.5C54.25 50.8315 54.1183 51.1495 53.8839 51.3839C53.6495 51.6183 53.3315 51.75 53 51.75ZM13 44.25C12.6685 44.25 12.3505 44.1183 12.1161 43.8839C11.8817 43.6495 11.75 43.3315 11.75 43V38C11.75 37.6685 11.8817 37.3505 12.1161 37.1161C12.3505 36.8817 12.6685 36.75 13 36.75C13.3315 36.75 13.6495 36.8817 13.8839 37.1161C14.1183 37.3505 14.25 37.6685 14.25 38V43C14.25 43.3315 14.1183 43.6495 13.8839 43.8839C13.6495 44.1183 13.3315 44.25 13 44.25ZM8 51.75C7.66848 51.75 7.35054 51.6183 7.11612 51.3839C6.8817 51.1495 6.75 50.8315 6.75 50.5V40.5C6.75 40.1685 6.8817 39.8505 7.11612 39.6161C7.35054 39.3817 7.66848 39.25 8 39.25C8.33152 39.25 8.64946 39.3817 8.88388 39.6161C9.1183 39.8505 9.25 40.1685 9.25 40.5V50.5C9.25 50.8315 9.1183 51.1495 8.88388 51.3839C8.64946 51.6183 8.33152 51.75 8 51.75Z" fill="#FAA019"/>
</svg>
