<svg width="20" height="19" viewBox="0 0 20 19" fill="none" xmlns="http://www.w3.org/2000/svg">
<mask id="mask0_1702_8331" style="mask-type:luminance" maskUnits="userSpaceOnUse" x="0" y="0" width="22" height="19">
<path d="M20.4 18.15V0.850002H0.85V18.15H20.4Z" fill="white" stroke="white" stroke-width="1.7"/>
</mask>
<g mask="url(#mask0_1702_8331)">
<path d="M14.873 9.60781C14.9486 9.60781 14.9906 9.54888 14.9906 9.5C14.9906 9.45112 14.9486 9.39219 14.873 9.39219C14.7975 9.39219 14.7555 9.45112 14.7555 9.5C14.7555 9.54888 14.7975 9.60781 14.873 9.60781Z" fill="black" stroke="black" stroke-width="1.7"/>
<path d="M17.4127 15.4375C16.9061 16.3249 15.9594 16.9219 14.875 16.9219H4.91406C3.29603 16.9219 1.98438 15.5927 1.98438 13.9531V5.04688C1.98438 3.40727 3.29603 2.07813 4.91406 2.07813H14.875C15.9594 2.07813 16.9061 2.67514 17.4127 3.5625" stroke="black" stroke-width="1.7" stroke-miterlimit="10" stroke-linejoin="round"/>
<path d="M19.2695 12.4685H20.1195V13.3181L19.2699 13.3185L19.2695 12.4685ZM19.2695 6.53114V5.68114H20.1195V6.53114H19.2695ZM12.7953 9.49989C12.7953 10.6807 13.737 11.6186 14.875 11.6186V13.3186C12.7769 13.3186 11.0953 11.5983 11.0953 9.49989H12.7953ZM14.875 11.6186H17.8047V13.3186H14.875V11.6186ZM17.8047 11.6186C18.6142 11.6186 18.282 11.6189 19.2692 11.6185L19.2699 13.3185C18.2823 13.3189 18.6132 13.3186 17.8047 13.3186V11.6186ZM18.4195 12.4685V6.53114H20.1195V12.4685H18.4195ZM19.2695 7.38114C19.2685 7.38114 19.2675 7.38114 19.2665 7.38114C19.2655 7.38114 19.2645 7.38114 19.2635 7.38114C19.2625 7.38114 19.2615 7.38114 19.2605 7.38114C19.2595 7.38114 19.2585 7.38114 19.2575 7.38114C19.2565 7.38114 19.2555 7.38114 19.2545 7.38114C19.2535 7.38114 19.2525 7.38114 19.2515 7.38114C19.2505 7.38114 19.2495 7.38114 19.2485 7.38114C19.2475 7.38114 19.2465 7.38114 19.2455 7.38114C19.2446 7.38114 19.2436 7.38114 19.2426 7.38114C19.2416 7.38114 19.2406 7.38114 19.2396 7.38114C19.2386 7.38114 19.2377 7.38114 19.2367 7.38114C19.2357 7.38114 19.2347 7.38114 19.2337 7.38114C19.2328 7.38114 19.2318 7.38114 19.2308 7.38114C19.2298 7.38114 19.2289 7.38114 19.2279 7.38114C19.2269 7.38114 19.226 7.38114 19.225 7.38114C19.224 7.38114 19.2231 7.38114 19.2221 7.38114C19.2211 7.38114 19.2202 7.38114 19.2192 7.38114C19.2182 7.38114 19.2173 7.38114 19.2163 7.38114C19.2153 7.38114 19.2144 7.38114 19.2134 7.38114C19.2125 7.38114 19.2115 7.38114 19.2106 7.38114C19.2096 7.38114 19.2086 7.38114 19.2077 7.38114C19.2067 7.38114 19.2058 7.38114 19.2048 7.38114C19.2039 7.38114 19.2029 7.38114 19.202 7.38114C19.201 7.38114 19.2001 7.38114 19.1991 7.38114C19.1982 7.38114 19.1972 7.38114 19.1963 7.38114C19.1954 7.38114 19.1944 7.38114 19.1935 7.38114C19.1925 7.38114 19.1916 7.38114 19.1907 7.38114C19.1897 7.38114 19.1888 7.38114 19.1878 7.38114C19.1869 7.38114 19.186 7.38114 19.185 7.38114C19.1841 7.38114 19.1832 7.38114 19.1822 7.38114C19.1813 7.38114 19.1804 7.38114 19.1795 7.38114C19.1785 7.38114 19.1776 7.38114 19.1767 7.38114C19.1757 7.38114 19.1748 7.38114 19.1739 7.38114C19.173 7.38114 19.1721 7.38114 19.1711 7.38114C19.1702 7.38114 19.1693 7.38114 19.1684 7.38114C19.1674 7.38114 19.1665 7.38114 19.1656 7.38114C19.1647 7.38114 19.1638 7.38114 19.1629 7.38114C19.162 7.38114 19.161 7.38114 19.1601 7.38114C19.1592 7.38114 19.1583 7.38114 19.1574 7.38114C19.1565 7.38114 19.1556 7.38114 19.1547 7.38114C19.1538 7.38114 19.1529 7.38114 19.1519 7.38114C19.151 7.38114 19.1501 7.38114 19.1492 7.38114C19.1483 7.38114 19.1474 7.38114 19.1465 7.38114C19.1456 7.38114 19.1447 7.38114 19.1438 7.38114C19.1429 7.38114 19.142 7.38114 19.1411 7.38114C19.1402 7.38114 19.1393 7.38114 19.1385 7.38114C19.1376 7.38114 19.1367 7.38114 19.1358 7.38114C19.1349 7.38114 19.134 7.38114 19.1331 7.38114C19.1322 7.38114 19.1313 7.38114 19.1304 7.38114C19.1295 7.38114 19.1287 7.38114 19.1278 7.38114C19.1269 7.38114 19.126 7.38114 19.1251 7.38114C19.1242 7.38114 19.1233 7.38114 19.1225 7.38114C19.1216 7.38114 19.1207 7.38114 19.1198 7.38114C19.1189 7.38114 19.1181 7.38114 19.1172 7.38114C19.1163 7.38114 19.1154 7.38114 19.1146 7.38114C19.1137 7.38114 19.1128 7.38114 19.1119 7.38114C19.1111 7.38114 19.1102 7.38114 19.1093 7.38114C19.1085 7.38114 19.1076 7.38114 19.1067 7.38114C19.1058 7.38114 19.105 7.38114 19.1041 7.38114C19.1032 7.38114 19.1024 7.38114 19.1015 7.38114C19.1006 7.38114 19.0998 7.38114 19.0989 7.38114C19.098 7.38114 19.0972 7.38114 19.0963 7.38114C19.0955 7.38114 19.0946 7.38114 19.0937 7.38114C19.0929 7.38114 19.092 7.38114 19.0912 7.38114C19.0903 7.38114 19.0895 7.38114 19.0886 7.38114C19.0877 7.38114 19.0869 7.38114 19.086 7.38114C19.0852 7.38114 19.0843 7.38114 19.0835 7.38114C19.0826 7.38114 19.0818 7.38114 19.0809 7.38114C19.0801 7.38114 19.0792 7.38114 19.0784 7.38114C19.0775 7.38114 19.0767 7.38114 19.0758 7.38114C19.075 7.38114 19.0741 7.38114 19.0733 7.38114C19.0724 7.38114 19.0716 7.38114 19.0708 7.38114C19.0699 7.38114 19.0691 7.38114 19.0682 7.38114C19.0674 7.38114 19.0666 7.38114 19.0657 7.38114C19.0649 7.38114 19.064 7.38114 19.0632 7.38114C19.0624 7.38114 19.0615 7.38114 19.0607 7.38114C19.0598 7.38114 19.059 7.38114 19.0582 7.38114C19.0573 7.38114 19.0565 7.38114 19.0557 7.38114C19.0548 7.38114 19.054 7.38114 19.0532 7.38114C19.0524 7.38114 19.0515 7.38114 19.0507 7.38114C19.0499 7.38114 19.049 7.38114 19.0482 7.38114C19.0474 7.38114 19.0466 7.38114 19.0457 7.38114C19.0449 7.38114 19.0441 7.38114 19.0432 7.38114C19.0424 7.38114 19.0416 7.38114 19.0408 7.38114C19.04 7.38114 19.0391 7.38114 19.0383 7.38114C19.0375 7.38114 19.0367 7.38114 19.0358 7.38114C19.035 7.38114 19.0342 7.38114 19.0334 7.38114C19.0326 7.38114 19.0318 7.38114 19.0309 7.38114C19.0301 7.38114 19.0293 7.38114 19.0285 7.38114C19.0277 7.38114 19.0269 7.38114 19.026 7.38114C19.0252 7.38114 19.0244 7.38114 19.0236 7.38114C19.0228 7.38114 19.022 7.38114 19.0212 7.38114C19.0204 7.38114 19.0196 7.38114 19.0187 7.38114C19.0179 7.38114 19.0171 7.38114 19.0163 7.38114C19.0155 7.38114 19.0147 7.38114 19.0139 7.38114C19.0131 7.38114 19.0123 7.38114 19.0115 7.38114C19.0107 7.38114 19.0099 7.38114 19.0091 7.38114C19.0083 7.38114 19.0075 7.38114 19.0067 7.38114C19.0059 7.38114 19.005 7.38114 19.0042 7.38114C19.0034 7.38114 19.0026 7.38114 19.0018 7.38114C19.001 7.38114 19.0002 7.38114 18.9994 7.38114C18.9987 7.38114 18.9979 7.38114 18.9971 7.38114C18.9963 7.38114 18.9955 7.38114 18.9947 7.38114C18.9939 7.38114 18.9931 7.38114 18.9923 7.38114C18.9915 7.38114 18.9907 7.38114 18.9899 7.38114C18.9891 7.38114 18.9883 7.38114 18.9875 7.38114C18.9867 7.38114 18.9859 7.38114 18.9851 7.38114C18.9844 7.38114 18.9836 7.38114 18.9828 7.38114C18.982 7.38114 18.9812 7.38114 18.9804 7.38114C18.9796 7.38114 18.9788 7.38114 18.978 7.38114C18.9773 7.38114 18.9765 7.38114 18.9757 7.38114C18.9749 7.38114 18.9741 7.38114 18.9733 7.38114C18.9725 7.38114 18.9718 7.38114 18.971 7.38114C18.9702 7.38114 18.9694 7.38114 18.9686 7.38114C18.9678 7.38114 18.9671 7.38114 18.9663 7.38114C18.9655 7.38114 18.9647 7.38114 18.9639 7.38114C18.9632 7.38114 18.9624 7.38114 18.9616 7.38114C18.9608 7.38114 18.96 7.38114 18.9593 7.38114C18.9585 7.38114 18.9577 7.38114 18.9569 7.38114C18.9562 7.38114 18.9554 7.38114 18.9546 7.38114C18.9538 7.38114 18.953 7.38114 18.9523 7.38114C18.9515 7.38114 18.9507 7.38114 18.9499 7.38114C18.9492 7.38114 18.9484 7.38114 18.9476 7.38114C18.9469 7.38114 18.9461 7.38114 18.9453 7.38114C18.9445 7.38114 18.9438 7.38114 18.943 7.38114C18.9422 7.38114 18.9414 7.38114 18.9407 7.38114C18.9399 7.38114 18.9391 7.38114 18.9384 7.38114C18.9376 7.38114 18.9368 7.38114 18.9361 7.38114C18.9353 7.38114 18.9345 7.38114 18.9338 7.38114C18.933 7.38114 18.9322 7.38114 18.9315 7.38114C18.9307 7.38114 18.9299 7.38114 18.9292 7.38114C18.9284 7.38114 18.9276 7.38114 18.9269 7.38114C18.9261 7.38114 18.9253 7.38114 18.9246 7.38114C18.9238 7.38114 18.923 7.38114 18.9223 7.38114C18.9215 7.38114 18.9207 7.38114 18.92 7.38114C18.9192 7.38114 18.9185 7.38114 18.9177 7.38114C18.9169 7.38114 18.9162 7.38114 18.9154 7.38114C18.9146 7.38114 18.9139 7.38114 18.9131 7.38114C18.9124 7.38114 18.9116 7.38114 18.9108 7.38114C18.9101 7.38114 18.9093 7.38114 18.9086 7.38114C18.9078 7.38114 18.907 7.38114 18.9063 7.38114C18.9055 7.38114 18.9048 7.38114 18.904 7.38114C18.9033 7.38114 18.9025 7.38114 18.9017 7.38114C18.901 7.38114 18.9002 7.38114 18.8995 7.38114C18.8987 7.38114 18.898 7.38114 18.8972 7.38114C18.8965 7.38114 18.8957 7.38114 18.8949 7.38114C18.8942 7.38114 18.8934 7.38114 18.8927 7.38114C18.8919 7.38114 18.8912 7.38114 18.8904 7.38114C18.8897 7.38114 18.8889 7.38114 18.8882 7.38114C18.8874 7.38114 18.8866 7.38114 18.8859 7.38114C18.8851 7.38114 18.8844 7.38114 18.8836 7.38114C18.8829 7.38114 18.8821 7.38114 18.8814 7.38114C18.8806 7.38114 18.8799 7.38114 18.8791 7.38114C18.8784 7.38114 18.8776 7.38114 18.8769 7.38114C18.8761 7.38114 18.8754 7.38114 18.8746 7.38114C18.8739 7.38114 18.8731 7.38114 18.8724 7.38114C18.8716 7.38114 18.8709 7.38114 18.8701 7.38114C18.8694 7.38114 18.8686 7.38114 18.8679 7.38114C18.8671 7.38114 18.8664 7.38114 18.8656 7.38114C18.8649 7.38114 18.8641 7.38114 18.8634 7.38114C18.8626 7.38114 18.8619 7.38114 18.8611 7.38114C18.8604 7.38114 18.8596 7.38114 18.8589 7.38114C18.8581 7.38114 18.8574 7.38114 18.8567 7.38114C18.8559 7.38114 18.8552 7.38114 18.8544 7.38114C18.8537 7.38114 18.8529 7.38114 18.8522 7.38114C18.8514 7.38114 18.8507 7.38114 18.8499 7.38114C18.8492 7.38114 18.8484 7.38114 18.8477 7.38114C18.847 7.38114 18.8462 7.38114 18.8455 7.38114C18.8447 7.38114 18.844 7.38114 18.8432 7.38114C18.8425 7.38114 18.8417 7.38114 18.841 7.38114C18.8402 7.38114 18.8395 7.38114 18.8388 7.38114C18.838 7.38114 18.8373 7.38114 18.8365 7.38114C18.8358 7.38114 18.835 7.38114 18.8343 7.38114C18.8335 7.38114 18.8328 7.38114 18.8321 7.38114C18.8313 7.38114 18.8306 7.38114 18.8298 7.38114C18.8291 7.38114 18.8283 7.38114 18.8276 7.38114C18.8268 7.38114 18.8261 7.38114 18.8254 7.38114C18.8246 7.38114 18.8239 7.38114 18.8231 7.38114C18.8224 7.38114 18.8216 7.38114 18.8209 7.38114C18.8202 7.38114 18.8194 7.38114 18.8187 7.38114C18.8179 7.38114 18.8172 7.38114 18.8164 7.38114C18.8157 7.38114 18.8149 7.38114 18.8142 7.38114C18.8135 7.38114 18.8127 7.38114 18.812 7.38114C18.8112 7.38114 18.8105 7.38114 18.8097 7.38114C18.809 7.38114 18.8083 7.38114 18.8075 7.38114C18.8068 7.38114 18.806 7.38114 18.8053 7.38114C18.8045 7.38114 18.8038 7.38114 18.8031 7.38114C18.8023 7.38114 18.8016 7.38114 18.8008 7.38114C18.8001 7.38114 18.7993 7.38114 18.7986 7.38114C18.7979 7.38114 18.7971 7.38114 18.7964 7.38114C18.7956 7.38114 18.7949 7.38114 18.7941 7.38114C18.7934 7.38114 18.7926 7.38114 18.7919 7.38114C18.7912 7.38114 18.7904 7.38114 18.7897 7.38114C18.7889 7.38114 18.7882 7.38114 18.7874 7.38114C18.7867 7.38114 18.786 7.38114 18.7852 7.38114C18.7845 7.38114 18.7837 7.38114 18.783 7.38114C18.7822 7.38114 18.7815 7.38114 18.7807 7.38114C18.78 7.38114 18.7793 7.38114 18.7785 7.38114C18.7778 7.38114 18.777 7.38114 18.7763 7.38114C18.7755 7.38114 18.7748 7.38114 18.774 7.38114C18.7733 7.38114 18.7726 7.38114 18.7718 7.38114C18.7711 7.38114 18.7703 7.38114 18.7696 7.38114C18.7688 7.38114 18.7681 7.38114 18.7673 7.38114C18.7666 7.38114 18.7658 7.38114 18.7651 7.38114C18.7643 7.38114 18.7636 7.38114 18.7629 7.38114C18.7621 7.38114 18.7614 7.38114 18.7606 7.38114C18.7599 7.38114 18.7591 7.38114 18.7584 7.38114C18.7576 7.38114 18.7569 7.38114 18.7561 7.38114C18.7554 7.38114 18.7546 7.38114 18.7539 7.38114C18.7531 7.38114 18.7524 7.38114 18.7516 7.38114C18.7509 7.38114 18.7501 7.38114 18.7494 7.38114C18.7487 7.38114 18.7479 7.38114 18.7472 7.38114C18.7464 7.38114 18.7457 7.38114 18.7449 7.38114C18.7442 7.38114 18.7434 7.38114 18.7427 7.38114C18.7419 7.38114 18.7412 7.38114 18.7404 7.38114C18.7397 7.38114 18.7389 7.38114 18.7382 7.38114C18.7374 7.38114 18.7367 7.38114 18.7359 7.38114C18.7352 7.38114 18.7344 7.38114 18.7336 7.38114C18.7329 7.38114 18.7321 7.38114 18.7314 7.38114C18.7306 7.38114 18.7299 7.38114 18.7291 7.38114C18.7284 7.38114 18.7276 7.38114 18.7269 7.38114C18.7261 7.38114 18.7254 7.38114 18.7246 7.38114C18.7239 7.38114 18.7231 7.38114 18.7223 7.38114C18.7216 7.38114 18.7208 7.38114 18.7201 7.38114C18.7193 7.38114 18.7186 7.38114 18.7178 7.38114C18.7171 7.38114 18.7163 7.38114 18.7155 7.38114C18.7148 7.38114 18.714 7.38114 18.7133 7.38114C18.7125 7.38114 18.7118 7.38114 18.711 7.38114C18.7102 7.38114 18.7095 7.38114 18.7087 7.38114C18.708 7.38114 18.7072 7.38114 18.7065 7.38114C18.7057 7.38114 18.7049 7.38114 18.7042 7.38114C18.7034 7.38114 18.7027 7.38114 18.7019 7.38114C18.7011 7.38114 18.7004 7.38114 18.6996 7.38114C18.6989 7.38114 18.6981 7.38114 18.6973 7.38114C18.6966 7.38114 18.6958 7.38114 18.695 7.38114C18.6943 7.38114 18.6935 7.38114 18.6928 7.38114C18.692 7.38114 18.6912 7.38114 18.6905 7.38114C18.6897 7.38114 18.6889 7.38114 18.6882 7.38114C18.6874 7.38114 18.6866 7.38114 18.6859 7.38114C18.6851 7.38114 18.6843 7.38114 18.6836 7.38114C18.6828 7.38114 18.682 7.38114 18.6813 7.38114C18.6805 7.38114 18.6797 7.38114 18.679 7.38114C18.6782 7.38114 18.6774 7.38114 18.6767 7.38114C18.6759 7.38114 18.6751 7.38114 18.6743 7.38114C18.6736 7.38114 18.6728 7.38114 18.672 7.38114C18.6713 7.38114 18.6705 7.38114 18.6697 7.38114C18.6689 7.38114 18.6682 7.38114 18.6674 7.38114C18.6666 7.38114 18.6658 7.38114 18.6651 7.38114C18.6643 7.38114 18.6635 7.38114 18.6627 7.38114C18.662 7.38114 18.6612 7.38114 18.6604 7.38114C18.6596 7.38114 18.6589 7.38114 18.6581 7.38114C18.6573 7.38114 18.6565 7.38114 18.6558 7.38114C18.655 7.38114 18.6542 7.38114 18.6534 7.38114C18.6526 7.38114 18.6519 7.38114 18.6511 7.38114C18.6503 7.38114 18.6495 7.38114 18.6487 7.38114C18.648 7.38114 18.6472 7.38114 18.6464 7.38114C18.6456 7.38114 18.6448 7.38114 18.644 7.38114C18.6433 7.38114 18.6425 7.38114 18.6417 7.38114C18.6409 7.38114 18.6401 7.38114 18.6393 7.38114C18.6385 7.38114 18.6378 7.38114 18.637 7.38114C18.6362 7.38114 18.6354 7.38114 18.6346 7.38114C18.6338 7.38114 18.633 7.38114 18.6322 7.38114C18.6314 7.38114 18.6307 7.38114 18.6299 7.38114C18.6291 7.38114 18.6283 7.38114 18.6275 7.38114C18.6267 7.38114 18.6259 7.38114 18.6251 7.38114C18.6243 7.38114 18.6235 7.38114 18.6227 7.38114C18.6219 7.38114 18.6211 7.38114 18.6203 7.38114C18.6196 7.38114 18.6188 7.38114 18.618 7.38114C18.6172 7.38114 18.6164 7.38114 18.6156 7.38114C18.6148 7.38114 18.614 7.38114 18.6132 7.38114C18.6124 7.38114 18.6116 7.38114 18.6108 7.38114C18.61 7.38114 18.6092 7.38114 18.6084 7.38114C18.6076 7.38114 18.6068 7.38114 18.6059 7.38114C18.6051 7.38114 18.6043 7.38114 18.6035 7.38114C18.6027 7.38114 18.6019 7.38114 18.6011 7.38114C18.6003 7.38114 18.5995 7.38114 18.5987 7.38114C18.5979 7.38114 18.5971 7.38114 18.5963 7.38114C18.5955 7.38114 18.5946 7.38114 18.5938 7.38114C18.593 7.38114 18.5922 7.38114 18.5914 7.38114C18.5906 7.38114 18.5898 7.38114 18.589 7.38114C18.5881 7.38114 18.5873 7.38114 18.5865 7.38114C18.5857 7.38114 18.5849 7.38114 18.5841 7.38114C18.5833 7.38114 18.5824 7.38114 18.5816 7.38114C18.5808 7.38114 18.58 7.38114 18.5792 7.38114C18.5783 7.38114 18.5775 7.38114 18.5767 7.38114C18.5759 7.38114 18.5751 7.38114 18.5742 7.38114C18.5734 7.38114 18.5726 7.38114 18.5718 7.38114C18.5709 7.38114 18.5701 7.38114 18.5693 7.38114C18.5685 7.38114 18.5676 7.38114 18.5668 7.38114C18.566 7.38114 18.5651 7.38114 18.5643 7.38114C18.5635 7.38114 18.5627 7.38114 18.5618 7.38114C18.561 7.38114 18.5602 7.38114 18.5593 7.38114C18.5585 7.38114 18.5577 7.38114 18.5568 7.38114C18.556 7.38114 18.5552 7.38114 18.5543 7.38114C18.5535 7.38114 18.5526 7.38114 18.5518 7.38114C18.551 7.38114 18.5501 7.38114 18.5493 7.38114C18.5484 7.38114 18.5476 7.38114 18.5468 7.38114C18.5459 7.38114 18.5451 7.38114 18.5442 7.38114C18.5434 7.38114 18.5426 7.38114 18.5417 7.38114C18.5409 7.38114 18.54 7.38114 18.5392 7.38114C18.5383 7.38114 18.5375 7.38114 18.5366 7.38114C18.5358 7.38114 18.5349 7.38114 18.5341 7.38114C18.5332 7.38114 18.5324 7.38114 18.5315 7.38114C18.5307 7.38114 18.5298 7.38114 18.529 7.38114C18.5281 7.38114 18.5273 7.38114 18.5264 7.38114C18.5255 7.38114 18.5247 7.38114 18.5238 7.38114C18.523 7.38114 18.5221 7.38114 18.5213 7.38114C18.5204 7.38114 18.5195 7.38114 18.5187 7.38114C18.5178 7.38114 18.5169 7.38114 18.5161 7.38114C18.5152 7.38114 18.5144 7.38114 18.5135 7.38114C18.5126 7.38114 18.5118 7.38114 18.5109 7.38114C18.51 7.38114 18.5092 7.38114 18.5083 7.38114C18.5074 7.38114 18.5065 7.38114 18.5057 7.38114C18.5048 7.38114 18.5039 7.38114 18.5031 7.38114C18.5022 7.38114 18.5013 7.38114 18.5004 7.38114C18.4996 7.38114 18.4987 7.38114 18.4978 7.38114C18.4969 7.38114 18.496 7.38114 18.4952 7.38114C18.4943 7.38114 18.4934 7.38114 18.4925 7.38114C18.4916 7.38114 18.4908 7.38114 18.4899 7.38114C18.489 7.38114 18.4881 7.38114 18.4872 7.38114C18.4863 7.38114 18.4854 7.38114 18.4846 7.38114C18.4837 7.38114 18.4828 7.38114 18.4819 7.38114C18.481 7.38114 18.4801 7.38114 18.4792 7.38114C18.4783 7.38114 18.4774 7.38114 18.4765 7.38114C18.4756 7.38114 18.4747 7.38114 18.4738 7.38114C18.473 7.38114 18.4721 7.38114 18.4712 7.38114C18.4703 7.38114 18.4694 7.38114 18.4685 7.38114C18.4676 7.38114 18.4667 7.38114 18.4657 7.38114C18.4648 7.38114 18.4639 7.38114 18.463 7.38114C18.4621 7.38114 18.4612 7.38114 18.4603 7.38114C18.4594 7.38114 18.4585 7.38114 18.4576 7.38114C18.4567 7.38114 18.4558 7.38114 18.4549 7.38114C18.4539 7.38114 18.453 7.38114 18.4521 7.38114C18.4512 7.38114 18.4503 7.38114 18.4494 7.38114C18.4484 7.38114 18.4475 7.38114 18.4466 7.38114C18.4457 7.38114 18.4448 7.38114 18.4438 7.38114C18.4429 7.38114 18.442 7.38114 18.4411 7.38114C18.4402 7.38114 18.4392 7.38114 18.4383 7.38114C18.4374 7.38114 18.4364 7.38114 18.4355 7.38114C18.4346 7.38114 18.4337 7.38114 18.4327 7.38114C18.4318 7.38114 18.4309 7.38114 18.4299 7.38114C18.429 7.38114 18.4281 7.38114 18.4271 7.38114C18.4262 7.38114 18.4253 7.38114 18.4243 7.38114C18.4234 7.38114 18.4224 7.38114 18.4215 7.38114C18.4206 7.38114 18.4196 7.38114 18.4187 7.38114C18.4177 7.38114 18.4168 7.38114 18.4158 7.38114C18.4149 7.38114 18.4139 7.38114 18.413 7.38114C18.412 7.38114 18.4111 7.38114 18.4101 7.38114C18.4092 7.38114 18.4082 7.38114 18.4073 7.38114C18.4063 7.38114 18.4054 7.38114 18.4044 7.38114C18.4035 7.38114 18.4025 7.38114 18.4015 7.38114C18.4006 7.38114 18.3996 7.38114 18.3987 7.38114C18.3977 7.38114 18.3967 7.38114 18.3958 7.38114C18.3948 7.38114 18.3938 7.38114 18.3929 7.38114C18.3919 7.38114 18.3909 7.38114 18.39 7.38114C18.389 7.38114 18.388 7.38114 18.3871 7.38114C18.3861 7.38114 18.3851 7.38114 18.3841 7.38114C18.3832 7.38114 18.3822 7.38114 18.3812 7.38114C18.3802 7.38114 18.3793 7.38114 18.3783 7.38114C18.3773 7.38114 18.3763 7.38114 18.3753 7.38114C18.3743 7.38114 18.3734 7.38114 18.3724 7.38114C18.3714 7.38114 18.3704 7.38114 18.3694 7.38114C18.3684 7.38114 18.3674 7.38114 18.3664 7.38114C18.3655 7.38114 18.3645 7.38114 18.3635 7.38114C18.3625 7.38114 18.3615 7.38114 18.3605 7.38114C18.3595 7.38114 18.3585 7.38114 18.3575 7.38114C18.3565 7.38114 18.3555 7.38114 18.3545 7.38114C18.3535 7.38114 18.3525 7.38114 18.3515 7.38114C18.3505 7.38114 18.3495 7.38114 18.3485 7.38114C18.3474 7.38114 18.3464 7.38114 18.3454 7.38114C18.3444 7.38114 18.3434 7.38114 18.3424 7.38114C18.3414 7.38114 18.3404 7.38114 18.3393 7.38114C18.3383 7.38114 18.3373 7.38114 18.3363 7.38114C18.3353 7.38114 18.3342 7.38114 18.3332 7.38114C18.3322 7.38114 18.3312 7.38114 18.3301 7.38114C18.3291 7.38114 18.3281 7.38114 18.3271 7.38114C18.326 7.38114 18.325 7.38114 18.324 7.38114C18.3229 7.38114 18.3219 7.38114 18.3209 7.38114C18.3198 7.38114 18.3188 7.38114 18.3178 7.38114C18.3167 7.38114 18.3157 7.38114 18.3146 7.38114C18.3136 7.38114 18.3126 7.38114 18.3115 7.38114C18.3105 7.38114 18.3094 7.38114 18.3084 7.38114C18.3073 7.38114 18.3063 7.38114 18.3052 7.38114C18.3042 7.38114 18.3031 7.38114 18.3021 7.38114C18.301 7.38114 18.3 7.38114 18.2989 7.38114C18.2979 7.38114 18.2968 7.38114 18.2957 7.38114C18.2947 7.38114 18.2936 7.38114 18.2926 7.38114C18.2915 7.38114 18.2904 7.38114 18.2894 7.38114C18.2883 7.38114 18.2872 7.38114 18.2862 7.38114C18.2851 7.38114 18.284 7.38114 18.283 7.38114C18.2819 7.38114 18.2808 7.38114 18.2797 7.38114C18.2787 7.38114 18.2776 7.38114 18.2765 7.38114C18.2754 7.38114 18.2743 7.38114 18.2733 7.38114C18.2722 7.38114 18.2711 7.38114 18.27 7.38114C18.2689 7.38114 18.2678 7.38114 18.2667 7.38114C18.2657 7.38114 18.2646 7.38114 18.2635 7.38114C18.2624 7.38114 18.2613 7.38114 18.2602 7.38114C18.2591 7.38114 18.258 7.38114 18.2569 7.38114C18.2558 7.38114 18.2547 7.38114 18.2536 7.38114C18.2525 7.38114 18.2514 7.38114 18.2503 7.38114C18.2492 7.38114 18.2481 7.38114 18.247 7.38114C18.2459 7.38114 18.2448 7.38114 18.2436 7.38114C18.2425 7.38114 18.2414 7.38114 18.2403 7.38114C18.2392 7.38114 18.2381 7.38114 18.237 7.38114C18.2358 7.38114 18.2347 7.38114 18.2336 7.38114C18.2325 7.38114 18.2313 7.38114 18.2302 7.38114C18.2291 7.38114 18.228 7.38114 18.2268 7.38114C18.2257 7.38114 18.2246 7.38114 18.2234 7.38114C18.2223 7.38114 18.2212 7.38114 18.22 7.38114C18.2189 7.38114 18.2178 7.38114 18.2166 7.38114C18.2155 7.38114 18.2143 7.38114 18.2132 7.38114C18.2121 7.38114 18.2109 7.38114 18.2098 7.38114C18.2086 7.38114 18.2075 7.38114 18.2063 7.38114C18.2052 7.38114 18.204 7.38114 18.2029 7.38114C18.2017 7.38114 18.2006 7.38114 18.1994 7.38114C18.1982 7.38114 18.1971 7.38114 18.1959 7.38114C18.1948 7.38114 18.1936 7.38114 18.1924 7.38114C18.1913 7.38114 18.1901 7.38114 18.1889 7.38114C18.1878 7.38114 18.1866 7.38114 18.1854 7.38114C18.1843 7.38114 18.1831 7.38114 18.1819 7.38114C18.1807 7.38114 18.1796 7.38114 18.1784 7.38114C18.1772 7.38114 18.176 7.38114 18.1748 7.38114C18.1737 7.38114 18.1725 7.38114 18.1713 7.38114C18.1701 7.38114 18.1689 7.38114 18.1677 7.38114C18.1665 7.38114 18.1653 7.38114 18.1641 7.38114C18.1629 7.38114 18.1617 7.38114 18.1606 7.38114C18.1594 7.38114 18.1582 7.38114 18.157 7.38114C18.1557 7.38114 18.1545 7.38114 18.1533 7.38114C18.1521 7.38114 18.1509 7.38114 18.1497 7.38114C18.1485 7.38114 18.1473 7.38114 18.1461 7.38114C18.1449 7.38114 18.1437 7.38114 18.1424 7.38114C18.1412 7.38114 18.14 7.38114 18.1388 7.38114C18.1376 7.38114 18.1363 7.38114 18.1351 7.38114C18.1339 7.38114 18.1327 7.38114 18.1314 7.38114C18.1302 7.38114 18.129 7.38114 18.1277 7.38114C18.1265 7.38114 18.1253 7.38114 18.124 7.38114C18.1228 7.38114 18.1216 7.38114 18.1203 7.38114C18.1191 7.38114 18.1178 7.38114 18.1166 7.38114C18.1154 7.38114 18.1141 7.38114 18.1129 7.38114C18.1116 7.38114 18.1104 7.38114 18.1091 7.38114C18.1079 7.38114 18.1066 7.38114 18.1053 7.38114C18.1041 7.38114 18.1028 7.38114 18.1016 7.38114C18.1003 7.38114 18.0991 7.38114 18.0978 7.38114C18.0965 7.38114 18.0953 7.38114 18.094 7.38114C18.0927 7.38114 18.0914 7.38114 18.0902 7.38114C18.0889 7.38114 18.0876 7.38114 18.0864 7.38114C18.0851 7.38114 18.0838 7.38114 18.0825 7.38114C18.0812 7.38114 18.08 7.38114 18.0787 7.38114C18.0774 7.38114 18.0761 7.38114 18.0748 7.38114C18.0735 7.38114 18.0722 7.38114 18.0709 7.38114C18.0696 7.38114 18.0684 7.38114 18.0671 7.38114C18.0658 7.38114 18.0645 7.38114 18.0632 7.38114C18.0619 7.38114 18.0606 7.38114 18.0592 7.38114C18.0579 7.38114 18.0566 7.38114 18.0553 7.38114C18.054 7.38114 18.0527 7.38114 18.0514 7.38114C18.0501 7.38114 18.0488 7.38114 18.0474 7.38114C18.0461 7.38114 18.0448 7.38114 18.0435 7.38114C18.0422 7.38114 18.0408 7.38114 18.0395 7.38114C18.0382 7.38114 18.0369 7.38114 18.0355 7.38114C18.0342 7.38114 18.0329 7.38114 18.0315 7.38114C18.0302 7.38114 18.0288 7.38114 18.0275 7.38114C18.0262 7.38114 18.0248 7.38114 18.0235 7.38114C18.0221 7.38114 18.0208 7.38114 18.0194 7.38114C18.0181 7.38114 18.0167 7.38114 18.0154 7.38114C18.014 7.38114 18.0127 7.38114 18.0113 7.38114C18.01 7.38114 18.0086 7.38114 18.0073 7.38114C18.0059 7.38114 18.0045 7.38114 18.0032 7.38114C18.0018 7.38114 18.0004 7.38114 17.9991 7.38114C17.9977 7.38114 17.9963 7.38114 17.9949 7.38114C17.9936 7.38114 17.9922 7.38114 17.9908 7.38114C17.9894 7.38114 17.9881 7.38114 17.9867 7.38114C17.9853 7.38114 17.9839 7.38114 17.9825 7.38114C17.9811 7.38114 17.9797 7.38114 17.9783 7.38114C17.977 7.38114 17.9756 7.38114 17.9742 7.38114C17.9728 7.38114 17.9714 7.38114 17.97 7.38114C17.9686 7.38114 17.9672 7.38114 17.9658 7.38114C17.9643 7.38114 17.9629 7.38114 17.9615 7.38114C17.9601 7.38114 17.9587 7.38114 17.9573 7.38114C17.9559 7.38114 17.9545 7.38114 17.953 7.38114C17.9516 7.38114 17.9502 7.38114 17.9488 7.38114C17.9473 7.38114 17.9459 7.38114 17.9445 7.38114C17.9431 7.38114 17.9416 7.38114 17.9402 7.38114C17.9388 7.38114 17.9373 7.38114 17.9359 7.38114C17.9344 7.38114 17.933 7.38114 17.9316 7.38114C17.9301 7.38114 17.9287 7.38114 17.9272 7.38114C17.9258 7.38114 17.9243 7.38114 17.9229 7.38114C17.9214 7.38114 17.92 7.38114 17.9185 7.38114C17.9171 7.38114 17.9156 7.38114 17.9141 7.38114C17.9127 7.38114 17.9112 7.38114 17.9097 7.38114C17.9083 7.38114 17.9068 7.38114 17.9053 7.38114C17.9039 7.38114 17.9024 7.38114 17.9009 7.38114C17.8994 7.38114 17.898 7.38114 17.8965 7.38114C17.895 7.38114 17.8935 7.38114 17.892 7.38114C17.8905 7.38114 17.8891 7.38114 17.8876 7.38114C17.8861 7.38114 17.8846 7.38114 17.8831 7.38114C17.8816 7.38114 17.8801 7.38114 17.8786 7.38114C17.8771 7.38114 17.8756 7.38114 17.8741 7.38114C17.8726 7.38114 17.8711 7.38114 17.8696 7.38114C17.8681 7.38114 17.8665 7.38114 17.865 7.38114C17.8635 7.38114 17.862 7.38114 17.8605 7.38114C17.859 7.38114 17.8574 7.38114 17.8559 7.38114C17.8544 7.38114 17.8529 7.38114 17.8513 7.38114C17.8498 7.38114 17.8483 7.38114 17.8467 7.38114C17.8452 7.38114 17.8437 7.38114 17.8421 7.38114C17.8406 7.38114 17.839 7.38114 17.8375 7.38114C17.8359 7.38114 17.8344 7.38114 17.8329 7.38114C17.8313 7.38114 17.8298 7.38114 17.8282 7.38114C17.8266 7.38114 17.8251 7.38114 17.8235 7.38114C17.822 7.38114 17.8204 7.38114 17.8188 7.38114C17.8173 7.38114 17.8157 7.38114 17.8141 7.38114C17.8126 7.38114 17.811 7.38114 17.8094 7.38114C17.8078 7.38114 17.8063 7.38114 17.8047 7.38114V5.68114C17.8063 5.68114 17.8078 5.68114 17.8094 5.68114C17.811 5.68114 17.8126 5.68114 17.8141 5.68114C17.8157 5.68114 17.8173 5.68114 17.8188 5.68114C17.8204 5.68114 17.822 5.68114 17.8235 5.68114C17.8251 5.68114 17.8266 5.68114 17.8282 5.68114C17.8298 5.68114 17.8313 5.68114 17.8329 5.68114C17.8344 5.68114 17.8359 5.68114 17.8375 5.68114C17.839 5.68114 17.8406 5.68114 17.8421 5.68114C17.8437 5.68114 17.8452 5.68114 17.8467 5.68114C17.8483 5.68114 17.8498 5.68114 17.8513 5.68114C17.8529 5.68114 17.8544 5.68114 17.8559 5.68114C17.8574 5.68114 17.859 5.68114 17.8605 5.68114C17.862 5.68114 17.8635 5.68114 17.865 5.68114C17.8665 5.68114 17.8681 5.68114 17.8696 5.68114C17.8711 5.68114 17.8726 5.68114 17.8741 5.68114C17.8756 5.68114 17.8771 5.68114 17.8786 5.68114C17.8801 5.68114 17.8816 5.68114 17.8831 5.68114C17.8846 5.68114 17.8861 5.68114 17.8876 5.68114C17.8891 5.68114 17.8905 5.68114 17.892 5.68114C17.8935 5.68114 17.895 5.68114 17.8965 5.68114C17.898 5.68114 17.8994 5.68114 17.9009 5.68114C17.9024 5.68114 17.9039 5.68114 17.9053 5.68114C17.9068 5.68114 17.9083 5.68114 17.9097 5.68114C17.9112 5.68114 17.9127 5.68114 17.9141 5.68114C17.9156 5.68114 17.9171 5.68114 17.9185 5.68114C17.92 5.68114 17.9214 5.68114 17.9229 5.68114C17.9243 5.68114 17.9258 5.68114 17.9272 5.68114C17.9287 5.68114 17.9301 5.68114 17.9316 5.68114C17.933 5.68114 17.9344 5.68114 17.9359 5.68114C17.9373 5.68114 17.9388 5.68114 17.9402 5.68114C17.9416 5.68114 17.9431 5.68114 17.9445 5.68114C17.9459 5.68114 17.9473 5.68114 17.9488 5.68114C17.9502 5.68114 17.9516 5.68114 17.953 5.68114C17.9545 5.68114 17.9559 5.68114 17.9573 5.68114C17.9587 5.68114 17.9601 5.68114 17.9615 5.68114C17.9629 5.68114 17.9643 5.68114 17.9658 5.68114C17.9672 5.68114 17.9686 5.68114 17.97 5.68114C17.9714 5.68114 17.9728 5.68114 17.9742 5.68114C17.9756 5.68114 17.977 5.68114 17.9783 5.68114C17.9797 5.68114 17.9811 5.68114 17.9825 5.68114C17.9839 5.68114 17.9853 5.68114 17.9867 5.68114C17.9881 5.68114 17.9894 5.68114 17.9908 5.68114C17.9922 5.68114 17.9936 5.68114 17.9949 5.68114C17.9963 5.68114 17.9977 5.68114 17.9991 5.68114C18.0004 5.68114 18.0018 5.68114 18.0032 5.68114C18.0045 5.68114 18.0059 5.68114 18.0073 5.68114C18.0086 5.68114 18.01 5.68114 18.0113 5.68114C18.0127 5.68114 18.014 5.68114 18.0154 5.68114C18.0167 5.68114 18.0181 5.68114 18.0194 5.68114C18.0208 5.68114 18.0221 5.68114 18.0235 5.68114C18.0248 5.68114 18.0262 5.68114 18.0275 5.68114C18.0288 5.68114 18.0302 5.68114 18.0315 5.68114C18.0329 5.68114 18.0342 5.68114 18.0355 5.68114C18.0369 5.68114 18.0382 5.68114 18.0395 5.68114C18.0408 5.68114 18.0422 5.68114 18.0435 5.68114C18.0448 5.68114 18.0461 5.68114 18.0474 5.68114C18.0488 5.68114 18.0501 5.68114 18.0514 5.68114C18.0527 5.68114 18.054 5.68114 18.0553 5.68114C18.0566 5.68114 18.0579 5.68114 18.0592 5.68114C18.0606 5.68114 18.0619 5.68114 18.0632 5.68114C18.0645 5.68114 18.0658 5.68114 18.0671 5.68114C18.0684 5.68114 18.0696 5.68114 18.0709 5.68114C18.0722 5.68114 18.0735 5.68114 18.0748 5.68114C18.0761 5.68114 18.0774 5.68114 18.0787 5.68114C18.08 5.68114 18.0812 5.68114 18.0825 5.68114C18.0838 5.68114 18.0851 5.68114 18.0864 5.68114C18.0876 5.68114 18.0889 5.68114 18.0902 5.68114C18.0914 5.68114 18.0927 5.68114 18.094 5.68114C18.0953 5.68114 18.0965 5.68114 18.0978 5.68114C18.0991 5.68114 18.1003 5.68114 18.1016 5.68114C18.1028 5.68114 18.1041 5.68114 18.1053 5.68114C18.1066 5.68114 18.1079 5.68114 18.1091 5.68114C18.1104 5.68114 18.1116 5.68114 18.1129 5.68114C18.1141 5.68114 18.1154 5.68114 18.1166 5.68114C18.1178 5.68114 18.1191 5.68114 18.1203 5.68114C18.1216 5.68114 18.1228 5.68114 18.124 5.68114C18.1253 5.68114 18.1265 5.68114 18.1277 5.68114C18.129 5.68114 18.1302 5.68114 18.1314 5.68114C18.1327 5.68114 18.1339 5.68114 18.1351 5.68114C18.1363 5.68114 18.1376 5.68114 18.1388 5.68114C18.14 5.68114 18.1412 5.68114 18.1424 5.68114C18.1437 5.68114 18.1449 5.68114 18.1461 5.68114C18.1473 5.68114 18.1485 5.68114 18.1497 5.68114C18.1509 5.68114 18.1521 5.68114 18.1533 5.68114C18.1545 5.68114 18.1557 5.68114 18.157 5.68114C18.1582 5.68114 18.1594 5.68114 18.1606 5.68114C18.1617 5.68114 18.1629 5.68114 18.1641 5.68114C18.1653 5.68114 18.1665 5.68114 18.1677 5.68114C18.1689 5.68114 18.1701 5.68114 18.1713 5.68114C18.1725 5.68114 18.1737 5.68114 18.1748 5.68114C18.176 5.68114 18.1772 5.68114 18.1784 5.68114C18.1796 5.68114 18.1807 5.68114 18.1819 5.68114C18.1831 5.68114 18.1843 5.68114 18.1854 5.68114C18.1866 5.68114 18.1878 5.68114 18.1889 5.68114C18.1901 5.68114 18.1913 5.68114 18.1924 5.68114C18.1936 5.68114 18.1948 5.68114 18.1959 5.68114C18.1971 5.68114 18.1982 5.68114 18.1994 5.68114C18.2006 5.68114 18.2017 5.68114 18.2029 5.68114C18.204 5.68114 18.2052 5.68114 18.2063 5.68114C18.2075 5.68114 18.2086 5.68114 18.2098 5.68114C18.2109 5.68114 18.2121 5.68114 18.2132 5.68114C18.2143 5.68114 18.2155 5.68114 18.2166 5.68114C18.2178 5.68114 18.2189 5.68114 18.22 5.68114C18.2212 5.68114 18.2223 5.68114 18.2234 5.68114C18.2246 5.68114 18.2257 5.68114 18.2268 5.68114C18.228 5.68114 18.2291 5.68114 18.2302 5.68114C18.2313 5.68114 18.2325 5.68114 18.2336 5.68114C18.2347 5.68114 18.2358 5.68114 18.237 5.68114C18.2381 5.68114 18.2392 5.68114 18.2403 5.68114C18.2414 5.68114 18.2425 5.68114 18.2436 5.68114C18.2448 5.68114 18.2459 5.68114 18.247 5.68114C18.2481 5.68114 18.2492 5.68114 18.2503 5.68114C18.2514 5.68114 18.2525 5.68114 18.2536 5.68114C18.2547 5.68114 18.2558 5.68114 18.2569 5.68114C18.258 5.68114 18.2591 5.68114 18.2602 5.68114C18.2613 5.68114 18.2624 5.68114 18.2635 5.68114C18.2646 5.68114 18.2657 5.68114 18.2667 5.68114C18.2678 5.68114 18.2689 5.68114 18.27 5.68114C18.2711 5.68114 18.2722 5.68114 18.2733 5.68114C18.2743 5.68114 18.2754 5.68114 18.2765 5.68114C18.2776 5.68114 18.2787 5.68114 18.2797 5.68114C18.2808 5.68114 18.2819 5.68114 18.283 5.68114C18.284 5.68114 18.2851 5.68114 18.2862 5.68114C18.2872 5.68114 18.2883 5.68114 18.2894 5.68114C18.2904 5.68114 18.2915 5.68114 18.2926 5.68114C18.2936 5.68114 18.2947 5.68114 18.2957 5.68114C18.2968 5.68114 18.2979 5.68114 18.2989 5.68114C18.3 5.68114 18.301 5.68114 18.3021 5.68114C18.3031 5.68114 18.3042 5.68114 18.3052 5.68114C18.3063 5.68114 18.3073 5.68114 18.3084 5.68114C18.3094 5.68114 18.3105 5.68114 18.3115 5.68114C18.3126 5.68114 18.3136 5.68114 18.3146 5.68114C18.3157 5.68114 18.3167 5.68114 18.3178 5.68114C18.3188 5.68114 18.3198 5.68114 18.3209 5.68114C18.3219 5.68114 18.3229 5.68114 18.324 5.68114C18.325 5.68114 18.326 5.68114 18.3271 5.68114C18.3281 5.68114 18.3291 5.68114 18.3301 5.68114C18.3312 5.68114 18.3322 5.68114 18.3332 5.68114C18.3342 5.68114 18.3353 5.68114 18.3363 5.68114C18.3373 5.68114 18.3383 5.68114 18.3393 5.68114C18.3404 5.68114 18.3414 5.68114 18.3424 5.68114C18.3434 5.68114 18.3444 5.68114 18.3454 5.68114C18.3464 5.68114 18.3474 5.68114 18.3485 5.68114C18.3495 5.68114 18.3505 5.68114 18.3515 5.68114C18.3525 5.68114 18.3535 5.68114 18.3545 5.68114C18.3555 5.68114 18.3565 5.68114 18.3575 5.68114C18.3585 5.68114 18.3595 5.68114 18.3605 5.68114C18.3615 5.68114 18.3625 5.68114 18.3635 5.68114C18.3645 5.68114 18.3655 5.68114 18.3664 5.68114C18.3674 5.68114 18.3684 5.68114 18.3694 5.68114C18.3704 5.68114 18.3714 5.68114 18.3724 5.68114C18.3734 5.68114 18.3743 5.68114 18.3753 5.68114C18.3763 5.68114 18.3773 5.68114 18.3783 5.68114C18.3793 5.68114 18.3802 5.68114 18.3812 5.68114C18.3822 5.68114 18.3832 5.68114 18.3841 5.68114C18.3851 5.68114 18.3861 5.68114 18.3871 5.68114C18.388 5.68114 18.389 5.68114 18.39 5.68114C18.3909 5.68114 18.3919 5.68114 18.3929 5.68114C18.3938 5.68114 18.3948 5.68114 18.3958 5.68114C18.3967 5.68114 18.3977 5.68114 18.3987 5.68114C18.3996 5.68114 18.4006 5.68114 18.4015 5.68114C18.4025 5.68114 18.4035 5.68114 18.4044 5.68114C18.4054 5.68114 18.4063 5.68114 18.4073 5.68114C18.4082 5.68114 18.4092 5.68114 18.4101 5.68114C18.4111 5.68114 18.412 5.68114 18.413 5.68114C18.4139 5.68114 18.4149 5.68114 18.4158 5.68114C18.4168 5.68114 18.4177 5.68114 18.4187 5.68114C18.4196 5.68114 18.4206 5.68114 18.4215 5.68114C18.4224 5.68114 18.4234 5.68114 18.4243 5.68114C18.4253 5.68114 18.4262 5.68114 18.4271 5.68114C18.4281 5.68114 18.429 5.68114 18.4299 5.68114C18.4309 5.68114 18.4318 5.68114 18.4327 5.68114C18.4337 5.68114 18.4346 5.68114 18.4355 5.68114C18.4364 5.68114 18.4374 5.68114 18.4383 5.68114C18.4392 5.68114 18.4402 5.68114 18.4411 5.68114C18.442 5.68114 18.4429 5.68114 18.4438 5.68114C18.4448 5.68114 18.4457 5.68114 18.4466 5.68114C18.4475 5.68114 18.4484 5.68114 18.4494 5.68114C18.4503 5.68114 18.4512 5.68114 18.4521 5.68114C18.453 5.68114 18.4539 5.68114 18.4549 5.68114C18.4558 5.68114 18.4567 5.68114 18.4576 5.68114C18.4585 5.68114 18.4594 5.68114 18.4603 5.68114C18.4612 5.68114 18.4621 5.68114 18.463 5.68114C18.4639 5.68114 18.4648 5.68114 18.4657 5.68114C18.4667 5.68114 18.4676 5.68114 18.4685 5.68114C18.4694 5.68114 18.4703 5.68114 18.4712 5.68114C18.4721 5.68114 18.473 5.68114 18.4738 5.68114C18.4747 5.68114 18.4756 5.68114 18.4765 5.68114C18.4774 5.68114 18.4783 5.68114 18.4792 5.68114C18.4801 5.68114 18.481 5.68114 18.4819 5.68114C18.4828 5.68114 18.4837 5.68114 18.4846 5.68114C18.4854 5.68114 18.4863 5.68114 18.4872 5.68114C18.4881 5.68114 18.489 5.68114 18.4899 5.68114C18.4908 5.68114 18.4916 5.68114 18.4925 5.68114C18.4934 5.68114 18.4943 5.68114 18.4952 5.68114C18.496 5.68114 18.4969 5.68114 18.4978 5.68114C18.4987 5.68114 18.4996 5.68114 18.5004 5.68114C18.5013 5.68114 18.5022 5.68114 18.5031 5.68114C18.5039 5.68114 18.5048 5.68114 18.5057 5.68114C18.5065 5.68114 18.5074 5.68114 18.5083 5.68114C18.5092 5.68114 18.51 5.68114 18.5109 5.68114C18.5118 5.68114 18.5126 5.68114 18.5135 5.68114C18.5144 5.68114 18.5152 5.68114 18.5161 5.68114C18.5169 5.68114 18.5178 5.68114 18.5187 5.68114C18.5195 5.68114 18.5204 5.68114 18.5213 5.68114C18.5221 5.68114 18.523 5.68114 18.5238 5.68114C18.5247 5.68114 18.5255 5.68114 18.5264 5.68114C18.5273 5.68114 18.5281 5.68114 18.529 5.68114C18.5298 5.68114 18.5307 5.68114 18.5315 5.68114C18.5324 5.68114 18.5332 5.68114 18.5341 5.68114C18.5349 5.68114 18.5358 5.68114 18.5366 5.68114C18.5375 5.68114 18.5383 5.68114 18.5392 5.68114C18.54 5.68114 18.5409 5.68114 18.5417 5.68114C18.5426 5.68114 18.5434 5.68114 18.5442 5.68114C18.5451 5.68114 18.5459 5.68114 18.5468 5.68114C18.5476 5.68114 18.5484 5.68114 18.5493 5.68114C18.5501 5.68114 18.551 5.68114 18.5518 5.68114C18.5526 5.68114 18.5535 5.68114 18.5543 5.68114C18.5552 5.68114 18.556 5.68114 18.5568 5.68114C18.5577 5.68114 18.5585 5.68114 18.5593 5.68114C18.5602 5.68114 18.561 5.68114 18.5618 5.68114C18.5627 5.68114 18.5635 5.68114 18.5643 5.68114C18.5651 5.68114 18.566 5.68114 18.5668 5.68114C18.5676 5.68114 18.5685 5.68114 18.5693 5.68114C18.5701 5.68114 18.5709 5.68114 18.5718 5.68114C18.5726 5.68114 18.5734 5.68114 18.5742 5.68114C18.5751 5.68114 18.5759 5.68114 18.5767 5.68114C18.5775 5.68114 18.5783 5.68114 18.5792 5.68114C18.58 5.68114 18.5808 5.68114 18.5816 5.68114C18.5824 5.68114 18.5833 5.68114 18.5841 5.68114C18.5849 5.68114 18.5857 5.68114 18.5865 5.68114C18.5873 5.68114 18.5881 5.68114 18.589 5.68114C18.5898 5.68114 18.5906 5.68114 18.5914 5.68114C18.5922 5.68114 18.593 5.68114 18.5938 5.68114C18.5946 5.68114 18.5955 5.68114 18.5963 5.68114C18.5971 5.68114 18.5979 5.68114 18.5987 5.68114C18.5995 5.68114 18.6003 5.68114 18.6011 5.68114C18.6019 5.68114 18.6027 5.68114 18.6035 5.68114C18.6043 5.68114 18.6051 5.68114 18.6059 5.68114C18.6068 5.68114 18.6076 5.68114 18.6084 5.68114C18.6092 5.68114 18.61 5.68114 18.6108 5.68114C18.6116 5.68114 18.6124 5.68114 18.6132 5.68114C18.614 5.68114 18.6148 5.68114 18.6156 5.68114C18.6164 5.68114 18.6172 5.68114 18.618 5.68114C18.6188 5.68114 18.6196 5.68114 18.6203 5.68114C18.6211 5.68114 18.6219 5.68114 18.6227 5.68114C18.6235 5.68114 18.6243 5.68114 18.6251 5.68114C18.6259 5.68114 18.6267 5.68114 18.6275 5.68114C18.6283 5.68114 18.6291 5.68114 18.6299 5.68114C18.6307 5.68114 18.6314 5.68114 18.6322 5.68114C18.633 5.68114 18.6338 5.68114 18.6346 5.68114C18.6354 5.68114 18.6362 5.68114 18.637 5.68114C18.6378 5.68114 18.6385 5.68114 18.6393 5.68114C18.6401 5.68114 18.6409 5.68114 18.6417 5.68114C18.6425 5.68114 18.6433 5.68114 18.644 5.68114C18.6448 5.68114 18.6456 5.68114 18.6464 5.68114C18.6472 5.68114 18.648 5.68114 18.6487 5.68114C18.6495 5.68114 18.6503 5.68114 18.6511 5.68114C18.6519 5.68114 18.6526 5.68114 18.6534 5.68114C18.6542 5.68114 18.655 5.68114 18.6558 5.68114C18.6565 5.68114 18.6573 5.68114 18.6581 5.68114C18.6589 5.68114 18.6596 5.68114 18.6604 5.68114C18.6612 5.68114 18.662 5.68114 18.6627 5.68114C18.6635 5.68114 18.6643 5.68114 18.6651 5.68114C18.6658 5.68114 18.6666 5.68114 18.6674 5.68114C18.6682 5.68114 18.6689 5.68114 18.6697 5.68114C18.6705 5.68114 18.6713 5.68114 18.672 5.68114C18.6728 5.68114 18.6736 5.68114 18.6743 5.68114C18.6751 5.68114 18.6759 5.68114 18.6767 5.68114C18.6774 5.68114 18.6782 5.68114 18.679 5.68114C18.6797 5.68114 18.6805 5.68114 18.6813 5.68114C18.682 5.68114 18.6828 5.68114 18.6836 5.68114C18.6843 5.68114 18.6851 5.68114 18.6859 5.68114C18.6866 5.68114 18.6874 5.68114 18.6882 5.68114C18.6889 5.68114 18.6897 5.68114 18.6905 5.68114C18.6912 5.68114 18.692 5.68114 18.6928 5.68114C18.6935 5.68114 18.6943 5.68114 18.695 5.68114C18.6958 5.68114 18.6966 5.68114 18.6973 5.68114C18.6981 5.68114 18.6989 5.68114 18.6996 5.68114C18.7004 5.68114 18.7011 5.68114 18.7019 5.68114C18.7027 5.68114 18.7034 5.68114 18.7042 5.68114C18.7049 5.68114 18.7057 5.68114 18.7065 5.68114C18.7072 5.68114 18.708 5.68114 18.7087 5.68114C18.7095 5.68114 18.7102 5.68114 18.711 5.68114C18.7118 5.68114 18.7125 5.68114 18.7133 5.68114C18.714 5.68114 18.7148 5.68114 18.7155 5.68114C18.7163 5.68114 18.7171 5.68114 18.7178 5.68114C18.7186 5.68114 18.7193 5.68114 18.7201 5.68114C18.7208 5.68114 18.7216 5.68114 18.7223 5.68114C18.7231 5.68114 18.7239 5.68114 18.7246 5.68114C18.7254 5.68114 18.7261 5.68114 18.7269 5.68114C18.7276 5.68114 18.7284 5.68114 18.7291 5.68114C18.7299 5.68114 18.7306 5.68114 18.7314 5.68114C18.7321 5.68114 18.7329 5.68114 18.7336 5.68114C18.7344 5.68114 18.7352 5.68114 18.7359 5.68114C18.7367 5.68114 18.7374 5.68114 18.7382 5.68114C18.7389 5.68114 18.7397 5.68114 18.7404 5.68114C18.7412 5.68114 18.7419 5.68114 18.7427 5.68114C18.7434 5.68114 18.7442 5.68114 18.7449 5.68114C18.7457 5.68114 18.7464 5.68114 18.7472 5.68114C18.7479 5.68114 18.7487 5.68114 18.7494 5.68114C18.7501 5.68114 18.7509 5.68114 18.7516 5.68114C18.7524 5.68114 18.7531 5.68114 18.7539 5.68114C18.7546 5.68114 18.7554 5.68114 18.7561 5.68114C18.7569 5.68114 18.7576 5.68114 18.7584 5.68114C18.7591 5.68114 18.7599 5.68114 18.7606 5.68114C18.7614 5.68114 18.7621 5.68114 18.7629 5.68114C18.7636 5.68114 18.7643 5.68114 18.7651 5.68114C18.7658 5.68114 18.7666 5.68114 18.7673 5.68114C18.7681 5.68114 18.7688 5.68114 18.7696 5.68114C18.7703 5.68114 18.7711 5.68114 18.7718 5.68114C18.7726 5.68114 18.7733 5.68114 18.774 5.68114C18.7748 5.68114 18.7755 5.68114 18.7763 5.68114C18.777 5.68114 18.7778 5.68114 18.7785 5.68114C18.7793 5.68114 18.78 5.68114 18.7807 5.68114C18.7815 5.68114 18.7822 5.68114 18.783 5.68114C18.7837 5.68114 18.7845 5.68114 18.7852 5.68114C18.786 5.68114 18.7867 5.68114 18.7874 5.68114C18.7882 5.68114 18.7889 5.68114 18.7897 5.68114C18.7904 5.68114 18.7912 5.68114 18.7919 5.68114C18.7926 5.68114 18.7934 5.68114 18.7941 5.68114C18.7949 5.68114 18.7956 5.68114 18.7964 5.68114C18.7971 5.68114 18.7979 5.68114 18.7986 5.68114C18.7993 5.68114 18.8001 5.68114 18.8008 5.68114C18.8016 5.68114 18.8023 5.68114 18.8031 5.68114C18.8038 5.68114 18.8045 5.68114 18.8053 5.68114C18.806 5.68114 18.8068 5.68114 18.8075 5.68114C18.8083 5.68114 18.809 5.68114 18.8097 5.68114C18.8105 5.68114 18.8112 5.68114 18.812 5.68114C18.8127 5.68114 18.8135 5.68114 18.8142 5.68114C18.8149 5.68114 18.8157 5.68114 18.8164 5.68114C18.8172 5.68114 18.8179 5.68114 18.8187 5.68114C18.8194 5.68114 18.8202 5.68114 18.8209 5.68114C18.8216 5.68114 18.8224 5.68114 18.8231 5.68114C18.8239 5.68114 18.8246 5.68114 18.8254 5.68114C18.8261 5.68114 18.8268 5.68114 18.8276 5.68114C18.8283 5.68114 18.8291 5.68114 18.8298 5.68114C18.8306 5.68114 18.8313 5.68114 18.8321 5.68114C18.8328 5.68114 18.8335 5.68114 18.8343 5.68114C18.835 5.68114 18.8358 5.68114 18.8365 5.68114C18.8373 5.68114 18.838 5.68114 18.8388 5.68114C18.8395 5.68114 18.8402 5.68114 18.841 5.68114C18.8417 5.68114 18.8425 5.68114 18.8432 5.68114C18.844 5.68114 18.8447 5.68114 18.8455 5.68114C18.8462 5.68114 18.847 5.68114 18.8477 5.68114C18.8484 5.68114 18.8492 5.68114 18.8499 5.68114C18.8507 5.68114 18.8514 5.68114 18.8522 5.68114C18.8529 5.68114 18.8537 5.68114 18.8544 5.68114C18.8552 5.68114 18.8559 5.68114 18.8567 5.68114C18.8574 5.68114 18.8581 5.68114 18.8589 5.68114C18.8596 5.68114 18.8604 5.68114 18.8611 5.68114C18.8619 5.68114 18.8626 5.68114 18.8634 5.68114C18.8641 5.68114 18.8649 5.68114 18.8656 5.68114C18.8664 5.68114 18.8671 5.68114 18.8679 5.68114C18.8686 5.68114 18.8694 5.68114 18.8701 5.68114C18.8709 5.68114 18.8716 5.68114 18.8724 5.68114C18.8731 5.68114 18.8739 5.68114 18.8746 5.68114C18.8754 5.68114 18.8761 5.68114 18.8769 5.68114C18.8776 5.68114 18.8784 5.68114 18.8791 5.68114C18.8799 5.68114 18.8806 5.68114 18.8814 5.68114C18.8821 5.68114 18.8829 5.68114 18.8836 5.68114C18.8844 5.68114 18.8851 5.68114 18.8859 5.68114C18.8866 5.68114 18.8874 5.68114 18.8882 5.68114C18.8889 5.68114 18.8897 5.68114 18.8904 5.68114C18.8912 5.68114 18.8919 5.68114 18.8927 5.68114C18.8934 5.68114 18.8942 5.68114 18.8949 5.68114C18.8957 5.68114 18.8965 5.68114 18.8972 5.68114C18.898 5.68114 18.8987 5.68114 18.8995 5.68114C18.9002 5.68114 18.901 5.68114 18.9017 5.68114C18.9025 5.68114 18.9033 5.68114 18.904 5.68114C18.9048 5.68114 18.9055 5.68114 18.9063 5.68114C18.907 5.68114 18.9078 5.68114 18.9086 5.68114C18.9093 5.68114 18.9101 5.68114 18.9108 5.68114C18.9116 5.68114 18.9124 5.68114 18.9131 5.68114C18.9139 5.68114 18.9146 5.68114 18.9154 5.68114C18.9162 5.68114 18.9169 5.68114 18.9177 5.68114C18.9185 5.68114 18.9192 5.68114 18.92 5.68114C18.9207 5.68114 18.9215 5.68114 18.9223 5.68114C18.923 5.68114 18.9238 5.68114 18.9246 5.68114C18.9253 5.68114 18.9261 5.68114 18.9269 5.68114C18.9276 5.68114 18.9284 5.68114 18.9292 5.68114C18.9299 5.68114 18.9307 5.68114 18.9315 5.68114C18.9322 5.68114 18.933 5.68114 18.9338 5.68114C18.9345 5.68114 18.9353 5.68114 18.9361 5.68114C18.9368 5.68114 18.9376 5.68114 18.9384 5.68114C18.9391 5.68114 18.9399 5.68114 18.9407 5.68114C18.9414 5.68114 18.9422 5.68114 18.943 5.68114C18.9438 5.68114 18.9445 5.68114 18.9453 5.68114C18.9461 5.68114 18.9469 5.68114 18.9476 5.68114C18.9484 5.68114 18.9492 5.68114 18.9499 5.68114C18.9507 5.68114 18.9515 5.68114 18.9523 5.68114C18.953 5.68114 18.9538 5.68114 18.9546 5.68114C18.9554 5.68114 18.9562 5.68114 18.9569 5.68114C18.9577 5.68114 18.9585 5.68114 18.9593 5.68114C18.96 5.68114 18.9608 5.68114 18.9616 5.68114C18.9624 5.68114 18.9632 5.68114 18.9639 5.68114C18.9647 5.68114 18.9655 5.68114 18.9663 5.68114C18.9671 5.68114 18.9678 5.68114 18.9686 5.68114C18.9694 5.68114 18.9702 5.68114 18.971 5.68114C18.9718 5.68114 18.9725 5.68114 18.9733 5.68114C18.9741 5.68114 18.9749 5.68114 18.9757 5.68114C18.9765 5.68114 18.9773 5.68114 18.978 5.68114C18.9788 5.68114 18.9796 5.68114 18.9804 5.68114C18.9812 5.68114 18.982 5.68114 18.9828 5.68114C18.9836 5.68114 18.9844 5.68114 18.9851 5.68114C18.9859 5.68114 18.9867 5.68114 18.9875 5.68114C18.9883 5.68114 18.9891 5.68114 18.9899 5.68114C18.9907 5.68114 18.9915 5.68114 18.9923 5.68114C18.9931 5.68114 18.9939 5.68114 18.9947 5.68114C18.9955 5.68114 18.9963 5.68114 18.9971 5.68114C18.9979 5.68114 18.9987 5.68114 18.9994 5.68114C19.0002 5.68114 19.001 5.68114 19.0018 5.68114C19.0026 5.68114 19.0034 5.68114 19.0042 5.68114C19.005 5.68114 19.0059 5.68114 19.0067 5.68114C19.0075 5.68114 19.0083 5.68114 19.0091 5.68114C19.0099 5.68114 19.0107 5.68114 19.0115 5.68114C19.0123 5.68114 19.0131 5.68114 19.0139 5.68114C19.0147 5.68114 19.0155 5.68114 19.0163 5.68114C19.0171 5.68114 19.0179 5.68114 19.0187 5.68114C19.0196 5.68114 19.0204 5.68114 19.0212 5.68114C19.022 5.68114 19.0228 5.68114 19.0236 5.68114C19.0244 5.68114 19.0252 5.68114 19.026 5.68114C19.0269 5.68114 19.0277 5.68114 19.0285 5.68114C19.0293 5.68114 19.0301 5.68114 19.0309 5.68114C19.0318 5.68114 19.0326 5.68114 19.0334 5.68114C19.0342 5.68114 19.035 5.68114 19.0358 5.68114C19.0367 5.68114 19.0375 5.68114 19.0383 5.68114C19.0391 5.68114 19.04 5.68114 19.0408 5.68114C19.0416 5.68114 19.0424 5.68114 19.0432 5.68114C19.0441 5.68114 19.0449 5.68114 19.0457 5.68114C19.0466 5.68114 19.0474 5.68114 19.0482 5.68114C19.049 5.68114 19.0499 5.68114 19.0507 5.68114C19.0515 5.68114 19.0524 5.68114 19.0532 5.68114C19.054 5.68114 19.0548 5.68114 19.0557 5.68114C19.0565 5.68114 19.0573 5.68114 19.0582 5.68114C19.059 5.68114 19.0598 5.68114 19.0607 5.68114C19.0615 5.68114 19.0624 5.68114 19.0632 5.68114C19.064 5.68114 19.0649 5.68114 19.0657 5.68114C19.0666 5.68114 19.0674 5.68114 19.0682 5.68114C19.0691 5.68114 19.0699 5.68114 19.0708 5.68114C19.0716 5.68114 19.0724 5.68114 19.0733 5.68114C19.0741 5.68114 19.075 5.68114 19.0758 5.68114C19.0767 5.68114 19.0775 5.68114 19.0784 5.68114C19.0792 5.68114 19.0801 5.68114 19.0809 5.68114C19.0818 5.68114 19.0826 5.68114 19.0835 5.68114C19.0843 5.68114 19.0852 5.68114 19.086 5.68114C19.0869 5.68114 19.0877 5.68114 19.0886 5.68114C19.0895 5.68114 19.0903 5.68114 19.0912 5.68114C19.092 5.68114 19.0929 5.68114 19.0937 5.68114C19.0946 5.68114 19.0955 5.68114 19.0963 5.68114C19.0972 5.68114 19.098 5.68114 19.0989 5.68114C19.0998 5.68114 19.1006 5.68114 19.1015 5.68114C19.1024 5.68114 19.1032 5.68114 19.1041 5.68114C19.105 5.68114 19.1058 5.68114 19.1067 5.68114C19.1076 5.68114 19.1085 5.68114 19.1093 5.68114C19.1102 5.68114 19.1111 5.68114 19.1119 5.68114C19.1128 5.68114 19.1137 5.68114 19.1146 5.68114C19.1154 5.68114 19.1163 5.68114 19.1172 5.68114C19.1181 5.68114 19.1189 5.68114 19.1198 5.68114C19.1207 5.68114 19.1216 5.68114 19.1225 5.68114C19.1233 5.68114 19.1242 5.68114 19.1251 5.68114C19.126 5.68114 19.1269 5.68114 19.1278 5.68114C19.1287 5.68114 19.1295 5.68114 19.1304 5.68114C19.1313 5.68114 19.1322 5.68114 19.1331 5.68114C19.134 5.68114 19.1349 5.68114 19.1358 5.68114C19.1367 5.68114 19.1376 5.68114 19.1385 5.68114C19.1393 5.68114 19.1402 5.68114 19.1411 5.68114C19.142 5.68114 19.1429 5.68114 19.1438 5.68114C19.1447 5.68114 19.1456 5.68114 19.1465 5.68114C19.1474 5.68114 19.1483 5.68114 19.1492 5.68114C19.1501 5.68114 19.151 5.68114 19.1519 5.68114C19.1529 5.68114 19.1538 5.68114 19.1547 5.68114C19.1556 5.68114 19.1565 5.68114 19.1574 5.68114C19.1583 5.68114 19.1592 5.68114 19.1601 5.68114C19.161 5.68114 19.162 5.68114 19.1629 5.68114C19.1638 5.68114 19.1647 5.68114 19.1656 5.68114C19.1665 5.68114 19.1674 5.68114 19.1684 5.68114C19.1693 5.68114 19.1702 5.68114 19.1711 5.68114C19.1721 5.68114 19.173 5.68114 19.1739 5.68114C19.1748 5.68114 19.1757 5.68114 19.1767 5.68114C19.1776 5.68114 19.1785 5.68114 19.1795 5.68114C19.1804 5.68114 19.1813 5.68114 19.1822 5.68114C19.1832 5.68114 19.1841 5.68114 19.185 5.68114C19.186 5.68114 19.1869 5.68114 19.1878 5.68114C19.1888 5.68114 19.1897 5.68114 19.1907 5.68114C19.1916 5.68114 19.1925 5.68114 19.1935 5.68114C19.1944 5.68114 19.1954 5.68114 19.1963 5.68114C19.1972 5.68114 19.1982 5.68114 19.1991 5.68114C19.2001 5.68114 19.201 5.68114 19.202 5.68114C19.2029 5.68114 19.2039 5.68114 19.2048 5.68114C19.2058 5.68114 19.2067 5.68114 19.2077 5.68114C19.2086 5.68114 19.2096 5.68114 19.2106 5.68114C19.2115 5.68114 19.2125 5.68114 19.2134 5.68114C19.2144 5.68114 19.2153 5.68114 19.2163 5.68114C19.2173 5.68114 19.2182 5.68114 19.2192 5.68114C19.2202 5.68114 19.2211 5.68114 19.2221 5.68114C19.2231 5.68114 19.224 5.68114 19.225 5.68114C19.226 5.68114 19.2269 5.68114 19.2279 5.68114C19.2289 5.68114 19.2298 5.68114 19.2308 5.68114C19.2318 5.68114 19.2328 5.68114 19.2337 5.68114C19.2347 5.68114 19.2357 5.68114 19.2367 5.68114C19.2377 5.68114 19.2386 5.68114 19.2396 5.68114C19.2406 5.68114 19.2416 5.68114 19.2426 5.68114C19.2436 5.68114 19.2446 5.68114 19.2455 5.68114C19.2465 5.68114 19.2475 5.68114 19.2485 5.68114C19.2495 5.68114 19.2505 5.68114 19.2515 5.68114C19.2525 5.68114 19.2535 5.68114 19.2545 5.68114C19.2555 5.68114 19.2565 5.68114 19.2575 5.68114C19.2585 5.68114 19.2595 5.68114 19.2605 5.68114C19.2615 5.68114 19.2625 5.68114 19.2635 5.68114C19.2645 5.68114 19.2655 5.68114 19.2665 5.68114C19.2675 5.68114 19.2685 5.68114 19.2695 5.68114V7.38114ZM17.8047 7.38114H14.875V5.68114H17.8047V7.38114ZM14.875 7.38114C13.737 7.38114 12.7953 8.31908 12.7953 9.49989H11.0953C11.0953 7.40149 12.7769 5.68114 14.875 5.68114V7.38114Z" fill="black"/>
</g>
</svg>
