<svg width="100" height="100" viewBox="0 0 100 100" fill="none" xmlns="http://www.w3.org/2000/svg">
<path fill-rule="evenodd" clip-rule="evenodd" d="M6.24609 21.8631C6.24609 27.0396 76.4224 81.2144 78.1475 81.2144H81.2739C84.5662 81.2255 87.735 79.9143 90.1172 77.5552C91.2695 76.4145 92.1879 75.0438 92.8172 73.5254C93.4466 72.0071 93.7739 70.3724 93.7795 68.7194V24.9869C93.7795 18.0849 88.1801 12.4919 81.2739 12.4919H15.6253C10.4471 12.4919 6.24609 16.6866 6.24609 21.8631Z" fill="#FFA81C"/>
<path fill-rule="evenodd" clip-rule="evenodd" d="M75.0181 15.625C75.0181 10.4469 70.8212 6.25 65.6417 6.25H31.2588C26.0832 6.25 21.8823 10.4469 21.8823 15.625V28.125C21.8823 29.85 23.2826 31.25 25.0091 31.25H71.8953C73.6218 31.25 75.0181 29.85 75.0181 28.125V15.625Z" fill="#FDBE59"/>
<path fill-rule="evenodd" clip-rule="evenodd" d="M6.25146 21.8681V81.2193C6.25146 88.1213 11.8509 93.7143 18.7571 93.7143H75.0265C81.9326 93.7143 87.5321 88.1213 87.5321 81.2193V37.4869C87.5321 30.5849 81.9326 24.9919 75.0265 24.9919H15.6307C13.9027 24.9919 12.5043 23.5936 12.5043 21.8681C12.5043 20.1783 11.103 18.7444 9.37786 18.7444C7.65276 18.7444 6.25146 20.1426 6.25146 21.8681Z" fill="url(#paint0_linear_1050_4741)"/>
<path fill-rule="evenodd" clip-rule="evenodd" d="M68.75 78.125C71.2364 78.125 73.621 77.1373 75.3791 75.3791C77.1373 73.621 78.125 71.2364 78.125 68.75V56.25C78.1254 55.0187 77.8832 53.7995 77.4122 52.6619C76.9412 51.5242 76.2507 50.4906 75.38 49.62C74.5094 48.7493 73.4758 48.0588 72.3381 47.5878C71.2005 47.1168 69.9813 46.8746 68.75 46.875H56.25C52.1065 46.8767 48.1332 48.5234 45.2033 51.4533C42.2734 54.3832 40.6267 58.3565 40.625 62.5C40.625 66.644 42.2712 70.6183 45.2015 73.5485C48.1317 76.4788 52.106 78.125 56.25 78.125H68.75Z" fill="black" fill-opacity="0.1"/>
<path fill-rule="evenodd" clip-rule="evenodd" d="M71.875 75C74.3614 75 76.746 74.0123 78.5041 72.2541C80.2623 70.496 81.25 68.1114 81.25 65.625V53.125C81.2504 51.8937 81.0082 50.6745 80.5372 49.5369C80.0662 48.3992 79.3757 47.3656 78.505 46.495C77.6344 45.6243 76.6008 44.9338 75.4631 44.4628C74.3255 43.9918 73.1063 43.7496 71.875 43.75H59.375C55.2315 43.7517 51.2582 45.3984 48.3283 48.3283C45.3984 51.2582 43.7517 55.2315 43.75 59.375C43.75 61.4269 44.1542 63.4587 44.9394 65.3544C45.7246 67.2501 46.8755 68.9726 48.3265 70.4235C51.2567 73.3538 55.231 75 59.375 75H71.875Z" fill="url(#paint1_linear_1050_4741)"/>
<path fill-rule="evenodd" clip-rule="evenodd" d="M62.1751 62.4469C62.1743 64.1039 61.5154 65.6928 60.3434 66.8643C59.1714 68.0357 57.5822 68.6937 55.9251 68.6937C54.268 68.6929 52.6791 68.0341 51.5077 66.862C50.3363 65.69 49.6782 64.1008 49.6782 62.4437C49.6791 60.7867 50.3379 59.1978 51.5099 58.0263C52.6819 56.8549 54.2712 56.1969 55.9282 56.1969C57.5853 56.1977 59.1742 56.8565 60.3456 58.0285C61.5171 59.2006 62.1751 60.7898 62.1751 62.4469Z" fill="black" fill-opacity="0.1"/>
<path fill-rule="evenodd" clip-rule="evenodd" d="M65.3001 59.3203C65.3001 60.9775 64.6418 62.5668 63.47 63.7386C62.2982 64.9104 60.7089 65.5688 59.0517 65.5688C57.3945 65.5688 55.8051 64.9104 54.6333 63.7386C53.4615 62.5668 52.8032 60.9775 52.8032 59.3203C52.8032 57.6631 53.4615 56.0738 54.6333 54.902C55.8051 53.7302 57.3945 53.0719 59.0517 53.0719C60.7089 53.0719 62.2982 53.7302 63.47 54.902C64.6418 56.0738 65.3001 57.6631 65.3001 59.3203Z" fill="url(#paint2_linear_1050_4741)"/>
<defs>
<linearGradient id="paint0_linear_1050_4741" x1="21.8834" y1="90.5906" x2="71.8601" y2="34.3251" gradientUnits="userSpaceOnUse">
<stop stop-color="#FFAB21"/>
<stop offset="1" stop-color="#FBDE30"/>
</linearGradient>
<linearGradient id="paint1_linear_1050_4741" x1="75" y1="46.875" x2="53.125" y2="75" gradientUnits="userSpaceOnUse">
<stop stop-color="#FFF3E0"/>
<stop offset="1" stop-color="#FFB742"/>
</linearGradient>
<linearGradient id="paint2_linear_1050_4741" x1="59.0517" y1="65.5688" x2="62.1759" y2="53.0719" gradientUnits="userSpaceOnUse">
<stop stop-color="#FF3B5B"/>
<stop offset="1" stop-color="#FF8860"/>
</linearGradient>
</defs>
</svg>
