<svg width="20" height="19" viewBox="0 0 20 19" fill="none" xmlns="http://www.w3.org/2000/svg">
<mask id="mask0_1702_4711" style="mask-type:luminance" maskUnits="userSpaceOnUse" x="0" y="0" width="22" height="19">
<path d="M20.4 18.15V0.850002H0.85V18.15H20.4Z" fill="white" stroke="white" stroke-width="1.7"/>
</mask>
<g mask="url(#mask0_1702_4711)">
<path d="M14.873 9.60781C14.9486 9.60781 14.9906 9.54888 14.9906 9.5C14.9906 9.45112 14.9486 9.39219 14.873 9.39219C14.7975 9.39219 14.7555 9.45112 14.7555 9.5C14.7555 9.54888 14.7975 9.60781 14.873 9.60781Z" fill="white" stroke="white" stroke-width="1.7"/>
<path d="M17.4108 15.4375C16.9042 16.3249 15.9574 16.9219 14.873 16.9219H4.91211C3.29408 16.9219 1.98242 15.5927 1.98242 13.9531V5.04688C1.98242 3.40727 3.29408 2.07813 4.91211 2.07813H14.873C15.9574 2.07813 16.9042 2.67514 17.4108 3.5625" stroke="white" stroke-width="1.7" stroke-miterlimit="10" stroke-linejoin="round"/>
<path d="M19.2676 12.4685H20.1176V13.3181L19.2679 13.3185L19.2676 12.4685ZM19.2676 6.53114V5.68114H20.1176V6.53114H19.2676ZM12.7934 9.49989C12.7934 10.6807 13.735 11.6186 14.873 11.6186V13.3186C12.775 13.3186 11.0934 11.5983 11.0934 9.49989H12.7934ZM14.873 11.6186H17.8027V13.3186H14.873V11.6186ZM17.8027 11.6186C18.6122 11.6186 18.28 11.6189 19.2672 11.6185L19.2679 13.3185C18.2803 13.3189 18.6112 13.3186 17.8027 13.3186V11.6186ZM18.4176 12.4685V6.53114H20.1176V12.4685H18.4176ZM19.2676 7.38114C19.2666 7.38114 19.2656 7.38114 19.2645 7.38114C19.2635 7.38114 19.2625 7.38114 19.2615 7.38114C19.2605 7.38114 19.2595 7.38114 19.2585 7.38114C19.2575 7.38114 19.2565 7.38114 19.2555 7.38114C19.2545 7.38114 19.2535 7.38114 19.2525 7.38114C19.2515 7.38114 19.2505 7.38114 19.2495 7.38114C19.2485 7.38114 19.2475 7.38114 19.2466 7.38114C19.2456 7.38114 19.2446 7.38114 19.2436 7.38114C19.2426 7.38114 19.2416 7.38114 19.2406 7.38114C19.2396 7.38114 19.2387 7.38114 19.2377 7.38114C19.2367 7.38114 19.2357 7.38114 19.2347 7.38114C19.2338 7.38114 19.2328 7.38114 19.2318 7.38114C19.2308 7.38114 19.2298 7.38114 19.2289 7.38114C19.2279 7.38114 19.2269 7.38114 19.2259 7.38114C19.225 7.38114 19.224 7.38114 19.223 7.38114C19.2221 7.38114 19.2211 7.38114 19.2201 7.38114C19.2192 7.38114 19.2182 7.38114 19.2172 7.38114C19.2163 7.38114 19.2153 7.38114 19.2143 7.38114C19.2134 7.38114 19.2124 7.38114 19.2115 7.38114C19.2105 7.38114 19.2096 7.38114 19.2086 7.38114C19.2076 7.38114 19.2067 7.38114 19.2057 7.38114C19.2048 7.38114 19.2038 7.38114 19.2029 7.38114C19.2019 7.38114 19.201 7.38114 19.2 7.38114C19.1991 7.38114 19.1981 7.38114 19.1972 7.38114C19.1962 7.38114 19.1953 7.38114 19.1944 7.38114C19.1934 7.38114 19.1925 7.38114 19.1915 7.38114C19.1906 7.38114 19.1896 7.38114 19.1887 7.38114C19.1878 7.38114 19.1868 7.38114 19.1859 7.38114C19.185 7.38114 19.184 7.38114 19.1831 7.38114C19.1822 7.38114 19.1812 7.38114 19.1803 7.38114C19.1794 7.38114 19.1784 7.38114 19.1775 7.38114C19.1766 7.38114 19.1756 7.38114 19.1747 7.38114C19.1738 7.38114 19.1729 7.38114 19.1719 7.38114C19.171 7.38114 19.1701 7.38114 19.1692 7.38114C19.1683 7.38114 19.1673 7.38114 19.1664 7.38114C19.1655 7.38114 19.1646 7.38114 19.1637 7.38114C19.1627 7.38114 19.1618 7.38114 19.1609 7.38114C19.16 7.38114 19.1591 7.38114 19.1582 7.38114C19.1573 7.38114 19.1564 7.38114 19.1554 7.38114C19.1545 7.38114 19.1536 7.38114 19.1527 7.38114C19.1518 7.38114 19.1509 7.38114 19.15 7.38114C19.1491 7.38114 19.1482 7.38114 19.1473 7.38114C19.1464 7.38114 19.1455 7.38114 19.1446 7.38114C19.1437 7.38114 19.1428 7.38114 19.1419 7.38114C19.141 7.38114 19.1401 7.38114 19.1392 7.38114C19.1383 7.38114 19.1374 7.38114 19.1365 7.38114C19.1356 7.38114 19.1347 7.38114 19.1338 7.38114C19.1329 7.38114 19.132 7.38114 19.1311 7.38114C19.1303 7.38114 19.1294 7.38114 19.1285 7.38114C19.1276 7.38114 19.1267 7.38114 19.1258 7.38114C19.1249 7.38114 19.124 7.38114 19.1232 7.38114C19.1223 7.38114 19.1214 7.38114 19.1205 7.38114C19.1196 7.38114 19.1188 7.38114 19.1179 7.38114C19.117 7.38114 19.1161 7.38114 19.1152 7.38114C19.1144 7.38114 19.1135 7.38114 19.1126 7.38114C19.1117 7.38114 19.1109 7.38114 19.11 7.38114C19.1091 7.38114 19.1082 7.38114 19.1074 7.38114C19.1065 7.38114 19.1056 7.38114 19.1048 7.38114C19.1039 7.38114 19.103 7.38114 19.1022 7.38114C19.1013 7.38114 19.1004 7.38114 19.0996 7.38114C19.0987 7.38114 19.0978 7.38114 19.097 7.38114C19.0961 7.38114 19.0952 7.38114 19.0944 7.38114C19.0935 7.38114 19.0926 7.38114 19.0918 7.38114C19.0909 7.38114 19.0901 7.38114 19.0892 7.38114C19.0884 7.38114 19.0875 7.38114 19.0866 7.38114C19.0858 7.38114 19.0849 7.38114 19.0841 7.38114C19.0832 7.38114 19.0824 7.38114 19.0815 7.38114C19.0807 7.38114 19.0798 7.38114 19.079 7.38114C19.0781 7.38114 19.0773 7.38114 19.0764 7.38114C19.0756 7.38114 19.0747 7.38114 19.0739 7.38114C19.073 7.38114 19.0722 7.38114 19.0713 7.38114C19.0705 7.38114 19.0696 7.38114 19.0688 7.38114C19.068 7.38114 19.0671 7.38114 19.0663 7.38114C19.0654 7.38114 19.0646 7.38114 19.0638 7.38114C19.0629 7.38114 19.0621 7.38114 19.0612 7.38114C19.0604 7.38114 19.0596 7.38114 19.0587 7.38114C19.0579 7.38114 19.0571 7.38114 19.0562 7.38114C19.0554 7.38114 19.0546 7.38114 19.0537 7.38114C19.0529 7.38114 19.0521 7.38114 19.0512 7.38114C19.0504 7.38114 19.0496 7.38114 19.0487 7.38114C19.0479 7.38114 19.0471 7.38114 19.0463 7.38114C19.0454 7.38114 19.0446 7.38114 19.0438 7.38114C19.0429 7.38114 19.0421 7.38114 19.0413 7.38114C19.0405 7.38114 19.0396 7.38114 19.0388 7.38114C19.038 7.38114 19.0372 7.38114 19.0364 7.38114C19.0355 7.38114 19.0347 7.38114 19.0339 7.38114C19.0331 7.38114 19.0323 7.38114 19.0314 7.38114C19.0306 7.38114 19.0298 7.38114 19.029 7.38114C19.0282 7.38114 19.0274 7.38114 19.0265 7.38114C19.0257 7.38114 19.0249 7.38114 19.0241 7.38114C19.0233 7.38114 19.0225 7.38114 19.0217 7.38114C19.0208 7.38114 19.02 7.38114 19.0192 7.38114C19.0184 7.38114 19.0176 7.38114 19.0168 7.38114C19.016 7.38114 19.0152 7.38114 19.0144 7.38114C19.0136 7.38114 19.0127 7.38114 19.0119 7.38114C19.0111 7.38114 19.0103 7.38114 19.0095 7.38114C19.0087 7.38114 19.0079 7.38114 19.0071 7.38114C19.0063 7.38114 19.0055 7.38114 19.0047 7.38114C19.0039 7.38114 19.0031 7.38114 19.0023 7.38114C19.0015 7.38114 19.0007 7.38114 18.9999 7.38114C18.9991 7.38114 18.9983 7.38114 18.9975 7.38114C18.9967 7.38114 18.9959 7.38114 18.9951 7.38114C18.9943 7.38114 18.9935 7.38114 18.9927 7.38114C18.9919 7.38114 18.9911 7.38114 18.9903 7.38114C18.9895 7.38114 18.9887 7.38114 18.9879 7.38114C18.9872 7.38114 18.9864 7.38114 18.9856 7.38114C18.9848 7.38114 18.984 7.38114 18.9832 7.38114C18.9824 7.38114 18.9816 7.38114 18.9808 7.38114C18.98 7.38114 18.9792 7.38114 18.9785 7.38114C18.9777 7.38114 18.9769 7.38114 18.9761 7.38114C18.9753 7.38114 18.9745 7.38114 18.9737 7.38114C18.9729 7.38114 18.9722 7.38114 18.9714 7.38114C18.9706 7.38114 18.9698 7.38114 18.969 7.38114C18.9682 7.38114 18.9675 7.38114 18.9667 7.38114C18.9659 7.38114 18.9651 7.38114 18.9643 7.38114C18.9635 7.38114 18.9628 7.38114 18.962 7.38114C18.9612 7.38114 18.9604 7.38114 18.9596 7.38114C18.9589 7.38114 18.9581 7.38114 18.9573 7.38114C18.9565 7.38114 18.9558 7.38114 18.955 7.38114C18.9542 7.38114 18.9534 7.38114 18.9526 7.38114C18.9519 7.38114 18.9511 7.38114 18.9503 7.38114C18.9495 7.38114 18.9488 7.38114 18.948 7.38114C18.9472 7.38114 18.9464 7.38114 18.9457 7.38114C18.9449 7.38114 18.9441 7.38114 18.9434 7.38114C18.9426 7.38114 18.9418 7.38114 18.941 7.38114C18.9403 7.38114 18.9395 7.38114 18.9387 7.38114C18.938 7.38114 18.9372 7.38114 18.9364 7.38114C18.9356 7.38114 18.9349 7.38114 18.9341 7.38114C18.9333 7.38114 18.9326 7.38114 18.9318 7.38114C18.931 7.38114 18.9303 7.38114 18.9295 7.38114C18.9287 7.38114 18.928 7.38114 18.9272 7.38114C18.9264 7.38114 18.9257 7.38114 18.9249 7.38114C18.9241 7.38114 18.9234 7.38114 18.9226 7.38114C18.9218 7.38114 18.9211 7.38114 18.9203 7.38114C18.9196 7.38114 18.9188 7.38114 18.918 7.38114C18.9173 7.38114 18.9165 7.38114 18.9157 7.38114C18.915 7.38114 18.9142 7.38114 18.9135 7.38114C18.9127 7.38114 18.9119 7.38114 18.9112 7.38114C18.9104 7.38114 18.9097 7.38114 18.9089 7.38114C18.9081 7.38114 18.9074 7.38114 18.9066 7.38114C18.9059 7.38114 18.9051 7.38114 18.9043 7.38114C18.9036 7.38114 18.9028 7.38114 18.9021 7.38114C18.9013 7.38114 18.9005 7.38114 18.8998 7.38114C18.899 7.38114 18.8983 7.38114 18.8975 7.38114C18.8968 7.38114 18.896 7.38114 18.8953 7.38114C18.8945 7.38114 18.8937 7.38114 18.893 7.38114C18.8922 7.38114 18.8915 7.38114 18.8907 7.38114C18.89 7.38114 18.8892 7.38114 18.8885 7.38114C18.8877 7.38114 18.887 7.38114 18.8862 7.38114C18.8854 7.38114 18.8847 7.38114 18.8839 7.38114C18.8832 7.38114 18.8824 7.38114 18.8817 7.38114C18.8809 7.38114 18.8802 7.38114 18.8794 7.38114C18.8787 7.38114 18.8779 7.38114 18.8772 7.38114C18.8764 7.38114 18.8757 7.38114 18.8749 7.38114C18.8742 7.38114 18.8734 7.38114 18.8727 7.38114C18.8719 7.38114 18.8712 7.38114 18.8704 7.38114C18.8697 7.38114 18.8689 7.38114 18.8682 7.38114C18.8674 7.38114 18.8667 7.38114 18.8659 7.38114C18.8652 7.38114 18.8644 7.38114 18.8637 7.38114C18.8629 7.38114 18.8622 7.38114 18.8614 7.38114C18.8607 7.38114 18.8599 7.38114 18.8592 7.38114C18.8584 7.38114 18.8577 7.38114 18.8569 7.38114C18.8562 7.38114 18.8554 7.38114 18.8547 7.38114C18.854 7.38114 18.8532 7.38114 18.8525 7.38114C18.8517 7.38114 18.851 7.38114 18.8502 7.38114C18.8495 7.38114 18.8487 7.38114 18.848 7.38114C18.8472 7.38114 18.8465 7.38114 18.8457 7.38114C18.845 7.38114 18.8443 7.38114 18.8435 7.38114C18.8428 7.38114 18.842 7.38114 18.8413 7.38114C18.8405 7.38114 18.8398 7.38114 18.839 7.38114C18.8383 7.38114 18.8375 7.38114 18.8368 7.38114C18.8361 7.38114 18.8353 7.38114 18.8346 7.38114C18.8338 7.38114 18.8331 7.38114 18.8323 7.38114C18.8316 7.38114 18.8308 7.38114 18.8301 7.38114C18.8294 7.38114 18.8286 7.38114 18.8279 7.38114C18.8271 7.38114 18.8264 7.38114 18.8256 7.38114C18.8249 7.38114 18.8241 7.38114 18.8234 7.38114C18.8227 7.38114 18.8219 7.38114 18.8212 7.38114C18.8204 7.38114 18.8197 7.38114 18.8189 7.38114C18.8182 7.38114 18.8175 7.38114 18.8167 7.38114C18.816 7.38114 18.8152 7.38114 18.8145 7.38114C18.8137 7.38114 18.813 7.38114 18.8123 7.38114C18.8115 7.38114 18.8108 7.38114 18.81 7.38114C18.8093 7.38114 18.8085 7.38114 18.8078 7.38114C18.807 7.38114 18.8063 7.38114 18.8056 7.38114C18.8048 7.38114 18.8041 7.38114 18.8033 7.38114C18.8026 7.38114 18.8018 7.38114 18.8011 7.38114C18.8004 7.38114 18.7996 7.38114 18.7989 7.38114C18.7981 7.38114 18.7974 7.38114 18.7966 7.38114C18.7959 7.38114 18.7952 7.38114 18.7944 7.38114C18.7937 7.38114 18.7929 7.38114 18.7922 7.38114C18.7914 7.38114 18.7907 7.38114 18.7899 7.38114C18.7892 7.38114 18.7885 7.38114 18.7877 7.38114C18.787 7.38114 18.7862 7.38114 18.7855 7.38114C18.7847 7.38114 18.784 7.38114 18.7833 7.38114C18.7825 7.38114 18.7818 7.38114 18.781 7.38114C18.7803 7.38114 18.7795 7.38114 18.7788 7.38114C18.778 7.38114 18.7773 7.38114 18.7766 7.38114C18.7758 7.38114 18.7751 7.38114 18.7743 7.38114C18.7736 7.38114 18.7728 7.38114 18.7721 7.38114C18.7713 7.38114 18.7706 7.38114 18.7699 7.38114C18.7691 7.38114 18.7684 7.38114 18.7676 7.38114C18.7669 7.38114 18.7661 7.38114 18.7654 7.38114C18.7646 7.38114 18.7639 7.38114 18.7631 7.38114C18.7624 7.38114 18.7616 7.38114 18.7609 7.38114C18.7602 7.38114 18.7594 7.38114 18.7587 7.38114C18.7579 7.38114 18.7572 7.38114 18.7564 7.38114C18.7557 7.38114 18.7549 7.38114 18.7542 7.38114C18.7534 7.38114 18.7527 7.38114 18.7519 7.38114C18.7512 7.38114 18.7504 7.38114 18.7497 7.38114C18.7489 7.38114 18.7482 7.38114 18.7474 7.38114C18.7467 7.38114 18.7459 7.38114 18.7452 7.38114C18.7445 7.38114 18.7437 7.38114 18.743 7.38114C18.7422 7.38114 18.7415 7.38114 18.7407 7.38114C18.74 7.38114 18.7392 7.38114 18.7385 7.38114C18.7377 7.38114 18.737 7.38114 18.7362 7.38114C18.7355 7.38114 18.7347 7.38114 18.7339 7.38114C18.7332 7.38114 18.7324 7.38114 18.7317 7.38114C18.7309 7.38114 18.7302 7.38114 18.7294 7.38114C18.7287 7.38114 18.7279 7.38114 18.7272 7.38114C18.7264 7.38114 18.7257 7.38114 18.7249 7.38114C18.7242 7.38114 18.7234 7.38114 18.7227 7.38114C18.7219 7.38114 18.7212 7.38114 18.7204 7.38114C18.7196 7.38114 18.7189 7.38114 18.7181 7.38114C18.7174 7.38114 18.7166 7.38114 18.7159 7.38114C18.7151 7.38114 18.7144 7.38114 18.7136 7.38114C18.7128 7.38114 18.7121 7.38114 18.7113 7.38114C18.7106 7.38114 18.7098 7.38114 18.7091 7.38114C18.7083 7.38114 18.7075 7.38114 18.7068 7.38114C18.706 7.38114 18.7053 7.38114 18.7045 7.38114C18.7037 7.38114 18.703 7.38114 18.7022 7.38114C18.7015 7.38114 18.7007 7.38114 18.6999 7.38114C18.6992 7.38114 18.6984 7.38114 18.6977 7.38114C18.6969 7.38114 18.6961 7.38114 18.6954 7.38114C18.6946 7.38114 18.6939 7.38114 18.6931 7.38114C18.6923 7.38114 18.6916 7.38114 18.6908 7.38114C18.69 7.38114 18.6893 7.38114 18.6885 7.38114C18.6877 7.38114 18.687 7.38114 18.6862 7.38114C18.6854 7.38114 18.6847 7.38114 18.6839 7.38114C18.6831 7.38114 18.6824 7.38114 18.6816 7.38114C18.6808 7.38114 18.6801 7.38114 18.6793 7.38114C18.6785 7.38114 18.6778 7.38114 18.677 7.38114C18.6762 7.38114 18.6755 7.38114 18.6747 7.38114C18.6739 7.38114 18.6732 7.38114 18.6724 7.38114C18.6716 7.38114 18.6708 7.38114 18.6701 7.38114C18.6693 7.38114 18.6685 7.38114 18.6678 7.38114C18.667 7.38114 18.6662 7.38114 18.6654 7.38114C18.6647 7.38114 18.6639 7.38114 18.6631 7.38114C18.6623 7.38114 18.6616 7.38114 18.6608 7.38114C18.66 7.38114 18.6592 7.38114 18.6585 7.38114C18.6577 7.38114 18.6569 7.38114 18.6561 7.38114C18.6554 7.38114 18.6546 7.38114 18.6538 7.38114C18.653 7.38114 18.6522 7.38114 18.6515 7.38114C18.6507 7.38114 18.6499 7.38114 18.6491 7.38114C18.6483 7.38114 18.6476 7.38114 18.6468 7.38114C18.646 7.38114 18.6452 7.38114 18.6444 7.38114C18.6437 7.38114 18.6429 7.38114 18.6421 7.38114C18.6413 7.38114 18.6405 7.38114 18.6397 7.38114C18.6389 7.38114 18.6382 7.38114 18.6374 7.38114C18.6366 7.38114 18.6358 7.38114 18.635 7.38114C18.6342 7.38114 18.6334 7.38114 18.6327 7.38114C18.6319 7.38114 18.6311 7.38114 18.6303 7.38114C18.6295 7.38114 18.6287 7.38114 18.6279 7.38114C18.6271 7.38114 18.6263 7.38114 18.6255 7.38114C18.6247 7.38114 18.624 7.38114 18.6232 7.38114C18.6224 7.38114 18.6216 7.38114 18.6208 7.38114C18.62 7.38114 18.6192 7.38114 18.6184 7.38114C18.6176 7.38114 18.6168 7.38114 18.616 7.38114C18.6152 7.38114 18.6144 7.38114 18.6136 7.38114C18.6128 7.38114 18.612 7.38114 18.6112 7.38114C18.6104 7.38114 18.6096 7.38114 18.6088 7.38114C18.608 7.38114 18.6072 7.38114 18.6064 7.38114C18.6056 7.38114 18.6048 7.38114 18.604 7.38114C18.6032 7.38114 18.6024 7.38114 18.6016 7.38114C18.6008 7.38114 18.6 7.38114 18.5992 7.38114C18.5984 7.38114 18.5975 7.38114 18.5967 7.38114C18.5959 7.38114 18.5951 7.38114 18.5943 7.38114C18.5935 7.38114 18.5927 7.38114 18.5919 7.38114C18.5911 7.38114 18.5903 7.38114 18.5894 7.38114C18.5886 7.38114 18.5878 7.38114 18.587 7.38114C18.5862 7.38114 18.5854 7.38114 18.5846 7.38114C18.5837 7.38114 18.5829 7.38114 18.5821 7.38114C18.5813 7.38114 18.5805 7.38114 18.5797 7.38114C18.5788 7.38114 18.578 7.38114 18.5772 7.38114C18.5764 7.38114 18.5756 7.38114 18.5747 7.38114C18.5739 7.38114 18.5731 7.38114 18.5723 7.38114C18.5715 7.38114 18.5706 7.38114 18.5698 7.38114C18.569 7.38114 18.5682 7.38114 18.5673 7.38114C18.5665 7.38114 18.5657 7.38114 18.5648 7.38114C18.564 7.38114 18.5632 7.38114 18.5624 7.38114C18.5615 7.38114 18.5607 7.38114 18.5599 7.38114C18.559 7.38114 18.5582 7.38114 18.5574 7.38114C18.5565 7.38114 18.5557 7.38114 18.5549 7.38114C18.554 7.38114 18.5532 7.38114 18.5524 7.38114C18.5515 7.38114 18.5507 7.38114 18.5499 7.38114C18.549 7.38114 18.5482 7.38114 18.5473 7.38114C18.5465 7.38114 18.5457 7.38114 18.5448 7.38114C18.544 7.38114 18.5431 7.38114 18.5423 7.38114C18.5414 7.38114 18.5406 7.38114 18.5398 7.38114C18.5389 7.38114 18.5381 7.38114 18.5372 7.38114C18.5364 7.38114 18.5355 7.38114 18.5347 7.38114C18.5338 7.38114 18.533 7.38114 18.5321 7.38114C18.5313 7.38114 18.5304 7.38114 18.5296 7.38114C18.5287 7.38114 18.5279 7.38114 18.527 7.38114C18.5262 7.38114 18.5253 7.38114 18.5244 7.38114C18.5236 7.38114 18.5227 7.38114 18.5219 7.38114C18.521 7.38114 18.5202 7.38114 18.5193 7.38114C18.5184 7.38114 18.5176 7.38114 18.5167 7.38114C18.5159 7.38114 18.515 7.38114 18.5141 7.38114C18.5133 7.38114 18.5124 7.38114 18.5115 7.38114C18.5107 7.38114 18.5098 7.38114 18.5089 7.38114C18.5081 7.38114 18.5072 7.38114 18.5063 7.38114C18.5055 7.38114 18.5046 7.38114 18.5037 7.38114C18.5028 7.38114 18.502 7.38114 18.5011 7.38114C18.5002 7.38114 18.4994 7.38114 18.4985 7.38114C18.4976 7.38114 18.4967 7.38114 18.4958 7.38114C18.495 7.38114 18.4941 7.38114 18.4932 7.38114C18.4923 7.38114 18.4914 7.38114 18.4906 7.38114C18.4897 7.38114 18.4888 7.38114 18.4879 7.38114C18.487 7.38114 18.4862 7.38114 18.4853 7.38114C18.4844 7.38114 18.4835 7.38114 18.4826 7.38114C18.4817 7.38114 18.4808 7.38114 18.4799 7.38114C18.479 7.38114 18.4782 7.38114 18.4773 7.38114C18.4764 7.38114 18.4755 7.38114 18.4746 7.38114C18.4737 7.38114 18.4728 7.38114 18.4719 7.38114C18.471 7.38114 18.4701 7.38114 18.4692 7.38114C18.4683 7.38114 18.4674 7.38114 18.4665 7.38114C18.4656 7.38114 18.4647 7.38114 18.4638 7.38114C18.4629 7.38114 18.462 7.38114 18.4611 7.38114C18.4602 7.38114 18.4593 7.38114 18.4584 7.38114C18.4575 7.38114 18.4565 7.38114 18.4556 7.38114C18.4547 7.38114 18.4538 7.38114 18.4529 7.38114C18.452 7.38114 18.4511 7.38114 18.4502 7.38114C18.4492 7.38114 18.4483 7.38114 18.4474 7.38114C18.4465 7.38114 18.4456 7.38114 18.4447 7.38114C18.4437 7.38114 18.4428 7.38114 18.4419 7.38114C18.441 7.38114 18.4401 7.38114 18.4391 7.38114C18.4382 7.38114 18.4373 7.38114 18.4363 7.38114C18.4354 7.38114 18.4345 7.38114 18.4336 7.38114C18.4326 7.38114 18.4317 7.38114 18.4308 7.38114C18.4298 7.38114 18.4289 7.38114 18.428 7.38114C18.427 7.38114 18.4261 7.38114 18.4252 7.38114C18.4242 7.38114 18.4233 7.38114 18.4224 7.38114C18.4214 7.38114 18.4205 7.38114 18.4195 7.38114C18.4186 7.38114 18.4177 7.38114 18.4167 7.38114C18.4158 7.38114 18.4148 7.38114 18.4139 7.38114C18.4129 7.38114 18.412 7.38114 18.411 7.38114C18.4101 7.38114 18.4091 7.38114 18.4082 7.38114C18.4072 7.38114 18.4063 7.38114 18.4053 7.38114C18.4044 7.38114 18.4034 7.38114 18.4025 7.38114C18.4015 7.38114 18.4005 7.38114 18.3996 7.38114C18.3986 7.38114 18.3977 7.38114 18.3967 7.38114C18.3957 7.38114 18.3948 7.38114 18.3938 7.38114C18.3929 7.38114 18.3919 7.38114 18.3909 7.38114C18.39 7.38114 18.389 7.38114 18.388 7.38114C18.3871 7.38114 18.3861 7.38114 18.3851 7.38114C18.3841 7.38114 18.3832 7.38114 18.3822 7.38114C18.3812 7.38114 18.3802 7.38114 18.3793 7.38114C18.3783 7.38114 18.3773 7.38114 18.3763 7.38114C18.3753 7.38114 18.3744 7.38114 18.3734 7.38114C18.3724 7.38114 18.3714 7.38114 18.3704 7.38114C18.3694 7.38114 18.3685 7.38114 18.3675 7.38114C18.3665 7.38114 18.3655 7.38114 18.3645 7.38114C18.3635 7.38114 18.3625 7.38114 18.3615 7.38114C18.3605 7.38114 18.3595 7.38114 18.3585 7.38114C18.3575 7.38114 18.3565 7.38114 18.3555 7.38114C18.3545 7.38114 18.3535 7.38114 18.3525 7.38114C18.3515 7.38114 18.3505 7.38114 18.3495 7.38114C18.3485 7.38114 18.3475 7.38114 18.3465 7.38114C18.3455 7.38114 18.3445 7.38114 18.3435 7.38114C18.3425 7.38114 18.3414 7.38114 18.3404 7.38114C18.3394 7.38114 18.3384 7.38114 18.3374 7.38114C18.3364 7.38114 18.3353 7.38114 18.3343 7.38114C18.3333 7.38114 18.3323 7.38114 18.3313 7.38114C18.3302 7.38114 18.3292 7.38114 18.3282 7.38114C18.3272 7.38114 18.3261 7.38114 18.3251 7.38114C18.3241 7.38114 18.323 7.38114 18.322 7.38114C18.321 7.38114 18.32 7.38114 18.3189 7.38114C18.3179 7.38114 18.3168 7.38114 18.3158 7.38114C18.3148 7.38114 18.3137 7.38114 18.3127 7.38114C18.3116 7.38114 18.3106 7.38114 18.3096 7.38114C18.3085 7.38114 18.3075 7.38114 18.3064 7.38114C18.3054 7.38114 18.3043 7.38114 18.3033 7.38114C18.3022 7.38114 18.3012 7.38114 18.3001 7.38114C18.2991 7.38114 18.298 7.38114 18.297 7.38114C18.2959 7.38114 18.2948 7.38114 18.2938 7.38114C18.2927 7.38114 18.2917 7.38114 18.2906 7.38114C18.2895 7.38114 18.2885 7.38114 18.2874 7.38114C18.2863 7.38114 18.2853 7.38114 18.2842 7.38114C18.2831 7.38114 18.2821 7.38114 18.281 7.38114C18.2799 7.38114 18.2789 7.38114 18.2778 7.38114C18.2767 7.38114 18.2756 7.38114 18.2745 7.38114C18.2735 7.38114 18.2724 7.38114 18.2713 7.38114C18.2702 7.38114 18.2691 7.38114 18.2681 7.38114C18.267 7.38114 18.2659 7.38114 18.2648 7.38114C18.2637 7.38114 18.2626 7.38114 18.2615 7.38114C18.2604 7.38114 18.2593 7.38114 18.2582 7.38114C18.2571 7.38114 18.2561 7.38114 18.255 7.38114C18.2539 7.38114 18.2528 7.38114 18.2517 7.38114C18.2506 7.38114 18.2494 7.38114 18.2483 7.38114C18.2472 7.38114 18.2461 7.38114 18.245 7.38114C18.2439 7.38114 18.2428 7.38114 18.2417 7.38114C18.2406 7.38114 18.2395 7.38114 18.2384 7.38114C18.2372 7.38114 18.2361 7.38114 18.235 7.38114C18.2339 7.38114 18.2328 7.38114 18.2316 7.38114C18.2305 7.38114 18.2294 7.38114 18.2283 7.38114C18.2271 7.38114 18.226 7.38114 18.2249 7.38114C18.2238 7.38114 18.2226 7.38114 18.2215 7.38114C18.2204 7.38114 18.2192 7.38114 18.2181 7.38114C18.217 7.38114 18.2158 7.38114 18.2147 7.38114C18.2135 7.38114 18.2124 7.38114 18.2113 7.38114C18.2101 7.38114 18.209 7.38114 18.2078 7.38114C18.2067 7.38114 18.2055 7.38114 18.2044 7.38114C18.2032 7.38114 18.2021 7.38114 18.2009 7.38114C18.1998 7.38114 18.1986 7.38114 18.1975 7.38114C18.1963 7.38114 18.1951 7.38114 18.194 7.38114C18.1928 7.38114 18.1917 7.38114 18.1905 7.38114C18.1893 7.38114 18.1882 7.38114 18.187 7.38114C18.1858 7.38114 18.1846 7.38114 18.1835 7.38114C18.1823 7.38114 18.1811 7.38114 18.18 7.38114C18.1788 7.38114 18.1776 7.38114 18.1764 7.38114C18.1752 7.38114 18.1741 7.38114 18.1729 7.38114C18.1717 7.38114 18.1705 7.38114 18.1693 7.38114C18.1681 7.38114 18.167 7.38114 18.1658 7.38114C18.1646 7.38114 18.1634 7.38114 18.1622 7.38114C18.161 7.38114 18.1598 7.38114 18.1586 7.38114C18.1574 7.38114 18.1562 7.38114 18.155 7.38114C18.1538 7.38114 18.1526 7.38114 18.1514 7.38114C18.1502 7.38114 18.149 7.38114 18.1478 7.38114C18.1466 7.38114 18.1453 7.38114 18.1441 7.38114C18.1429 7.38114 18.1417 7.38114 18.1405 7.38114C18.1393 7.38114 18.1381 7.38114 18.1368 7.38114C18.1356 7.38114 18.1344 7.38114 18.1332 7.38114C18.1319 7.38114 18.1307 7.38114 18.1295 7.38114C18.1283 7.38114 18.127 7.38114 18.1258 7.38114C18.1246 7.38114 18.1233 7.38114 18.1221 7.38114C18.1209 7.38114 18.1196 7.38114 18.1184 7.38114C18.1171 7.38114 18.1159 7.38114 18.1146 7.38114C18.1134 7.38114 18.1122 7.38114 18.1109 7.38114C18.1097 7.38114 18.1084 7.38114 18.1072 7.38114C18.1059 7.38114 18.1047 7.38114 18.1034 7.38114C18.1021 7.38114 18.1009 7.38114 18.0996 7.38114C18.0984 7.38114 18.0971 7.38114 18.0958 7.38114C18.0946 7.38114 18.0933 7.38114 18.092 7.38114C18.0908 7.38114 18.0895 7.38114 18.0882 7.38114C18.087 7.38114 18.0857 7.38114 18.0844 7.38114C18.0831 7.38114 18.0818 7.38114 18.0806 7.38114C18.0793 7.38114 18.078 7.38114 18.0767 7.38114C18.0754 7.38114 18.0741 7.38114 18.0729 7.38114C18.0716 7.38114 18.0703 7.38114 18.069 7.38114C18.0677 7.38114 18.0664 7.38114 18.0651 7.38114C18.0638 7.38114 18.0625 7.38114 18.0612 7.38114C18.0599 7.38114 18.0586 7.38114 18.0573 7.38114C18.056 7.38114 18.0547 7.38114 18.0534 7.38114C18.0521 7.38114 18.0507 7.38114 18.0494 7.38114C18.0481 7.38114 18.0468 7.38114 18.0455 7.38114C18.0442 7.38114 18.0428 7.38114 18.0415 7.38114C18.0402 7.38114 18.0389 7.38114 18.0376 7.38114C18.0362 7.38114 18.0349 7.38114 18.0336 7.38114C18.0322 7.38114 18.0309 7.38114 18.0296 7.38114C18.0282 7.38114 18.0269 7.38114 18.0256 7.38114C18.0242 7.38114 18.0229 7.38114 18.0215 7.38114C18.0202 7.38114 18.0188 7.38114 18.0175 7.38114C18.0161 7.38114 18.0148 7.38114 18.0134 7.38114C18.0121 7.38114 18.0107 7.38114 18.0094 7.38114C18.008 7.38114 18.0067 7.38114 18.0053 7.38114C18.0039 7.38114 18.0026 7.38114 18.0012 7.38114C17.9998 7.38114 17.9985 7.38114 17.9971 7.38114C17.9957 7.38114 17.9944 7.38114 17.993 7.38114C17.9916 7.38114 17.9902 7.38114 17.9889 7.38114C17.9875 7.38114 17.9861 7.38114 17.9847 7.38114C17.9833 7.38114 17.9819 7.38114 17.9806 7.38114C17.9792 7.38114 17.9778 7.38114 17.9764 7.38114C17.975 7.38114 17.9736 7.38114 17.9722 7.38114C17.9708 7.38114 17.9694 7.38114 17.968 7.38114C17.9666 7.38114 17.9652 7.38114 17.9638 7.38114C17.9624 7.38114 17.961 7.38114 17.9596 7.38114C17.9582 7.38114 17.9567 7.38114 17.9553 7.38114C17.9539 7.38114 17.9525 7.38114 17.9511 7.38114C17.9497 7.38114 17.9482 7.38114 17.9468 7.38114C17.9454 7.38114 17.944 7.38114 17.9425 7.38114C17.9411 7.38114 17.9397 7.38114 17.9382 7.38114C17.9368 7.38114 17.9354 7.38114 17.9339 7.38114C17.9325 7.38114 17.9311 7.38114 17.9296 7.38114C17.9282 7.38114 17.9267 7.38114 17.9253 7.38114C17.9238 7.38114 17.9224 7.38114 17.9209 7.38114C17.9195 7.38114 17.918 7.38114 17.9166 7.38114C17.9151 7.38114 17.9136 7.38114 17.9122 7.38114C17.9107 7.38114 17.9093 7.38114 17.9078 7.38114C17.9063 7.38114 17.9049 7.38114 17.9034 7.38114C17.9019 7.38114 17.9004 7.38114 17.899 7.38114C17.8975 7.38114 17.896 7.38114 17.8945 7.38114C17.893 7.38114 17.8916 7.38114 17.8901 7.38114C17.8886 7.38114 17.8871 7.38114 17.8856 7.38114C17.8841 7.38114 17.8826 7.38114 17.8811 7.38114C17.8796 7.38114 17.8781 7.38114 17.8766 7.38114C17.8751 7.38114 17.8736 7.38114 17.8721 7.38114C17.8706 7.38114 17.8691 7.38114 17.8676 7.38114C17.8661 7.38114 17.8646 7.38114 17.8631 7.38114C17.8616 7.38114 17.86 7.38114 17.8585 7.38114C17.857 7.38114 17.8555 7.38114 17.854 7.38114C17.8524 7.38114 17.8509 7.38114 17.8494 7.38114C17.8478 7.38114 17.8463 7.38114 17.8448 7.38114C17.8432 7.38114 17.8417 7.38114 17.8402 7.38114C17.8386 7.38114 17.8371 7.38114 17.8355 7.38114C17.834 7.38114 17.8324 7.38114 17.8309 7.38114C17.8293 7.38114 17.8278 7.38114 17.8262 7.38114C17.8247 7.38114 17.8231 7.38114 17.8216 7.38114C17.82 7.38114 17.8184 7.38114 17.8169 7.38114C17.8153 7.38114 17.8138 7.38114 17.8122 7.38114C17.8106 7.38114 17.809 7.38114 17.8075 7.38114C17.8059 7.38114 17.8043 7.38114 17.8027 7.38114V5.68114C17.8043 5.68114 17.8059 5.68114 17.8075 5.68114C17.809 5.68114 17.8106 5.68114 17.8122 5.68114C17.8138 5.68114 17.8153 5.68114 17.8169 5.68114C17.8184 5.68114 17.82 5.68114 17.8216 5.68114C17.8231 5.68114 17.8247 5.68114 17.8262 5.68114C17.8278 5.68114 17.8293 5.68114 17.8309 5.68114C17.8324 5.68114 17.834 5.68114 17.8355 5.68114C17.8371 5.68114 17.8386 5.68114 17.8402 5.68114C17.8417 5.68114 17.8432 5.68114 17.8448 5.68114C17.8463 5.68114 17.8478 5.68114 17.8494 5.68114C17.8509 5.68114 17.8524 5.68114 17.854 5.68114C17.8555 5.68114 17.857 5.68114 17.8585 5.68114C17.86 5.68114 17.8616 5.68114 17.8631 5.68114C17.8646 5.68114 17.8661 5.68114 17.8676 5.68114C17.8691 5.68114 17.8706 5.68114 17.8721 5.68114C17.8736 5.68114 17.8751 5.68114 17.8766 5.68114C17.8781 5.68114 17.8796 5.68114 17.8811 5.68114C17.8826 5.68114 17.8841 5.68114 17.8856 5.68114C17.8871 5.68114 17.8886 5.68114 17.8901 5.68114C17.8916 5.68114 17.893 5.68114 17.8945 5.68114C17.896 5.68114 17.8975 5.68114 17.899 5.68114C17.9004 5.68114 17.9019 5.68114 17.9034 5.68114C17.9049 5.68114 17.9063 5.68114 17.9078 5.68114C17.9093 5.68114 17.9107 5.68114 17.9122 5.68114C17.9136 5.68114 17.9151 5.68114 17.9166 5.68114C17.918 5.68114 17.9195 5.68114 17.9209 5.68114C17.9224 5.68114 17.9238 5.68114 17.9253 5.68114C17.9267 5.68114 17.9282 5.68114 17.9296 5.68114C17.9311 5.68114 17.9325 5.68114 17.9339 5.68114C17.9354 5.68114 17.9368 5.68114 17.9382 5.68114C17.9397 5.68114 17.9411 5.68114 17.9425 5.68114C17.944 5.68114 17.9454 5.68114 17.9468 5.68114C17.9482 5.68114 17.9497 5.68114 17.9511 5.68114C17.9525 5.68114 17.9539 5.68114 17.9553 5.68114C17.9567 5.68114 17.9582 5.68114 17.9596 5.68114C17.961 5.68114 17.9624 5.68114 17.9638 5.68114C17.9652 5.68114 17.9666 5.68114 17.968 5.68114C17.9694 5.68114 17.9708 5.68114 17.9722 5.68114C17.9736 5.68114 17.975 5.68114 17.9764 5.68114C17.9778 5.68114 17.9792 5.68114 17.9806 5.68114C17.9819 5.68114 17.9833 5.68114 17.9847 5.68114C17.9861 5.68114 17.9875 5.68114 17.9889 5.68114C17.9902 5.68114 17.9916 5.68114 17.993 5.68114C17.9944 5.68114 17.9957 5.68114 17.9971 5.68114C17.9985 5.68114 17.9998 5.68114 18.0012 5.68114C18.0026 5.68114 18.0039 5.68114 18.0053 5.68114C18.0067 5.68114 18.008 5.68114 18.0094 5.68114C18.0107 5.68114 18.0121 5.68114 18.0134 5.68114C18.0148 5.68114 18.0161 5.68114 18.0175 5.68114C18.0188 5.68114 18.0202 5.68114 18.0215 5.68114C18.0229 5.68114 18.0242 5.68114 18.0256 5.68114C18.0269 5.68114 18.0282 5.68114 18.0296 5.68114C18.0309 5.68114 18.0322 5.68114 18.0336 5.68114C18.0349 5.68114 18.0362 5.68114 18.0376 5.68114C18.0389 5.68114 18.0402 5.68114 18.0415 5.68114C18.0428 5.68114 18.0442 5.68114 18.0455 5.68114C18.0468 5.68114 18.0481 5.68114 18.0494 5.68114C18.0507 5.68114 18.0521 5.68114 18.0534 5.68114C18.0547 5.68114 18.056 5.68114 18.0573 5.68114C18.0586 5.68114 18.0599 5.68114 18.0612 5.68114C18.0625 5.68114 18.0638 5.68114 18.0651 5.68114C18.0664 5.68114 18.0677 5.68114 18.069 5.68114C18.0703 5.68114 18.0716 5.68114 18.0729 5.68114C18.0741 5.68114 18.0754 5.68114 18.0767 5.68114C18.078 5.68114 18.0793 5.68114 18.0806 5.68114C18.0818 5.68114 18.0831 5.68114 18.0844 5.68114C18.0857 5.68114 18.087 5.68114 18.0882 5.68114C18.0895 5.68114 18.0908 5.68114 18.092 5.68114C18.0933 5.68114 18.0946 5.68114 18.0958 5.68114C18.0971 5.68114 18.0984 5.68114 18.0996 5.68114C18.1009 5.68114 18.1021 5.68114 18.1034 5.68114C18.1047 5.68114 18.1059 5.68114 18.1072 5.68114C18.1084 5.68114 18.1097 5.68114 18.1109 5.68114C18.1122 5.68114 18.1134 5.68114 18.1146 5.68114C18.1159 5.68114 18.1171 5.68114 18.1184 5.68114C18.1196 5.68114 18.1209 5.68114 18.1221 5.68114C18.1233 5.68114 18.1246 5.68114 18.1258 5.68114C18.127 5.68114 18.1283 5.68114 18.1295 5.68114C18.1307 5.68114 18.1319 5.68114 18.1332 5.68114C18.1344 5.68114 18.1356 5.68114 18.1368 5.68114C18.1381 5.68114 18.1393 5.68114 18.1405 5.68114C18.1417 5.68114 18.1429 5.68114 18.1441 5.68114C18.1453 5.68114 18.1466 5.68114 18.1478 5.68114C18.149 5.68114 18.1502 5.68114 18.1514 5.68114C18.1526 5.68114 18.1538 5.68114 18.155 5.68114C18.1562 5.68114 18.1574 5.68114 18.1586 5.68114C18.1598 5.68114 18.161 5.68114 18.1622 5.68114C18.1634 5.68114 18.1646 5.68114 18.1658 5.68114C18.167 5.68114 18.1681 5.68114 18.1693 5.68114C18.1705 5.68114 18.1717 5.68114 18.1729 5.68114C18.1741 5.68114 18.1752 5.68114 18.1764 5.68114C18.1776 5.68114 18.1788 5.68114 18.18 5.68114C18.1811 5.68114 18.1823 5.68114 18.1835 5.68114C18.1846 5.68114 18.1858 5.68114 18.187 5.68114C18.1882 5.68114 18.1893 5.68114 18.1905 5.68114C18.1917 5.68114 18.1928 5.68114 18.194 5.68114C18.1951 5.68114 18.1963 5.68114 18.1975 5.68114C18.1986 5.68114 18.1998 5.68114 18.2009 5.68114C18.2021 5.68114 18.2032 5.68114 18.2044 5.68114C18.2055 5.68114 18.2067 5.68114 18.2078 5.68114C18.209 5.68114 18.2101 5.68114 18.2113 5.68114C18.2124 5.68114 18.2135 5.68114 18.2147 5.68114C18.2158 5.68114 18.217 5.68114 18.2181 5.68114C18.2192 5.68114 18.2204 5.68114 18.2215 5.68114C18.2226 5.68114 18.2238 5.68114 18.2249 5.68114C18.226 5.68114 18.2271 5.68114 18.2283 5.68114C18.2294 5.68114 18.2305 5.68114 18.2316 5.68114C18.2328 5.68114 18.2339 5.68114 18.235 5.68114C18.2361 5.68114 18.2372 5.68114 18.2384 5.68114C18.2395 5.68114 18.2406 5.68114 18.2417 5.68114C18.2428 5.68114 18.2439 5.68114 18.245 5.68114C18.2461 5.68114 18.2472 5.68114 18.2483 5.68114C18.2494 5.68114 18.2506 5.68114 18.2517 5.68114C18.2528 5.68114 18.2539 5.68114 18.255 5.68114C18.2561 5.68114 18.2571 5.68114 18.2582 5.68114C18.2593 5.68114 18.2604 5.68114 18.2615 5.68114C18.2626 5.68114 18.2637 5.68114 18.2648 5.68114C18.2659 5.68114 18.267 5.68114 18.2681 5.68114C18.2691 5.68114 18.2702 5.68114 18.2713 5.68114C18.2724 5.68114 18.2735 5.68114 18.2745 5.68114C18.2756 5.68114 18.2767 5.68114 18.2778 5.68114C18.2789 5.68114 18.2799 5.68114 18.281 5.68114C18.2821 5.68114 18.2831 5.68114 18.2842 5.68114C18.2853 5.68114 18.2863 5.68114 18.2874 5.68114C18.2885 5.68114 18.2895 5.68114 18.2906 5.68114C18.2917 5.68114 18.2927 5.68114 18.2938 5.68114C18.2948 5.68114 18.2959 5.68114 18.297 5.68114C18.298 5.68114 18.2991 5.68114 18.3001 5.68114C18.3012 5.68114 18.3022 5.68114 18.3033 5.68114C18.3043 5.68114 18.3054 5.68114 18.3064 5.68114C18.3075 5.68114 18.3085 5.68114 18.3096 5.68114C18.3106 5.68114 18.3116 5.68114 18.3127 5.68114C18.3137 5.68114 18.3148 5.68114 18.3158 5.68114C18.3168 5.68114 18.3179 5.68114 18.3189 5.68114C18.32 5.68114 18.321 5.68114 18.322 5.68114C18.323 5.68114 18.3241 5.68114 18.3251 5.68114C18.3261 5.68114 18.3272 5.68114 18.3282 5.68114C18.3292 5.68114 18.3302 5.68114 18.3313 5.68114C18.3323 5.68114 18.3333 5.68114 18.3343 5.68114C18.3353 5.68114 18.3364 5.68114 18.3374 5.68114C18.3384 5.68114 18.3394 5.68114 18.3404 5.68114C18.3414 5.68114 18.3425 5.68114 18.3435 5.68114C18.3445 5.68114 18.3455 5.68114 18.3465 5.68114C18.3475 5.68114 18.3485 5.68114 18.3495 5.68114C18.3505 5.68114 18.3515 5.68114 18.3525 5.68114C18.3535 5.68114 18.3545 5.68114 18.3555 5.68114C18.3565 5.68114 18.3575 5.68114 18.3585 5.68114C18.3595 5.68114 18.3605 5.68114 18.3615 5.68114C18.3625 5.68114 18.3635 5.68114 18.3645 5.68114C18.3655 5.68114 18.3665 5.68114 18.3675 5.68114C18.3685 5.68114 18.3694 5.68114 18.3704 5.68114C18.3714 5.68114 18.3724 5.68114 18.3734 5.68114C18.3744 5.68114 18.3753 5.68114 18.3763 5.68114C18.3773 5.68114 18.3783 5.68114 18.3793 5.68114C18.3802 5.68114 18.3812 5.68114 18.3822 5.68114C18.3832 5.68114 18.3841 5.68114 18.3851 5.68114C18.3861 5.68114 18.3871 5.68114 18.388 5.68114C18.389 5.68114 18.39 5.68114 18.3909 5.68114C18.3919 5.68114 18.3929 5.68114 18.3938 5.68114C18.3948 5.68114 18.3957 5.68114 18.3967 5.68114C18.3977 5.68114 18.3986 5.68114 18.3996 5.68114C18.4005 5.68114 18.4015 5.68114 18.4025 5.68114C18.4034 5.68114 18.4044 5.68114 18.4053 5.68114C18.4063 5.68114 18.4072 5.68114 18.4082 5.68114C18.4091 5.68114 18.4101 5.68114 18.411 5.68114C18.412 5.68114 18.4129 5.68114 18.4139 5.68114C18.4148 5.68114 18.4158 5.68114 18.4167 5.68114C18.4177 5.68114 18.4186 5.68114 18.4195 5.68114C18.4205 5.68114 18.4214 5.68114 18.4224 5.68114C18.4233 5.68114 18.4242 5.68114 18.4252 5.68114C18.4261 5.68114 18.427 5.68114 18.428 5.68114C18.4289 5.68114 18.4298 5.68114 18.4308 5.68114C18.4317 5.68114 18.4326 5.68114 18.4336 5.68114C18.4345 5.68114 18.4354 5.68114 18.4363 5.68114C18.4373 5.68114 18.4382 5.68114 18.4391 5.68114C18.4401 5.68114 18.441 5.68114 18.4419 5.68114C18.4428 5.68114 18.4437 5.68114 18.4447 5.68114C18.4456 5.68114 18.4465 5.68114 18.4474 5.68114C18.4483 5.68114 18.4492 5.68114 18.4502 5.68114C18.4511 5.68114 18.452 5.68114 18.4529 5.68114C18.4538 5.68114 18.4547 5.68114 18.4556 5.68114C18.4565 5.68114 18.4575 5.68114 18.4584 5.68114C18.4593 5.68114 18.4602 5.68114 18.4611 5.68114C18.462 5.68114 18.4629 5.68114 18.4638 5.68114C18.4647 5.68114 18.4656 5.68114 18.4665 5.68114C18.4674 5.68114 18.4683 5.68114 18.4692 5.68114C18.4701 5.68114 18.471 5.68114 18.4719 5.68114C18.4728 5.68114 18.4737 5.68114 18.4746 5.68114C18.4755 5.68114 18.4764 5.68114 18.4773 5.68114C18.4782 5.68114 18.479 5.68114 18.4799 5.68114C18.4808 5.68114 18.4817 5.68114 18.4826 5.68114C18.4835 5.68114 18.4844 5.68114 18.4853 5.68114C18.4862 5.68114 18.487 5.68114 18.4879 5.68114C18.4888 5.68114 18.4897 5.68114 18.4906 5.68114C18.4914 5.68114 18.4923 5.68114 18.4932 5.68114C18.4941 5.68114 18.495 5.68114 18.4958 5.68114C18.4967 5.68114 18.4976 5.68114 18.4985 5.68114C18.4994 5.68114 18.5002 5.68114 18.5011 5.68114C18.502 5.68114 18.5028 5.68114 18.5037 5.68114C18.5046 5.68114 18.5055 5.68114 18.5063 5.68114C18.5072 5.68114 18.5081 5.68114 18.5089 5.68114C18.5098 5.68114 18.5107 5.68114 18.5115 5.68114C18.5124 5.68114 18.5133 5.68114 18.5141 5.68114C18.515 5.68114 18.5159 5.68114 18.5167 5.68114C18.5176 5.68114 18.5184 5.68114 18.5193 5.68114C18.5202 5.68114 18.521 5.68114 18.5219 5.68114C18.5227 5.68114 18.5236 5.68114 18.5244 5.68114C18.5253 5.68114 18.5262 5.68114 18.527 5.68114C18.5279 5.68114 18.5287 5.68114 18.5296 5.68114C18.5304 5.68114 18.5313 5.68114 18.5321 5.68114C18.533 5.68114 18.5338 5.68114 18.5347 5.68114C18.5355 5.68114 18.5364 5.68114 18.5372 5.68114C18.5381 5.68114 18.5389 5.68114 18.5398 5.68114C18.5406 5.68114 18.5414 5.68114 18.5423 5.68114C18.5431 5.68114 18.544 5.68114 18.5448 5.68114C18.5457 5.68114 18.5465 5.68114 18.5473 5.68114C18.5482 5.68114 18.549 5.68114 18.5499 5.68114C18.5507 5.68114 18.5515 5.68114 18.5524 5.68114C18.5532 5.68114 18.554 5.68114 18.5549 5.68114C18.5557 5.68114 18.5565 5.68114 18.5574 5.68114C18.5582 5.68114 18.559 5.68114 18.5599 5.68114C18.5607 5.68114 18.5615 5.68114 18.5624 5.68114C18.5632 5.68114 18.564 5.68114 18.5648 5.68114C18.5657 5.68114 18.5665 5.68114 18.5673 5.68114C18.5682 5.68114 18.569 5.68114 18.5698 5.68114C18.5706 5.68114 18.5715 5.68114 18.5723 5.68114C18.5731 5.68114 18.5739 5.68114 18.5747 5.68114C18.5756 5.68114 18.5764 5.68114 18.5772 5.68114C18.578 5.68114 18.5788 5.68114 18.5797 5.68114C18.5805 5.68114 18.5813 5.68114 18.5821 5.68114C18.5829 5.68114 18.5837 5.68114 18.5846 5.68114C18.5854 5.68114 18.5862 5.68114 18.587 5.68114C18.5878 5.68114 18.5886 5.68114 18.5894 5.68114C18.5903 5.68114 18.5911 5.68114 18.5919 5.68114C18.5927 5.68114 18.5935 5.68114 18.5943 5.68114C18.5951 5.68114 18.5959 5.68114 18.5967 5.68114C18.5975 5.68114 18.5984 5.68114 18.5992 5.68114C18.6 5.68114 18.6008 5.68114 18.6016 5.68114C18.6024 5.68114 18.6032 5.68114 18.604 5.68114C18.6048 5.68114 18.6056 5.68114 18.6064 5.68114C18.6072 5.68114 18.608 5.68114 18.6088 5.68114C18.6096 5.68114 18.6104 5.68114 18.6112 5.68114C18.612 5.68114 18.6128 5.68114 18.6136 5.68114C18.6144 5.68114 18.6152 5.68114 18.616 5.68114C18.6168 5.68114 18.6176 5.68114 18.6184 5.68114C18.6192 5.68114 18.62 5.68114 18.6208 5.68114C18.6216 5.68114 18.6224 5.68114 18.6232 5.68114C18.624 5.68114 18.6247 5.68114 18.6255 5.68114C18.6263 5.68114 18.6271 5.68114 18.6279 5.68114C18.6287 5.68114 18.6295 5.68114 18.6303 5.68114C18.6311 5.68114 18.6319 5.68114 18.6327 5.68114C18.6334 5.68114 18.6342 5.68114 18.635 5.68114C18.6358 5.68114 18.6366 5.68114 18.6374 5.68114C18.6382 5.68114 18.6389 5.68114 18.6397 5.68114C18.6405 5.68114 18.6413 5.68114 18.6421 5.68114C18.6429 5.68114 18.6437 5.68114 18.6444 5.68114C18.6452 5.68114 18.646 5.68114 18.6468 5.68114C18.6476 5.68114 18.6483 5.68114 18.6491 5.68114C18.6499 5.68114 18.6507 5.68114 18.6515 5.68114C18.6522 5.68114 18.653 5.68114 18.6538 5.68114C18.6546 5.68114 18.6554 5.68114 18.6561 5.68114C18.6569 5.68114 18.6577 5.68114 18.6585 5.68114C18.6592 5.68114 18.66 5.68114 18.6608 5.68114C18.6616 5.68114 18.6623 5.68114 18.6631 5.68114C18.6639 5.68114 18.6647 5.68114 18.6654 5.68114C18.6662 5.68114 18.667 5.68114 18.6678 5.68114C18.6685 5.68114 18.6693 5.68114 18.6701 5.68114C18.6708 5.68114 18.6716 5.68114 18.6724 5.68114C18.6732 5.68114 18.6739 5.68114 18.6747 5.68114C18.6755 5.68114 18.6762 5.68114 18.677 5.68114C18.6778 5.68114 18.6785 5.68114 18.6793 5.68114C18.6801 5.68114 18.6808 5.68114 18.6816 5.68114C18.6824 5.68114 18.6831 5.68114 18.6839 5.68114C18.6847 5.68114 18.6854 5.68114 18.6862 5.68114C18.687 5.68114 18.6877 5.68114 18.6885 5.68114C18.6893 5.68114 18.69 5.68114 18.6908 5.68114C18.6916 5.68114 18.6923 5.68114 18.6931 5.68114C18.6939 5.68114 18.6946 5.68114 18.6954 5.68114C18.6961 5.68114 18.6969 5.68114 18.6977 5.68114C18.6984 5.68114 18.6992 5.68114 18.6999 5.68114C18.7007 5.68114 18.7015 5.68114 18.7022 5.68114C18.703 5.68114 18.7037 5.68114 18.7045 5.68114C18.7053 5.68114 18.706 5.68114 18.7068 5.68114C18.7075 5.68114 18.7083 5.68114 18.7091 5.68114C18.7098 5.68114 18.7106 5.68114 18.7113 5.68114C18.7121 5.68114 18.7128 5.68114 18.7136 5.68114C18.7144 5.68114 18.7151 5.68114 18.7159 5.68114C18.7166 5.68114 18.7174 5.68114 18.7181 5.68114C18.7189 5.68114 18.7196 5.68114 18.7204 5.68114C18.7212 5.68114 18.7219 5.68114 18.7227 5.68114C18.7234 5.68114 18.7242 5.68114 18.7249 5.68114C18.7257 5.68114 18.7264 5.68114 18.7272 5.68114C18.7279 5.68114 18.7287 5.68114 18.7294 5.68114C18.7302 5.68114 18.7309 5.68114 18.7317 5.68114C18.7324 5.68114 18.7332 5.68114 18.7339 5.68114C18.7347 5.68114 18.7355 5.68114 18.7362 5.68114C18.737 5.68114 18.7377 5.68114 18.7385 5.68114C18.7392 5.68114 18.74 5.68114 18.7407 5.68114C18.7415 5.68114 18.7422 5.68114 18.743 5.68114C18.7437 5.68114 18.7445 5.68114 18.7452 5.68114C18.7459 5.68114 18.7467 5.68114 18.7474 5.68114C18.7482 5.68114 18.7489 5.68114 18.7497 5.68114C18.7504 5.68114 18.7512 5.68114 18.7519 5.68114C18.7527 5.68114 18.7534 5.68114 18.7542 5.68114C18.7549 5.68114 18.7557 5.68114 18.7564 5.68114C18.7572 5.68114 18.7579 5.68114 18.7587 5.68114C18.7594 5.68114 18.7602 5.68114 18.7609 5.68114C18.7616 5.68114 18.7624 5.68114 18.7631 5.68114C18.7639 5.68114 18.7646 5.68114 18.7654 5.68114C18.7661 5.68114 18.7669 5.68114 18.7676 5.68114C18.7684 5.68114 18.7691 5.68114 18.7699 5.68114C18.7706 5.68114 18.7713 5.68114 18.7721 5.68114C18.7728 5.68114 18.7736 5.68114 18.7743 5.68114C18.7751 5.68114 18.7758 5.68114 18.7766 5.68114C18.7773 5.68114 18.778 5.68114 18.7788 5.68114C18.7795 5.68114 18.7803 5.68114 18.781 5.68114C18.7818 5.68114 18.7825 5.68114 18.7833 5.68114C18.784 5.68114 18.7847 5.68114 18.7855 5.68114C18.7862 5.68114 18.787 5.68114 18.7877 5.68114C18.7885 5.68114 18.7892 5.68114 18.7899 5.68114C18.7907 5.68114 18.7914 5.68114 18.7922 5.68114C18.7929 5.68114 18.7937 5.68114 18.7944 5.68114C18.7952 5.68114 18.7959 5.68114 18.7966 5.68114C18.7974 5.68114 18.7981 5.68114 18.7989 5.68114C18.7996 5.68114 18.8004 5.68114 18.8011 5.68114C18.8018 5.68114 18.8026 5.68114 18.8033 5.68114C18.8041 5.68114 18.8048 5.68114 18.8056 5.68114C18.8063 5.68114 18.807 5.68114 18.8078 5.68114C18.8085 5.68114 18.8093 5.68114 18.81 5.68114C18.8108 5.68114 18.8115 5.68114 18.8123 5.68114C18.813 5.68114 18.8137 5.68114 18.8145 5.68114C18.8152 5.68114 18.816 5.68114 18.8167 5.68114C18.8175 5.68114 18.8182 5.68114 18.8189 5.68114C18.8197 5.68114 18.8204 5.68114 18.8212 5.68114C18.8219 5.68114 18.8227 5.68114 18.8234 5.68114C18.8241 5.68114 18.8249 5.68114 18.8256 5.68114C18.8264 5.68114 18.8271 5.68114 18.8279 5.68114C18.8286 5.68114 18.8294 5.68114 18.8301 5.68114C18.8308 5.68114 18.8316 5.68114 18.8323 5.68114C18.8331 5.68114 18.8338 5.68114 18.8346 5.68114C18.8353 5.68114 18.8361 5.68114 18.8368 5.68114C18.8375 5.68114 18.8383 5.68114 18.839 5.68114C18.8398 5.68114 18.8405 5.68114 18.8413 5.68114C18.842 5.68114 18.8428 5.68114 18.8435 5.68114C18.8443 5.68114 18.845 5.68114 18.8457 5.68114C18.8465 5.68114 18.8472 5.68114 18.848 5.68114C18.8487 5.68114 18.8495 5.68114 18.8502 5.68114C18.851 5.68114 18.8517 5.68114 18.8525 5.68114C18.8532 5.68114 18.854 5.68114 18.8547 5.68114C18.8554 5.68114 18.8562 5.68114 18.8569 5.68114C18.8577 5.68114 18.8584 5.68114 18.8592 5.68114C18.8599 5.68114 18.8607 5.68114 18.8614 5.68114C18.8622 5.68114 18.8629 5.68114 18.8637 5.68114C18.8644 5.68114 18.8652 5.68114 18.8659 5.68114C18.8667 5.68114 18.8674 5.68114 18.8682 5.68114C18.8689 5.68114 18.8697 5.68114 18.8704 5.68114C18.8712 5.68114 18.8719 5.68114 18.8727 5.68114C18.8734 5.68114 18.8742 5.68114 18.8749 5.68114C18.8757 5.68114 18.8764 5.68114 18.8772 5.68114C18.8779 5.68114 18.8787 5.68114 18.8794 5.68114C18.8802 5.68114 18.8809 5.68114 18.8817 5.68114C18.8824 5.68114 18.8832 5.68114 18.8839 5.68114C18.8847 5.68114 18.8854 5.68114 18.8862 5.68114C18.887 5.68114 18.8877 5.68114 18.8885 5.68114C18.8892 5.68114 18.89 5.68114 18.8907 5.68114C18.8915 5.68114 18.8922 5.68114 18.893 5.68114C18.8937 5.68114 18.8945 5.68114 18.8953 5.68114C18.896 5.68114 18.8968 5.68114 18.8975 5.68114C18.8983 5.68114 18.899 5.68114 18.8998 5.68114C18.9005 5.68114 18.9013 5.68114 18.9021 5.68114C18.9028 5.68114 18.9036 5.68114 18.9043 5.68114C18.9051 5.68114 18.9059 5.68114 18.9066 5.68114C18.9074 5.68114 18.9081 5.68114 18.9089 5.68114C18.9097 5.68114 18.9104 5.68114 18.9112 5.68114C18.9119 5.68114 18.9127 5.68114 18.9135 5.68114C18.9142 5.68114 18.915 5.68114 18.9157 5.68114C18.9165 5.68114 18.9173 5.68114 18.918 5.68114C18.9188 5.68114 18.9196 5.68114 18.9203 5.68114C18.9211 5.68114 18.9218 5.68114 18.9226 5.68114C18.9234 5.68114 18.9241 5.68114 18.9249 5.68114C18.9257 5.68114 18.9264 5.68114 18.9272 5.68114C18.928 5.68114 18.9287 5.68114 18.9295 5.68114C18.9303 5.68114 18.931 5.68114 18.9318 5.68114C18.9326 5.68114 18.9333 5.68114 18.9341 5.68114C18.9349 5.68114 18.9356 5.68114 18.9364 5.68114C18.9372 5.68114 18.938 5.68114 18.9387 5.68114C18.9395 5.68114 18.9403 5.68114 18.941 5.68114C18.9418 5.68114 18.9426 5.68114 18.9434 5.68114C18.9441 5.68114 18.9449 5.68114 18.9457 5.68114C18.9464 5.68114 18.9472 5.68114 18.948 5.68114C18.9488 5.68114 18.9495 5.68114 18.9503 5.68114C18.9511 5.68114 18.9519 5.68114 18.9526 5.68114C18.9534 5.68114 18.9542 5.68114 18.955 5.68114C18.9558 5.68114 18.9565 5.68114 18.9573 5.68114C18.9581 5.68114 18.9589 5.68114 18.9596 5.68114C18.9604 5.68114 18.9612 5.68114 18.962 5.68114C18.9628 5.68114 18.9635 5.68114 18.9643 5.68114C18.9651 5.68114 18.9659 5.68114 18.9667 5.68114C18.9675 5.68114 18.9682 5.68114 18.969 5.68114C18.9698 5.68114 18.9706 5.68114 18.9714 5.68114C18.9722 5.68114 18.9729 5.68114 18.9737 5.68114C18.9745 5.68114 18.9753 5.68114 18.9761 5.68114C18.9769 5.68114 18.9777 5.68114 18.9785 5.68114C18.9792 5.68114 18.98 5.68114 18.9808 5.68114C18.9816 5.68114 18.9824 5.68114 18.9832 5.68114C18.984 5.68114 18.9848 5.68114 18.9856 5.68114C18.9864 5.68114 18.9872 5.68114 18.9879 5.68114C18.9887 5.68114 18.9895 5.68114 18.9903 5.68114C18.9911 5.68114 18.9919 5.68114 18.9927 5.68114C18.9935 5.68114 18.9943 5.68114 18.9951 5.68114C18.9959 5.68114 18.9967 5.68114 18.9975 5.68114C18.9983 5.68114 18.9991 5.68114 18.9999 5.68114C19.0007 5.68114 19.0015 5.68114 19.0023 5.68114C19.0031 5.68114 19.0039 5.68114 19.0047 5.68114C19.0055 5.68114 19.0063 5.68114 19.0071 5.68114C19.0079 5.68114 19.0087 5.68114 19.0095 5.68114C19.0103 5.68114 19.0111 5.68114 19.0119 5.68114C19.0127 5.68114 19.0136 5.68114 19.0144 5.68114C19.0152 5.68114 19.016 5.68114 19.0168 5.68114C19.0176 5.68114 19.0184 5.68114 19.0192 5.68114C19.02 5.68114 19.0208 5.68114 19.0217 5.68114C19.0225 5.68114 19.0233 5.68114 19.0241 5.68114C19.0249 5.68114 19.0257 5.68114 19.0265 5.68114C19.0274 5.68114 19.0282 5.68114 19.029 5.68114C19.0298 5.68114 19.0306 5.68114 19.0314 5.68114C19.0323 5.68114 19.0331 5.68114 19.0339 5.68114C19.0347 5.68114 19.0355 5.68114 19.0364 5.68114C19.0372 5.68114 19.038 5.68114 19.0388 5.68114C19.0396 5.68114 19.0405 5.68114 19.0413 5.68114C19.0421 5.68114 19.0429 5.68114 19.0438 5.68114C19.0446 5.68114 19.0454 5.68114 19.0463 5.68114C19.0471 5.68114 19.0479 5.68114 19.0487 5.68114C19.0496 5.68114 19.0504 5.68114 19.0512 5.68114C19.0521 5.68114 19.0529 5.68114 19.0537 5.68114C19.0546 5.68114 19.0554 5.68114 19.0562 5.68114C19.0571 5.68114 19.0579 5.68114 19.0587 5.68114C19.0596 5.68114 19.0604 5.68114 19.0612 5.68114C19.0621 5.68114 19.0629 5.68114 19.0638 5.68114C19.0646 5.68114 19.0654 5.68114 19.0663 5.68114C19.0671 5.68114 19.068 5.68114 19.0688 5.68114C19.0696 5.68114 19.0705 5.68114 19.0713 5.68114C19.0722 5.68114 19.073 5.68114 19.0739 5.68114C19.0747 5.68114 19.0756 5.68114 19.0764 5.68114C19.0773 5.68114 19.0781 5.68114 19.079 5.68114C19.0798 5.68114 19.0807 5.68114 19.0815 5.68114C19.0824 5.68114 19.0832 5.68114 19.0841 5.68114C19.0849 5.68114 19.0858 5.68114 19.0866 5.68114C19.0875 5.68114 19.0884 5.68114 19.0892 5.68114C19.0901 5.68114 19.0909 5.68114 19.0918 5.68114C19.0926 5.68114 19.0935 5.68114 19.0944 5.68114C19.0952 5.68114 19.0961 5.68114 19.097 5.68114C19.0978 5.68114 19.0987 5.68114 19.0996 5.68114C19.1004 5.68114 19.1013 5.68114 19.1022 5.68114C19.103 5.68114 19.1039 5.68114 19.1048 5.68114C19.1056 5.68114 19.1065 5.68114 19.1074 5.68114C19.1082 5.68114 19.1091 5.68114 19.11 5.68114C19.1109 5.68114 19.1117 5.68114 19.1126 5.68114C19.1135 5.68114 19.1144 5.68114 19.1152 5.68114C19.1161 5.68114 19.117 5.68114 19.1179 5.68114C19.1188 5.68114 19.1196 5.68114 19.1205 5.68114C19.1214 5.68114 19.1223 5.68114 19.1232 5.68114C19.124 5.68114 19.1249 5.68114 19.1258 5.68114C19.1267 5.68114 19.1276 5.68114 19.1285 5.68114C19.1294 5.68114 19.1303 5.68114 19.1311 5.68114C19.132 5.68114 19.1329 5.68114 19.1338 5.68114C19.1347 5.68114 19.1356 5.68114 19.1365 5.68114C19.1374 5.68114 19.1383 5.68114 19.1392 5.68114C19.1401 5.68114 19.141 5.68114 19.1419 5.68114C19.1428 5.68114 19.1437 5.68114 19.1446 5.68114C19.1455 5.68114 19.1464 5.68114 19.1473 5.68114C19.1482 5.68114 19.1491 5.68114 19.15 5.68114C19.1509 5.68114 19.1518 5.68114 19.1527 5.68114C19.1536 5.68114 19.1545 5.68114 19.1554 5.68114C19.1564 5.68114 19.1573 5.68114 19.1582 5.68114C19.1591 5.68114 19.16 5.68114 19.1609 5.68114C19.1618 5.68114 19.1627 5.68114 19.1637 5.68114C19.1646 5.68114 19.1655 5.68114 19.1664 5.68114C19.1673 5.68114 19.1683 5.68114 19.1692 5.68114C19.1701 5.68114 19.171 5.68114 19.1719 5.68114C19.1729 5.68114 19.1738 5.68114 19.1747 5.68114C19.1756 5.68114 19.1766 5.68114 19.1775 5.68114C19.1784 5.68114 19.1794 5.68114 19.1803 5.68114C19.1812 5.68114 19.1822 5.68114 19.1831 5.68114C19.184 5.68114 19.185 5.68114 19.1859 5.68114C19.1868 5.68114 19.1878 5.68114 19.1887 5.68114C19.1896 5.68114 19.1906 5.68114 19.1915 5.68114C19.1925 5.68114 19.1934 5.68114 19.1944 5.68114C19.1953 5.68114 19.1962 5.68114 19.1972 5.68114C19.1981 5.68114 19.1991 5.68114 19.2 5.68114C19.201 5.68114 19.2019 5.68114 19.2029 5.68114C19.2038 5.68114 19.2048 5.68114 19.2057 5.68114C19.2067 5.68114 19.2076 5.68114 19.2086 5.68114C19.2096 5.68114 19.2105 5.68114 19.2115 5.68114C19.2124 5.68114 19.2134 5.68114 19.2143 5.68114C19.2153 5.68114 19.2163 5.68114 19.2172 5.68114C19.2182 5.68114 19.2192 5.68114 19.2201 5.68114C19.2211 5.68114 19.2221 5.68114 19.223 5.68114C19.224 5.68114 19.225 5.68114 19.2259 5.68114C19.2269 5.68114 19.2279 5.68114 19.2289 5.68114C19.2298 5.68114 19.2308 5.68114 19.2318 5.68114C19.2328 5.68114 19.2338 5.68114 19.2347 5.68114C19.2357 5.68114 19.2367 5.68114 19.2377 5.68114C19.2387 5.68114 19.2396 5.68114 19.2406 5.68114C19.2416 5.68114 19.2426 5.68114 19.2436 5.68114C19.2446 5.68114 19.2456 5.68114 19.2466 5.68114C19.2475 5.68114 19.2485 5.68114 19.2495 5.68114C19.2505 5.68114 19.2515 5.68114 19.2525 5.68114C19.2535 5.68114 19.2545 5.68114 19.2555 5.68114C19.2565 5.68114 19.2575 5.68114 19.2585 5.68114C19.2595 5.68114 19.2605 5.68114 19.2615 5.68114C19.2625 5.68114 19.2635 5.68114 19.2645 5.68114C19.2656 5.68114 19.2666 5.68114 19.2676 5.68114V7.38114ZM17.8027 7.38114H14.873V5.68114H17.8027V7.38114ZM14.873 7.38114C13.735 7.38114 12.7934 8.31908 12.7934 9.49989H11.0934C11.0934 7.40149 12.775 5.68114 14.873 5.68114V7.38114Z" fill="white"/>
</g>
</svg>
