<svg width="30" height="30" viewBox="0 0 30 30" fill="none" xmlns="http://www.w3.org/2000/svg">
<g filter="url(#filter0_bi_993_7223)">
<rect width="30" height="30" rx="15" fill="url(#paint0_linear_993_7223)" fill-opacity="0.25"/>
<rect x="0.6" y="0.6" width="28.8" height="28.8" rx="14.4" stroke="url(#paint1_linear_993_7223)" stroke-width="1.2"/>
<rect x="0.6" y="0.6" width="28.8" height="28.8" rx="14.4" stroke="url(#paint2_linear_993_7223)" stroke-width="1.2"/>
</g>
<path d="M16.3195 17.3323H13.4028" stroke="white" stroke-miterlimit="10" stroke-linecap="round" stroke-linejoin="round"/>
<path d="M15.3852 9.46899L15.3677 9.50983L13.6761 13.4357H12.0136C11.6169 13.4357 11.2377 13.5173 10.8936 13.6632L11.9144 11.2248L11.9377 11.1665L11.9786 11.0732C11.9902 11.0382 12.0019 11.0032 12.0194 10.974C12.7836 9.20649 13.6469 8.80399 15.3852 9.46899Z" stroke="white" stroke-linecap="round" stroke-linejoin="round"/>
<path d="M18.5291 13.5523C18.2666 13.4707 17.9866 13.4357 17.7066 13.4357H13.6758L15.3674 9.50983L15.3849 9.46899C15.4724 9.49816 15.5541 9.53899 15.6416 9.57399L16.9308 10.1165C17.6483 10.414 18.1499 10.7232 18.4533 11.0965C18.5116 11.1665 18.5583 11.2307 18.5991 11.3065C18.6516 11.3882 18.6924 11.4698 18.7158 11.5573C18.7391 11.6098 18.7566 11.6623 18.7683 11.709C18.9258 12.199 18.8324 12.7998 18.5291 13.5523Z" stroke="white" stroke-linecap="round" stroke-linejoin="round"/>
<path d="M20.5542 16.2825V17.42C20.5542 17.5366 20.5483 17.6533 20.5425 17.77C20.4317 19.8058 19.2942 20.8325 17.1358 20.8325H12.5858C12.4458 20.8325 12.3058 20.8208 12.1717 20.8033C10.3167 20.6808 9.32501 19.6891 9.20251 17.8341C9.18501 17.7 9.17334 17.56 9.17334 17.42V16.2825C9.17334 15.11 9.88501 14.1008 10.9 13.6633C11.25 13.5175 11.6233 13.4358 12.02 13.4358H17.7133C17.9992 13.4358 18.2792 13.4766 18.5358 13.5525C19.6967 13.9083 20.5542 14.9933 20.5542 16.2825Z" stroke="white" stroke-linecap="round" stroke-linejoin="round"/>
<path d="M11.914 11.2249L10.8932 13.6632C9.87817 14.1007 9.1665 15.1099 9.1665 16.2824V14.5732C9.1665 12.9165 10.3448 11.534 11.914 11.2249Z" stroke="white" stroke-linecap="round" stroke-linejoin="round"/>
<path d="M20.5525 14.5727V16.2819C20.5525 14.9986 19.7008 13.9077 18.5342 13.5577C18.8375 12.7994 18.925 12.2044 18.7792 11.7086C18.7675 11.6561 18.75 11.6036 18.7267 11.5569C19.8117 12.1169 20.5525 13.2661 20.5525 14.5727Z" stroke="white" stroke-linecap="round" stroke-linejoin="round"/>
<defs>
<filter id="filter0_bi_993_7223" x="-6.6" y="-6.6" width="43.2" height="43.2" filterUnits="userSpaceOnUse" color-interpolation-filters="sRGB">
<feFlood flood-opacity="0" result="BackgroundImageFix"/>
<feGaussianBlur in="BackgroundImageFix" stdDeviation="3.3"/>
<feComposite in2="SourceAlpha" operator="in" result="effect1_backgroundBlur_993_7223"/>
<feBlend mode="normal" in="SourceGraphic" in2="effect1_backgroundBlur_993_7223" result="shape"/>
<feColorMatrix in="SourceAlpha" type="matrix" values="0 0 0 0 0 0 0 0 0 0 0 0 0 0 0 0 0 0 127 0" result="hardAlpha"/>
<feOffset dy="2.4"/>
<feGaussianBlur stdDeviation="3"/>
<feComposite in2="hardAlpha" operator="arithmetic" k2="-1" k3="1"/>
<feColorMatrix type="matrix" values="0 0 0 0 0 0 0 0 0 0 0 0 0 0 0 0 0 0 0.1 0"/>
<feBlend mode="normal" in2="shape" result="effect2_innerShadow_993_7223"/>
</filter>
<linearGradient id="paint0_linear_993_7223" x1="14.1495" y1="2" x2="14.1495" y2="30" gradientUnits="userSpaceOnUse">
<stop stop-color="white"/>
<stop offset="1" stop-color="white" stop-opacity="0"/>
</linearGradient>
<linearGradient id="paint1_linear_993_7223" x1="15" y1="0" x2="15" y2="30" gradientUnits="userSpaceOnUse">
<stop stop-color="#F5F5F5"/>
<stop offset="1" stop-color="#999999"/>
</linearGradient>
<linearGradient id="paint2_linear_993_7223" x1="15" y1="0" x2="15" y2="30" gradientUnits="userSpaceOnUse">
<stop offset="0.321699" stop-color="white" stop-opacity="0.0666667"/>
</linearGradient>
</defs>
</svg>
