<svg width="32" height="28" viewBox="0 0 32 28" fill="none" xmlns="http://www.w3.org/2000/svg">
<mask id="mask0_191_7220" style="mask-type:luminance" maskUnits="userSpaceOnUse" x="11" y="9" width="22" height="19">
<path d="M11 9H32.25V28H11V9Z" fill="white"/>
</mask>
<g mask="url(#mask0_191_7220)">
<path d="M25.1406 18.5C25.1406 18.0901 25.4685 17.7578 25.873 17.7578C26.2776 17.7578 26.6055 18.0901 26.6055 18.5C26.6055 18.9099 26.2776 19.2422 25.873 19.2422C25.4685 19.2422 25.1406 18.9099 25.1406 18.5Z" fill="white"/>
<path d="M28.4108 24.4375C27.9042 25.3249 26.9574 25.9219 25.873 25.9219H15.9121C14.2941 25.9219 12.9824 24.5927 12.9824 22.9531V14.0469C12.9824 12.4073 14.2941 11.0781 15.9121 11.0781H25.873C26.9574 11.0781 27.9042 11.6751 28.4108 12.5625" stroke="white" stroke-width="1.7" stroke-miterlimit="10" stroke-linejoin="round"/>
<path d="M28.4108 24.4375C27.9042 25.3249 26.9574 25.9219 25.873 25.9219H15.9121C14.2941 25.9219 12.9824 24.5927 12.9824 22.9531V14.0469C12.9824 12.4073 14.2941 11.0781 15.9121 11.0781H25.873C26.9574 11.0781 27.9042 11.6751 28.4108 12.5625" stroke="url(#paint0_linear_191_7220)" stroke-width="1.7" stroke-miterlimit="10" stroke-linejoin="round"/>
<path d="M30.2676 21.4685H31.1176V22.3181L30.2679 22.3185L30.2676 21.4685ZM30.2676 15.5311V14.6811H31.1176V15.5311H30.2676ZM23.7934 18.4999C23.7934 19.6807 24.735 20.6186 25.873 20.6186V22.3186C23.775 22.3186 22.0934 20.5983 22.0934 18.4999H23.7934ZM25.873 20.6186H28.8027V22.3186H25.873V20.6186ZM28.8027 20.6186C29.6122 20.6186 29.28 20.6189 30.2672 20.6185L30.2679 22.3185C29.2803 22.3189 29.6112 22.3186 28.8027 22.3186V20.6186ZM29.4176 21.4685V15.5311H31.1176V21.4685H29.4176ZM30.2676 16.3811C30.2666 16.3811 30.2656 16.3811 30.2645 16.3811C30.2635 16.3811 30.2625 16.3811 30.2615 16.3811C30.2605 16.3811 30.2595 16.3811 30.2585 16.3811C30.2575 16.3811 30.2565 16.3811 30.2555 16.3811C30.2545 16.3811 30.2535 16.3811 30.2525 16.3811C30.2515 16.3811 30.2505 16.3811 30.2495 16.3811C30.2485 16.3811 30.2475 16.3811 30.2466 16.3811C30.2456 16.3811 30.2446 16.3811 30.2436 16.3811C30.2426 16.3811 30.2416 16.3811 30.2406 16.3811C30.2396 16.3811 30.2387 16.3811 30.2377 16.3811C30.2367 16.3811 30.2357 16.3811 30.2347 16.3811C30.2338 16.3811 30.2328 16.3811 30.2318 16.3811C30.2308 16.3811 30.2298 16.3811 30.2289 16.3811C30.2279 16.3811 30.2269 16.3811 30.2259 16.3811C30.225 16.3811 30.224 16.3811 30.223 16.3811C30.2221 16.3811 30.2211 16.3811 30.2201 16.3811C30.2192 16.3811 30.2182 16.3811 30.2172 16.3811C30.2163 16.3811 30.2153 16.3811 30.2144 16.3811C30.2134 16.3811 30.2124 16.3811 30.2115 16.3811C30.2105 16.3811 30.2096 16.3811 30.2086 16.3811C30.2076 16.3811 30.2067 16.3811 30.2057 16.3811C30.2048 16.3811 30.2038 16.3811 30.2029 16.3811C30.2019 16.3811 30.201 16.3811 30.2 16.3811C30.1991 16.3811 30.1981 16.3811 30.1972 16.3811C30.1962 16.3811 30.1953 16.3811 30.1944 16.3811C30.1934 16.3811 30.1925 16.3811 30.1915 16.3811C30.1906 16.3811 30.1896 16.3811 30.1887 16.3811C30.1878 16.3811 30.1868 16.3811 30.1859 16.3811C30.185 16.3811 30.184 16.3811 30.1831 16.3811C30.1822 16.3811 30.1812 16.3811 30.1803 16.3811C30.1794 16.3811 30.1784 16.3811 30.1775 16.3811C30.1766 16.3811 30.1756 16.3811 30.1747 16.3811C30.1738 16.3811 30.1729 16.3811 30.1719 16.3811C30.171 16.3811 30.1701 16.3811 30.1692 16.3811C30.1683 16.3811 30.1673 16.3811 30.1664 16.3811C30.1655 16.3811 30.1646 16.3811 30.1637 16.3811C30.1627 16.3811 30.1618 16.3811 30.1609 16.3811C30.16 16.3811 30.1591 16.3811 30.1582 16.3811C30.1573 16.3811 30.1564 16.3811 30.1554 16.3811C30.1545 16.3811 30.1536 16.3811 30.1527 16.3811C30.1518 16.3811 30.1509 16.3811 30.15 16.3811C30.1491 16.3811 30.1482 16.3811 30.1473 16.3811C30.1464 16.3811 30.1455 16.3811 30.1446 16.3811C30.1437 16.3811 30.1428 16.3811 30.1419 16.3811C30.141 16.3811 30.1401 16.3811 30.1392 16.3811C30.1383 16.3811 30.1374 16.3811 30.1365 16.3811C30.1356 16.3811 30.1347 16.3811 30.1338 16.3811C30.1329 16.3811 30.132 16.3811 30.1311 16.3811C30.1303 16.3811 30.1294 16.3811 30.1285 16.3811C30.1276 16.3811 30.1267 16.3811 30.1258 16.3811C30.1249 16.3811 30.124 16.3811 30.1232 16.3811C30.1223 16.3811 30.1214 16.3811 30.1205 16.3811C30.1196 16.3811 30.1188 16.3811 30.1179 16.3811C30.117 16.3811 30.1161 16.3811 30.1152 16.3811C30.1144 16.3811 30.1135 16.3811 30.1126 16.3811C30.1117 16.3811 30.1109 16.3811 30.11 16.3811C30.1091 16.3811 30.1082 16.3811 30.1074 16.3811C30.1065 16.3811 30.1056 16.3811 30.1048 16.3811C30.1039 16.3811 30.103 16.3811 30.1022 16.3811C30.1013 16.3811 30.1004 16.3811 30.0996 16.3811C30.0987 16.3811 30.0978 16.3811 30.097 16.3811C30.0961 16.3811 30.0952 16.3811 30.0944 16.3811C30.0935 16.3811 30.0927 16.3811 30.0918 16.3811C30.0909 16.3811 30.0901 16.3811 30.0892 16.3811C30.0884 16.3811 30.0875 16.3811 30.0866 16.3811C30.0858 16.3811 30.0849 16.3811 30.0841 16.3811C30.0832 16.3811 30.0824 16.3811 30.0815 16.3811C30.0807 16.3811 30.0798 16.3811 30.079 16.3811C30.0781 16.3811 30.0773 16.3811 30.0764 16.3811C30.0756 16.3811 30.0747 16.3811 30.0739 16.3811C30.073 16.3811 30.0722 16.3811 30.0713 16.3811C30.0705 16.3811 30.0697 16.3811 30.0688 16.3811C30.068 16.3811 30.0671 16.3811 30.0663 16.3811C30.0654 16.3811 30.0646 16.3811 30.0638 16.3811C30.0629 16.3811 30.0621 16.3811 30.0612 16.3811C30.0604 16.3811 30.0596 16.3811 30.0587 16.3811C30.0579 16.3811 30.0571 16.3811 30.0562 16.3811C30.0554 16.3811 30.0546 16.3811 30.0537 16.3811C30.0529 16.3811 30.0521 16.3811 30.0512 16.3811C30.0504 16.3811 30.0496 16.3811 30.0487 16.3811C30.0479 16.3811 30.0471 16.3811 30.0463 16.3811C30.0454 16.3811 30.0446 16.3811 30.0438 16.3811C30.0429 16.3811 30.0421 16.3811 30.0413 16.3811C30.0405 16.3811 30.0396 16.3811 30.0388 16.3811C30.038 16.3811 30.0372 16.3811 30.0364 16.3811C30.0355 16.3811 30.0347 16.3811 30.0339 16.3811C30.0331 16.3811 30.0323 16.3811 30.0314 16.3811C30.0306 16.3811 30.0298 16.3811 30.029 16.3811C30.0282 16.3811 30.0274 16.3811 30.0265 16.3811C30.0257 16.3811 30.0249 16.3811 30.0241 16.3811C30.0233 16.3811 30.0225 16.3811 30.0217 16.3811C30.0208 16.3811 30.02 16.3811 30.0192 16.3811C30.0184 16.3811 30.0176 16.3811 30.0168 16.3811C30.016 16.3811 30.0152 16.3811 30.0144 16.3811C30.0136 16.3811 30.0127 16.3811 30.0119 16.3811C30.0111 16.3811 30.0103 16.3811 30.0095 16.3811C30.0087 16.3811 30.0079 16.3811 30.0071 16.3811C30.0063 16.3811 30.0055 16.3811 30.0047 16.3811C30.0039 16.3811 30.0031 16.3811 30.0023 16.3811C30.0015 16.3811 30.0007 16.3811 29.9999 16.3811C29.9991 16.3811 29.9983 16.3811 29.9975 16.3811C29.9967 16.3811 29.9959 16.3811 29.9951 16.3811C29.9943 16.3811 29.9935 16.3811 29.9927 16.3811C29.9919 16.3811 29.9911 16.3811 29.9903 16.3811C29.9895 16.3811 29.9887 16.3811 29.9879 16.3811C29.9872 16.3811 29.9864 16.3811 29.9856 16.3811C29.9848 16.3811 29.984 16.3811 29.9832 16.3811C29.9824 16.3811 29.9816 16.3811 29.9808 16.3811C29.98 16.3811 29.9792 16.3811 29.9785 16.3811C29.9777 16.3811 29.9769 16.3811 29.9761 16.3811C29.9753 16.3811 29.9745 16.3811 29.9737 16.3811C29.9729 16.3811 29.9722 16.3811 29.9714 16.3811C29.9706 16.3811 29.9698 16.3811 29.969 16.3811C29.9682 16.3811 29.9675 16.3811 29.9667 16.3811C29.9659 16.3811 29.9651 16.3811 29.9643 16.3811C29.9635 16.3811 29.9628 16.3811 29.962 16.3811C29.9612 16.3811 29.9604 16.3811 29.9596 16.3811C29.9589 16.3811 29.9581 16.3811 29.9573 16.3811C29.9565 16.3811 29.9558 16.3811 29.955 16.3811C29.9542 16.3811 29.9534 16.3811 29.9526 16.3811C29.9519 16.3811 29.9511 16.3811 29.9503 16.3811C29.9495 16.3811 29.9488 16.3811 29.948 16.3811C29.9472 16.3811 29.9464 16.3811 29.9457 16.3811C29.9449 16.3811 29.9441 16.3811 29.9434 16.3811C29.9426 16.3811 29.9418 16.3811 29.941 16.3811C29.9403 16.3811 29.9395 16.3811 29.9387 16.3811C29.938 16.3811 29.9372 16.3811 29.9364 16.3811C29.9356 16.3811 29.9349 16.3811 29.9341 16.3811C29.9333 16.3811 29.9326 16.3811 29.9318 16.3811C29.931 16.3811 29.9303 16.3811 29.9295 16.3811C29.9287 16.3811 29.928 16.3811 29.9272 16.3811C29.9264 16.3811 29.9257 16.3811 29.9249 16.3811C29.9241 16.3811 29.9234 16.3811 29.9226 16.3811C29.9218 16.3811 29.9211 16.3811 29.9203 16.3811C29.9196 16.3811 29.9188 16.3811 29.918 16.3811C29.9173 16.3811 29.9165 16.3811 29.9157 16.3811C29.915 16.3811 29.9142 16.3811 29.9135 16.3811C29.9127 16.3811 29.9119 16.3811 29.9112 16.3811C29.9104 16.3811 29.9097 16.3811 29.9089 16.3811C29.9081 16.3811 29.9074 16.3811 29.9066 16.3811C29.9059 16.3811 29.9051 16.3811 29.9043 16.3811C29.9036 16.3811 29.9028 16.3811 29.9021 16.3811C29.9013 16.3811 29.9005 16.3811 29.8998 16.3811C29.899 16.3811 29.8983 16.3811 29.8975 16.3811C29.8968 16.3811 29.896 16.3811 29.8953 16.3811C29.8945 16.3811 29.8937 16.3811 29.893 16.3811C29.8922 16.3811 29.8915 16.3811 29.8907 16.3811C29.89 16.3811 29.8892 16.3811 29.8885 16.3811C29.8877 16.3811 29.887 16.3811 29.8862 16.3811C29.8854 16.3811 29.8847 16.3811 29.8839 16.3811C29.8832 16.3811 29.8824 16.3811 29.8817 16.3811C29.8809 16.3811 29.8802 16.3811 29.8794 16.3811C29.8787 16.3811 29.8779 16.3811 29.8772 16.3811C29.8764 16.3811 29.8757 16.3811 29.8749 16.3811C29.8742 16.3811 29.8734 16.3811 29.8727 16.3811C29.8719 16.3811 29.8712 16.3811 29.8704 16.3811C29.8697 16.3811 29.8689 16.3811 29.8682 16.3811C29.8674 16.3811 29.8667 16.3811 29.8659 16.3811C29.8652 16.3811 29.8644 16.3811 29.8637 16.3811C29.8629 16.3811 29.8622 16.3811 29.8614 16.3811C29.8607 16.3811 29.8599 16.3811 29.8592 16.3811C29.8584 16.3811 29.8577 16.3811 29.8569 16.3811C29.8562 16.3811 29.8554 16.3811 29.8547 16.3811C29.854 16.3811 29.8532 16.3811 29.8525 16.3811C29.8517 16.3811 29.851 16.3811 29.8502 16.3811C29.8495 16.3811 29.8487 16.3811 29.848 16.3811C29.8472 16.3811 29.8465 16.3811 29.8457 16.3811C29.845 16.3811 29.8443 16.3811 29.8435 16.3811C29.8428 16.3811 29.842 16.3811 29.8413 16.3811C29.8405 16.3811 29.8398 16.3811 29.839 16.3811C29.8383 16.3811 29.8375 16.3811 29.8368 16.3811C29.8361 16.3811 29.8353 16.3811 29.8346 16.3811C29.8338 16.3811 29.8331 16.3811 29.8323 16.3811C29.8316 16.3811 29.8308 16.3811 29.8301 16.3811C29.8294 16.3811 29.8286 16.3811 29.8279 16.3811C29.8271 16.3811 29.8264 16.3811 29.8256 16.3811C29.8249 16.3811 29.8241 16.3811 29.8234 16.3811C29.8227 16.3811 29.8219 16.3811 29.8212 16.3811C29.8204 16.3811 29.8197 16.3811 29.8189 16.3811C29.8182 16.3811 29.8175 16.3811 29.8167 16.3811C29.816 16.3811 29.8152 16.3811 29.8145 16.3811C29.8137 16.3811 29.813 16.3811 29.8123 16.3811C29.8115 16.3811 29.8108 16.3811 29.81 16.3811C29.8093 16.3811 29.8085 16.3811 29.8078 16.3811C29.807 16.3811 29.8063 16.3811 29.8056 16.3811C29.8048 16.3811 29.8041 16.3811 29.8033 16.3811C29.8026 16.3811 29.8018 16.3811 29.8011 16.3811C29.8004 16.3811 29.7996 16.3811 29.7989 16.3811C29.7981 16.3811 29.7974 16.3811 29.7966 16.3811C29.7959 16.3811 29.7952 16.3811 29.7944 16.3811C29.7937 16.3811 29.7929 16.3811 29.7922 16.3811C29.7914 16.3811 29.7907 16.3811 29.79 16.3811C29.7892 16.3811 29.7885 16.3811 29.7877 16.3811C29.787 16.3811 29.7862 16.3811 29.7855 16.3811C29.7847 16.3811 29.784 16.3811 29.7833 16.3811C29.7825 16.3811 29.7818 16.3811 29.781 16.3811C29.7803 16.3811 29.7795 16.3811 29.7788 16.3811C29.778 16.3811 29.7773 16.3811 29.7766 16.3811C29.7758 16.3811 29.7751 16.3811 29.7743 16.3811C29.7736 16.3811 29.7728 16.3811 29.7721 16.3811C29.7713 16.3811 29.7706 16.3811 29.7699 16.3811C29.7691 16.3811 29.7684 16.3811 29.7676 16.3811C29.7669 16.3811 29.7661 16.3811 29.7654 16.3811C29.7646 16.3811 29.7639 16.3811 29.7631 16.3811C29.7624 16.3811 29.7616 16.3811 29.7609 16.3811C29.7602 16.3811 29.7594 16.3811 29.7587 16.3811C29.7579 16.3811 29.7572 16.3811 29.7564 16.3811C29.7557 16.3811 29.7549 16.3811 29.7542 16.3811C29.7534 16.3811 29.7527 16.3811 29.7519 16.3811C29.7512 16.3811 29.7504 16.3811 29.7497 16.3811C29.7489 16.3811 29.7482 16.3811 29.7474 16.3811C29.7467 16.3811 29.746 16.3811 29.7452 16.3811C29.7445 16.3811 29.7437 16.3811 29.743 16.3811C29.7422 16.3811 29.7415 16.3811 29.7407 16.3811C29.74 16.3811 29.7392 16.3811 29.7385 16.3811C29.7377 16.3811 29.737 16.3811 29.7362 16.3811C29.7355 16.3811 29.7347 16.3811 29.7339 16.3811C29.7332 16.3811 29.7324 16.3811 29.7317 16.3811C29.7309 16.3811 29.7302 16.3811 29.7294 16.3811C29.7287 16.3811 29.7279 16.3811 29.7272 16.3811C29.7264 16.3811 29.7257 16.3811 29.7249 16.3811C29.7242 16.3811 29.7234 16.3811 29.7227 16.3811C29.7219 16.3811 29.7212 16.3811 29.7204 16.3811C29.7196 16.3811 29.7189 16.3811 29.7181 16.3811C29.7174 16.3811 29.7166 16.3811 29.7159 16.3811C29.7151 16.3811 29.7144 16.3811 29.7136 16.3811C29.7128 16.3811 29.7121 16.3811 29.7113 16.3811C29.7106 16.3811 29.7098 16.3811 29.7091 16.3811C29.7083 16.3811 29.7075 16.3811 29.7068 16.3811C29.706 16.3811 29.7053 16.3811 29.7045 16.3811C29.7037 16.3811 29.703 16.3811 29.7022 16.3811C29.7015 16.3811 29.7007 16.3811 29.6999 16.3811C29.6992 16.3811 29.6984 16.3811 29.6977 16.3811C29.6969 16.3811 29.6961 16.3811 29.6954 16.3811C29.6946 16.3811 29.6939 16.3811 29.6931 16.3811C29.6923 16.3811 29.6916 16.3811 29.6908 16.3811C29.69 16.3811 29.6893 16.3811 29.6885 16.3811C29.6877 16.3811 29.687 16.3811 29.6862 16.3811C29.6854 16.3811 29.6847 16.3811 29.6839 16.3811C29.6831 16.3811 29.6824 16.3811 29.6816 16.3811C29.6808 16.3811 29.6801 16.3811 29.6793 16.3811C29.6785 16.3811 29.6778 16.3811 29.677 16.3811C29.6762 16.3811 29.6755 16.3811 29.6747 16.3811C29.6739 16.3811 29.6732 16.3811 29.6724 16.3811C29.6716 16.3811 29.6708 16.3811 29.6701 16.3811C29.6693 16.3811 29.6685 16.3811 29.6678 16.3811C29.667 16.3811 29.6662 16.3811 29.6654 16.3811C29.6647 16.3811 29.6639 16.3811 29.6631 16.3811C29.6623 16.3811 29.6616 16.3811 29.6608 16.3811C29.66 16.3811 29.6592 16.3811 29.6585 16.3811C29.6577 16.3811 29.6569 16.3811 29.6561 16.3811C29.6554 16.3811 29.6546 16.3811 29.6538 16.3811C29.653 16.3811 29.6522 16.3811 29.6515 16.3811C29.6507 16.3811 29.6499 16.3811 29.6491 16.3811C29.6483 16.3811 29.6476 16.3811 29.6468 16.3811C29.646 16.3811 29.6452 16.3811 29.6444 16.3811C29.6437 16.3811 29.6429 16.3811 29.6421 16.3811C29.6413 16.3811 29.6405 16.3811 29.6397 16.3811C29.6389 16.3811 29.6382 16.3811 29.6374 16.3811C29.6366 16.3811 29.6358 16.3811 29.635 16.3811C29.6342 16.3811 29.6334 16.3811 29.6327 16.3811C29.6319 16.3811 29.6311 16.3811 29.6303 16.3811C29.6295 16.3811 29.6287 16.3811 29.6279 16.3811C29.6271 16.3811 29.6263 16.3811 29.6255 16.3811C29.6247 16.3811 29.624 16.3811 29.6232 16.3811C29.6224 16.3811 29.6216 16.3811 29.6208 16.3811C29.62 16.3811 29.6192 16.3811 29.6184 16.3811C29.6176 16.3811 29.6168 16.3811 29.616 16.3811C29.6152 16.3811 29.6144 16.3811 29.6136 16.3811C29.6128 16.3811 29.612 16.3811 29.6112 16.3811C29.6104 16.3811 29.6096 16.3811 29.6088 16.3811C29.608 16.3811 29.6072 16.3811 29.6064 16.3811C29.6056 16.3811 29.6048 16.3811 29.604 16.3811C29.6032 16.3811 29.6024 16.3811 29.6016 16.3811C29.6008 16.3811 29.6 16.3811 29.5992 16.3811C29.5984 16.3811 29.5976 16.3811 29.5967 16.3811C29.5959 16.3811 29.5951 16.3811 29.5943 16.3811C29.5935 16.3811 29.5927 16.3811 29.5919 16.3811C29.5911 16.3811 29.5903 16.3811 29.5894 16.3811C29.5886 16.3811 29.5878 16.3811 29.587 16.3811C29.5862 16.3811 29.5854 16.3811 29.5846 16.3811C29.5838 16.3811 29.5829 16.3811 29.5821 16.3811C29.5813 16.3811 29.5805 16.3811 29.5797 16.3811C29.5788 16.3811 29.578 16.3811 29.5772 16.3811C29.5764 16.3811 29.5756 16.3811 29.5747 16.3811C29.5739 16.3811 29.5731 16.3811 29.5723 16.3811C29.5715 16.3811 29.5706 16.3811 29.5698 16.3811C29.569 16.3811 29.5682 16.3811 29.5673 16.3811C29.5665 16.3811 29.5657 16.3811 29.5648 16.3811C29.564 16.3811 29.5632 16.3811 29.5624 16.3811C29.5615 16.3811 29.5607 16.3811 29.5599 16.3811C29.559 16.3811 29.5582 16.3811 29.5574 16.3811C29.5565 16.3811 29.5557 16.3811 29.5549 16.3811C29.554 16.3811 29.5532 16.3811 29.5524 16.3811C29.5515 16.3811 29.5507 16.3811 29.5499 16.3811C29.549 16.3811 29.5482 16.3811 29.5473 16.3811C29.5465 16.3811 29.5457 16.3811 29.5448 16.3811C29.544 16.3811 29.5431 16.3811 29.5423 16.3811C29.5414 16.3811 29.5406 16.3811 29.5398 16.3811C29.5389 16.3811 29.5381 16.3811 29.5372 16.3811C29.5364 16.3811 29.5355 16.3811 29.5347 16.3811C29.5338 16.3811 29.533 16.3811 29.5321 16.3811C29.5313 16.3811 29.5304 16.3811 29.5296 16.3811C29.5287 16.3811 29.5279 16.3811 29.527 16.3811C29.5262 16.3811 29.5253 16.3811 29.5244 16.3811C29.5236 16.3811 29.5227 16.3811 29.5219 16.3811C29.521 16.3811 29.5202 16.3811 29.5193 16.3811C29.5184 16.3811 29.5176 16.3811 29.5167 16.3811C29.5159 16.3811 29.515 16.3811 29.5141 16.3811C29.5133 16.3811 29.5124 16.3811 29.5115 16.3811C29.5107 16.3811 29.5098 16.3811 29.5089 16.3811C29.5081 16.3811 29.5072 16.3811 29.5063 16.3811C29.5055 16.3811 29.5046 16.3811 29.5037 16.3811C29.5028 16.3811 29.502 16.3811 29.5011 16.3811C29.5002 16.3811 29.4994 16.3811 29.4985 16.3811C29.4976 16.3811 29.4967 16.3811 29.4958 16.3811C29.495 16.3811 29.4941 16.3811 29.4932 16.3811C29.4923 16.3811 29.4914 16.3811 29.4906 16.3811C29.4897 16.3811 29.4888 16.3811 29.4879 16.3811C29.487 16.3811 29.4862 16.3811 29.4853 16.3811C29.4844 16.3811 29.4835 16.3811 29.4826 16.3811C29.4817 16.3811 29.4808 16.3811 29.4799 16.3811C29.479 16.3811 29.4782 16.3811 29.4773 16.3811C29.4764 16.3811 29.4755 16.3811 29.4746 16.3811C29.4737 16.3811 29.4728 16.3811 29.4719 16.3811C29.471 16.3811 29.4701 16.3811 29.4692 16.3811C29.4683 16.3811 29.4674 16.3811 29.4665 16.3811C29.4656 16.3811 29.4647 16.3811 29.4638 16.3811C29.4629 16.3811 29.462 16.3811 29.4611 16.3811C29.4602 16.3811 29.4593 16.3811 29.4584 16.3811C29.4575 16.3811 29.4565 16.3811 29.4556 16.3811C29.4547 16.3811 29.4538 16.3811 29.4529 16.3811C29.452 16.3811 29.4511 16.3811 29.4502 16.3811C29.4492 16.3811 29.4483 16.3811 29.4474 16.3811C29.4465 16.3811 29.4456 16.3811 29.4447 16.3811C29.4437 16.3811 29.4428 16.3811 29.4419 16.3811C29.441 16.3811 29.4401 16.3811 29.4391 16.3811C29.4382 16.3811 29.4373 16.3811 29.4364 16.3811C29.4354 16.3811 29.4345 16.3811 29.4336 16.3811C29.4326 16.3811 29.4317 16.3811 29.4308 16.3811C29.4298 16.3811 29.4289 16.3811 29.428 16.3811C29.427 16.3811 29.4261 16.3811 29.4252 16.3811C29.4242 16.3811 29.4233 16.3811 29.4224 16.3811C29.4214 16.3811 29.4205 16.3811 29.4195 16.3811C29.4186 16.3811 29.4177 16.3811 29.4167 16.3811C29.4158 16.3811 29.4148 16.3811 29.4139 16.3811C29.4129 16.3811 29.412 16.3811 29.411 16.3811C29.4101 16.3811 29.4091 16.3811 29.4082 16.3811C29.4072 16.3811 29.4063 16.3811 29.4053 16.3811C29.4044 16.3811 29.4034 16.3811 29.4025 16.3811C29.4015 16.3811 29.4006 16.3811 29.3996 16.3811C29.3986 16.3811 29.3977 16.3811 29.3967 16.3811C29.3957 16.3811 29.3948 16.3811 29.3938 16.3811C29.3929 16.3811 29.3919 16.3811 29.3909 16.3811C29.39 16.3811 29.389 16.3811 29.388 16.3811C29.3871 16.3811 29.3861 16.3811 29.3851 16.3811C29.3841 16.3811 29.3832 16.3811 29.3822 16.3811C29.3812 16.3811 29.3802 16.3811 29.3793 16.3811C29.3783 16.3811 29.3773 16.3811 29.3763 16.3811C29.3753 16.3811 29.3744 16.3811 29.3734 16.3811C29.3724 16.3811 29.3714 16.3811 29.3704 16.3811C29.3694 16.3811 29.3685 16.3811 29.3675 16.3811C29.3665 16.3811 29.3655 16.3811 29.3645 16.3811C29.3635 16.3811 29.3625 16.3811 29.3615 16.3811C29.3605 16.3811 29.3595 16.3811 29.3585 16.3811C29.3575 16.3811 29.3565 16.3811 29.3555 16.3811C29.3545 16.3811 29.3535 16.3811 29.3525 16.3811C29.3515 16.3811 29.3505 16.3811 29.3495 16.3811C29.3485 16.3811 29.3475 16.3811 29.3465 16.3811C29.3455 16.3811 29.3445 16.3811 29.3435 16.3811C29.3425 16.3811 29.3414 16.3811 29.3404 16.3811C29.3394 16.3811 29.3384 16.3811 29.3374 16.3811C29.3364 16.3811 29.3353 16.3811 29.3343 16.3811C29.3333 16.3811 29.3323 16.3811 29.3313 16.3811C29.3302 16.3811 29.3292 16.3811 29.3282 16.3811C29.3272 16.3811 29.3261 16.3811 29.3251 16.3811C29.3241 16.3811 29.3231 16.3811 29.322 16.3811C29.321 16.3811 29.32 16.3811 29.3189 16.3811C29.3179 16.3811 29.3168 16.3811 29.3158 16.3811C29.3148 16.3811 29.3137 16.3811 29.3127 16.3811C29.3117 16.3811 29.3106 16.3811 29.3096 16.3811C29.3085 16.3811 29.3075 16.3811 29.3064 16.3811C29.3054 16.3811 29.3043 16.3811 29.3033 16.3811C29.3022 16.3811 29.3012 16.3811 29.3001 16.3811C29.2991 16.3811 29.298 16.3811 29.297 16.3811C29.2959 16.3811 29.2948 16.3811 29.2938 16.3811C29.2927 16.3811 29.2917 16.3811 29.2906 16.3811C29.2895 16.3811 29.2885 16.3811 29.2874 16.3811C29.2863 16.3811 29.2853 16.3811 29.2842 16.3811C29.2831 16.3811 29.2821 16.3811 29.281 16.3811C29.2799 16.3811 29.2789 16.3811 29.2778 16.3811C29.2767 16.3811 29.2756 16.3811 29.2745 16.3811C29.2735 16.3811 29.2724 16.3811 29.2713 16.3811C29.2702 16.3811 29.2691 16.3811 29.2681 16.3811C29.267 16.3811 29.2659 16.3811 29.2648 16.3811C29.2637 16.3811 29.2626 16.3811 29.2615 16.3811C29.2604 16.3811 29.2593 16.3811 29.2582 16.3811C29.2571 16.3811 29.2561 16.3811 29.255 16.3811C29.2539 16.3811 29.2528 16.3811 29.2517 16.3811C29.2506 16.3811 29.2494 16.3811 29.2483 16.3811C29.2472 16.3811 29.2461 16.3811 29.245 16.3811C29.2439 16.3811 29.2428 16.3811 29.2417 16.3811C29.2406 16.3811 29.2395 16.3811 29.2384 16.3811C29.2372 16.3811 29.2361 16.3811 29.235 16.3811C29.2339 16.3811 29.2328 16.3811 29.2316 16.3811C29.2305 16.3811 29.2294 16.3811 29.2283 16.3811C29.2271 16.3811 29.226 16.3811 29.2249 16.3811C29.2238 16.3811 29.2226 16.3811 29.2215 16.3811C29.2204 16.3811 29.2192 16.3811 29.2181 16.3811C29.217 16.3811 29.2158 16.3811 29.2147 16.3811C29.2135 16.3811 29.2124 16.3811 29.2113 16.3811C29.2101 16.3811 29.209 16.3811 29.2078 16.3811C29.2067 16.3811 29.2055 16.3811 29.2044 16.3811C29.2032 16.3811 29.2021 16.3811 29.2009 16.3811C29.1998 16.3811 29.1986 16.3811 29.1975 16.3811C29.1963 16.3811 29.1951 16.3811 29.194 16.3811C29.1928 16.3811 29.1917 16.3811 29.1905 16.3811C29.1893 16.3811 29.1882 16.3811 29.187 16.3811C29.1858 16.3811 29.1846 16.3811 29.1835 16.3811C29.1823 16.3811 29.1811 16.3811 29.18 16.3811C29.1788 16.3811 29.1776 16.3811 29.1764 16.3811C29.1752 16.3811 29.1741 16.3811 29.1729 16.3811C29.1717 16.3811 29.1705 16.3811 29.1693 16.3811C29.1681 16.3811 29.167 16.3811 29.1658 16.3811C29.1646 16.3811 29.1634 16.3811 29.1622 16.3811C29.161 16.3811 29.1598 16.3811 29.1586 16.3811C29.1574 16.3811 29.1562 16.3811 29.155 16.3811C29.1538 16.3811 29.1526 16.3811 29.1514 16.3811C29.1502 16.3811 29.149 16.3811 29.1478 16.3811C29.1466 16.3811 29.1453 16.3811 29.1441 16.3811C29.1429 16.3811 29.1417 16.3811 29.1405 16.3811C29.1393 16.3811 29.1381 16.3811 29.1368 16.3811C29.1356 16.3811 29.1344 16.3811 29.1332 16.3811C29.1319 16.3811 29.1307 16.3811 29.1295 16.3811C29.1283 16.3811 29.127 16.3811 29.1258 16.3811C29.1246 16.3811 29.1233 16.3811 29.1221 16.3811C29.1209 16.3811 29.1196 16.3811 29.1184 16.3811C29.1171 16.3811 29.1159 16.3811 29.1146 16.3811C29.1134 16.3811 29.1122 16.3811 29.1109 16.3811C29.1097 16.3811 29.1084 16.3811 29.1072 16.3811C29.1059 16.3811 29.1047 16.3811 29.1034 16.3811C29.1021 16.3811 29.1009 16.3811 29.0996 16.3811C29.0984 16.3811 29.0971 16.3811 29.0958 16.3811C29.0946 16.3811 29.0933 16.3811 29.092 16.3811C29.0908 16.3811 29.0895 16.3811 29.0882 16.3811C29.087 16.3811 29.0857 16.3811 29.0844 16.3811C29.0831 16.3811 29.0818 16.3811 29.0806 16.3811C29.0793 16.3811 29.078 16.3811 29.0767 16.3811C29.0754 16.3811 29.0741 16.3811 29.0729 16.3811C29.0716 16.3811 29.0703 16.3811 29.069 16.3811C29.0677 16.3811 29.0664 16.3811 29.0651 16.3811C29.0638 16.3811 29.0625 16.3811 29.0612 16.3811C29.0599 16.3811 29.0586 16.3811 29.0573 16.3811C29.056 16.3811 29.0547 16.3811 29.0534 16.3811C29.0521 16.3811 29.0507 16.3811 29.0494 16.3811C29.0481 16.3811 29.0468 16.3811 29.0455 16.3811C29.0442 16.3811 29.0428 16.3811 29.0415 16.3811C29.0402 16.3811 29.0389 16.3811 29.0376 16.3811C29.0362 16.3811 29.0349 16.3811 29.0336 16.3811C29.0322 16.3811 29.0309 16.3811 29.0296 16.3811C29.0282 16.3811 29.0269 16.3811 29.0256 16.3811C29.0242 16.3811 29.0229 16.3811 29.0215 16.3811C29.0202 16.3811 29.0188 16.3811 29.0175 16.3811C29.0161 16.3811 29.0148 16.3811 29.0134 16.3811C29.0121 16.3811 29.0107 16.3811 29.0094 16.3811C29.008 16.3811 29.0067 16.3811 29.0053 16.3811C29.0039 16.3811 29.0026 16.3811 29.0012 16.3811C28.9998 16.3811 28.9985 16.3811 28.9971 16.3811C28.9957 16.3811 28.9944 16.3811 28.993 16.3811C28.9916 16.3811 28.9902 16.3811 28.9889 16.3811C28.9875 16.3811 28.9861 16.3811 28.9847 16.3811C28.9833 16.3811 28.9819 16.3811 28.9806 16.3811C28.9792 16.3811 28.9778 16.3811 28.9764 16.3811C28.975 16.3811 28.9736 16.3811 28.9722 16.3811C28.9708 16.3811 28.9694 16.3811 28.968 16.3811C28.9666 16.3811 28.9652 16.3811 28.9638 16.3811C28.9624 16.3811 28.961 16.3811 28.9596 16.3811C28.9582 16.3811 28.9568 16.3811 28.9553 16.3811C28.9539 16.3811 28.9525 16.3811 28.9511 16.3811C28.9497 16.3811 28.9482 16.3811 28.9468 16.3811C28.9454 16.3811 28.944 16.3811 28.9425 16.3811C28.9411 16.3811 28.9397 16.3811 28.9382 16.3811C28.9368 16.3811 28.9354 16.3811 28.9339 16.3811C28.9325 16.3811 28.9311 16.3811 28.9296 16.3811C28.9282 16.3811 28.9267 16.3811 28.9253 16.3811C28.9238 16.3811 28.9224 16.3811 28.9209 16.3811C28.9195 16.3811 28.918 16.3811 28.9166 16.3811C28.9151 16.3811 28.9136 16.3811 28.9122 16.3811C28.9107 16.3811 28.9093 16.3811 28.9078 16.3811C28.9063 16.3811 28.9049 16.3811 28.9034 16.3811C28.9019 16.3811 28.9004 16.3811 28.899 16.3811C28.8975 16.3811 28.896 16.3811 28.8945 16.3811C28.893 16.3811 28.8916 16.3811 28.8901 16.3811C28.8886 16.3811 28.8871 16.3811 28.8856 16.3811C28.8841 16.3811 28.8826 16.3811 28.8811 16.3811C28.8796 16.3811 28.8781 16.3811 28.8766 16.3811C28.8751 16.3811 28.8736 16.3811 28.8721 16.3811C28.8706 16.3811 28.8691 16.3811 28.8676 16.3811C28.8661 16.3811 28.8646 16.3811 28.8631 16.3811C28.8616 16.3811 28.86 16.3811 28.8585 16.3811C28.857 16.3811 28.8555 16.3811 28.854 16.3811C28.8524 16.3811 28.8509 16.3811 28.8494 16.3811C28.8478 16.3811 28.8463 16.3811 28.8448 16.3811C28.8432 16.3811 28.8417 16.3811 28.8402 16.3811C28.8386 16.3811 28.8371 16.3811 28.8355 16.3811C28.834 16.3811 28.8325 16.3811 28.8309 16.3811C28.8294 16.3811 28.8278 16.3811 28.8262 16.3811C28.8247 16.3811 28.8231 16.3811 28.8216 16.3811C28.82 16.3811 28.8185 16.3811 28.8169 16.3811C28.8153 16.3811 28.8138 16.3811 28.8122 16.3811C28.8106 16.3811 28.809 16.3811 28.8075 16.3811C28.8059 16.3811 28.8043 16.3811 28.8027 16.3811V14.6811C28.8043 14.6811 28.8059 14.6811 28.8075 14.6811C28.809 14.6811 28.8106 14.6811 28.8122 14.6811C28.8138 14.6811 28.8153 14.6811 28.8169 14.6811C28.8185 14.6811 28.82 14.6811 28.8216 14.6811C28.8231 14.6811 28.8247 14.6811 28.8262 14.6811C28.8278 14.6811 28.8294 14.6811 28.8309 14.6811C28.8325 14.6811 28.834 14.6811 28.8355 14.6811C28.8371 14.6811 28.8386 14.6811 28.8402 14.6811C28.8417 14.6811 28.8432 14.6811 28.8448 14.6811C28.8463 14.6811 28.8478 14.6811 28.8494 14.6811C28.8509 14.6811 28.8524 14.6811 28.854 14.6811C28.8555 14.6811 28.857 14.6811 28.8585 14.6811C28.86 14.6811 28.8616 14.6811 28.8631 14.6811C28.8646 14.6811 28.8661 14.6811 28.8676 14.6811C28.8691 14.6811 28.8706 14.6811 28.8721 14.6811C28.8736 14.6811 28.8751 14.6811 28.8766 14.6811C28.8781 14.6811 28.8796 14.6811 28.8811 14.6811C28.8826 14.6811 28.8841 14.6811 28.8856 14.6811C28.8871 14.6811 28.8886 14.6811 28.8901 14.6811C28.8916 14.6811 28.893 14.6811 28.8945 14.6811C28.896 14.6811 28.8975 14.6811 28.899 14.6811C28.9004 14.6811 28.9019 14.6811 28.9034 14.6811C28.9049 14.6811 28.9063 14.6811 28.9078 14.6811C28.9093 14.6811 28.9107 14.6811 28.9122 14.6811C28.9136 14.6811 28.9151 14.6811 28.9166 14.6811C28.918 14.6811 28.9195 14.6811 28.9209 14.6811C28.9224 14.6811 28.9238 14.6811 28.9253 14.6811C28.9267 14.6811 28.9282 14.6811 28.9296 14.6811C28.9311 14.6811 28.9325 14.6811 28.9339 14.6811C28.9354 14.6811 28.9368 14.6811 28.9382 14.6811C28.9397 14.6811 28.9411 14.6811 28.9425 14.6811C28.944 14.6811 28.9454 14.6811 28.9468 14.6811C28.9482 14.6811 28.9497 14.6811 28.9511 14.6811C28.9525 14.6811 28.9539 14.6811 28.9553 14.6811C28.9568 14.6811 28.9582 14.6811 28.9596 14.6811C28.961 14.6811 28.9624 14.6811 28.9638 14.6811C28.9652 14.6811 28.9666 14.6811 28.968 14.6811C28.9694 14.6811 28.9708 14.6811 28.9722 14.6811C28.9736 14.6811 28.975 14.6811 28.9764 14.6811C28.9778 14.6811 28.9792 14.6811 28.9806 14.6811C28.9819 14.6811 28.9833 14.6811 28.9847 14.6811C28.9861 14.6811 28.9875 14.6811 28.9889 14.6811C28.9902 14.6811 28.9916 14.6811 28.993 14.6811C28.9944 14.6811 28.9957 14.6811 28.9971 14.6811C28.9985 14.6811 28.9998 14.6811 29.0012 14.6811C29.0026 14.6811 29.0039 14.6811 29.0053 14.6811C29.0067 14.6811 29.008 14.6811 29.0094 14.6811C29.0107 14.6811 29.0121 14.6811 29.0134 14.6811C29.0148 14.6811 29.0161 14.6811 29.0175 14.6811C29.0188 14.6811 29.0202 14.6811 29.0215 14.6811C29.0229 14.6811 29.0242 14.6811 29.0256 14.6811C29.0269 14.6811 29.0282 14.6811 29.0296 14.6811C29.0309 14.6811 29.0322 14.6811 29.0336 14.6811C29.0349 14.6811 29.0362 14.6811 29.0376 14.6811C29.0389 14.6811 29.0402 14.6811 29.0415 14.6811C29.0428 14.6811 29.0442 14.6811 29.0455 14.6811C29.0468 14.6811 29.0481 14.6811 29.0494 14.6811C29.0507 14.6811 29.0521 14.6811 29.0534 14.6811C29.0547 14.6811 29.056 14.6811 29.0573 14.6811C29.0586 14.6811 29.0599 14.6811 29.0612 14.6811C29.0625 14.6811 29.0638 14.6811 29.0651 14.6811C29.0664 14.6811 29.0677 14.6811 29.069 14.6811C29.0703 14.6811 29.0716 14.6811 29.0729 14.6811C29.0741 14.6811 29.0754 14.6811 29.0767 14.6811C29.078 14.6811 29.0793 14.6811 29.0806 14.6811C29.0818 14.6811 29.0831 14.6811 29.0844 14.6811C29.0857 14.6811 29.087 14.6811 29.0882 14.6811C29.0895 14.6811 29.0908 14.6811 29.092 14.6811C29.0933 14.6811 29.0946 14.6811 29.0958 14.6811C29.0971 14.6811 29.0984 14.6811 29.0996 14.6811C29.1009 14.6811 29.1021 14.6811 29.1034 14.6811C29.1047 14.6811 29.1059 14.6811 29.1072 14.6811C29.1084 14.6811 29.1097 14.6811 29.1109 14.6811C29.1122 14.6811 29.1134 14.6811 29.1146 14.6811C29.1159 14.6811 29.1171 14.6811 29.1184 14.6811C29.1196 14.6811 29.1209 14.6811 29.1221 14.6811C29.1233 14.6811 29.1246 14.6811 29.1258 14.6811C29.127 14.6811 29.1283 14.6811 29.1295 14.6811C29.1307 14.6811 29.1319 14.6811 29.1332 14.6811C29.1344 14.6811 29.1356 14.6811 29.1368 14.6811C29.1381 14.6811 29.1393 14.6811 29.1405 14.6811C29.1417 14.6811 29.1429 14.6811 29.1441 14.6811C29.1453 14.6811 29.1466 14.6811 29.1478 14.6811C29.149 14.6811 29.1502 14.6811 29.1514 14.6811C29.1526 14.6811 29.1538 14.6811 29.155 14.6811C29.1562 14.6811 29.1574 14.6811 29.1586 14.6811C29.1598 14.6811 29.161 14.6811 29.1622 14.6811C29.1634 14.6811 29.1646 14.6811 29.1658 14.6811C29.167 14.6811 29.1681 14.6811 29.1693 14.6811C29.1705 14.6811 29.1717 14.6811 29.1729 14.6811C29.1741 14.6811 29.1752 14.6811 29.1764 14.6811C29.1776 14.6811 29.1788 14.6811 29.18 14.6811C29.1811 14.6811 29.1823 14.6811 29.1835 14.6811C29.1846 14.6811 29.1858 14.6811 29.187 14.6811C29.1882 14.6811 29.1893 14.6811 29.1905 14.6811C29.1917 14.6811 29.1928 14.6811 29.194 14.6811C29.1951 14.6811 29.1963 14.6811 29.1975 14.6811C29.1986 14.6811 29.1998 14.6811 29.2009 14.6811C29.2021 14.6811 29.2032 14.6811 29.2044 14.6811C29.2055 14.6811 29.2067 14.6811 29.2078 14.6811C29.209 14.6811 29.2101 14.6811 29.2113 14.6811C29.2124 14.6811 29.2135 14.6811 29.2147 14.6811C29.2158 14.6811 29.217 14.6811 29.2181 14.6811C29.2192 14.6811 29.2204 14.6811 29.2215 14.6811C29.2226 14.6811 29.2238 14.6811 29.2249 14.6811C29.226 14.6811 29.2271 14.6811 29.2283 14.6811C29.2294 14.6811 29.2305 14.6811 29.2316 14.6811C29.2328 14.6811 29.2339 14.6811 29.235 14.6811C29.2361 14.6811 29.2372 14.6811 29.2384 14.6811C29.2395 14.6811 29.2406 14.6811 29.2417 14.6811C29.2428 14.6811 29.2439 14.6811 29.245 14.6811C29.2461 14.6811 29.2472 14.6811 29.2483 14.6811C29.2494 14.6811 29.2506 14.6811 29.2517 14.6811C29.2528 14.6811 29.2539 14.6811 29.255 14.6811C29.2561 14.6811 29.2571 14.6811 29.2582 14.6811C29.2593 14.6811 29.2604 14.6811 29.2615 14.6811C29.2626 14.6811 29.2637 14.6811 29.2648 14.6811C29.2659 14.6811 29.267 14.6811 29.2681 14.6811C29.2691 14.6811 29.2702 14.6811 29.2713 14.6811C29.2724 14.6811 29.2735 14.6811 29.2745 14.6811C29.2756 14.6811 29.2767 14.6811 29.2778 14.6811C29.2789 14.6811 29.2799 14.6811 29.281 14.6811C29.2821 14.6811 29.2831 14.6811 29.2842 14.6811C29.2853 14.6811 29.2863 14.6811 29.2874 14.6811C29.2885 14.6811 29.2895 14.6811 29.2906 14.6811C29.2917 14.6811 29.2927 14.6811 29.2938 14.6811C29.2948 14.6811 29.2959 14.6811 29.297 14.6811C29.298 14.6811 29.2991 14.6811 29.3001 14.6811C29.3012 14.6811 29.3022 14.6811 29.3033 14.6811C29.3043 14.6811 29.3054 14.6811 29.3064 14.6811C29.3075 14.6811 29.3085 14.6811 29.3096 14.6811C29.3106 14.6811 29.3117 14.6811 29.3127 14.6811C29.3137 14.6811 29.3148 14.6811 29.3158 14.6811C29.3168 14.6811 29.3179 14.6811 29.3189 14.6811C29.32 14.6811 29.321 14.6811 29.322 14.6811C29.3231 14.6811 29.3241 14.6811 29.3251 14.6811C29.3261 14.6811 29.3272 14.6811 29.3282 14.6811C29.3292 14.6811 29.3302 14.6811 29.3313 14.6811C29.3323 14.6811 29.3333 14.6811 29.3343 14.6811C29.3353 14.6811 29.3364 14.6811 29.3374 14.6811C29.3384 14.6811 29.3394 14.6811 29.3404 14.6811C29.3414 14.6811 29.3425 14.6811 29.3435 14.6811C29.3445 14.6811 29.3455 14.6811 29.3465 14.6811C29.3475 14.6811 29.3485 14.6811 29.3495 14.6811C29.3505 14.6811 29.3515 14.6811 29.3525 14.6811C29.3535 14.6811 29.3545 14.6811 29.3555 14.6811C29.3565 14.6811 29.3575 14.6811 29.3585 14.6811C29.3595 14.6811 29.3605 14.6811 29.3615 14.6811C29.3625 14.6811 29.3635 14.6811 29.3645 14.6811C29.3655 14.6811 29.3665 14.6811 29.3675 14.6811C29.3685 14.6811 29.3694 14.6811 29.3704 14.6811C29.3714 14.6811 29.3724 14.6811 29.3734 14.6811C29.3744 14.6811 29.3753 14.6811 29.3763 14.6811C29.3773 14.6811 29.3783 14.6811 29.3793 14.6811C29.3802 14.6811 29.3812 14.6811 29.3822 14.6811C29.3832 14.6811 29.3841 14.6811 29.3851 14.6811C29.3861 14.6811 29.3871 14.6811 29.388 14.6811C29.389 14.6811 29.39 14.6811 29.3909 14.6811C29.3919 14.6811 29.3929 14.6811 29.3938 14.6811C29.3948 14.6811 29.3957 14.6811 29.3967 14.6811C29.3977 14.6811 29.3986 14.6811 29.3996 14.6811C29.4006 14.6811 29.4015 14.6811 29.4025 14.6811C29.4034 14.6811 29.4044 14.6811 29.4053 14.6811C29.4063 14.6811 29.4072 14.6811 29.4082 14.6811C29.4091 14.6811 29.4101 14.6811 29.411 14.6811C29.412 14.6811 29.4129 14.6811 29.4139 14.6811C29.4148 14.6811 29.4158 14.6811 29.4167 14.6811C29.4177 14.6811 29.4186 14.6811 29.4195 14.6811C29.4205 14.6811 29.4214 14.6811 29.4224 14.6811C29.4233 14.6811 29.4242 14.6811 29.4252 14.6811C29.4261 14.6811 29.427 14.6811 29.428 14.6811C29.4289 14.6811 29.4298 14.6811 29.4308 14.6811C29.4317 14.6811 29.4326 14.6811 29.4336 14.6811C29.4345 14.6811 29.4354 14.6811 29.4364 14.6811C29.4373 14.6811 29.4382 14.6811 29.4391 14.6811C29.4401 14.6811 29.441 14.6811 29.4419 14.6811C29.4428 14.6811 29.4437 14.6811 29.4447 14.6811C29.4456 14.6811 29.4465 14.6811 29.4474 14.6811C29.4483 14.6811 29.4492 14.6811 29.4502 14.6811C29.4511 14.6811 29.452 14.6811 29.4529 14.6811C29.4538 14.6811 29.4547 14.6811 29.4556 14.6811C29.4565 14.6811 29.4575 14.6811 29.4584 14.6811C29.4593 14.6811 29.4602 14.6811 29.4611 14.6811C29.462 14.6811 29.4629 14.6811 29.4638 14.6811C29.4647 14.6811 29.4656 14.6811 29.4665 14.6811C29.4674 14.6811 29.4683 14.6811 29.4692 14.6811C29.4701 14.6811 29.471 14.6811 29.4719 14.6811C29.4728 14.6811 29.4737 14.6811 29.4746 14.6811C29.4755 14.6811 29.4764 14.6811 29.4773 14.6811C29.4782 14.6811 29.479 14.6811 29.4799 14.6811C29.4808 14.6811 29.4817 14.6811 29.4826 14.6811C29.4835 14.6811 29.4844 14.6811 29.4853 14.6811C29.4862 14.6811 29.487 14.6811 29.4879 14.6811C29.4888 14.6811 29.4897 14.6811 29.4906 14.6811C29.4914 14.6811 29.4923 14.6811 29.4932 14.6811C29.4941 14.6811 29.495 14.6811 29.4958 14.6811C29.4967 14.6811 29.4976 14.6811 29.4985 14.6811C29.4994 14.6811 29.5002 14.6811 29.5011 14.6811C29.502 14.6811 29.5028 14.6811 29.5037 14.6811C29.5046 14.6811 29.5055 14.6811 29.5063 14.6811C29.5072 14.6811 29.5081 14.6811 29.5089 14.6811C29.5098 14.6811 29.5107 14.6811 29.5115 14.6811C29.5124 14.6811 29.5133 14.6811 29.5141 14.6811C29.515 14.6811 29.5159 14.6811 29.5167 14.6811C29.5176 14.6811 29.5184 14.6811 29.5193 14.6811C29.5202 14.6811 29.521 14.6811 29.5219 14.6811C29.5227 14.6811 29.5236 14.6811 29.5244 14.6811C29.5253 14.6811 29.5262 14.6811 29.527 14.6811C29.5279 14.6811 29.5287 14.6811 29.5296 14.6811C29.5304 14.6811 29.5313 14.6811 29.5321 14.6811C29.533 14.6811 29.5338 14.6811 29.5347 14.6811C29.5355 14.6811 29.5364 14.6811 29.5372 14.6811C29.5381 14.6811 29.5389 14.6811 29.5398 14.6811C29.5406 14.6811 29.5414 14.6811 29.5423 14.6811C29.5431 14.6811 29.544 14.6811 29.5448 14.6811C29.5457 14.6811 29.5465 14.6811 29.5473 14.6811C29.5482 14.6811 29.549 14.6811 29.5499 14.6811C29.5507 14.6811 29.5515 14.6811 29.5524 14.6811C29.5532 14.6811 29.554 14.6811 29.5549 14.6811C29.5557 14.6811 29.5565 14.6811 29.5574 14.6811C29.5582 14.6811 29.559 14.6811 29.5599 14.6811C29.5607 14.6811 29.5615 14.6811 29.5624 14.6811C29.5632 14.6811 29.564 14.6811 29.5648 14.6811C29.5657 14.6811 29.5665 14.6811 29.5673 14.6811C29.5682 14.6811 29.569 14.6811 29.5698 14.6811C29.5706 14.6811 29.5715 14.6811 29.5723 14.6811C29.5731 14.6811 29.5739 14.6811 29.5747 14.6811C29.5756 14.6811 29.5764 14.6811 29.5772 14.6811C29.578 14.6811 29.5788 14.6811 29.5797 14.6811C29.5805 14.6811 29.5813 14.6811 29.5821 14.6811C29.5829 14.6811 29.5838 14.6811 29.5846 14.6811C29.5854 14.6811 29.5862 14.6811 29.587 14.6811C29.5878 14.6811 29.5886 14.6811 29.5894 14.6811C29.5903 14.6811 29.5911 14.6811 29.5919 14.6811C29.5927 14.6811 29.5935 14.6811 29.5943 14.6811C29.5951 14.6811 29.5959 14.6811 29.5967 14.6811C29.5976 14.6811 29.5984 14.6811 29.5992 14.6811C29.6 14.6811 29.6008 14.6811 29.6016 14.6811C29.6024 14.6811 29.6032 14.6811 29.604 14.6811C29.6048 14.6811 29.6056 14.6811 29.6064 14.6811C29.6072 14.6811 29.608 14.6811 29.6088 14.6811C29.6096 14.6811 29.6104 14.6811 29.6112 14.6811C29.612 14.6811 29.6128 14.6811 29.6136 14.6811C29.6144 14.6811 29.6152 14.6811 29.616 14.6811C29.6168 14.6811 29.6176 14.6811 29.6184 14.6811C29.6192 14.6811 29.62 14.6811 29.6208 14.6811C29.6216 14.6811 29.6224 14.6811 29.6232 14.6811C29.624 14.6811 29.6247 14.6811 29.6255 14.6811C29.6263 14.6811 29.6271 14.6811 29.6279 14.6811C29.6287 14.6811 29.6295 14.6811 29.6303 14.6811C29.6311 14.6811 29.6319 14.6811 29.6327 14.6811C29.6334 14.6811 29.6342 14.6811 29.635 14.6811C29.6358 14.6811 29.6366 14.6811 29.6374 14.6811C29.6382 14.6811 29.6389 14.6811 29.6397 14.6811C29.6405 14.6811 29.6413 14.6811 29.6421 14.6811C29.6429 14.6811 29.6437 14.6811 29.6444 14.6811C29.6452 14.6811 29.646 14.6811 29.6468 14.6811C29.6476 14.6811 29.6483 14.6811 29.6491 14.6811C29.6499 14.6811 29.6507 14.6811 29.6515 14.6811C29.6522 14.6811 29.653 14.6811 29.6538 14.6811C29.6546 14.6811 29.6554 14.6811 29.6561 14.6811C29.6569 14.6811 29.6577 14.6811 29.6585 14.6811C29.6592 14.6811 29.66 14.6811 29.6608 14.6811C29.6616 14.6811 29.6623 14.6811 29.6631 14.6811C29.6639 14.6811 29.6647 14.6811 29.6654 14.6811C29.6662 14.6811 29.667 14.6811 29.6678 14.6811C29.6685 14.6811 29.6693 14.6811 29.6701 14.6811C29.6708 14.6811 29.6716 14.6811 29.6724 14.6811C29.6732 14.6811 29.6739 14.6811 29.6747 14.6811C29.6755 14.6811 29.6762 14.6811 29.677 14.6811C29.6778 14.6811 29.6785 14.6811 29.6793 14.6811C29.6801 14.6811 29.6808 14.6811 29.6816 14.6811C29.6824 14.6811 29.6831 14.6811 29.6839 14.6811C29.6847 14.6811 29.6854 14.6811 29.6862 14.6811C29.687 14.6811 29.6877 14.6811 29.6885 14.6811C29.6893 14.6811 29.69 14.6811 29.6908 14.6811C29.6916 14.6811 29.6923 14.6811 29.6931 14.6811C29.6939 14.6811 29.6946 14.6811 29.6954 14.6811C29.6961 14.6811 29.6969 14.6811 29.6977 14.6811C29.6984 14.6811 29.6992 14.6811 29.6999 14.6811C29.7007 14.6811 29.7015 14.6811 29.7022 14.6811C29.703 14.6811 29.7037 14.6811 29.7045 14.6811C29.7053 14.6811 29.706 14.6811 29.7068 14.6811C29.7075 14.6811 29.7083 14.6811 29.7091 14.6811C29.7098 14.6811 29.7106 14.6811 29.7113 14.6811C29.7121 14.6811 29.7128 14.6811 29.7136 14.6811C29.7144 14.6811 29.7151 14.6811 29.7159 14.6811C29.7166 14.6811 29.7174 14.6811 29.7181 14.6811C29.7189 14.6811 29.7196 14.6811 29.7204 14.6811C29.7212 14.6811 29.7219 14.6811 29.7227 14.6811C29.7234 14.6811 29.7242 14.6811 29.7249 14.6811C29.7257 14.6811 29.7264 14.6811 29.7272 14.6811C29.7279 14.6811 29.7287 14.6811 29.7294 14.6811C29.7302 14.6811 29.7309 14.6811 29.7317 14.6811C29.7324 14.6811 29.7332 14.6811 29.7339 14.6811C29.7347 14.6811 29.7355 14.6811 29.7362 14.6811C29.737 14.6811 29.7377 14.6811 29.7385 14.6811C29.7392 14.6811 29.74 14.6811 29.7407 14.6811C29.7415 14.6811 29.7422 14.6811 29.743 14.6811C29.7437 14.6811 29.7445 14.6811 29.7452 14.6811C29.746 14.6811 29.7467 14.6811 29.7474 14.6811C29.7482 14.6811 29.7489 14.6811 29.7497 14.6811C29.7504 14.6811 29.7512 14.6811 29.7519 14.6811C29.7527 14.6811 29.7534 14.6811 29.7542 14.6811C29.7549 14.6811 29.7557 14.6811 29.7564 14.6811C29.7572 14.6811 29.7579 14.6811 29.7587 14.6811C29.7594 14.6811 29.7602 14.6811 29.7609 14.6811C29.7616 14.6811 29.7624 14.6811 29.7631 14.6811C29.7639 14.6811 29.7646 14.6811 29.7654 14.6811C29.7661 14.6811 29.7669 14.6811 29.7676 14.6811C29.7684 14.6811 29.7691 14.6811 29.7699 14.6811C29.7706 14.6811 29.7713 14.6811 29.7721 14.6811C29.7728 14.6811 29.7736 14.6811 29.7743 14.6811C29.7751 14.6811 29.7758 14.6811 29.7766 14.6811C29.7773 14.6811 29.778 14.6811 29.7788 14.6811C29.7795 14.6811 29.7803 14.6811 29.781 14.6811C29.7818 14.6811 29.7825 14.6811 29.7833 14.6811C29.784 14.6811 29.7847 14.6811 29.7855 14.6811C29.7862 14.6811 29.787 14.6811 29.7877 14.6811C29.7885 14.6811 29.7892 14.6811 29.79 14.6811C29.7907 14.6811 29.7914 14.6811 29.7922 14.6811C29.7929 14.6811 29.7937 14.6811 29.7944 14.6811C29.7952 14.6811 29.7959 14.6811 29.7966 14.6811C29.7974 14.6811 29.7981 14.6811 29.7989 14.6811C29.7996 14.6811 29.8004 14.6811 29.8011 14.6811C29.8018 14.6811 29.8026 14.6811 29.8033 14.6811C29.8041 14.6811 29.8048 14.6811 29.8056 14.6811C29.8063 14.6811 29.807 14.6811 29.8078 14.6811C29.8085 14.6811 29.8093 14.6811 29.81 14.6811C29.8108 14.6811 29.8115 14.6811 29.8123 14.6811C29.813 14.6811 29.8137 14.6811 29.8145 14.6811C29.8152 14.6811 29.816 14.6811 29.8167 14.6811C29.8175 14.6811 29.8182 14.6811 29.8189 14.6811C29.8197 14.6811 29.8204 14.6811 29.8212 14.6811C29.8219 14.6811 29.8227 14.6811 29.8234 14.6811C29.8241 14.6811 29.8249 14.6811 29.8256 14.6811C29.8264 14.6811 29.8271 14.6811 29.8279 14.6811C29.8286 14.6811 29.8294 14.6811 29.8301 14.6811C29.8308 14.6811 29.8316 14.6811 29.8323 14.6811C29.8331 14.6811 29.8338 14.6811 29.8346 14.6811C29.8353 14.6811 29.8361 14.6811 29.8368 14.6811C29.8375 14.6811 29.8383 14.6811 29.839 14.6811C29.8398 14.6811 29.8405 14.6811 29.8413 14.6811C29.842 14.6811 29.8428 14.6811 29.8435 14.6811C29.8443 14.6811 29.845 14.6811 29.8457 14.6811C29.8465 14.6811 29.8472 14.6811 29.848 14.6811C29.8487 14.6811 29.8495 14.6811 29.8502 14.6811C29.851 14.6811 29.8517 14.6811 29.8525 14.6811C29.8532 14.6811 29.854 14.6811 29.8547 14.6811C29.8554 14.6811 29.8562 14.6811 29.8569 14.6811C29.8577 14.6811 29.8584 14.6811 29.8592 14.6811C29.8599 14.6811 29.8607 14.6811 29.8614 14.6811C29.8622 14.6811 29.8629 14.6811 29.8637 14.6811C29.8644 14.6811 29.8652 14.6811 29.8659 14.6811C29.8667 14.6811 29.8674 14.6811 29.8682 14.6811C29.8689 14.6811 29.8697 14.6811 29.8704 14.6811C29.8712 14.6811 29.8719 14.6811 29.8727 14.6811C29.8734 14.6811 29.8742 14.6811 29.8749 14.6811C29.8757 14.6811 29.8764 14.6811 29.8772 14.6811C29.8779 14.6811 29.8787 14.6811 29.8794 14.6811C29.8802 14.6811 29.8809 14.6811 29.8817 14.6811C29.8824 14.6811 29.8832 14.6811 29.8839 14.6811C29.8847 14.6811 29.8854 14.6811 29.8862 14.6811C29.887 14.6811 29.8877 14.6811 29.8885 14.6811C29.8892 14.6811 29.89 14.6811 29.8907 14.6811C29.8915 14.6811 29.8922 14.6811 29.893 14.6811C29.8937 14.6811 29.8945 14.6811 29.8953 14.6811C29.896 14.6811 29.8968 14.6811 29.8975 14.6811C29.8983 14.6811 29.899 14.6811 29.8998 14.6811C29.9005 14.6811 29.9013 14.6811 29.9021 14.6811C29.9028 14.6811 29.9036 14.6811 29.9043 14.6811C29.9051 14.6811 29.9059 14.6811 29.9066 14.6811C29.9074 14.6811 29.9081 14.6811 29.9089 14.6811C29.9097 14.6811 29.9104 14.6811 29.9112 14.6811C29.9119 14.6811 29.9127 14.6811 29.9135 14.6811C29.9142 14.6811 29.915 14.6811 29.9157 14.6811C29.9165 14.6811 29.9173 14.6811 29.918 14.6811C29.9188 14.6811 29.9196 14.6811 29.9203 14.6811C29.9211 14.6811 29.9218 14.6811 29.9226 14.6811C29.9234 14.6811 29.9241 14.6811 29.9249 14.6811C29.9257 14.6811 29.9264 14.6811 29.9272 14.6811C29.928 14.6811 29.9287 14.6811 29.9295 14.6811C29.9303 14.6811 29.931 14.6811 29.9318 14.6811C29.9326 14.6811 29.9333 14.6811 29.9341 14.6811C29.9349 14.6811 29.9356 14.6811 29.9364 14.6811C29.9372 14.6811 29.938 14.6811 29.9387 14.6811C29.9395 14.6811 29.9403 14.6811 29.941 14.6811C29.9418 14.6811 29.9426 14.6811 29.9434 14.6811C29.9441 14.6811 29.9449 14.6811 29.9457 14.6811C29.9464 14.6811 29.9472 14.6811 29.948 14.6811C29.9488 14.6811 29.9495 14.6811 29.9503 14.6811C29.9511 14.6811 29.9519 14.6811 29.9526 14.6811C29.9534 14.6811 29.9542 14.6811 29.955 14.6811C29.9558 14.6811 29.9565 14.6811 29.9573 14.6811C29.9581 14.6811 29.9589 14.6811 29.9596 14.6811C29.9604 14.6811 29.9612 14.6811 29.962 14.6811C29.9628 14.6811 29.9635 14.6811 29.9643 14.6811C29.9651 14.6811 29.9659 14.6811 29.9667 14.6811C29.9675 14.6811 29.9682 14.6811 29.969 14.6811C29.9698 14.6811 29.9706 14.6811 29.9714 14.6811C29.9722 14.6811 29.9729 14.6811 29.9737 14.6811C29.9745 14.6811 29.9753 14.6811 29.9761 14.6811C29.9769 14.6811 29.9777 14.6811 29.9785 14.6811C29.9792 14.6811 29.98 14.6811 29.9808 14.6811C29.9816 14.6811 29.9824 14.6811 29.9832 14.6811C29.984 14.6811 29.9848 14.6811 29.9856 14.6811C29.9864 14.6811 29.9872 14.6811 29.9879 14.6811C29.9887 14.6811 29.9895 14.6811 29.9903 14.6811C29.9911 14.6811 29.9919 14.6811 29.9927 14.6811C29.9935 14.6811 29.9943 14.6811 29.9951 14.6811C29.9959 14.6811 29.9967 14.6811 29.9975 14.6811C29.9983 14.6811 29.9991 14.6811 29.9999 14.6811C30.0007 14.6811 30.0015 14.6811 30.0023 14.6811C30.0031 14.6811 30.0039 14.6811 30.0047 14.6811C30.0055 14.6811 30.0063 14.6811 30.0071 14.6811C30.0079 14.6811 30.0087 14.6811 30.0095 14.6811C30.0103 14.6811 30.0111 14.6811 30.0119 14.6811C30.0127 14.6811 30.0136 14.6811 30.0144 14.6811C30.0152 14.6811 30.016 14.6811 30.0168 14.6811C30.0176 14.6811 30.0184 14.6811 30.0192 14.6811C30.02 14.6811 30.0208 14.6811 30.0217 14.6811C30.0225 14.6811 30.0233 14.6811 30.0241 14.6811C30.0249 14.6811 30.0257 14.6811 30.0265 14.6811C30.0274 14.6811 30.0282 14.6811 30.029 14.6811C30.0298 14.6811 30.0306 14.6811 30.0314 14.6811C30.0323 14.6811 30.0331 14.6811 30.0339 14.6811C30.0347 14.6811 30.0355 14.6811 30.0364 14.6811C30.0372 14.6811 30.038 14.6811 30.0388 14.6811C30.0396 14.6811 30.0405 14.6811 30.0413 14.6811C30.0421 14.6811 30.0429 14.6811 30.0438 14.6811C30.0446 14.6811 30.0454 14.6811 30.0463 14.6811C30.0471 14.6811 30.0479 14.6811 30.0487 14.6811C30.0496 14.6811 30.0504 14.6811 30.0512 14.6811C30.0521 14.6811 30.0529 14.6811 30.0537 14.6811C30.0546 14.6811 30.0554 14.6811 30.0562 14.6811C30.0571 14.6811 30.0579 14.6811 30.0587 14.6811C30.0596 14.6811 30.0604 14.6811 30.0612 14.6811C30.0621 14.6811 30.0629 14.6811 30.0638 14.6811C30.0646 14.6811 30.0654 14.6811 30.0663 14.6811C30.0671 14.6811 30.068 14.6811 30.0688 14.6811C30.0697 14.6811 30.0705 14.6811 30.0713 14.6811C30.0722 14.6811 30.073 14.6811 30.0739 14.6811C30.0747 14.6811 30.0756 14.6811 30.0764 14.6811C30.0773 14.6811 30.0781 14.6811 30.079 14.6811C30.0798 14.6811 30.0807 14.6811 30.0815 14.6811C30.0824 14.6811 30.0832 14.6811 30.0841 14.6811C30.0849 14.6811 30.0858 14.6811 30.0866 14.6811C30.0875 14.6811 30.0884 14.6811 30.0892 14.6811C30.0901 14.6811 30.0909 14.6811 30.0918 14.6811C30.0927 14.6811 30.0935 14.6811 30.0944 14.6811C30.0952 14.6811 30.0961 14.6811 30.097 14.6811C30.0978 14.6811 30.0987 14.6811 30.0996 14.6811C30.1004 14.6811 30.1013 14.6811 30.1022 14.6811C30.103 14.6811 30.1039 14.6811 30.1048 14.6811C30.1056 14.6811 30.1065 14.6811 30.1074 14.6811C30.1082 14.6811 30.1091 14.6811 30.11 14.6811C30.1109 14.6811 30.1117 14.6811 30.1126 14.6811C30.1135 14.6811 30.1144 14.6811 30.1152 14.6811C30.1161 14.6811 30.117 14.6811 30.1179 14.6811C30.1188 14.6811 30.1196 14.6811 30.1205 14.6811C30.1214 14.6811 30.1223 14.6811 30.1232 14.6811C30.124 14.6811 30.1249 14.6811 30.1258 14.6811C30.1267 14.6811 30.1276 14.6811 30.1285 14.6811C30.1294 14.6811 30.1303 14.6811 30.1311 14.6811C30.132 14.6811 30.1329 14.6811 30.1338 14.6811C30.1347 14.6811 30.1356 14.6811 30.1365 14.6811C30.1374 14.6811 30.1383 14.6811 30.1392 14.6811C30.1401 14.6811 30.141 14.6811 30.1419 14.6811C30.1428 14.6811 30.1437 14.6811 30.1446 14.6811C30.1455 14.6811 30.1464 14.6811 30.1473 14.6811C30.1482 14.6811 30.1491 14.6811 30.15 14.6811C30.1509 14.6811 30.1518 14.6811 30.1527 14.6811C30.1536 14.6811 30.1545 14.6811 30.1554 14.6811C30.1564 14.6811 30.1573 14.6811 30.1582 14.6811C30.1591 14.6811 30.16 14.6811 30.1609 14.6811C30.1618 14.6811 30.1627 14.6811 30.1637 14.6811C30.1646 14.6811 30.1655 14.6811 30.1664 14.6811C30.1673 14.6811 30.1683 14.6811 30.1692 14.6811C30.1701 14.6811 30.171 14.6811 30.1719 14.6811C30.1729 14.6811 30.1738 14.6811 30.1747 14.6811C30.1756 14.6811 30.1766 14.6811 30.1775 14.6811C30.1784 14.6811 30.1794 14.6811 30.1803 14.6811C30.1812 14.6811 30.1822 14.6811 30.1831 14.6811C30.184 14.6811 30.185 14.6811 30.1859 14.6811C30.1868 14.6811 30.1878 14.6811 30.1887 14.6811C30.1896 14.6811 30.1906 14.6811 30.1915 14.6811C30.1925 14.6811 30.1934 14.6811 30.1944 14.6811C30.1953 14.6811 30.1962 14.6811 30.1972 14.6811C30.1981 14.6811 30.1991 14.6811 30.2 14.6811C30.201 14.6811 30.2019 14.6811 30.2029 14.6811C30.2038 14.6811 30.2048 14.6811 30.2057 14.6811C30.2067 14.6811 30.2076 14.6811 30.2086 14.6811C30.2096 14.6811 30.2105 14.6811 30.2115 14.6811C30.2124 14.6811 30.2134 14.6811 30.2144 14.6811C30.2153 14.6811 30.2163 14.6811 30.2172 14.6811C30.2182 14.6811 30.2192 14.6811 30.2201 14.6811C30.2211 14.6811 30.2221 14.6811 30.223 14.6811C30.224 14.6811 30.225 14.6811 30.2259 14.6811C30.2269 14.6811 30.2279 14.6811 30.2289 14.6811C30.2298 14.6811 30.2308 14.6811 30.2318 14.6811C30.2328 14.6811 30.2338 14.6811 30.2347 14.6811C30.2357 14.6811 30.2367 14.6811 30.2377 14.6811C30.2387 14.6811 30.2396 14.6811 30.2406 14.6811C30.2416 14.6811 30.2426 14.6811 30.2436 14.6811C30.2446 14.6811 30.2456 14.6811 30.2466 14.6811C30.2475 14.6811 30.2485 14.6811 30.2495 14.6811C30.2505 14.6811 30.2515 14.6811 30.2525 14.6811C30.2535 14.6811 30.2545 14.6811 30.2555 14.6811C30.2565 14.6811 30.2575 14.6811 30.2585 14.6811C30.2595 14.6811 30.2605 14.6811 30.2615 14.6811C30.2625 14.6811 30.2635 14.6811 30.2645 14.6811C30.2656 14.6811 30.2666 14.6811 30.2676 14.6811V16.3811ZM28.8027 16.3811H25.873V14.6811H28.8027V16.3811ZM25.873 16.3811C24.735 16.3811 23.7934 17.3191 23.7934 18.4999H22.0934C22.0934 16.4015 23.775 14.6811 25.873 14.6811V16.3811Z" fill="white"/>
</g>
<path d="M19 9.5V9.5C19 5.35786 15.6421 2 11.5 2H10.5C5.80558 2 2 5.80558 2 10.5V13.5676C2 18.6572 6.44626 22.6039 11.5 22V22" stroke="white" stroke-width="1.7" stroke-miterlimit="10" stroke-linejoin="round"/>
<path d="M13.584 14L11.136 12.272V10.736L13.584 9.008L14.304 10.256L12.208 11.168V11.84L14.304 12.752L13.584 14ZM11.104 7.536L10.832 10.528L9.488 11.296L6.768 10.032L7.488 8.8L9.328 10.144L9.92 9.808L9.664 7.552L11.104 7.536ZM6.768 12.976L9.488 11.712L10.832 12.48L11.104 15.472L9.664 15.456L9.92 13.2L9.328 12.864L7.488 14.208L6.768 12.976Z" fill="white"/>
<defs>
<linearGradient id="paint0_linear_191_7220" x1="20.6966" y1="16.5" x2="21" y2="30" gradientUnits="userSpaceOnUse">
<stop stop-color="#F5F5F5"/>
<stop offset="1" stop-color="#999999"/>
</linearGradient>
</defs>
</svg>
