<svg width="18" height="22" viewBox="0 0 18 22" fill="none" xmlns="http://www.w3.org/2000/svg">
<path d="M1.67862 12L9.02342 16.4872L16.3682 12V16.2628L9.02342 20.75L1.67862 16.2628V12Z" fill="url(#paint0_linear_186_4713)" fill-opacity="0.2"/>
<path d="M1.93929 11.5733L1.17862 11.1086V12V16.2628V16.5433L1.41795 16.6895L8.76275 21.1767L9.02342 21.3359L9.28409 21.1767L16.6289 16.6895L16.8682 16.5433V16.2628V12V11.1086L16.1075 11.5733L9.02342 15.9013L1.93929 11.5733Z" stroke="url(#paint1_linear_186_4713)" stroke-opacity="0.5"/>
<path d="M1.67862 2L9.02342 6.48718L16.3682 2V6.26282L9.02342 10.75L1.67862 6.26282V2Z" fill="url(#paint2_linear_186_4713)" fill-opacity="0.2"/>
<path d="M1.93929 1.57333L1.17862 1.10861V2V6.26282V6.54328L1.41795 6.6895L8.76275 11.1767L9.02342 11.3359L9.28409 11.1767L16.6289 6.6895L16.8682 6.54328V6.26282V2V1.10861L16.1075 1.57333L9.02342 5.90125L1.93929 1.57333Z" stroke="url(#paint3_linear_186_4713)" stroke-opacity="0.5"/>
<defs>
<linearGradient id="paint0_linear_186_4713" x1="9.02342" y1="12" x2="9.02342" y2="20.75" gradientUnits="userSpaceOnUse">
<stop stop-color="white"/>
<stop offset="1" stop-color="white" stop-opacity="0"/>
</linearGradient>
<linearGradient id="paint1_linear_186_4713" x1="9.02342" y1="3.5" x2="9.02342" y2="18.8441" gradientUnits="userSpaceOnUse">
<stop stop-color="white" stop-opacity="0"/>
<stop offset="1" stop-color="white"/>
</linearGradient>
<linearGradient id="paint2_linear_186_4713" x1="9.02342" y1="2" x2="9.02342" y2="10.75" gradientUnits="userSpaceOnUse">
<stop stop-color="white"/>
<stop offset="1" stop-color="white" stop-opacity="0"/>
</linearGradient>
<linearGradient id="paint3_linear_186_4713" x1="9.02342" y1="-6.5" x2="9.02342" y2="8.84406" gradientUnits="userSpaceOnUse">
<stop stop-color="white" stop-opacity="0"/>
<stop offset="1" stop-color="white"/>
</linearGradient>
</defs>
</svg>
