<svg width="62" height="76" viewBox="0 0 62 76" fill="none" xmlns="http://www.w3.org/2000/svg">
<g clip-path="url(#clip0_1_3554)">
<mask id="path-1-outside-1_1_3554" maskUnits="userSpaceOnUse" x="2" y="6" width="41" height="57" fill="black">
<rect fill="white" x="2" y="6" width="41" height="57"/>
<path d="M4.32 62V51.2C4.32 48.944 4.68 46.976 5.4 45.296C6.168 43.616 7.368 42.128 9 40.832C10.632 39.488 12.792 38.24 15.48 37.088L23.976 33.416C26.136 32.504 27.72 31.376 28.728 30.032C29.784 28.688 30.312 26.984 30.312 24.92C30.312 22.808 29.664 21.08 28.368 19.736C27.072 18.392 25.176 17.72 22.68 17.72C20.184 17.72 18.288 18.416 16.992 19.808C15.696 21.2 15.048 23.072 15.048 25.424H3.6C3.6 22.112 4.32 19.136 5.76 16.496C7.2 13.808 9.336 11.696 12.168 10.16C15 8.624 18.504 7.856 22.68 7.856C26.856 7.856 30.336 8.6 33.12 10.088C35.952 11.576 38.088 13.568 39.528 16.064C41.016 18.56 41.76 21.368 41.76 24.488V25.352C41.76 29.384 40.656 32.72 38.448 35.36C36.24 37.952 32.832 40.256 28.224 42.272L19.8 45.944C18.36 46.568 17.328 47.216 16.704 47.888C16.128 48.56 15.84 49.472 15.84 50.624V54.224L13.032 51.848H41.832V62H4.32Z"/>
</mask>
<path d="M4.32 62V51.2C4.32 48.944 4.68 46.976 5.4 45.296C6.168 43.616 7.368 42.128 9 40.832C10.632 39.488 12.792 38.24 15.48 37.088L23.976 33.416C26.136 32.504 27.72 31.376 28.728 30.032C29.784 28.688 30.312 26.984 30.312 24.92C30.312 22.808 29.664 21.08 28.368 19.736C27.072 18.392 25.176 17.72 22.68 17.72C20.184 17.72 18.288 18.416 16.992 19.808C15.696 21.2 15.048 23.072 15.048 25.424H3.6C3.6 22.112 4.32 19.136 5.76 16.496C7.2 13.808 9.336 11.696 12.168 10.16C15 8.624 18.504 7.856 22.68 7.856C26.856 7.856 30.336 8.6 33.12 10.088C35.952 11.576 38.088 13.568 39.528 16.064C41.016 18.56 41.76 21.368 41.76 24.488V25.352C41.76 29.384 40.656 32.72 38.448 35.36C36.24 37.952 32.832 40.256 28.224 42.272L19.8 45.944C18.36 46.568 17.328 47.216 16.704 47.888C16.128 48.56 15.84 49.472 15.84 50.624V54.224L13.032 51.848H41.832V62H4.32Z" fill="url(#paint0_linear_1_3554)" fill-opacity="0.5"/>
<path d="M4.32 62H3.32V63H4.32V62ZM5.4 45.296L4.49053 44.8802L4.48556 44.8911L4.48086 44.9021L5.4 45.296ZM9 40.832L9.62188 41.6151L9.62884 41.6096L9.63571 41.6039L9 40.832ZM15.48 37.088L15.8739 38.0071L15.8767 38.0059L15.48 37.088ZM23.976 33.416L23.587 32.4947L23.5793 32.4981L23.976 33.416ZM28.728 30.032L27.9417 29.4142L27.9347 29.423L27.928 29.432L28.728 30.032ZM16.992 19.808L17.7239 20.4894L17.7239 20.4894L16.992 19.808ZM15.048 25.424V26.424H16.048V25.424H15.048ZM3.6 25.424H2.6V26.424H3.6V25.424ZM5.76 16.496L6.63792 16.9749L6.64148 16.9682L5.76 16.496ZM12.168 10.16L12.6448 11.039L12.6448 11.039L12.168 10.16ZM33.12 10.088L32.6486 10.97L32.6549 10.9732L33.12 10.088ZM39.528 16.064L38.6618 16.5637L38.6654 16.5699L38.6691 16.5761L39.528 16.064ZM38.448 35.36L39.2093 36.0085L39.2151 36.0016L38.448 35.36ZM28.224 42.272L28.6236 43.1887L28.6248 43.1882L28.224 42.272ZM19.8 45.944L20.1976 46.8616L20.1996 46.8607L19.8 45.944ZM16.704 47.888L15.9712 47.2075L15.9577 47.2221L15.9447 47.2372L16.704 47.888ZM15.84 54.224L15.1941 54.9874L16.84 56.3801V54.224H15.84ZM13.032 51.848V50.848H10.3021L12.3861 52.6114L13.032 51.848ZM41.832 51.848H42.832V50.848H41.832V51.848ZM41.832 62V63H42.832V62H41.832ZM5.32 62V51.2H3.32V62H5.32ZM5.32 51.2C5.32 49.0486 5.66342 47.2199 6.31915 45.6899L4.48086 44.9021C3.69658 46.7321 3.32 48.8394 3.32 51.2H5.32ZM6.30947 45.7118C7.00393 44.1926 8.09739 42.8257 9.62188 41.6151L8.37812 40.0489C6.63861 41.4303 5.33207 43.0394 4.49053 44.8802L6.30947 45.7118ZM9.63571 41.6039C11.1725 40.3383 13.2423 39.135 15.8739 38.0071L15.0861 36.1689C12.3417 37.345 10.0915 38.6377 8.36429 40.0601L9.63571 41.6039ZM15.8767 38.0059L24.3727 34.3339L23.5793 32.4981L15.0833 36.1701L15.8767 38.0059ZM24.365 34.3372C26.6266 33.3823 28.3799 32.1628 29.528 30.632L27.928 29.432C27.0601 30.5892 25.6454 31.6257 23.587 32.4947L24.365 34.3372ZM29.5143 30.6498C30.7358 29.0953 31.312 27.1601 31.312 24.92H29.312C29.312 26.8079 28.8323 28.2807 27.9417 29.4142L29.5143 30.6498ZM31.312 24.92C31.312 22.5859 30.5876 20.5972 29.0878 19.0419L27.6482 20.4301C28.7404 21.5628 29.312 23.0301 29.312 24.92H31.312ZM29.0878 19.0419C27.5463 17.4432 25.3526 16.72 22.68 16.72V18.72C24.9994 18.72 26.5977 19.3408 27.6482 20.4301L29.0878 19.0419ZM22.68 16.72C19.9975 16.72 17.7995 17.4731 16.2601 19.1266L17.7239 20.4894C18.7765 19.3589 20.3705 18.72 22.68 18.72V16.72ZM16.2601 19.1266C14.7533 20.745 14.048 22.8819 14.048 25.424H16.048C16.048 23.2621 16.6387 21.655 17.7239 20.4894L16.2601 19.1266ZM15.048 24.424H3.6V26.424H15.048V24.424ZM4.6 25.424C4.6 22.262 5.28593 19.4535 6.6379 16.9749L4.8821 16.0171C3.35408 18.8185 2.6 21.962 2.6 25.424H4.6ZM6.64148 16.9682C7.98388 14.4624 9.97431 12.4874 12.6448 11.039L11.6912 9.28097C8.69769 10.9046 6.41612 13.1536 4.87852 16.0238L6.64148 16.9682ZM12.6448 11.039C15.2934 9.60249 18.6226 8.856 22.68 8.856V6.856C18.3854 6.856 14.7066 7.64551 11.6912 9.28097L12.6448 11.039ZM22.68 8.856C26.7427 8.856 30.0489 9.58042 32.6486 10.9699L33.5914 9.20607C30.6231 7.61957 26.9693 6.856 22.68 6.856V8.856ZM32.6549 10.9732C35.3385 12.3833 37.3266 14.2493 38.6618 16.5637L40.3942 15.5643C38.8494 12.8867 36.5655 10.7687 33.5851 9.20275L32.6549 10.9732ZM38.6691 16.5761C40.0579 18.9058 40.76 21.5345 40.76 24.488H42.76C42.76 21.2015 41.9741 18.2142 40.3869 15.5519L38.6691 16.5761ZM40.76 24.488V25.352H42.76V24.488H40.76ZM40.76 25.352C40.76 29.1917 39.7134 32.2883 37.6809 34.7184L39.2151 36.0016C41.5986 33.1517 42.76 29.5763 42.76 25.352H40.76ZM37.6868 34.7115C35.6126 37.1464 32.3532 39.3739 27.8232 41.3558L28.6248 43.1882C33.3108 41.138 36.8674 38.7576 39.2092 36.0085L37.6868 34.7115ZM27.8244 41.3553L19.4004 45.0273L20.1996 46.8607L28.6236 43.1887L27.8244 41.3553ZM19.4024 45.0264C17.9132 45.6718 16.7336 46.3865 15.9712 47.2075L17.4368 48.5685C17.9224 48.0455 18.8068 47.4642 20.1976 46.8616L19.4024 45.0264ZM15.9447 47.2372C15.1715 48.1393 14.84 49.3066 14.84 50.624H16.84C16.84 49.6374 17.0845 48.9807 17.4633 48.5388L15.9447 47.2372ZM14.84 50.624V54.224H16.84V50.624H14.84ZM16.4859 53.4606L13.6779 51.0846L12.3861 52.6114L15.1941 54.9874L16.4859 53.4606ZM13.032 52.848H41.832V50.848H13.032V52.848ZM40.832 51.848V62H42.832V51.848H40.832ZM41.832 61H4.32V63H41.832V61Z" fill="url(#paint1_linear_1_3554)" fill-opacity="0.5" mask="url(#path-1-outside-1_1_3554)"/>
<g opacity="0.4" filter="url(#filter0_f_1_3554)">
<path d="M29.0738 64.5719C29.4477 64.2053 29.9504 64 30.474 64H53.9289C54.5404 64 55.1184 64.2798 55.4977 64.7595L60.0371 70.5L23.5371 70L29.0738 64.5719Z" fill="url(#paint2_linear_1_3554)"/>
</g>
<rect x="23.5371" y="26" width="38" height="38" rx="8.36" fill="#F15729"/>
<g filter="url(#filter1_i_1_3554)">
<rect x="25.536" y="27.9988" width="34.0012" height="34.0012" rx="7.48025" fill="#F15729"/>
<rect x="25.536" y="27.9988" width="34.0012" height="34.0012" rx="7.48025" fill="url(#paint3_radial_1_3554)" style="mix-blend-mode:overlay"/>
<rect x="25.536" y="27.9988" width="34.0012" height="34.0012" rx="7.48025" fill="url(#paint4_radial_1_3554)" style="mix-blend-mode:overlay"/>
<rect x="25.536" y="27.9988" width="34.0012" height="34.0012" rx="7.48025" fill="url(#paint5_radial_1_3554)" style="mix-blend-mode:overlay"/>
<rect x="25.536" y="27.9988" width="34.0012" height="34.0012" rx="7.48025" fill="url(#paint6_radial_1_3554)" fill-opacity="0.6"/>
</g>
<g filter="url(#filter2_d_1_3554)">
<path d="M54.7271 37.7643C54.6205 37.0515 54.262 36.4005 53.7166 35.9293C53.1712 35.4581 52.4751 35.1978 51.7543 35.1958H33.2435C32.5228 35.1978 31.8266 35.4581 31.2812 35.9293C30.7359 36.4005 30.3774 37.0515 30.2708 37.7643L42.4989 45.677L54.7271 37.7643Z" fill="#FFE3B5"/>
<path d="M53.6421 36.0155C54.1484 36.453 54.4873 37.0515 54.6026 37.7091L42.4989 45.5412L30.3952 37.7091C30.5106 37.0515 30.8495 36.453 31.3558 36.0155C31.8805 35.5622 32.5502 35.3118 33.2437 35.3098H51.7542C52.4476 35.3118 53.1174 35.5622 53.6421 36.0155Z" stroke="url(#paint7_linear_1_3554)" stroke-width="0.228"/>
</g>
<g filter="url(#filter3_d_1_3554)">
<path d="M42.9429 47.3393C42.8105 47.4249 42.6563 47.4704 42.4986 47.4704C42.341 47.4704 42.1867 47.4249 42.0543 47.3393L30.2246 39.6852V51.816C30.2255 52.6163 30.5438 53.3836 31.1097 53.9495C31.6756 54.5154 32.4429 54.8337 33.2432 54.8346H51.754C52.5543 54.8337 53.3216 54.5154 53.8875 53.9495C54.4534 53.3836 54.7717 52.6163 54.7726 51.816V39.6844L42.9429 47.3393Z" fill="url(#paint8_linear_1_3554)"/>
<path d="M43.0048 47.435L43.0049 47.435L54.6586 39.8939V51.8159C54.6578 52.586 54.3515 53.3243 53.8069 53.8689C53.2624 54.4135 52.524 54.7198 51.7539 54.7206H33.2433C32.4732 54.7198 31.7349 54.4135 31.1903 53.8689C30.6457 53.3243 30.3394 52.586 30.3386 51.8159L30.3386 39.8947L41.9924 47.435L41.9924 47.435C42.1432 47.5325 42.319 47.5844 42.4986 47.5844C42.6782 47.5844 42.854 47.5325 43.0048 47.435Z" stroke="white" stroke-width="0.228"/>
</g>
<g clip-path="url(#clip1_1_3554)">
<path d="M43.0048 47.4342L43.0049 47.4342L54.6586 39.8931V51.8151C54.6578 52.5852 54.3515 53.3236 53.8069 53.8681C53.2624 54.4127 52.524 54.719 51.7539 54.7198H33.2433C32.4732 54.719 31.7349 54.4127 31.1903 53.8681C30.6457 53.3236 30.3394 52.5852 30.3386 51.8151L30.3386 39.894L41.9924 47.4342L41.9924 47.4342C42.1432 47.5317 42.319 47.5836 42.4986 47.5836C42.6782 47.5836 42.854 47.5317 43.0048 47.4342Z" fill="url(#paint9_linear_1_3554)" stroke="white" stroke-width="0.228"/>
</g>
</g>
<defs>
<filter id="filter0_f_1_3554" x="20.5371" y="61" width="42.5" height="12.5" filterUnits="userSpaceOnUse" color-interpolation-filters="sRGB">
<feFlood flood-opacity="0" result="BackgroundImageFix"/>
<feBlend mode="normal" in="SourceGraphic" in2="BackgroundImageFix" result="shape"/>
<feGaussianBlur stdDeviation="1.5" result="effect1_foregroundBlur_1_3554"/>
</filter>
<filter id="filter1_i_1_3554" x="25.536" y="27.9988" width="34.0011" height="34.2732" filterUnits="userSpaceOnUse" color-interpolation-filters="sRGB">
<feFlood flood-opacity="0" result="BackgroundImageFix"/>
<feBlend mode="normal" in="SourceGraphic" in2="BackgroundImageFix" result="shape"/>
<feColorMatrix in="SourceAlpha" type="matrix" values="0 0 0 0 0 0 0 0 0 0 0 0 0 0 0 0 0 0 127 0" result="hardAlpha"/>
<feOffset dy="0.272009"/>
<feGaussianBlur stdDeviation="0.993135"/>
<feComposite in2="hardAlpha" operator="arithmetic" k2="-1" k3="1"/>
<feColorMatrix type="matrix" values="0 0 0 0 1 0 0 0 0 1 0 0 0 0 1 0 0 0 0.65 0"/>
<feBlend mode="normal" in2="shape" result="effect1_innerShadow_1_3554"/>
</filter>
<filter id="filter2_d_1_3554" x="28.4468" y="34.4358" width="28.1043" height="14.1292" filterUnits="userSpaceOnUse" color-interpolation-filters="sRGB">
<feFlood flood-opacity="0" result="BackgroundImageFix"/>
<feColorMatrix in="SourceAlpha" type="matrix" values="0 0 0 0 0 0 0 0 0 0 0 0 0 0 0 0 0 0 127 0" result="hardAlpha"/>
<feOffset dy="1.064"/>
<feGaussianBlur stdDeviation="0.912"/>
<feComposite in2="hardAlpha" operator="out"/>
<feColorMatrix type="matrix" values="0 0 0 0 0 0 0 0 0 0 0 0 0 0 0 0 0 0 0.35 0"/>
<feBlend mode="normal" in2="BackgroundImageFix" result="effect1_dropShadow_1_3554"/>
<feBlend mode="normal" in="SourceGraphic" in2="effect1_dropShadow_1_3554" result="shape"/>
</filter>
<filter id="filter3_d_1_3554" x="28.4006" y="38.9244" width="28.196" height="18.7982" filterUnits="userSpaceOnUse" color-interpolation-filters="sRGB">
<feFlood flood-opacity="0" result="BackgroundImageFix"/>
<feColorMatrix in="SourceAlpha" type="matrix" values="0 0 0 0 0 0 0 0 0 0 0 0 0 0 0 0 0 0 127 0" result="hardAlpha"/>
<feOffset dy="1.064"/>
<feGaussianBlur stdDeviation="0.912"/>
<feComposite in2="hardAlpha" operator="out"/>
<feColorMatrix type="matrix" values="0 0 0 0 0 0 0 0 0 0 0 0 0 0 0 0 0 0 0.35 0"/>
<feBlend mode="normal" in2="BackgroundImageFix" result="effect1_dropShadow_1_3554"/>
<feBlend mode="normal" in="SourceGraphic" in2="effect1_dropShadow_1_3554" result="shape"/>
</filter>
<linearGradient id="paint0_linear_1_3554" x1="24.1329" y1="-13" x2="24.1329" y2="88" gradientUnits="userSpaceOnUse">
<stop stop-color="white"/>
<stop offset="1" stop-color="white" stop-opacity="0"/>
</linearGradient>
<linearGradient id="paint1_linear_1_3554" x1="24.1329" y1="-13" x2="24.1329" y2="66" gradientUnits="userSpaceOnUse">
<stop stop-color="white"/>
<stop offset="1" stop-color="white" stop-opacity="0"/>
</linearGradient>
<linearGradient id="paint2_linear_1_3554" x1="45.8971" y1="64" x2="45.8971" y2="70" gradientUnits="userSpaceOnUse">
<stop stop-color="#FFF78B"/>
<stop offset="1" stop-color="#F46932"/>
</linearGradient>
<radialGradient id="paint3_radial_1_3554" cx="0" cy="0" r="1" gradientUnits="userSpaceOnUse" gradientTransform="translate(42.5366 30.3171) rotate(-90) scale(11.1698 24.5159)">
<stop stop-color="white"/>
<stop offset="1" stop-color="white" stop-opacity="0"/>
</radialGradient>
<radialGradient id="paint4_radial_1_3554" cx="0" cy="0" r="1" gradientUnits="userSpaceOnUse" gradientTransform="translate(42.5366 63.3699) rotate(-90) scale(3.68814 16.5196)">
<stop stop-color="white"/>
<stop offset="1" stop-color="white" stop-opacity="0"/>
</radialGradient>
<radialGradient id="paint5_radial_1_3554" cx="0" cy="0" r="1" gradientUnits="userSpaceOnUse" gradientTransform="translate(42.5366 62) rotate(-90) scale(6.77916 30.3645)">
<stop stop-color="white"/>
<stop offset="1" stop-color="white" stop-opacity="0"/>
</radialGradient>
<radialGradient id="paint6_radial_1_3554" cx="0" cy="0" r="1" gradientUnits="userSpaceOnUse" gradientTransform="translate(42.537 46.5008) rotate(90) scale(18)">
<stop offset="0.445" stop-color="#FEEF7E"/>
<stop offset="0.875" stop-color="#FEEF7E" stop-opacity="0"/>
</radialGradient>
<linearGradient id="paint7_linear_1_3554" x1="42.4989" y1="35.1958" x2="42.4989" y2="45.677" gradientUnits="userSpaceOnUse">
<stop stop-color="white"/>
<stop offset="1" stop-color="#999999"/>
</linearGradient>
<linearGradient id="paint8_linear_1_3554" x1="42.4986" y1="39.6844" x2="42.4986" y2="66.0008" gradientUnits="userSpaceOnUse">
<stop offset="0.232982" stop-color="#FFE3B5"/>
<stop offset="1" stop-color="#F15729"/>
</linearGradient>
<linearGradient id="paint9_linear_1_3554" x1="42.4986" y1="39.6836" x2="42.4986" y2="66" gradientUnits="userSpaceOnUse">
<stop stop-color="#FFE3B5"/>
<stop offset="0.8" stop-color="#F15729"/>
</linearGradient>
<clipPath id="clip0_1_3554">
<rect width="62" height="76" fill="white"/>
</clipPath>
<clipPath id="clip1_1_3554">
<rect width="12" height="15" fill="white" transform="translate(30.5371 40)"/>
</clipPath>
</defs>
</svg>
