<svg width="212" height="212" viewBox="0 0 212 212" fill="none" xmlns="http://www.w3.org/2000/svg">
<g filter="url(#filter0_b_347_36)">
<circle cx="106" cy="106" r="105.5" stroke="url(#paint0_linear_347_36)" stroke-dasharray="5 5"/>
</g>
<g filter="url(#filter1_b_347_36)">
<path d="M145.925 90C139.577 74.1752 124.094 63 106 63C87.9065 63 72.423 74.1752 66.0753 90M145.721 122.5C139.25 138.06 123.902 149 106 149C88.0976 149 72.7504 138.06 66.2796 122.5" stroke="url(#paint1_linear_347_36)" stroke-dasharray="5 5"/>
</g>
<path d="M150.789 122.912V121.708H151.867C152.184 121.708 152.45 121.666 152.665 121.582C152.889 121.507 153.071 121.377 153.211 121.19C153.36 121.003 153.482 120.756 153.575 120.448L155.927 112.524H157.243L154.751 120.798C154.602 121.293 154.392 121.694 154.121 122.002C153.85 122.319 153.519 122.548 153.127 122.688C152.744 122.837 152.296 122.912 151.783 122.912H150.789ZM153.071 119.832V118.712H154.695V119.832H153.071ZM152.931 119.832L150.257 112.524H151.629L154.191 119.832H152.931Z" fill="white"/>
<path d="M145.953 120.252C145.3 120.252 144.735 120.14 144.259 119.916C143.783 119.692 143.396 119.398 143.097 119.034C142.799 118.661 142.575 118.245 142.425 117.788C142.285 117.331 142.215 116.864 142.215 116.388V116.136C142.215 115.651 142.285 115.179 142.425 114.722C142.575 114.265 142.799 113.854 143.097 113.49C143.396 113.117 143.774 112.823 144.231 112.608C144.698 112.384 145.244 112.272 145.869 112.272C146.681 112.272 147.349 112.449 147.871 112.804C148.403 113.149 148.795 113.597 149.047 114.148C149.309 114.699 149.439 115.287 149.439 115.912V116.514H142.803V115.506H148.459L148.151 116.052C148.151 115.52 148.067 115.063 147.899 114.68C147.731 114.288 147.479 113.985 147.143 113.77C146.807 113.555 146.383 113.448 145.869 113.448C145.337 113.448 144.894 113.569 144.539 113.812C144.194 114.055 143.933 114.386 143.755 114.806C143.587 115.226 143.503 115.711 143.503 116.262C143.503 116.794 143.587 117.275 143.755 117.704C143.933 118.124 144.203 118.46 144.567 118.712C144.931 118.955 145.393 119.076 145.953 119.076C146.541 119.076 147.017 118.945 147.381 118.684C147.755 118.423 147.979 118.119 148.053 117.774H149.313C149.211 118.287 149.005 118.731 148.697 119.104C148.389 119.477 148.002 119.762 147.535 119.958C147.069 120.154 146.541 120.252 145.953 120.252Z" fill="white"/>
<path d="M133.82 120V112.524H134.884V115.73H134.716C134.716 114.993 134.814 114.372 135.01 113.868C135.216 113.355 135.524 112.967 135.934 112.706C136.345 112.435 136.863 112.3 137.488 112.3H137.544C138.487 112.3 139.182 112.594 139.63 113.182C140.088 113.77 140.316 114.619 140.316 115.73V120H138.972V115.45C138.972 114.871 138.809 114.409 138.482 114.064C138.156 113.709 137.708 113.532 137.138 113.532C136.55 113.532 136.074 113.714 135.71 114.078C135.346 114.442 135.164 114.927 135.164 115.534V120H133.82Z" fill="white"/>
<path d="M128.078 120V112.524H129.142V115.604H129.086C129.086 114.512 129.324 113.714 129.8 113.21C130.285 112.697 131.009 112.44 131.97 112.44H132.222V113.644H131.746C130.999 113.644 130.425 113.845 130.024 114.246C129.623 114.638 129.422 115.207 129.422 115.954V120H128.078Z" fill="white"/>
<path d="M121.877 120.224C120.99 120.224 120.309 119.935 119.833 119.356C119.357 118.777 119.119 117.942 119.119 116.85V112.51H120.463V117.116C120.463 117.704 120.622 118.166 120.939 118.502C121.256 118.829 121.686 118.992 122.227 118.992C122.787 118.992 123.244 118.815 123.599 118.46C123.954 118.096 124.131 117.601 124.131 116.976V112.51H125.475V120H124.411V116.794H124.579C124.579 117.531 124.481 118.157 124.285 118.67C124.089 119.174 123.795 119.561 123.403 119.832C123.02 120.093 122.53 120.224 121.933 120.224H121.877Z" fill="white"/>
<path d="M113.27 120.252C112.617 120.252 112.043 120.14 111.548 119.916C111.053 119.692 110.633 119.398 110.288 119.034C109.952 118.661 109.695 118.245 109.518 117.788C109.35 117.331 109.266 116.864 109.266 116.388V116.136C109.266 115.66 109.355 115.193 109.532 114.736C109.709 114.269 109.971 113.854 110.316 113.49C110.661 113.117 111.081 112.823 111.576 112.608C112.071 112.384 112.635 112.272 113.27 112.272C113.905 112.272 114.469 112.384 114.964 112.608C115.459 112.823 115.879 113.117 116.224 113.49C116.569 113.854 116.831 114.269 117.008 114.736C117.185 115.193 117.274 115.66 117.274 116.136V116.388C117.274 116.864 117.185 117.331 117.008 117.788C116.84 118.245 116.583 118.661 116.238 119.034C115.902 119.398 115.487 119.692 114.992 119.916C114.497 120.14 113.923 120.252 113.27 120.252ZM113.27 119.048C113.83 119.048 114.306 118.927 114.698 118.684C115.099 118.432 115.403 118.096 115.608 117.676C115.823 117.256 115.93 116.785 115.93 116.262C115.93 115.73 115.823 115.254 115.608 114.834C115.393 114.414 115.085 114.083 114.684 113.84C114.292 113.597 113.821 113.476 113.27 113.476C112.729 113.476 112.257 113.597 111.856 113.84C111.455 114.083 111.147 114.414 110.932 114.834C110.717 115.254 110.61 115.73 110.61 116.262C110.61 116.785 110.713 117.256 110.918 117.676C111.133 118.096 111.436 118.432 111.828 118.684C112.229 118.927 112.71 119.048 113.27 119.048Z" fill="white"/>
<path d="M104.067 122.856V121.652H104.851C105.205 121.652 105.476 121.554 105.663 121.358C105.859 121.162 105.957 120.891 105.957 120.546V112.524H107.245V120.35C107.245 120.975 107.156 121.47 106.979 121.834C106.811 122.198 106.535 122.459 106.153 122.618C105.779 122.777 105.28 122.856 104.655 122.856H104.067ZM104.781 113.588V112.524H107.245V113.588H104.781ZM106.279 111.208C105.98 111.208 105.756 111.129 105.607 110.97C105.467 110.811 105.397 110.611 105.397 110.368C105.397 110.125 105.467 109.925 105.607 109.766C105.756 109.607 105.98 109.528 106.279 109.528C106.577 109.528 106.797 109.607 106.937 109.766C107.086 109.925 107.161 110.125 107.161 110.368C107.161 110.611 107.086 110.811 106.937 110.97C106.797 111.129 106.577 111.208 106.279 111.208Z" fill="white"/>
<path d="M98.2753 120V109.78H99.6193V120H98.2753ZM97.2393 110.844V109.78H99.6193V110.844H97.2393Z" fill="white"/>
<path d="M94.6605 120V117.76H94.4365V115.17C94.4365 114.657 94.3012 114.269 94.0305 114.008C93.7692 113.747 93.3818 113.616 92.8685 113.616C92.5792 113.616 92.2805 113.621 91.9725 113.63C91.6645 113.639 91.3705 113.649 91.0905 113.658C90.8105 113.667 90.5678 113.681 90.3625 113.7V112.524C90.5678 112.505 90.7825 112.491 91.0065 112.482C91.2398 112.463 91.4778 112.454 91.7205 112.454C91.9632 112.445 92.1965 112.44 92.4205 112.44C93.1858 112.44 93.8112 112.533 94.2965 112.72C94.7818 112.897 95.1412 113.191 95.3745 113.602C95.6078 114.013 95.7245 114.568 95.7245 115.268V120H94.6605ZM92.2105 120.196C91.6505 120.196 91.1652 120.103 90.7545 119.916C90.3532 119.72 90.0405 119.44 89.8165 119.076C89.6018 118.712 89.4945 118.273 89.4945 117.76C89.4945 117.228 89.6112 116.785 89.8445 116.43C90.0872 116.075 90.4372 115.809 90.8945 115.632C91.3518 115.445 91.9025 115.352 92.5465 115.352H94.5765V116.36H92.4905C91.9492 116.36 91.5338 116.491 91.2445 116.752C90.9552 117.013 90.8105 117.349 90.8105 117.76C90.8105 118.171 90.9552 118.502 91.2445 118.754C91.5338 119.006 91.9492 119.132 92.4905 119.132C92.8078 119.132 93.1112 119.076 93.4005 118.964C93.6898 118.843 93.9278 118.647 94.1145 118.376C94.3105 118.096 94.4178 117.713 94.4365 117.228L94.8005 117.76C94.7538 118.292 94.6232 118.74 94.4085 119.104C94.2032 119.459 93.9138 119.729 93.5405 119.916C93.1765 120.103 92.7332 120.196 92.2105 120.196Z" fill="white"/>
<path d="M84.4237 120V112.524H85.4877V115.604H85.4317C85.4317 114.512 85.6697 113.714 86.1457 113.21C86.631 112.697 87.3544 112.44 88.3157 112.44H88.5677V113.644H88.0917C87.345 113.644 86.771 113.845 86.3697 114.246C85.9684 114.638 85.7677 115.207 85.7677 115.954V120H84.4237Z" fill="white"/>
<path d="M78.6815 120V112.524H79.7455V115.604H79.6895C79.6895 114.512 79.9275 113.714 80.4035 113.21C80.8888 112.697 81.6122 112.44 82.5735 112.44H82.8255V113.644H82.3495C81.6029 113.644 81.0289 113.845 80.6275 114.246C80.2262 114.638 80.0255 115.207 80.0255 115.954V120H78.6815Z" fill="white"/>
<path d="M73.2872 120.252C72.6339 120.252 72.0692 120.14 71.5932 119.916C71.1172 119.692 70.7299 119.398 70.4312 119.034C70.1325 118.661 69.9085 118.245 69.7592 117.788C69.6192 117.331 69.5492 116.864 69.5492 116.388V116.136C69.5492 115.651 69.6192 115.179 69.7592 114.722C69.9085 114.265 70.1325 113.854 70.4312 113.49C70.7299 113.117 71.1079 112.823 71.5652 112.608C72.0319 112.384 72.5779 112.272 73.2032 112.272C74.0152 112.272 74.6825 112.449 75.2052 112.804C75.7372 113.149 76.1292 113.597 76.3812 114.148C76.6425 114.699 76.7732 115.287 76.7732 115.912V116.514H70.1372V115.506H75.7932L75.4852 116.052C75.4852 115.52 75.4012 115.063 75.2332 114.68C75.0652 114.288 74.8132 113.985 74.4772 113.77C74.1412 113.555 73.7165 113.448 73.2032 113.448C72.6712 113.448 72.2279 113.569 71.8732 113.812C71.5279 114.055 71.2665 114.386 71.0892 114.806C70.9212 115.226 70.8372 115.711 70.8372 116.262C70.8372 116.794 70.9212 117.275 71.0892 117.704C71.2665 118.124 71.5372 118.46 71.9012 118.712C72.2652 118.955 72.7272 119.076 73.2872 119.076C73.8752 119.076 74.3512 118.945 74.7152 118.684C75.0885 118.423 75.3125 118.119 75.3872 117.774H76.6472C76.5445 118.287 76.3392 118.731 76.0312 119.104C75.7232 119.477 75.3359 119.762 74.8692 119.958C74.4025 120.154 73.8752 120.252 73.2872 120.252Z" fill="white"/>
<path d="M65.0553 120V112.146C65.0553 111.315 65.2746 110.704 65.7133 110.312C66.152 109.92 66.796 109.724 67.6453 109.724H68.5693V110.844H67.4213C67.076 110.844 66.81 110.942 66.6233 111.138C66.4366 111.325 66.3433 111.586 66.3433 111.922V120H65.0553ZM64.0193 113.616V112.608H68.7093V113.616H64.0193Z" fill="white"/>
<path d="M59.4649 120.252C58.8116 120.252 58.2469 120.14 57.7709 119.916C57.2949 119.692 56.9076 119.398 56.6089 119.034C56.3103 118.661 56.0863 118.245 55.9369 117.788C55.7969 117.331 55.7269 116.864 55.7269 116.388V116.136C55.7269 115.651 55.7969 115.179 55.9369 114.722C56.0863 114.265 56.3103 113.854 56.6089 113.49C56.9076 113.117 57.2856 112.823 57.7429 112.608C58.2096 112.384 58.7556 112.272 59.3809 112.272C60.1929 112.272 60.8603 112.449 61.3829 112.804C61.9149 113.149 62.3069 113.597 62.5589 114.148C62.8203 114.699 62.9509 115.287 62.9509 115.912V116.514H56.3149V115.506H61.9709L61.6629 116.052C61.6629 115.52 61.5789 115.063 61.4109 114.68C61.2429 114.288 60.9909 113.985 60.6549 113.77C60.3189 113.555 59.8943 113.448 59.3809 113.448C58.8489 113.448 58.4056 113.569 58.0509 113.812C57.7056 114.055 57.4443 114.386 57.2669 114.806C57.0989 115.226 57.0149 115.711 57.0149 116.262C57.0149 116.794 57.0989 117.275 57.2669 117.704C57.4443 118.124 57.7149 118.46 58.0789 118.712C58.4429 118.955 58.9049 119.076 59.4649 119.076C60.0529 119.076 60.5289 118.945 60.8929 118.684C61.2663 118.423 61.4903 118.119 61.5649 117.774H62.8249C62.7223 118.287 62.5169 118.731 62.2089 119.104C61.9009 119.477 61.5136 119.762 61.0469 119.958C60.5803 120.154 60.0529 120.252 59.4649 120.252Z" fill="white"/>
<path d="M50.6268 120V112.524H51.6908V115.604H51.6348C51.6348 114.512 51.8728 113.714 52.3488 113.21C52.8342 112.697 53.5575 112.44 54.5188 112.44H54.7708V113.644H54.2948C53.5482 113.644 52.9742 113.845 52.5728 114.246C52.1715 114.638 51.9708 115.207 51.9708 115.954V120H50.6268Z" fill="white"/>
<path d="M167.624 102V94.5239H168.688V97.6039H168.632C168.632 96.5119 168.87 95.7139 169.346 95.2099C169.831 94.6966 170.555 94.4399 171.516 94.4399H171.768V95.6439H171.292C170.545 95.6439 169.971 95.8446 169.57 96.2459C169.169 96.6379 168.968 97.2073 168.968 97.9539V102H167.624Z" fill="white"/>
<path d="M161.423 102.224C160.536 102.224 159.855 101.935 159.379 101.356C158.903 100.777 158.665 99.942 158.665 98.85V94.51H160.009V99.116C160.009 99.704 160.168 100.166 160.485 100.502C160.802 100.829 161.232 100.992 161.773 100.992C162.333 100.992 162.79 100.815 163.145 100.46C163.5 100.096 163.677 99.6013 163.677 98.976V94.51H165.021V102H163.957V98.794H164.125C164.125 99.5313 164.027 100.157 163.831 100.67C163.635 101.174 163.341 101.561 162.949 101.832C162.566 102.093 162.076 102.224 161.479 102.224H161.423Z" fill="white"/>
<path d="M152.816 102.252C152.163 102.252 151.589 102.14 151.094 101.916C150.599 101.692 150.179 101.398 149.834 101.034C149.498 100.661 149.241 100.245 149.064 99.788C148.896 99.3306 148.812 98.864 148.812 98.388V98.136C148.812 97.66 148.901 97.1933 149.078 96.736C149.255 96.2693 149.517 95.854 149.862 95.49C150.207 95.1166 150.627 94.8226 151.122 94.608C151.617 94.384 152.181 94.272 152.816 94.272C153.451 94.272 154.015 94.384 154.51 94.608C155.005 94.8226 155.425 95.1166 155.77 95.49C156.115 95.854 156.377 96.2693 156.554 96.736C156.731 97.1933 156.82 97.66 156.82 98.136V98.388C156.82 98.864 156.731 99.3306 156.554 99.788C156.386 100.245 156.129 100.661 155.784 101.034C155.448 101.398 155.033 101.692 154.538 101.916C154.043 102.14 153.469 102.252 152.816 102.252ZM152.816 101.048C153.376 101.048 153.852 100.927 154.244 100.684C154.645 100.432 154.949 100.096 155.154 99.676C155.369 99.256 155.476 98.7846 155.476 98.262C155.476 97.73 155.369 97.254 155.154 96.834C154.939 96.414 154.631 96.0826 154.23 95.84C153.838 95.5973 153.367 95.476 152.816 95.476C152.275 95.476 151.803 95.5973 151.402 95.84C151.001 96.0826 150.693 96.414 150.478 96.834C150.263 97.254 150.156 97.73 150.156 98.262C150.156 98.7846 150.259 99.256 150.464 99.676C150.679 100.096 150.982 100.432 151.374 100.684C151.775 100.927 152.256 101.048 152.816 101.048Z" fill="white"/>
<path d="M141.348 104.912V103.708H142.426C142.744 103.708 143.01 103.666 143.224 103.582C143.448 103.507 143.63 103.377 143.77 103.19C143.92 103.003 144.041 102.756 144.134 102.448L146.486 94.5239H147.802L145.31 102.798C145.161 103.293 144.951 103.694 144.68 104.002C144.41 104.319 144.078 104.548 143.686 104.688C143.304 104.837 142.856 104.912 142.342 104.912H141.348ZM143.63 101.832V100.712H145.254V101.832H143.63ZM143.49 101.832L140.816 94.5239H142.188L144.75 101.832H143.49Z" fill="white"/>
<path d="M129.712 102V94.524H130.776V97.73H130.608C130.608 96.9927 130.706 96.372 130.902 95.868C131.107 95.3547 131.415 94.9674 131.826 94.706C132.236 94.4354 132.754 94.3 133.38 94.3H133.436C134.378 94.3 135.074 94.594 135.522 95.182C135.979 95.77 136.208 96.6194 136.208 97.73V102H134.864V97.45C134.864 96.8714 134.7 96.4094 134.374 96.064C134.047 95.7094 133.599 95.532 133.03 95.532C132.442 95.532 131.966 95.714 131.602 96.078C131.238 96.442 131.056 96.9274 131.056 97.534V102H129.712Z" fill="white"/>
<path d="M123.695 102.252C123.042 102.252 122.468 102.14 121.973 101.916C121.478 101.692 121.058 101.398 120.713 101.034C120.377 100.661 120.12 100.245 119.943 99.788C119.775 99.3306 119.691 98.864 119.691 98.388V98.136C119.691 97.66 119.78 97.1933 119.957 96.736C120.134 96.2693 120.396 95.854 120.741 95.49C121.086 95.1166 121.506 94.8226 122.001 94.608C122.496 94.384 123.06 94.272 123.695 94.272C124.33 94.272 124.894 94.384 125.389 94.608C125.884 94.8226 126.304 95.1166 126.649 95.49C126.994 95.854 127.256 96.2693 127.433 96.736C127.61 97.1933 127.699 97.66 127.699 98.136V98.388C127.699 98.864 127.61 99.3306 127.433 99.788C127.265 100.245 127.008 100.661 126.663 101.034C126.327 101.398 125.912 101.692 125.417 101.916C124.922 102.14 124.348 102.252 123.695 102.252ZM123.695 101.048C124.255 101.048 124.731 100.927 125.123 100.684C125.524 100.432 125.828 100.096 126.033 99.676C126.248 99.256 126.355 98.7846 126.355 98.262C126.355 97.73 126.248 97.254 126.033 96.834C125.818 96.414 125.51 96.0826 125.109 95.84C124.717 95.5973 124.246 95.476 123.695 95.476C123.154 95.476 122.682 95.5973 122.281 95.84C121.88 96.0826 121.572 96.414 121.357 96.834C121.142 97.254 121.035 97.73 121.035 98.262C121.035 98.7846 121.138 99.256 121.343 99.676C121.558 100.096 121.861 100.432 122.253 100.684C122.654 100.927 123.135 101.048 123.695 101.048Z" fill="white"/>
<path d="M110.535 102.252C110.003 102.252 109.513 102.154 109.065 101.958C108.617 101.762 108.225 101.487 107.889 101.132C107.562 100.777 107.306 100.367 107.119 99.9C106.942 99.4334 106.853 98.9294 106.853 98.388V98.136C106.853 97.604 106.942 97.1047 107.119 96.638C107.296 96.1714 107.544 95.7607 107.861 95.406C108.188 95.0514 108.57 94.776 109.009 94.58C109.457 94.3747 109.952 94.272 110.493 94.272C111.062 94.272 111.58 94.3934 112.047 94.636C112.514 94.8694 112.896 95.238 113.195 95.742C113.494 96.246 113.662 96.8994 113.699 97.702L113.139 96.806V91.78H114.483V102H113.419V98.682H113.811C113.774 99.5314 113.596 100.222 113.279 100.754C112.962 101.277 112.56 101.659 112.075 101.902C111.599 102.135 111.086 102.252 110.535 102.252ZM110.717 101.076C111.174 101.076 111.59 100.973 111.963 100.768C112.336 100.563 112.635 100.269 112.859 99.886C113.083 99.494 113.195 99.0367 113.195 98.514V97.87C113.195 97.3567 113.078 96.9227 112.845 96.568C112.621 96.204 112.318 95.9287 111.935 95.742C111.562 95.546 111.151 95.448 110.703 95.448C110.208 95.448 109.77 95.5647 109.387 95.798C109.014 96.0314 108.72 96.358 108.505 96.778C108.3 97.198 108.197 97.6927 108.197 98.262C108.197 98.8314 108.304 99.3307 108.519 99.76C108.734 100.18 109.032 100.507 109.415 100.74C109.798 100.964 110.232 101.076 110.717 101.076Z" fill="white"/>
<path d="M102.019 102.252C101.365 102.252 100.801 102.14 100.325 101.916C99.8486 101.692 99.4613 101.398 99.1626 101.034C98.864 100.661 98.64 100.245 98.4906 99.788C98.3506 99.3306 98.2806 98.864 98.2806 98.388V98.136C98.2806 97.6506 98.3506 97.1793 98.4906 96.722C98.64 96.2646 98.864 95.854 99.1626 95.49C99.4613 95.1166 99.8393 94.8226 100.297 94.608C100.763 94.384 101.309 94.272 101.935 94.272C102.747 94.272 103.414 94.4493 103.937 94.804C104.469 95.1493 104.861 95.5973 105.113 96.148C105.374 96.6986 105.505 97.2866 105.505 97.912V98.514H98.8686V97.506H104.525L104.217 98.052C104.217 97.52 104.133 97.0626 103.965 96.68C103.797 96.288 103.545 95.9846 103.209 95.77C102.873 95.5553 102.448 95.448 101.935 95.448C101.403 95.448 100.959 95.5693 100.605 95.812C100.259 96.0546 99.998 96.386 99.8206 96.806C99.6526 97.226 99.5686 97.7113 99.5686 98.262C99.5686 98.794 99.6526 99.2746 99.8206 99.704C99.998 100.124 100.269 100.46 100.633 100.712C100.997 100.955 101.459 101.076 102.019 101.076C102.607 101.076 103.083 100.945 103.447 100.684C103.82 100.423 104.044 100.119 104.119 99.774H105.379C105.276 100.287 105.071 100.731 104.763 101.104C104.455 101.477 104.067 101.762 103.601 101.958C103.134 102.154 102.607 102.252 102.019 102.252Z" fill="white"/>
<path d="M95.8464 102.084C95.2864 102.084 94.8011 102.005 94.3904 101.846C93.9891 101.687 93.6764 101.417 93.4524 101.034C93.2377 100.642 93.1304 100.115 93.1304 99.452V92.256H94.4184V99.62C94.4184 100.021 94.5257 100.334 94.7404 100.558C94.9644 100.773 95.2771 100.88 95.6784 100.88H96.9944V102.084H95.8464ZM91.8424 95.532V94.524H96.9944V95.532H91.8424Z" fill="white"/>
<path d="M87.0555 102V94.5239H88.1195V97.6039H88.0635C88.0635 96.5119 88.3015 95.7139 88.7775 95.2099C89.2629 94.6966 89.9862 94.4399 90.9475 94.4399H91.1995V95.6439H90.7235C89.9769 95.6439 89.4029 95.8446 89.0015 96.2459C88.6002 96.6379 88.3995 97.2073 88.3995 97.9539V102H87.0555Z" fill="white"/>
<path d="M83.5248 102V99.7599H83.3008V97.1699C83.3008 96.6566 83.1654 96.2693 82.8948 96.0079C82.6334 95.7466 82.2461 95.6159 81.7328 95.6159C81.4434 95.6159 81.1448 95.6206 80.8368 95.6299C80.5288 95.6393 80.2348 95.6486 79.9548 95.6579C79.6748 95.6673 79.4321 95.6813 79.2268 95.6999V94.5239C79.4321 94.5053 79.6468 94.4913 79.8708 94.4819C80.1041 94.4633 80.3421 94.4539 80.5848 94.4539C80.8274 94.4446 81.0608 94.4399 81.2848 94.4399C82.0501 94.4399 82.6754 94.5333 83.1608 94.7199C83.6461 94.8973 84.0054 95.1913 84.2388 95.6019C84.4721 96.0126 84.5888 96.5679 84.5888 97.2679V102H83.5248ZM81.0748 102.196C80.5148 102.196 80.0294 102.103 79.6188 101.916C79.2174 101.72 78.9048 101.44 78.6808 101.076C78.4661 100.712 78.3588 100.273 78.3588 99.7599C78.3588 99.2279 78.4754 98.7846 78.7088 98.4299C78.9514 98.0753 79.3014 97.8093 79.7588 97.6319C80.2161 97.4453 80.7668 97.3519 81.4108 97.3519H83.4408V98.3599H81.3548C80.8134 98.3599 80.3981 98.4906 80.1088 98.7519C79.8194 99.0133 79.6748 99.3493 79.6748 99.7599C79.6748 100.171 79.8194 100.502 80.1088 100.754C80.3981 101.006 80.8134 101.132 81.3548 101.132C81.6721 101.132 81.9754 101.076 82.2648 100.964C82.5541 100.843 82.7921 100.647 82.9788 100.376C83.1748 100.096 83.2821 99.7133 83.3008 99.2279L83.6648 99.7599C83.6181 100.292 83.4874 100.74 83.2728 101.104C83.0674 101.459 82.7781 101.729 82.4048 101.916C82.0408 102.103 81.5974 102.196 81.0748 102.196Z" fill="white"/>
<path d="M75.9812 102.084C75.4212 102.084 74.9358 102.005 74.5252 101.846C74.1238 101.687 73.8112 101.417 73.5872 101.034C73.3725 100.642 73.2652 100.115 73.2652 99.452V92.256H74.5532V99.62C74.5532 100.021 74.6605 100.334 74.8752 100.558C75.0992 100.773 75.4118 100.88 75.8132 100.88H77.1292V102.084H75.9812ZM71.9772 95.532V94.524H77.1292V95.532H71.9772Z" fill="white"/>
<path d="M68.0133 102.224C67.0333 102.224 66.2726 102.014 65.7313 101.594C65.1993 101.174 64.9239 100.6 64.9053 99.872H66.1653C66.1839 100.161 66.3286 100.437 66.5993 100.698C66.8793 100.95 67.3506 101.076 68.0133 101.076C68.6106 101.076 69.0679 100.959 69.3853 100.726C69.7026 100.483 69.8613 100.189 69.8613 99.844C69.8613 99.536 69.7446 99.298 69.5113 99.13C69.2779 98.9527 68.8999 98.836 68.3773 98.78L67.5653 98.696C66.8559 98.6214 66.2773 98.4114 65.8293 98.066C65.3813 97.7114 65.1573 97.2167 65.1573 96.582C65.1573 96.106 65.2786 95.7 65.5213 95.364C65.7639 95.0187 66.0999 94.7574 66.5293 94.58C66.9586 94.3934 67.4533 94.3 68.0133 94.3C68.8533 94.3 69.5346 94.4867 70.0573 94.86C70.5799 95.2334 70.8506 95.7887 70.8693 96.526H69.6093C69.5999 96.2274 69.4599 95.9754 69.1893 95.77C68.9279 95.5554 68.5359 95.448 68.0133 95.448C67.4906 95.448 67.0939 95.5554 66.8233 95.77C66.5526 95.9847 66.4173 96.2554 66.4173 96.582C66.4173 96.862 66.5106 97.086 66.6973 97.254C66.8933 97.422 67.2106 97.5294 67.6493 97.576L68.4613 97.66C69.2639 97.744 69.9079 97.968 70.3933 98.332C70.8786 98.6867 71.1213 99.1907 71.1213 99.844C71.1213 100.311 70.9859 100.726 70.7153 101.09C70.4539 101.445 70.0899 101.725 69.6233 101.93C69.1566 102.126 68.6199 102.224 68.0133 102.224Z" fill="white"/>
<path d="M59.3288 102.084C58.7688 102.084 58.2835 102.005 57.8728 101.846C57.4715 101.687 57.1588 101.417 56.9348 101.034C56.7202 100.642 56.6128 100.115 56.6128 99.452V92.256H57.9008V99.62C57.9008 100.021 58.0082 100.334 58.2228 100.558C58.4468 100.773 58.7595 100.88 59.1608 100.88H60.4768V102.084H59.3288ZM55.3248 95.532V94.524H60.4768V95.532H55.3248Z" fill="white"/>
<path d="M51.0225 102.252C50.3692 102.252 49.8045 102.14 49.3285 101.916C48.8525 101.692 48.4652 101.398 48.1665 101.034C47.8679 100.661 47.6439 100.245 47.4945 99.788C47.3545 99.3306 47.2845 98.864 47.2845 98.388V98.136C47.2845 97.6506 47.3545 97.1793 47.4945 96.722C47.6439 96.2646 47.8679 95.854 48.1665 95.49C48.4652 95.1166 48.8432 94.8226 49.3005 94.608C49.7672 94.384 50.3132 94.272 50.9385 94.272C51.7505 94.272 52.4179 94.4493 52.9405 94.804C53.4725 95.1493 53.8645 95.5973 54.1165 96.148C54.3779 96.6986 54.5085 97.2866 54.5085 97.912V98.514H47.8725V97.506H53.5285L53.2205 98.052C53.2205 97.52 53.1365 97.0626 52.9685 96.68C52.8005 96.288 52.5485 95.9846 52.2125 95.77C51.8765 95.5553 51.4519 95.448 50.9385 95.448C50.4065 95.448 49.9632 95.5693 49.6085 95.812C49.2632 96.0546 49.0019 96.386 48.8245 96.806C48.6565 97.226 48.5725 97.7113 48.5725 98.262C48.5725 98.794 48.6565 99.2746 48.8245 99.704C49.0019 100.124 49.2725 100.46 49.6365 100.712C50.0005 100.955 50.4625 101.076 51.0225 101.076C51.6105 101.076 52.0865 100.945 52.4505 100.684C52.8239 100.423 53.0479 100.119 53.1225 99.774H54.3825C54.2799 100.287 54.0745 100.731 53.7665 101.104C53.4585 101.477 53.0712 101.762 52.6045 101.958C52.1379 102.154 51.6105 102.252 51.0225 102.252Z" fill="white"/>
<path d="M40.9698 102.252C40.1765 102.252 39.4578 102.121 38.8138 101.86C38.1698 101.599 37.6145 101.23 37.1478 100.754C36.6905 100.278 36.3358 99.718 36.0838 99.074C35.8318 98.4207 35.7058 97.7113 35.7058 96.946V96.638C35.7058 95.9847 35.8178 95.3547 36.0418 94.748C36.2751 94.132 36.6065 93.5813 37.0358 93.096C37.4745 92.6013 38.0065 92.214 38.6318 91.934C39.2571 91.6447 39.9618 91.5 40.7458 91.5C41.5951 91.5 42.3511 91.6633 43.0138 91.99C43.6765 92.3073 44.2085 92.7553 44.6098 93.334C45.0111 93.9033 45.2445 94.566 45.3098 95.322H43.9098C43.8445 94.7527 43.6578 94.2813 43.3498 93.908C43.0418 93.5253 42.6591 93.2407 42.2018 93.054C41.7538 92.858 41.2685 92.76 40.7458 92.76C40.2138 92.76 39.7238 92.858 39.2758 93.054C38.8278 93.2407 38.4405 93.5113 38.1138 93.866C37.7965 94.2207 37.5491 94.6453 37.3718 95.14C37.1945 95.6347 37.1058 96.19 37.1058 96.806C37.1058 97.506 37.1991 98.122 37.3858 98.654C37.5818 99.1767 37.8525 99.6153 38.1978 99.97C38.5431 100.315 38.9491 100.577 39.4158 100.754C39.8918 100.931 40.4098 101.02 40.9698 101.02C41.7631 101.02 42.4585 100.861 43.0558 100.544C43.6625 100.217 44.1198 99.7973 44.4278 99.284L43.9238 100.95V97.912H45.2118V100.348C44.7545 100.945 44.1665 101.412 43.4478 101.748C42.7291 102.084 41.9031 102.252 40.9698 102.252ZM40.6058 98.192V97.044H46.0798V98.192H40.6058Z" fill="white"/>
<defs>
<filter id="filter0_b_347_36" x="-4.73846" y="-4.73846" width="221.477" height="221.477" filterUnits="userSpaceOnUse" color-interpolation-filters="sRGB">
<feFlood flood-opacity="0" result="BackgroundImageFix"/>
<feGaussianBlur in="BackgroundImageFix" stdDeviation="2.36923"/>
<feComposite in2="SourceAlpha" operator="in" result="effect1_backgroundBlur_347_36"/>
<feBlend mode="normal" in="SourceGraphic" in2="effect1_backgroundBlur_347_36" result="shape"/>
</filter>
<filter id="filter1_b_347_36" x="60.8727" y="57.7615" width="90.2545" height="96.4769" filterUnits="userSpaceOnUse" color-interpolation-filters="sRGB">
<feFlood flood-opacity="0" result="BackgroundImageFix"/>
<feGaussianBlur in="BackgroundImageFix" stdDeviation="2.36923"/>
<feComposite in2="SourceAlpha" operator="in" result="effect1_backgroundBlur_347_36"/>
<feBlend mode="normal" in="SourceGraphic" in2="effect1_backgroundBlur_347_36" result="shape"/>
</filter>
<linearGradient id="paint0_linear_347_36" x1="106" y1="0" x2="106" y2="212" gradientUnits="userSpaceOnUse">
<stop stop-color="#B6B6B6"/>
<stop offset="1" stop-color="#D0D2D1"/>
</linearGradient>
<linearGradient id="paint1_linear_347_36" x1="106" y1="63" x2="106" y2="149" gradientUnits="userSpaceOnUse">
<stop stop-color="#B6B6B6"/>
<stop offset="1" stop-color="#D0D2D1"/>
</linearGradient>
</defs>
</svg>
