<svg width="70" height="70" viewBox="0 0 70 70" fill="none" xmlns="http://www.w3.org/2000/svg">
<mask id="path-1-outside-1_191_7221" maskUnits="userSpaceOnUse" x="5.80469" y="5" width="25" height="55" fill="black">
<rect fill="white" x="5.80469" y="5" width="25" height="55"/>
<path d="M17.4767 59V14.216L20.6447 16.664H7.18069V6.44H29.2127V59H17.4767Z"/>
</mask>
<path d="M17.4767 59V14.216L20.6447 16.664H7.18069V6.44H29.2127V59H17.4767Z" fill="url(#paint0_linear_191_7221)" fill-opacity="0.5"/>
<path d="M17.4767 59H16.4767V60H17.4767V59ZM17.4767 14.216L18.0881 13.4247L16.4767 12.1795V14.216H17.4767ZM20.6447 16.664V17.664H23.5743L21.2561 15.8727L20.6447 16.664ZM7.18069 16.664H6.18069V17.664H7.18069V16.664ZM7.18069 6.44V5.44H6.18069V6.44H7.18069ZM29.2127 6.44H30.2127V5.44H29.2127V6.44ZM29.2127 59V60H30.2127V59H29.2127ZM18.4767 59V14.216H16.4767V59H18.4767ZM16.8652 15.0073L20.0332 17.4553L21.2561 15.8727L18.0881 13.4247L16.8652 15.0073ZM20.6447 15.664H7.18069V17.664H20.6447V15.664ZM8.18069 16.664V6.44H6.18069V16.664H8.18069ZM7.18069 7.44H29.2127V5.44H7.18069V7.44ZM28.2127 6.44V59H30.2127V6.44H28.2127ZM29.2127 58H17.4767V60H29.2127V58Z" fill="url(#paint1_linear_191_7221)" fill-opacity="0.5" mask="url(#path-1-outside-1_191_7221)"/>
<rect x="24.7383" y="21" width="39.8689" height="38" rx="8.36" fill="#F15729"/>
<g filter="url(#filter0_i_191_7221)">
<rect x="26.8359" y="22.998" width="35.6733" height="34.0012" rx="7.48025" fill="#F15729"/>
<rect x="26.8359" y="22.998" width="35.6733" height="34.0012" rx="7.48025" fill="url(#paint2_radial_191_7221)" style="mix-blend-mode:overlay"/>
<rect x="26.8359" y="22.998" width="35.6733" height="34.0012" rx="7.48025" fill="url(#paint3_radial_191_7221)" style="mix-blend-mode:overlay"/>
<rect x="26.8359" y="22.998" width="35.6733" height="34.0012" rx="7.48025" fill="url(#paint4_radial_191_7221)" style="mix-blend-mode:overlay"/>
<rect x="26.8359" y="22.998" width="35.6733" height="34.0012" rx="7.48025" fill="url(#paint5_radial_191_7221)" fill-opacity="0.6"/>
</g>
<g filter="url(#filter1_d_191_7221)">
<mask id="path-5-inside-2_191_7221" fill="white">
<path fill-rule="evenodd" clip-rule="evenodd" d="M38.0352 31C34.1692 31 31.0352 34.134 31.0352 38V43C31.0352 46.866 34.1692 50 38.0352 50H49.0186C49.6449 47.1404 52.1925 45 55.2401 45H55.4478L55.7478 43.9274C55.8675 43.4997 56.3942 43.3457 56.7254 43.6417L58.8781 45.5652C59.1911 44.7709 59.363 43.9055 59.363 43V38C59.363 34.134 56.229 31 52.363 31H38.0352ZM36.9848 41.276L38.8088 42.596L39.4688 41.432L37.9688 40.808V40.448L39.4688 39.824L38.8088 38.66L36.9848 39.98V41.276ZM36.8168 39.86L37.0448 37.616L35.7008 37.628L35.9168 39.236L35.6048 39.416L34.3088 38.432L33.6368 39.584L35.6888 40.508L36.8168 39.86ZM35.6888 40.748L33.6368 41.672L34.3088 42.812L35.6048 41.84L35.9168 42.02L35.7128 43.616L37.0448 43.64L36.8168 41.396L35.6888 40.748ZM47.2036 42.596L45.3796 41.276V39.98L47.2036 38.66L47.8636 39.824L46.3636 40.448V40.808L47.8636 41.432L47.2036 42.596ZM45.4396 37.616L45.2116 39.86L44.0836 40.508L42.0316 39.584L42.7036 38.432L43.9996 39.416L44.3116 39.236L44.0956 37.628L45.4396 37.616ZM42.0316 41.672L44.0836 40.748L45.2116 41.396L45.4396 43.64L44.1076 43.616L44.3116 42.02L43.9996 41.84L42.7036 42.812L42.0316 41.672ZM53.7717 41.276L55.5957 42.596L56.2557 41.432L54.7557 40.808V40.448L56.2557 39.824L55.5957 38.66L53.7717 39.98V41.276ZM53.6037 39.86L53.8317 37.616L52.4877 37.628L52.7037 39.236L52.3917 39.416L51.0957 38.432L50.4237 39.584L52.4757 40.508L53.6037 39.86ZM52.4757 40.748L50.4237 41.672L51.0957 42.812L52.3917 41.84L52.7037 42.02L52.4997 43.616L53.8317 43.64L53.6037 41.396L52.4757 40.748Z"/>
</mask>
<path fill-rule="evenodd" clip-rule="evenodd" d="M38.0352 31C34.1692 31 31.0352 34.134 31.0352 38V43C31.0352 46.866 34.1692 50 38.0352 50H49.0186C49.6449 47.1404 52.1925 45 55.2401 45H55.4478L55.7478 43.9274C55.8675 43.4997 56.3942 43.3457 56.7254 43.6417L58.8781 45.5652C59.1911 44.7709 59.363 43.9055 59.363 43V38C59.363 34.134 56.229 31 52.363 31H38.0352ZM36.9848 41.276L38.8088 42.596L39.4688 41.432L37.9688 40.808V40.448L39.4688 39.824L38.8088 38.66L36.9848 39.98V41.276ZM36.8168 39.86L37.0448 37.616L35.7008 37.628L35.9168 39.236L35.6048 39.416L34.3088 38.432L33.6368 39.584L35.6888 40.508L36.8168 39.86ZM35.6888 40.748L33.6368 41.672L34.3088 42.812L35.6048 41.84L35.9168 42.02L35.7128 43.616L37.0448 43.64L36.8168 41.396L35.6888 40.748ZM47.2036 42.596L45.3796 41.276V39.98L47.2036 38.66L47.8636 39.824L46.3636 40.448V40.808L47.8636 41.432L47.2036 42.596ZM45.4396 37.616L45.2116 39.86L44.0836 40.508L42.0316 39.584L42.7036 38.432L43.9996 39.416L44.3116 39.236L44.0956 37.628L45.4396 37.616ZM42.0316 41.672L44.0836 40.748L45.2116 41.396L45.4396 43.64L44.1076 43.616L44.3116 42.02L43.9996 41.84L42.7036 42.812L42.0316 41.672ZM53.7717 41.276L55.5957 42.596L56.2557 41.432L54.7557 40.808V40.448L56.2557 39.824L55.5957 38.66L53.7717 39.98V41.276ZM53.6037 39.86L53.8317 37.616L52.4877 37.628L52.7037 39.236L52.3917 39.416L51.0957 38.432L50.4237 39.584L52.4757 40.508L53.6037 39.86ZM52.4757 40.748L50.4237 41.672L51.0957 42.812L52.3917 41.84L52.7037 42.02L52.4997 43.616L53.8317 43.64L53.6037 41.396L52.4757 40.748Z" fill="url(#paint6_linear_191_7221)"/>
<path d="M49.0186 50V50.228H49.202L49.2413 50.0488L49.0186 50ZM55.4478 45V45.228H55.6207L55.6673 45.0614L55.4478 45ZM55.7478 43.9274L55.5283 43.866L55.5283 43.866L55.7478 43.9274ZM56.7254 43.6417L56.8773 43.4717L56.8773 43.4717L56.7254 43.6417ZM58.8781 45.5652L58.7262 45.7352L58.9702 45.9533L59.0902 45.6488L58.8781 45.5652ZM38.8088 42.596L38.6751 42.7807L38.8815 42.93L39.0071 42.7085L38.8088 42.596ZM36.9848 41.276H36.7568V41.3924L36.8511 41.4607L36.9848 41.276ZM39.4688 41.432L39.6671 41.5445L39.7942 41.3204L39.5564 41.2215L39.4688 41.432ZM37.9688 40.808H37.7408V40.9601L37.8812 41.0185L37.9688 40.808ZM37.9688 40.448L37.8812 40.2375L37.7408 40.2959V40.448H37.9688ZM39.4688 39.824L39.5564 40.0345L39.7942 39.9356L39.6671 39.7115L39.4688 39.824ZM38.8088 38.66L39.0071 38.5475L38.8815 38.326L38.6751 38.4753L38.8088 38.66ZM36.9848 39.98L36.8511 39.7953L36.7568 39.8636V39.98H36.9848ZM37.0448 37.616L37.2716 37.639L37.2974 37.3857L37.0428 37.388L37.0448 37.616ZM36.8168 39.86L36.9304 40.0577L37.0318 39.9994L37.0436 39.883L36.8168 39.86ZM35.7008 37.628L35.6988 37.4L35.4404 37.4023L35.4748 37.6584L35.7008 37.628ZM35.9168 39.236L36.0307 39.4335L36.1631 39.3571L36.1428 39.2056L35.9168 39.236ZM35.6048 39.416L35.4669 39.5976L35.5876 39.6892L35.7187 39.6135L35.6048 39.416ZM34.3088 38.432L34.4467 38.2504L34.2416 38.0947L34.1119 38.3171L34.3088 38.432ZM33.6368 39.584L33.4399 39.4691L33.3122 39.6879L33.5432 39.7919L33.6368 39.584ZM35.6888 40.508L35.5952 40.7159L35.7014 40.7637L35.8024 40.7057L35.6888 40.508ZM33.6368 41.672L33.5432 41.4641L33.3112 41.5686L33.4404 41.7878L33.6368 41.672ZM35.6888 40.748L35.8024 40.5503L35.7014 40.4923L35.5952 40.5401L35.6888 40.748ZM34.3088 42.812L34.1124 42.9278L34.2418 43.1473L34.4456 42.9944L34.3088 42.812ZM35.6048 41.84L35.7187 41.6425L35.5884 41.5673L35.468 41.6576L35.6048 41.84ZM35.9168 42.02L36.143 42.0489L36.1622 41.8984L36.0307 41.8225L35.9168 42.02ZM35.7128 43.616L35.4867 43.5871L35.4544 43.8394L35.7087 43.844L35.7128 43.616ZM37.0448 43.64L37.0407 43.868L37.2976 43.8726L37.2716 43.617L37.0448 43.64ZM36.8168 41.396L37.0436 41.373L37.0318 41.2566L36.9304 41.1983L36.8168 41.396ZM45.3796 41.276H45.1516V41.3924L45.2459 41.4607L45.3796 41.276ZM47.2036 42.596L47.0699 42.7807L47.2762 42.93L47.4019 42.7085L47.2036 42.596ZM45.3796 39.98L45.2459 39.7953L45.1516 39.8636V39.98H45.3796ZM47.2036 38.66L47.4019 38.5475L47.2762 38.326L47.0699 38.4753L47.2036 38.66ZM47.8636 39.824L47.9511 40.0345L48.1889 39.9356L48.0619 39.7115L47.8636 39.824ZM46.3636 40.448L46.276 40.2375L46.1356 40.2959V40.448H46.3636ZM46.3636 40.808H46.1356V40.9601L46.276 41.0185L46.3636 40.808ZM47.8636 41.432L48.0619 41.5445L48.1889 41.3204L47.9511 41.2215L47.8636 41.432ZM45.2116 39.86L45.3251 40.0577L45.4266 39.9994L45.4384 39.883L45.2116 39.86ZM45.4396 37.616L45.6664 37.639L45.6921 37.3857L45.4375 37.388L45.4396 37.616ZM44.0836 40.508L43.9899 40.7159L44.0961 40.7637L44.1971 40.7057L44.0836 40.508ZM42.0316 39.584L41.8346 39.4691L41.707 39.6879L41.9379 39.7919L42.0316 39.584ZM42.7036 38.432L42.8414 38.2504L42.6363 38.0947L42.5066 38.3171L42.7036 38.432ZM43.9996 39.416L43.8617 39.5976L43.9823 39.6892L44.1135 39.6135L43.9996 39.416ZM44.3116 39.236L44.4255 39.4335L44.5579 39.3571L44.5375 39.2056L44.3116 39.236ZM44.0956 37.628L44.0935 37.4L43.8352 37.4023L43.8696 37.6584L44.0956 37.628ZM44.0836 40.748L44.1971 40.5503L44.0961 40.4923L43.9899 40.5401L44.0836 40.748ZM42.0316 41.672L41.9379 41.4641L41.7059 41.5686L41.8351 41.7878L42.0316 41.672ZM45.2116 41.396L45.4384 41.373L45.4266 41.2566L45.3251 41.1983L45.2116 41.396ZM45.4396 43.64L45.4354 43.868L45.6924 43.8726L45.6664 43.617L45.4396 43.64ZM44.1076 43.616L43.8814 43.5871L43.8491 43.8394L44.1034 43.844L44.1076 43.616ZM44.3116 42.02L44.5377 42.0489L44.557 41.8984L44.4255 41.8225L44.3116 42.02ZM43.9996 41.84L44.1135 41.6425L43.9831 41.5673L43.8628 41.6576L43.9996 41.84ZM42.7036 42.812L42.5071 42.9278L42.6365 43.1473L42.8404 42.9944L42.7036 42.812ZM55.5957 42.596L55.462 42.7807L55.6684 42.93L55.794 42.7085L55.5957 42.596ZM53.7717 41.276H53.5437V41.3924L53.638 41.4607L53.7717 41.276ZM56.2557 41.432L56.454 41.5445L56.5811 41.3204L56.3433 41.2215L56.2557 41.432ZM54.7557 40.808H54.5277V40.9601L54.6681 41.0185L54.7557 40.808ZM54.7557 40.448L54.6681 40.2375L54.5277 40.2959V40.448H54.7557ZM56.2557 39.824L56.3433 40.0345L56.5811 39.9356L56.454 39.7115L56.2557 39.824ZM55.5957 38.66L55.794 38.5475L55.6684 38.326L55.462 38.4753L55.5957 38.66ZM53.7717 39.98L53.638 39.7953L53.5437 39.8636V39.98H53.7717ZM53.8317 37.616L54.0585 37.639L54.0843 37.3857L53.8297 37.388L53.8317 37.616ZM53.6037 39.86L53.7173 40.0577L53.8187 39.9994L53.8305 39.883L53.6037 39.86ZM52.4877 37.628L52.4857 37.4L52.2273 37.4023L52.2617 37.6584L52.4877 37.628ZM52.7037 39.236L52.8176 39.4335L52.95 39.3571L52.9297 39.2056L52.7037 39.236ZM52.3917 39.416L52.2538 39.5976L52.3745 39.6892L52.5056 39.6135L52.3917 39.416ZM51.0957 38.432L51.2336 38.2504L51.0285 38.0947L50.8988 38.3171L51.0957 38.432ZM50.4237 39.584L50.2268 39.4691L50.0991 39.6879L50.3301 39.7919L50.4237 39.584ZM52.4757 40.508L52.3821 40.7159L52.4883 40.7637L52.5893 40.7057L52.4757 40.508ZM50.4237 41.672L50.3301 41.4641L50.0981 41.5686L50.2273 41.7878L50.4237 41.672ZM52.4757 40.748L52.5893 40.5503L52.4883 40.4923L52.3821 40.5401L52.4757 40.748ZM51.0957 42.812L50.8993 42.9278L51.0287 43.1473L51.2325 42.9944L51.0957 42.812ZM52.3917 41.84L52.5056 41.6425L52.3753 41.5673L52.2549 41.6576L52.3917 41.84ZM52.7037 42.02L52.9299 42.0489L52.9491 41.8984L52.8176 41.8225L52.7037 42.02ZM52.4997 43.616L52.2736 43.5871L52.2413 43.8394L52.4956 43.844L52.4997 43.616ZM53.8317 43.64L53.8276 43.868L54.0845 43.8726L54.0585 43.617L53.8317 43.64ZM53.6037 41.396L53.8305 41.373L53.8187 41.2566L53.7173 41.1983L53.6037 41.396ZM31.2632 38C31.2632 34.2599 34.2951 31.228 38.0352 31.228V30.772C34.0432 30.772 30.8072 34.0081 30.8072 38H31.2632ZM31.2632 43V38H30.8072V43H31.2632ZM38.0352 49.772C34.2951 49.772 31.2632 46.7401 31.2632 43H30.8072C30.8072 46.9919 34.0432 50.228 38.0352 50.228V49.772ZM49.0186 49.772H38.0352V50.228H49.0186V49.772ZM55.2401 44.772C52.0832 44.772 49.4446 46.9892 48.7959 49.9512L49.2413 50.0488C49.8452 47.2917 52.3019 45.228 55.2401 45.228V44.772ZM55.4478 44.772H55.2401V45.228H55.4478V44.772ZM55.5283 43.866L55.2282 44.9386L55.6673 45.0614L55.9674 43.9889L55.5283 43.866ZM56.8773 43.4717C56.4203 43.0633 55.6934 43.2757 55.5283 43.866L55.9674 43.9889C56.0416 43.7237 56.3682 43.6282 56.5735 43.8117L56.8773 43.4717ZM59.03 45.3952L56.8773 43.4717L56.5735 43.8117L58.7262 45.7352L59.03 45.3952ZM59.135 43C59.135 43.8764 58.9687 44.7135 58.666 45.4816L59.0902 45.6488C59.4135 44.8283 59.591 43.9346 59.591 43H59.135ZM59.135 38V43H59.591V38H59.135ZM52.363 31.228C56.1031 31.228 59.135 34.2599 59.135 38H59.591C59.591 34.0081 56.3549 30.772 52.363 30.772V31.228ZM38.0352 31.228H52.363V30.772H38.0352V31.228ZM38.9425 42.4113L37.1185 41.0913L36.8511 41.4607L38.6751 42.7807L38.9425 42.4113ZM39.2705 41.3195L38.6105 42.4835L39.0071 42.7085L39.6671 41.5445L39.2705 41.3195ZM37.8812 41.0185L39.3812 41.6425L39.5564 41.2215L38.0564 40.5975L37.8812 41.0185ZM37.7408 40.448V40.808H38.1968V40.448H37.7408ZM39.3812 39.6135L37.8812 40.2375L38.0564 40.6585L39.5564 40.0345L39.3812 39.6135ZM38.6105 38.7725L39.2705 39.9365L39.6671 39.7115L39.0071 38.5475L38.6105 38.7725ZM37.1185 40.1647L38.9425 38.8447L38.6751 38.4753L36.8511 39.7953L37.1185 40.1647ZM37.2128 41.276V39.98H36.7568V41.276H37.2128ZM36.818 37.593L36.59 39.837L37.0436 39.883L37.2716 37.639L36.818 37.593ZM35.7028 37.856L37.0468 37.844L37.0428 37.388L35.6988 37.4L35.7028 37.856ZM36.1428 39.2056L35.9268 37.5976L35.4748 37.6584L35.6908 39.2664L36.1428 39.2056ZM35.7187 39.6135L36.0307 39.4335L35.8029 39.0385L35.4909 39.2185L35.7187 39.6135ZM34.1709 38.6136L35.4669 39.5976L35.7427 39.2344L34.4467 38.2504L34.1709 38.6136ZM33.8338 39.6989L34.5058 38.5469L34.1119 38.3171L33.4399 39.4691L33.8338 39.6989ZM35.7824 40.3001L33.7304 39.3761L33.5432 39.7919L35.5952 40.7159L35.7824 40.3001ZM36.7032 39.6623L35.5752 40.3103L35.8024 40.7057L36.9304 40.0577L36.7032 39.6623ZM33.7304 41.8799L35.7824 40.9559L35.5952 40.5401L33.5432 41.4641L33.7304 41.8799ZM34.5052 42.6962L33.8332 41.5562L33.4404 41.7878L34.1124 42.9278L34.5052 42.6962ZM35.468 41.6576L34.172 42.6296L34.4456 42.9944L35.7416 42.0224L35.468 41.6576ZM36.0307 41.8225L35.7187 41.6425L35.4909 42.0375L35.8029 42.2175L36.0307 41.8225ZM35.939 43.6449L36.143 42.0489L35.6907 41.9911L35.4867 43.5871L35.939 43.6449ZM37.0489 43.412L35.7169 43.388L35.7087 43.844L37.0407 43.868L37.0489 43.412ZM36.59 41.419L36.818 43.663L37.2716 43.617L37.0436 41.373L36.59 41.419ZM35.5752 40.9457L36.7032 41.5937L36.9304 41.1983L35.8024 40.5503L35.5752 40.9457ZM45.2459 41.4607L47.0699 42.7807L47.3372 42.4113L45.5132 41.0913L45.2459 41.4607ZM45.1516 39.98V41.276H45.6076V39.98H45.1516ZM47.0699 38.4753L45.2459 39.7953L45.5132 40.1647L47.3372 38.8447L47.0699 38.4753ZM48.0619 39.7115L47.4019 38.5475L47.0052 38.7725L47.6652 39.9365L48.0619 39.7115ZM46.4511 40.6585L47.9511 40.0345L47.776 39.6135L46.276 40.2375L46.4511 40.6585ZM46.5916 40.808V40.448H46.1356V40.808H46.5916ZM47.9511 41.2215L46.4511 40.5975L46.276 41.0185L47.776 41.6425L47.9511 41.2215ZM47.4019 42.7085L48.0619 41.5445L47.6652 41.3195L47.0052 42.4835L47.4019 42.7085ZM45.4384 39.883L45.6664 37.639L45.2127 37.593L44.9847 39.837L45.4384 39.883ZM44.1971 40.7057L45.3251 40.0577L45.098 39.6623L43.97 40.3103L44.1971 40.7057ZM41.9379 39.7919L43.9899 40.7159L44.1772 40.3001L42.1252 39.3761L41.9379 39.7919ZM42.5066 38.3171L41.8346 39.4691L42.2285 39.6989L42.9005 38.5469L42.5066 38.3171ZM44.1374 39.2344L42.8414 38.2504L42.5657 38.6136L43.8617 39.5976L44.1374 39.2344ZM44.1976 39.0385L43.8856 39.2185L44.1135 39.6135L44.4255 39.4335L44.1976 39.0385ZM43.8696 37.6584L44.0856 39.2664L44.5375 39.2056L44.3215 37.5976L43.8696 37.6584ZM45.4375 37.388L44.0935 37.4L44.0976 37.856L45.4416 37.844L45.4375 37.388ZM43.9899 40.5401L41.9379 41.4641L42.1252 41.8799L44.1772 40.9559L43.9899 40.5401ZM45.3251 41.1983L44.1971 40.5503L43.97 40.9457L45.098 41.5937L45.3251 41.1983ZM45.6664 43.617L45.4384 41.373L44.9847 41.419L45.2127 43.663L45.6664 43.617ZM44.1034 43.844L45.4354 43.868L45.4437 43.412L44.1117 43.388L44.1034 43.844ZM44.0854 41.9911L43.8814 43.5871L44.3337 43.6449L44.5377 42.0489L44.0854 41.9911ZM43.8856 42.0375L44.1976 42.2175L44.4255 41.8225L44.1135 41.6425L43.8856 42.0375ZM42.8404 42.9944L44.1364 42.0224L43.8628 41.6576L42.5668 42.6296L42.8404 42.9944ZM41.8351 41.7878L42.5071 42.9278L42.9 42.6962L42.228 41.5562L41.8351 41.7878ZM55.7294 42.4113L53.9054 41.0913L53.638 41.4607L55.462 42.7807L55.7294 42.4113ZM56.0574 41.3195L55.3974 42.4835L55.794 42.7085L56.454 41.5445L56.0574 41.3195ZM54.6681 41.0185L56.1681 41.6425L56.3433 41.2215L54.8433 40.5975L54.6681 41.0185ZM54.5277 40.448V40.808H54.9837V40.448H54.5277ZM56.1681 39.6135L54.6681 40.2375L54.8433 40.6585L56.3433 40.0345L56.1681 39.6135ZM55.3974 38.7725L56.0574 39.9365L56.454 39.7115L55.794 38.5475L55.3974 38.7725ZM53.9054 40.1647L55.7294 38.8447L55.462 38.4753L53.638 39.7953L53.9054 40.1647ZM53.9997 41.276V39.98H53.5437V41.276H53.9997ZM53.6049 37.593L53.3769 39.837L53.8305 39.883L54.0585 37.639L53.6049 37.593ZM52.4897 37.856L53.8337 37.844L53.8297 37.388L52.4857 37.4L52.4897 37.856ZM52.9297 39.2056L52.7137 37.5976L52.2617 37.6584L52.4777 39.2664L52.9297 39.2056ZM52.5056 39.6135L52.8176 39.4335L52.5898 39.0385L52.2778 39.2185L52.5056 39.6135ZM50.9578 38.6136L52.2538 39.5976L52.5296 39.2344L51.2336 38.2504L50.9578 38.6136ZM50.6207 39.6989L51.2927 38.5469L50.8988 38.3171L50.2268 39.4691L50.6207 39.6989ZM52.5693 40.3001L50.5173 39.3761L50.3301 39.7919L52.3821 40.7159L52.5693 40.3001ZM53.4901 39.6623L52.3621 40.3103L52.5893 40.7057L53.7173 40.0577L53.4901 39.6623ZM50.5173 41.8799L52.5693 40.9559L52.3821 40.5401L50.3301 41.4641L50.5173 41.8799ZM51.2921 42.6962L50.6201 41.5562L50.2273 41.7878L50.8993 42.9278L51.2921 42.6962ZM52.2549 41.6576L50.9589 42.6296L51.2325 42.9944L52.5285 42.0224L52.2549 41.6576ZM52.8176 41.8225L52.5056 41.6425L52.2778 42.0375L52.5898 42.2175L52.8176 41.8225ZM52.7259 43.6449L52.9299 42.0489L52.4776 41.9911L52.2736 43.5871L52.7259 43.6449ZM53.8358 43.412L52.5038 43.388L52.4956 43.844L53.8276 43.868L53.8358 43.412ZM53.3769 41.419L53.6049 43.663L54.0585 43.617L53.8305 41.373L53.3769 41.419ZM52.3621 40.9457L53.4901 41.5937L53.7173 41.1983L52.5893 40.5503L52.3621 40.9457Z" fill="white" mask="url(#path-5-inside-2_191_7221)"/>
</g>
<g filter="url(#filter2_d_191_7221)">
<path d="M59.0758 48.0361L57.1759 46.2252C57.0191 46.0758 56.8601 46 56.7033 46C56.4879 46 56.2365 46.1561 56.2365 46.596V47.2125C54.8561 47.2699 53.567 47.8095 52.5838 48.7465C51.5424 49.739 50.9688 51.0587 50.9688 52.4623C50.9688 52.5632 51.0364 52.6527 51.1368 52.6846C51.1624 52.6928 51.1886 52.6967 51.2146 52.6967C51.2905 52.6967 51.3639 52.6632 51.4112 52.6031C52.5722 51.1302 54.3201 50.2597 56.2365 50.191V50.798C56.2365 51.238 56.4879 51.3941 56.7032 51.3941H56.7033C56.8601 51.3941 57.0191 51.3183 57.1759 51.1689L59.0758 49.358C59.2605 49.182 59.3622 48.9473 59.3622 48.697C59.3622 48.4468 59.2605 48.2121 59.0758 48.0361Z" fill="url(#paint7_linear_191_7221)"/>
<path d="M56.3505 47.3219L56.2412 47.3264C54.8878 47.3827 53.6252 47.9115 52.6624 48.8291C51.643 49.8007 51.0828 51.0907 51.0828 52.4623L56.3505 47.3219ZM56.3505 47.3219V47.2125V46.596C56.3505 46.398 56.4066 46.2798 56.4716 46.2118C56.5372 46.1431 56.6226 46.114 56.7033 46.114C56.8212 46.114 56.9535 46.1707 57.0972 46.3077L58.9972 48.1186L59.0709 48.0413M56.3505 47.3219L59.0709 48.0413M59.0709 48.0413L58.9972 48.1186C59.1598 48.2736 59.2482 48.4787 59.2482 48.697C59.2482 48.9154 59.1598 49.1205 58.9972 49.2754L58.9972 49.2754L57.0972 51.0864C56.9535 51.2234 56.8212 51.2801 56.7033 51.2801H56.7032C56.6226 51.2801 56.5372 51.251 56.4716 51.1823C56.4066 51.1143 56.3505 50.996 56.3505 50.798V50.191V50.0729M59.0709 48.0413L56.3505 50.0729M56.3505 50.0729L56.2324 50.0771M56.3505 50.0729L56.2324 50.0771M56.2324 50.0771C54.2836 50.147 52.5041 51.0325 51.3217 52.5325C51.2972 52.5636 51.2575 52.5827 51.2146 52.5827C51.2001 52.5827 51.1856 52.5805 51.1713 52.576M56.2324 50.0771L51.1713 52.576M51.1713 52.576C51.1154 52.5582 51.0828 52.5106 51.0828 52.4623L51.1713 52.576Z" stroke="white" stroke-width="0.228"/>
</g>
<g opacity="0.4" filter="url(#filter3_f_191_7221)">
<path d="M30.5828 59.5387C30.9532 59.1925 31.4413 59 31.9483 59H56.7012C57.2963 59 57.8604 59.265 58.2404 59.723L63.0334 65.5L24.7383 65L30.5828 59.5387Z" fill="url(#paint8_linear_191_7221)"/>
</g>
<defs>
<filter id="filter0_i_191_7221" x="26.8359" y="22.998" width="35.6738" height="34.274" filterUnits="userSpaceOnUse" color-interpolation-filters="sRGB">
<feFlood flood-opacity="0" result="BackgroundImageFix"/>
<feBlend mode="normal" in="SourceGraphic" in2="BackgroundImageFix" result="shape"/>
<feColorMatrix in="SourceAlpha" type="matrix" values="0 0 0 0 0 0 0 0 0 0 0 0 0 0 0 0 0 0 127 0" result="hardAlpha"/>
<feOffset dy="0.272009"/>
<feGaussianBlur stdDeviation="0.993135"/>
<feComposite in2="hardAlpha" operator="arithmetic" k2="-1" k3="1"/>
<feColorMatrix type="matrix" values="0 0 0 0 1 0 0 0 0 1 0 0 0 0 1 0 0 0 0.65 0"/>
<feBlend mode="normal" in2="shape" result="effect1_innerShadow_191_7221"/>
</filter>
<filter id="filter1_d_191_7221" x="29.2112" y="30.24" width="31.9761" height="22.648" filterUnits="userSpaceOnUse" color-interpolation-filters="sRGB">
<feFlood flood-opacity="0" result="BackgroundImageFix"/>
<feColorMatrix in="SourceAlpha" type="matrix" values="0 0 0 0 0 0 0 0 0 0 0 0 0 0 0 0 0 0 127 0" result="hardAlpha"/>
<feOffset dy="1.064"/>
<feGaussianBlur stdDeviation="0.912"/>
<feComposite in2="hardAlpha" operator="out"/>
<feColorMatrix type="matrix" values="0 0 0 0 0 0 0 0 0 0 0 0 0 0 0 0 0 0 0.35 0"/>
<feBlend mode="normal" in2="BackgroundImageFix" result="effect1_dropShadow_191_7221"/>
<feBlend mode="normal" in="SourceGraphic" in2="effect1_dropShadow_191_7221" result="shape"/>
</filter>
<filter id="filter2_d_191_7221" x="49.1447" y="45.24" width="12.0406" height="10.3453" filterUnits="userSpaceOnUse" color-interpolation-filters="sRGB">
<feFlood flood-opacity="0" result="BackgroundImageFix"/>
<feColorMatrix in="SourceAlpha" type="matrix" values="0 0 0 0 0 0 0 0 0 0 0 0 0 0 0 0 0 0 127 0" result="hardAlpha"/>
<feOffset dy="1.064"/>
<feGaussianBlur stdDeviation="0.912"/>
<feComposite in2="hardAlpha" operator="out"/>
<feColorMatrix type="matrix" values="0 0 0 0 0 0 0 0 0 0 0 0 0 0 0 0 0 0 0.35 0"/>
<feBlend mode="normal" in2="BackgroundImageFix" result="effect1_dropShadow_191_7221"/>
<feBlend mode="normal" in="SourceGraphic" in2="effect1_dropShadow_191_7221" result="shape"/>
</filter>
<filter id="filter3_f_191_7221" x="21.7383" y="56" width="44.2949" height="12.5" filterUnits="userSpaceOnUse" color-interpolation-filters="sRGB">
<feFlood flood-opacity="0" result="BackgroundImageFix"/>
<feBlend mode="normal" in="SourceGraphic" in2="BackgroundImageFix" result="shape"/>
<feGaussianBlur stdDeviation="1.5" result="effect1_foregroundBlur_191_7221"/>
</filter>
<linearGradient id="paint0_linear_191_7221" x1="21.067" y1="-16" x2="21.067" y2="85" gradientUnits="userSpaceOnUse">
<stop stop-color="white"/>
<stop offset="1" stop-color="white" stop-opacity="0"/>
</linearGradient>
<linearGradient id="paint1_linear_191_7221" x1="21.067" y1="-16" x2="21.067" y2="63" gradientUnits="userSpaceOnUse">
<stop stop-color="white"/>
<stop offset="1" stop-color="white" stop-opacity="0"/>
</linearGradient>
<radialGradient id="paint2_radial_191_7221" cx="0" cy="0" r="1" gradientUnits="userSpaceOnUse" gradientTransform="translate(44.6726 25.3163) rotate(-90) scale(11.1698 25.7216)">
<stop stop-color="white"/>
<stop offset="1" stop-color="white" stop-opacity="0"/>
</radialGradient>
<radialGradient id="paint3_radial_191_7221" cx="0" cy="0" r="1" gradientUnits="userSpaceOnUse" gradientTransform="translate(44.6726 58.3691) rotate(-90) scale(3.68814 17.332)">
<stop stop-color="white"/>
<stop offset="1" stop-color="white" stop-opacity="0"/>
</radialGradient>
<radialGradient id="paint4_radial_191_7221" cx="0" cy="0" r="1" gradientUnits="userSpaceOnUse" gradientTransform="translate(44.6726 56.9992) rotate(-90) scale(6.77916 31.8579)">
<stop stop-color="white"/>
<stop offset="1" stop-color="white" stop-opacity="0"/>
</radialGradient>
<radialGradient id="paint5_radial_191_7221" cx="0" cy="0" r="1" gradientUnits="userSpaceOnUse" gradientTransform="translate(44.673 41.5) rotate(90) scale(18 18.8852)">
<stop offset="0.445" stop-color="#FEEF7E"/>
<stop offset="0.875" stop-color="#FEEF7E" stop-opacity="0"/>
</radialGradient>
<linearGradient id="paint6_linear_191_7221" x1="38.904" y1="31" x2="38.904" y2="50" gradientUnits="userSpaceOnUse">
<stop offset="0.305162" stop-color="white"/>
<stop offset="1" stop-color="#FF9D6F"/>
</linearGradient>
<linearGradient id="paint7_linear_191_7221" x1="55.1655" y1="46" x2="55.1655" y2="52.6967" gradientUnits="userSpaceOnUse">
<stop offset="0.305162" stop-color="white"/>
<stop offset="1" stop-color="#FF9D6F"/>
</linearGradient>
<linearGradient id="paint8_linear_191_7221" x1="48.198" y1="59" x2="48.198" y2="65" gradientUnits="userSpaceOnUse">
<stop stop-color="#FFF78B"/>
<stop offset="1" stop-color="#F46932"/>
</linearGradient>
</defs>
</svg>
