<svg width="62" height="76" viewBox="0 0 62 76" fill="none" xmlns="http://www.w3.org/2000/svg">
<g clip-path="url(#clip0_1_3591)">
<mask id="path-1-outside-1_1_3591" maskUnits="userSpaceOnUse" x="2" y="8" width="25" height="55" fill="black">
<rect fill="white" x="2" y="8" width="25" height="55"/>
<path d="M13.672 62V17.216L16.84 19.664H3.376V9.44H25.408V62H13.672Z"/>
</mask>
<path d="M13.672 62V17.216L16.84 19.664H3.376V9.44H25.408V62H13.672Z" fill="url(#paint0_linear_1_3591)" fill-opacity="0.5"/>
<path d="M13.672 62H12.672V63H13.672V62ZM13.672 17.216L14.2834 16.4247L12.672 15.1795V17.216H13.672ZM16.84 19.664V20.664H19.7696L17.4514 18.8727L16.84 19.664ZM3.376 19.664H2.376V20.664H3.376V19.664ZM3.376 9.44V8.44H2.376V9.44H3.376ZM25.408 9.44H26.408V8.44H25.408V9.44ZM25.408 62V63H26.408V62H25.408ZM14.672 62V17.216H12.672V62H14.672ZM13.0606 18.0073L16.2286 20.4553L17.4514 18.8727L14.2834 16.4247L13.0606 18.0073ZM16.84 18.664H3.376V20.664H16.84V18.664ZM4.376 19.664V9.44H2.376V19.664H4.376ZM3.376 10.44H25.408V8.44H3.376V10.44ZM24.408 9.44V62H26.408V9.44H24.408ZM25.408 61H13.672V63H25.408V61Z" fill="url(#paint1_linear_1_3591)" fill-opacity="0.5" mask="url(#path-1-outside-1_1_3591)"/>
<rect x="20.9365" y="24" width="39.8718" height="38" rx="8.36" fill="#F15729"/>
<g filter="url(#filter0_i_1_3591)">
<rect x="23.0344" y="25.998" width="35.676" height="34.0012" rx="7.48025" fill="#F15729"/>
<rect x="23.0344" y="25.998" width="35.676" height="34.0012" rx="7.48025" fill="url(#paint2_radial_1_3591)" style="mix-blend-mode:overlay"/>
<rect x="23.0344" y="25.998" width="35.676" height="34.0012" rx="7.48025" fill="url(#paint3_radial_1_3591)" style="mix-blend-mode:overlay"/>
<rect x="23.0344" y="25.998" width="35.676" height="34.0012" rx="7.48025" fill="url(#paint4_radial_1_3591)" style="mix-blend-mode:overlay"/>
<rect x="23.0344" y="25.998" width="35.676" height="34.0012" rx="7.48025" fill="url(#paint5_radial_1_3591)" fill-opacity="0.6"/>
</g>
<g filter="url(#filter1_d_1_3591)">
<mask id="path-5-inside-2_1_3591" fill="white">
<path fill-rule="evenodd" clip-rule="evenodd" d="M34.2323 34C30.3663 34 27.2323 37.134 27.2323 41V46C27.2323 49.866 30.3663 53 34.2323 53H45.2174C45.844 50.1404 48.3917 48 51.4393 48H51.6454L51.9456 46.9274C52.0652 46.4997 52.5919 46.3457 52.9231 46.6416L55.077 48.566C55.3902 47.7715 55.5622 46.9058 55.5622 46V41C55.5622 37.134 52.4282 34 48.5622 34H34.2323ZM33.1832 44.276L35.0072 45.596L35.6672 44.432L34.1672 43.808V43.448L35.6672 42.824L35.0072 41.66L33.1832 42.98V44.276ZM33.0152 42.86L33.2432 40.616L31.8992 40.628L32.1152 42.236L31.8032 42.416L30.5072 41.432L29.8352 42.584L31.8872 43.508L33.0152 42.86ZM31.8872 43.748L29.8352 44.672L30.5072 45.812L31.8032 44.84L32.1152 45.02L31.9112 46.616L33.2432 46.64L33.0152 44.396L31.8872 43.748ZM43.401 45.596L41.577 44.276V42.98L43.401 41.66L44.061 42.824L42.561 43.448V43.808L44.061 44.432L43.401 45.596ZM41.637 40.616L41.409 42.86L40.281 43.508L38.229 42.584L38.901 41.432L40.197 42.416L40.509 42.236L40.293 40.628L41.637 40.616ZM38.229 44.672L40.281 43.748L41.409 44.396L41.637 46.64L40.305 46.616L40.509 45.02L40.197 44.84L38.901 45.812L38.229 44.672ZM49.9708 44.276L51.7948 45.596L52.4548 44.432L50.9548 43.808V43.448L52.4548 42.824L51.7948 41.66L49.9708 42.98V44.276ZM49.8028 42.86L50.0308 40.616L48.6868 40.628L48.9028 42.236L48.5908 42.416L47.2948 41.432L46.6228 42.584L48.6748 43.508L49.8028 42.86ZM48.6748 43.748L46.6228 44.672L47.2948 45.812L48.5908 44.84L48.9028 45.02L48.6988 46.616L50.0308 46.64L49.8028 44.396L48.6748 43.748Z"/>
</mask>
<path fill-rule="evenodd" clip-rule="evenodd" d="M34.2323 34C30.3663 34 27.2323 37.134 27.2323 41V46C27.2323 49.866 30.3663 53 34.2323 53H45.2174C45.844 50.1404 48.3917 48 51.4393 48H51.6454L51.9456 46.9274C52.0652 46.4997 52.5919 46.3457 52.9231 46.6416L55.077 48.566C55.3902 47.7715 55.5622 46.9058 55.5622 46V41C55.5622 37.134 52.4282 34 48.5622 34H34.2323ZM33.1832 44.276L35.0072 45.596L35.6672 44.432L34.1672 43.808V43.448L35.6672 42.824L35.0072 41.66L33.1832 42.98V44.276ZM33.0152 42.86L33.2432 40.616L31.8992 40.628L32.1152 42.236L31.8032 42.416L30.5072 41.432L29.8352 42.584L31.8872 43.508L33.0152 42.86ZM31.8872 43.748L29.8352 44.672L30.5072 45.812L31.8032 44.84L32.1152 45.02L31.9112 46.616L33.2432 46.64L33.0152 44.396L31.8872 43.748ZM43.401 45.596L41.577 44.276V42.98L43.401 41.66L44.061 42.824L42.561 43.448V43.808L44.061 44.432L43.401 45.596ZM41.637 40.616L41.409 42.86L40.281 43.508L38.229 42.584L38.901 41.432L40.197 42.416L40.509 42.236L40.293 40.628L41.637 40.616ZM38.229 44.672L40.281 43.748L41.409 44.396L41.637 46.64L40.305 46.616L40.509 45.02L40.197 44.84L38.901 45.812L38.229 44.672ZM49.9708 44.276L51.7948 45.596L52.4548 44.432L50.9548 43.808V43.448L52.4548 42.824L51.7948 41.66L49.9708 42.98V44.276ZM49.8028 42.86L50.0308 40.616L48.6868 40.628L48.9028 42.236L48.5908 42.416L47.2948 41.432L46.6228 42.584L48.6748 43.508L49.8028 42.86ZM48.6748 43.748L46.6228 44.672L47.2948 45.812L48.5908 44.84L48.9028 45.02L48.6988 46.616L50.0308 46.64L49.8028 44.396L48.6748 43.748Z" fill="url(#paint6_linear_1_3591)"/>
<path d="M45.2174 53V53.228H45.4008L45.4401 53.0488L45.2174 53ZM51.6454 48V48.228H51.8184L51.865 48.0614L51.6454 48ZM51.9456 46.9274L51.726 46.8659L51.726 46.8659L51.9456 46.9274ZM52.9231 46.6416L52.7712 46.8116L52.7712 46.8116L52.9231 46.6416ZM55.077 48.566L54.9251 48.7361L55.1691 48.9541L55.2891 48.6497L55.077 48.566ZM35.0072 45.596L34.8735 45.7807L35.0798 45.93L35.2055 45.7085L35.0072 45.596ZM33.1832 44.276H32.9552V44.3924L33.0495 44.4607L33.1832 44.276ZM35.6672 44.432L35.8655 44.5445L35.9925 44.3204L35.7547 44.2215L35.6672 44.432ZM34.1672 43.808H33.9392V43.9601L34.0796 44.0185L34.1672 43.808ZM34.1672 43.448L34.0796 43.2375L33.9392 43.2959V43.448H34.1672ZM35.6672 42.824L35.7547 43.0345L35.9925 42.9356L35.8655 42.7115L35.6672 42.824ZM35.0072 41.66L35.2055 41.5475L35.0798 41.326L34.8735 41.4753L35.0072 41.66ZM33.1832 42.98L33.0495 42.7953L32.9552 42.8636V42.98H33.1832ZM33.2432 40.616L33.47 40.639L33.4957 40.3857L33.2411 40.388L33.2432 40.616ZM33.0152 42.86L33.1287 43.0577L33.2302 42.9994L33.242 42.883L33.0152 42.86ZM31.8992 40.628L31.8971 40.4L31.6388 40.4023L31.6732 40.6584L31.8992 40.628ZM32.1152 42.236L32.2291 42.4335L32.3615 42.3571L32.3411 42.2056L32.1152 42.236ZM31.8032 42.416L31.6653 42.5976L31.7859 42.6892L31.9171 42.6135L31.8032 42.416ZM30.5072 41.432L30.645 41.2504L30.4399 41.0947L30.3102 41.3171L30.5072 41.432ZM29.8352 42.584L29.6382 42.4691L29.5106 42.6879L29.7415 42.7919L29.8352 42.584ZM31.8872 43.508L31.7935 43.7159L31.8997 43.7637L32.0007 43.7057L31.8872 43.508ZM29.8352 44.672L29.7415 44.4641L29.5095 44.5686L29.6387 44.7878L29.8352 44.672ZM31.8872 43.748L32.0007 43.5503L31.8997 43.4923L31.7935 43.5401L31.8872 43.748ZM30.5072 45.812L30.3107 45.9278L30.4401 46.1473L30.644 45.9944L30.5072 45.812ZM31.8032 44.84L31.9171 44.6425L31.7867 44.5673L31.6664 44.6576L31.8032 44.84ZM32.1152 45.02L32.3413 45.0489L32.3606 44.8984L32.2291 44.8225L32.1152 45.02ZM31.9112 46.616L31.685 46.5871L31.6527 46.8394L31.907 46.844L31.9112 46.616ZM33.2432 46.64L33.239 46.868L33.496 46.8726L33.47 46.617L33.2432 46.64ZM33.0152 44.396L33.242 44.373L33.2302 44.2566L33.1287 44.1983L33.0152 44.396ZM41.577 44.276H41.349V44.3924L41.4433 44.4607L41.577 44.276ZM43.401 45.596L43.2673 45.7807L43.4736 45.93L43.5993 45.7085L43.401 45.596ZM41.577 42.98L41.4433 42.7953L41.349 42.8636V42.98H41.577ZM43.401 41.66L43.5993 41.5475L43.4736 41.326L43.2673 41.4753L43.401 41.66ZM44.061 42.824L44.1485 43.0345L44.3863 42.9356L44.2593 42.7115L44.061 42.824ZM42.561 43.448L42.4734 43.2375L42.333 43.2959V43.448H42.561ZM42.561 43.808H42.333V43.9601L42.4734 44.0185L42.561 43.808ZM44.061 44.432L44.2593 44.5445L44.3863 44.3204L44.1485 44.2215L44.061 44.432ZM41.409 42.86L41.5225 43.0577L41.624 42.9994L41.6358 42.883L41.409 42.86ZM41.637 40.616L41.8638 40.639L41.8895 40.3857L41.6349 40.388L41.637 40.616ZM40.281 43.508L40.1873 43.7159L40.2935 43.7637L40.3945 43.7057L40.281 43.508ZM38.229 42.584L38.032 42.4691L37.9044 42.6879L38.1353 42.7919L38.229 42.584ZM38.901 41.432L39.0388 41.2504L38.8338 41.0947L38.704 41.3171L38.901 41.432ZM40.197 42.416L40.0591 42.5976L40.1797 42.6892L40.3109 42.6135L40.197 42.416ZM40.509 42.236L40.6229 42.4335L40.7553 42.3571L40.7349 42.2056L40.509 42.236ZM40.293 40.628L40.2909 40.4L40.0326 40.4023L40.067 40.6584L40.293 40.628ZM40.281 43.748L40.3945 43.5503L40.2935 43.4923L40.1873 43.5401L40.281 43.748ZM38.229 44.672L38.1353 44.4641L37.9033 44.5686L38.0325 44.7878L38.229 44.672ZM41.409 44.396L41.6358 44.373L41.624 44.2566L41.5225 44.1983L41.409 44.396ZM41.637 46.64L41.6328 46.868L41.8898 46.8726L41.8638 46.617L41.637 46.64ZM40.305 46.616L40.0788 46.5871L40.0465 46.8394L40.3008 46.844L40.305 46.616ZM40.509 45.02L40.7351 45.0489L40.7544 44.8984L40.6229 44.8225L40.509 45.02ZM40.197 44.84L40.3109 44.6425L40.1805 44.5673L40.0602 44.6576L40.197 44.84ZM38.901 45.812L38.7045 45.9278L38.8339 46.1473L39.0378 45.9944L38.901 45.812ZM51.7948 45.596L51.6611 45.7807L51.8675 45.93L51.9931 45.7085L51.7948 45.596ZM49.9708 44.276H49.7428V44.3924L49.8371 44.4607L49.9708 44.276ZM52.4548 44.432L52.6531 44.5445L52.7801 44.3204L52.5423 44.2215L52.4548 44.432ZM50.9548 43.808H50.7268V43.9601L50.8672 44.0185L50.9548 43.808ZM50.9548 43.448L50.8672 43.2375L50.7268 43.2959V43.448H50.9548ZM52.4548 42.824L52.5423 43.0345L52.7801 42.9356L52.6531 42.7115L52.4548 42.824ZM51.7948 41.66L51.9931 41.5475L51.8675 41.326L51.6611 41.4753L51.7948 41.66ZM49.9708 42.98L49.8371 42.7953L49.7428 42.8636V42.98H49.9708ZM50.0308 40.616L50.2576 40.639L50.2833 40.3857L50.0287 40.388L50.0308 40.616ZM49.8028 42.86L49.9163 43.0577L50.0178 42.9994L50.0296 42.883L49.8028 42.86ZM48.6868 40.628L48.6847 40.4L48.4264 40.4023L48.4608 40.6584L48.6868 40.628ZM48.9028 42.236L49.0167 42.4335L49.1491 42.3571L49.1287 42.2056L48.9028 42.236ZM48.5908 42.416L48.4529 42.5976L48.5735 42.6892L48.7047 42.6135L48.5908 42.416ZM47.2948 41.432L47.4326 41.2504L47.2276 41.0947L47.0978 41.3171L47.2948 41.432ZM46.6228 42.584L46.4258 42.4691L46.2982 42.6879L46.5292 42.7919L46.6228 42.584ZM48.6748 43.508L48.5812 43.7159L48.6873 43.7637L48.7883 43.7057L48.6748 43.508ZM46.6228 44.672L46.5292 44.4641L46.2971 44.5686L46.4264 44.7878L46.6228 44.672ZM48.6748 43.748L48.7883 43.5503L48.6873 43.4923L48.5812 43.5401L48.6748 43.748ZM47.2948 45.812L47.0984 45.9278L47.2277 46.1473L47.4316 45.9944L47.2948 45.812ZM48.5908 44.84L48.7047 44.6425L48.5744 44.5673L48.454 44.6576L48.5908 44.84ZM48.9028 45.02L49.1289 45.0489L49.1482 44.8984L49.0167 44.8225L48.9028 45.02ZM48.6988 46.616L48.4726 46.5871L48.4404 46.8394L48.6947 46.844L48.6988 46.616ZM50.0308 46.64L50.0267 46.868L50.2836 46.8726L50.2576 46.617L50.0308 46.64ZM49.8028 44.396L50.0296 44.373L50.0178 44.2566L49.9163 44.1983L49.8028 44.396ZM27.4603 41C27.4603 37.2599 30.4922 34.228 34.2323 34.228V33.772C30.2404 33.772 27.0043 37.0081 27.0043 41H27.4603ZM27.4603 46V41H27.0043V46H27.4603ZM34.2323 52.772C30.4922 52.772 27.4603 49.7401 27.4603 46H27.0043C27.0043 49.9919 30.2404 53.228 34.2323 53.228V52.772ZM45.2174 52.772H34.2323V53.228H45.2174V52.772ZM51.4393 47.772C48.2823 47.772 45.6437 49.9892 44.9947 52.9512L45.4401 53.0488C46.0442 50.2916 48.5011 48.228 51.4393 48.228V47.772ZM51.6454 47.772H51.4393V48.228H51.6454V47.772ZM51.726 46.8659L51.4259 47.9386L51.865 48.0614L52.1651 46.9888L51.726 46.8659ZM53.075 46.4716C52.618 46.0632 51.8911 46.2757 51.726 46.8659L52.1651 46.9888C52.2393 46.7236 52.5659 46.6282 52.7712 46.8116L53.075 46.4716ZM55.2289 48.396L53.075 46.4716L52.7712 46.8116L54.9251 48.7361L55.2289 48.396ZM55.3342 46C55.3342 46.8767 55.1677 47.7141 54.8649 48.4824L55.2891 48.6497C55.6126 47.8289 55.7902 46.9349 55.7902 46H55.3342ZM55.3342 41V46H55.7902V41H55.3342ZM48.5622 34.228C52.3023 34.228 55.3342 37.2599 55.3342 41H55.7902C55.7902 37.0081 52.5542 33.772 48.5622 33.772V34.228ZM34.2323 34.228H48.5622V33.772H34.2323V34.228ZM35.1408 45.4113L33.3168 44.0913L33.0495 44.4607L34.8735 45.7807L35.1408 45.4113ZM35.4688 44.3195L34.8088 45.4835L35.2055 45.7085L35.8655 44.5445L35.4688 44.3195ZM34.0796 44.0185L35.5796 44.6425L35.7547 44.2215L34.2547 43.5975L34.0796 44.0185ZM33.9392 43.448V43.808H34.3952V43.448H33.9392ZM35.5796 42.6135L34.0796 43.2375L34.2547 43.6585L35.7547 43.0345L35.5796 42.6135ZM34.8088 41.7725L35.4688 42.9365L35.8655 42.7115L35.2055 41.5475L34.8088 41.7725ZM33.3168 43.1647L35.1408 41.8447L34.8735 41.4753L33.0495 42.7953L33.3168 43.1647ZM33.4112 44.276V42.98H32.9552V44.276H33.4112ZM33.0163 40.593L32.7883 42.837L33.242 42.883L33.47 40.639L33.0163 40.593ZM31.9012 40.856L33.2452 40.844L33.2411 40.388L31.8971 40.4L31.9012 40.856ZM32.3411 42.2056L32.1251 40.5976L31.6732 40.6584L31.8892 42.2664L32.3411 42.2056ZM31.9171 42.6135L32.2291 42.4335L32.0012 42.0385L31.6892 42.2185L31.9171 42.6135ZM30.3693 41.6136L31.6653 42.5976L31.941 42.2344L30.645 41.2504L30.3693 41.6136ZM30.0321 42.6989L30.7041 41.5469L30.3102 41.3171L29.6382 42.4691L30.0321 42.6989ZM31.9808 43.3001L29.9288 42.3761L29.7415 42.7919L31.7935 43.7159L31.9808 43.3001ZM32.9016 42.6623L31.7736 43.3103L32.0007 43.7057L33.1287 43.0577L32.9016 42.6623ZM29.9288 44.8799L31.9808 43.9559L31.7935 43.5401L29.7415 44.4641L29.9288 44.8799ZM30.7036 45.6962L30.0316 44.5562L29.6387 44.7878L30.3107 45.9278L30.7036 45.6962ZM31.6664 44.6576L30.3704 45.6296L30.644 45.9944L31.94 45.0224L31.6664 44.6576ZM32.2291 44.8225L31.9171 44.6425L31.6892 45.0375L32.0012 45.2175L32.2291 44.8225ZM32.1373 46.6449L32.3413 45.0489L31.889 44.9911L31.685 46.5871L32.1373 46.6449ZM33.2473 46.412L31.9153 46.388L31.907 46.844L33.239 46.868L33.2473 46.412ZM32.7883 44.419L33.0163 46.663L33.47 46.617L33.242 44.373L32.7883 44.419ZM31.7736 43.9457L32.9016 44.5937L33.1287 44.1983L32.0007 43.5503L31.7736 43.9457ZM41.4433 44.4607L43.2673 45.7807L43.5346 45.4113L41.7106 44.0913L41.4433 44.4607ZM41.349 42.98V44.276H41.805V42.98H41.349ZM43.2673 41.4753L41.4433 42.7953L41.7106 43.1647L43.5346 41.8447L43.2673 41.4753ZM44.2593 42.7115L43.5993 41.5475L43.2026 41.7725L43.8626 42.9365L44.2593 42.7115ZM42.6485 43.6585L44.1485 43.0345L43.9734 42.6135L42.4734 43.2375L42.6485 43.6585ZM42.789 43.808V43.448H42.333V43.808H42.789ZM44.1485 44.2215L42.6485 43.5975L42.4734 44.0185L43.9734 44.6425L44.1485 44.2215ZM43.5993 45.7085L44.2593 44.5445L43.8626 44.3195L43.2026 45.4835L43.5993 45.7085ZM41.6358 42.883L41.8638 40.639L41.4101 40.593L41.1821 42.837L41.6358 42.883ZM40.3945 43.7057L41.5225 43.0577L41.2954 42.6623L40.1674 43.3103L40.3945 43.7057ZM38.1353 42.7919L40.1873 43.7159L40.3746 43.3001L38.3226 42.3761L38.1353 42.7919ZM38.704 41.3171L38.032 42.4691L38.4259 42.6989L39.0979 41.5469L38.704 41.3171ZM40.3348 42.2344L39.0388 41.2504L38.7631 41.6136L40.0591 42.5976L40.3348 42.2344ZM40.395 42.0385L40.083 42.2185L40.3109 42.6135L40.6229 42.4335L40.395 42.0385ZM40.067 40.6584L40.283 42.2664L40.7349 42.2056L40.5189 40.5976L40.067 40.6584ZM41.6349 40.388L40.2909 40.4L40.295 40.856L41.639 40.844L41.6349 40.388ZM40.1873 43.5401L38.1353 44.4641L38.3226 44.8799L40.3746 43.9559L40.1873 43.5401ZM41.5225 44.1983L40.3945 43.5503L40.1674 43.9457L41.2954 44.5937L41.5225 44.1983ZM41.8638 46.617L41.6358 44.373L41.1821 44.419L41.4101 46.663L41.8638 46.617ZM40.3008 46.844L41.6328 46.868L41.6411 46.412L40.3091 46.388L40.3008 46.844ZM40.2828 44.9911L40.0788 46.5871L40.5311 46.6449L40.7351 45.0489L40.2828 44.9911ZM40.083 45.0375L40.395 45.2175L40.6229 44.8225L40.3109 44.6425L40.083 45.0375ZM39.0378 45.9944L40.3338 45.0224L40.0602 44.6576L38.7642 45.6296L39.0378 45.9944ZM38.0325 44.7878L38.7045 45.9278L39.0974 45.6962L38.4254 44.5562L38.0325 44.7878ZM51.9284 45.4113L50.1044 44.0913L49.8371 44.4607L51.6611 45.7807L51.9284 45.4113ZM52.2564 44.3195L51.5964 45.4835L51.9931 45.7085L52.6531 44.5445L52.2564 44.3195ZM50.8672 44.0185L52.3672 44.6425L52.5423 44.2215L51.0423 43.5975L50.8672 44.0185ZM50.7268 43.448V43.808H51.1828V43.448H50.7268ZM52.3672 42.6135L50.8672 43.2375L51.0423 43.6585L52.5423 43.0345L52.3672 42.6135ZM51.5964 41.7725L52.2564 42.9365L52.6531 42.7115L51.9931 41.5475L51.5964 41.7725ZM50.1044 43.1647L51.9284 41.8447L51.6611 41.4753L49.8371 42.7953L50.1044 43.1647ZM50.1988 44.276V42.98H49.7428V44.276H50.1988ZM49.8039 40.593L49.5759 42.837L50.0296 42.883L50.2576 40.639L49.8039 40.593ZM48.6888 40.856L50.0328 40.844L50.0287 40.388L48.6847 40.4L48.6888 40.856ZM49.1287 42.2056L48.9127 40.5976L48.4608 40.6584L48.6768 42.2664L49.1287 42.2056ZM48.7047 42.6135L49.0167 42.4335L48.7888 42.0385L48.4768 42.2185L48.7047 42.6135ZM47.1569 41.6136L48.4529 42.5976L48.7286 42.2344L47.4326 41.2504L47.1569 41.6136ZM46.8197 42.6989L47.4917 41.5469L47.0978 41.3171L46.4258 42.4691L46.8197 42.6989ZM48.7684 43.3001L46.7164 42.3761L46.5292 42.7919L48.5812 43.7159L48.7684 43.3001ZM49.6892 42.6623L48.5612 43.3103L48.7883 43.7057L49.9163 43.0577L49.6892 42.6623ZM46.7164 44.8799L48.7684 43.9559L48.5812 43.5401L46.5292 44.4641L46.7164 44.8799ZM47.4912 45.6962L46.8192 44.5562L46.4264 44.7878L47.0984 45.9278L47.4912 45.6962ZM48.454 44.6576L47.158 45.6296L47.4316 45.9944L48.7276 45.0224L48.454 44.6576ZM49.0167 44.8225L48.7047 44.6425L48.4768 45.0375L48.7888 45.2175L49.0167 44.8225ZM48.9249 46.6449L49.1289 45.0489L48.6766 44.9911L48.4726 46.5871L48.9249 46.6449ZM50.0349 46.412L48.7029 46.388L48.6947 46.844L50.0267 46.868L50.0349 46.412ZM49.5759 44.419L49.8039 46.663L50.2576 46.617L50.0296 44.373L49.5759 44.419ZM48.5612 43.9457L49.6892 44.5937L49.9163 44.1983L48.7883 43.5503L48.5612 43.9457Z" fill="white" mask="url(#path-5-inside-2_1_3591)"/>
</g>
<g filter="url(#filter2_d_1_3591)">
<path d="M55.2755 51.0361L53.3754 49.2252C53.2186 49.0758 53.0596 49 52.9028 49C52.6874 49 52.436 49.1561 52.436 49.596V50.2125C51.0555 50.2699 49.7663 50.8095 48.783 51.7465C47.7416 52.739 47.1679 54.0587 47.1678 55.4623C47.1678 55.5632 47.2355 55.6527 47.3359 55.6846C47.3615 55.6928 47.3877 55.6967 47.4137 55.6967C47.4896 55.6967 47.563 55.6632 47.6104 55.6031C48.7714 54.1302 50.5194 53.2597 52.436 53.191V53.798C52.436 54.238 52.6874 54.3941 52.9028 54.3941H52.9028C53.0596 54.3941 53.2187 54.3183 53.3754 54.1689L55.2755 52.358C55.4602 52.182 55.5619 51.9473 55.5619 51.697C55.5619 51.4468 55.4602 51.2121 55.2755 51.0361Z" fill="url(#paint7_linear_1_3591)"/>
<path d="M52.55 50.3219L52.4407 50.3264C51.0872 50.3827 49.8244 50.9115 48.8617 51.8291C47.8421 52.8007 47.2819 54.0907 47.2818 55.4623L52.55 50.3219ZM52.55 50.3219V50.2125V49.596C52.55 49.398 52.6061 49.2798 52.6711 49.2118C52.7366 49.1431 52.8221 49.114 52.9028 49.114C53.0207 49.114 53.153 49.1707 53.2968 49.3077L55.1969 51.1186L55.2755 51.0361M52.55 50.3219L55.2755 51.0361M55.2755 51.0361L55.1969 51.1186C55.3595 51.2736 55.4479 51.4787 55.4479 51.697C55.4479 51.9154 55.3595 52.1205 55.1969 52.2754L55.1969 52.2754L53.2968 54.0864C53.153 54.2234 53.0207 54.2801 52.9028 54.2801H52.9028C52.8221 54.2801 52.7367 54.251 52.6711 54.1823C52.6061 54.1143 52.55 53.996 52.55 53.798V53.191V53.0729M55.2755 51.0361L52.55 53.0729M52.55 53.0729L52.4319 53.0771M52.55 53.0729L52.4319 53.0771M52.4319 53.0771C50.483 53.147 48.7033 54.0325 47.5208 55.5325C47.4963 55.5636 47.4567 55.5827 47.4137 55.5827C47.3992 55.5827 47.3847 55.5805 47.3704 55.576M52.4319 53.0771L47.3704 55.576M47.3704 55.576C47.3145 55.5582 47.2819 55.5106 47.2818 55.4623L47.3704 55.576Z" stroke="white" stroke-width="0.228"/>
</g>
<g opacity="0.4" filter="url(#filter3_f_1_3591)">
<path d="M26.7815 62.5386C27.1519 62.1925 27.64 62 28.1469 62H52.9019C53.4969 62 54.0611 62.265 54.4411 62.7229L59.2344 68.5L20.9365 68L26.7815 62.5386Z" fill="url(#paint8_linear_1_3591)"/>
</g>
</g>
<defs>
<filter id="filter0_i_1_3591" x="23.0344" y="25.998" width="35.6759" height="34.2732" filterUnits="userSpaceOnUse" color-interpolation-filters="sRGB">
<feFlood flood-opacity="0" result="BackgroundImageFix"/>
<feBlend mode="normal" in="SourceGraphic" in2="BackgroundImageFix" result="shape"/>
<feColorMatrix in="SourceAlpha" type="matrix" values="0 0 0 0 0 0 0 0 0 0 0 0 0 0 0 0 0 0 127 0" result="hardAlpha"/>
<feOffset dy="0.272009"/>
<feGaussianBlur stdDeviation="0.993135"/>
<feComposite in2="hardAlpha" operator="arithmetic" k2="-1" k3="1"/>
<feColorMatrix type="matrix" values="0 0 0 0 1 0 0 0 0 1 0 0 0 0 1 0 0 0 0.65 0"/>
<feBlend mode="normal" in2="shape" result="effect1_innerShadow_1_3591"/>
</filter>
<filter id="filter1_d_1_3591" x="25.4083" y="33.24" width="31.978" height="22.648" filterUnits="userSpaceOnUse" color-interpolation-filters="sRGB">
<feFlood flood-opacity="0" result="BackgroundImageFix"/>
<feColorMatrix in="SourceAlpha" type="matrix" values="0 0 0 0 0 0 0 0 0 0 0 0 0 0 0 0 0 0 127 0" result="hardAlpha"/>
<feOffset dy="1.064"/>
<feGaussianBlur stdDeviation="0.912"/>
<feComposite in2="hardAlpha" operator="out"/>
<feColorMatrix type="matrix" values="0 0 0 0 0 0 0 0 0 0 0 0 0 0 0 0 0 0 0.35 0"/>
<feBlend mode="normal" in2="BackgroundImageFix" result="effect1_dropShadow_1_3591"/>
<feBlend mode="normal" in="SourceGraphic" in2="effect1_dropShadow_1_3591" result="shape"/>
</filter>
<filter id="filter2_d_1_3591" x="45.3438" y="48.24" width="12.042" height="10.3447" filterUnits="userSpaceOnUse" color-interpolation-filters="sRGB">
<feFlood flood-opacity="0" result="BackgroundImageFix"/>
<feColorMatrix in="SourceAlpha" type="matrix" values="0 0 0 0 0 0 0 0 0 0 0 0 0 0 0 0 0 0 127 0" result="hardAlpha"/>
<feOffset dy="1.064"/>
<feGaussianBlur stdDeviation="0.912"/>
<feComposite in2="hardAlpha" operator="out"/>
<feColorMatrix type="matrix" values="0 0 0 0 0 0 0 0 0 0 0 0 0 0 0 0 0 0 0.35 0"/>
<feBlend mode="normal" in2="BackgroundImageFix" result="effect1_dropShadow_1_3591"/>
<feBlend mode="normal" in="SourceGraphic" in2="effect1_dropShadow_1_3591" result="shape"/>
</filter>
<filter id="filter3_f_1_3591" x="17.9365" y="59" width="44.2979" height="12.5" filterUnits="userSpaceOnUse" color-interpolation-filters="sRGB">
<feFlood flood-opacity="0" result="BackgroundImageFix"/>
<feBlend mode="normal" in="SourceGraphic" in2="BackgroundImageFix" result="shape"/>
<feGaussianBlur stdDeviation="1.5" result="effect1_foregroundBlur_1_3591"/>
</filter>
<linearGradient id="paint0_linear_1_3591" x1="17.2635" y1="-13" x2="17.2635" y2="88" gradientUnits="userSpaceOnUse">
<stop stop-color="white"/>
<stop offset="1" stop-color="white" stop-opacity="0"/>
</linearGradient>
<linearGradient id="paint1_linear_1_3591" x1="17.2635" y1="-13" x2="17.2635" y2="66" gradientUnits="userSpaceOnUse">
<stop stop-color="white"/>
<stop offset="1" stop-color="white" stop-opacity="0"/>
</linearGradient>
<radialGradient id="paint2_radial_1_3591" cx="0" cy="0" r="1" gradientUnits="userSpaceOnUse" gradientTransform="translate(40.8724 28.3163) rotate(-90) scale(11.1698 25.7235)">
<stop stop-color="white"/>
<stop offset="1" stop-color="white" stop-opacity="0"/>
</radialGradient>
<radialGradient id="paint3_radial_1_3591" cx="0" cy="0" r="1" gradientUnits="userSpaceOnUse" gradientTransform="translate(40.8724 61.3691) rotate(-90) scale(3.68814 17.3333)">
<stop stop-color="white"/>
<stop offset="1" stop-color="white" stop-opacity="0"/>
</radialGradient>
<radialGradient id="paint4_radial_1_3591" cx="0" cy="0" r="1" gradientUnits="userSpaceOnUse" gradientTransform="translate(40.8724 59.9992) rotate(-90) scale(6.77916 31.8602)">
<stop stop-color="white"/>
<stop offset="1" stop-color="white" stop-opacity="0"/>
</radialGradient>
<radialGradient id="paint5_radial_1_3591" cx="0" cy="0" r="1" gradientUnits="userSpaceOnUse" gradientTransform="translate(40.8728 44.5) rotate(90) scale(18 18.8866)">
<stop offset="0.445" stop-color="#FEEF7E"/>
<stop offset="0.875" stop-color="#FEEF7E" stop-opacity="0"/>
</radialGradient>
<linearGradient id="paint6_linear_1_3591" x1="35.1017" y1="34" x2="35.1017" y2="53" gradientUnits="userSpaceOnUse">
<stop offset="0.305162" stop-color="white"/>
<stop offset="1" stop-color="#FF9D6F"/>
</linearGradient>
<linearGradient id="paint7_linear_1_3591" x1="51.3649" y1="49" x2="51.3649" y2="55.6967" gradientUnits="userSpaceOnUse">
<stop offset="0.305162" stop-color="white"/>
<stop offset="1" stop-color="#FF9D6F"/>
</linearGradient>
<linearGradient id="paint8_linear_1_3591" x1="44.3979" y1="62" x2="44.3979" y2="68" gradientUnits="userSpaceOnUse">
<stop stop-color="#FFF78B"/>
<stop offset="1" stop-color="#F46932"/>
</linearGradient>
<clipPath id="clip0_1_3591">
<rect width="62" height="76" fill="white"/>
</clipPath>
</defs>
</svg>
