<svg width="62" height="76" viewBox="0 0 62 76" fill="none" xmlns="http://www.w3.org/2000/svg">
<g clip-path="url(#clip0_3_3668)">
<mask id="path-1-outside-1_3_3668" maskUnits="userSpaceOnUse" x="2" y="8" width="25" height="55" fill="black">
<rect fill="white" x="2" y="8" width="25" height="55"/>
<path d="M13.672 62V17.216L16.84 19.664H3.376V9.44H25.408V62H13.672Z"/>
</mask>
<path d="M13.672 62V17.216L16.84 19.664H3.376V9.44H25.408V62H13.672Z" fill="url(#paint0_linear_3_3668)" fill-opacity="0.07"/>
<path d="M13.672 62H12.672V63H13.672V62ZM13.672 17.216L14.2834 16.4247L12.672 15.1795V17.216H13.672ZM16.84 19.664V20.664H19.7696L17.4514 18.8727L16.84 19.664ZM3.376 19.664H2.376V20.664H3.376V19.664ZM3.376 9.44V8.44H2.376V9.44H3.376ZM25.408 9.44H26.408V8.44H25.408V9.44ZM25.408 62V63H26.408V62H25.408ZM14.672 62V17.216H12.672V62H14.672ZM13.0606 18.0073L16.2286 20.4553L17.4514 18.8727L14.2834 16.4247L13.0606 18.0073ZM16.84 18.664H3.376V20.664H16.84V18.664ZM4.376 19.664V9.44H2.376V19.664H4.376ZM3.376 10.44H25.408V8.44H3.376V10.44ZM24.408 9.44V62H26.408V9.44H24.408ZM25.408 61H13.672V63H25.408V61Z" fill="url(#paint1_linear_3_3668)" fill-opacity="0.5" mask="url(#path-1-outside-1_3_3668)"/>
<g opacity="0.4" filter="url(#filter0_b_3_3668)">
<rect x="20.5479" y="24" width="39.8718" height="38" rx="8.36" fill="#D0D2D1"/>
</g>
<g opacity="0.4" filter="url(#filter1_i_3_3668)">
<rect x="22.6459" y="25.998" width="35.676" height="34.0012" rx="7.48" fill="#D0D2D1"/>
</g>
<g filter="url(#filter2_bi_3_3668)">
<mask id="path-5-inside-2_3_3668" fill="white">
<path fill-rule="evenodd" clip-rule="evenodd" d="M33 32C29.134 32 26 35.134 26 39V44C26 47.866 29.134 51 33 51H43.9851C44.6117 48.1404 47.1594 46 50.207 46H50.4131L50.7133 44.9274C50.8329 44.4997 51.3596 44.3457 51.6908 44.6416L53.8447 46.566C54.1579 45.7715 54.3299 44.9058 54.3299 44V39C54.3299 35.134 51.1959 32 47.3299 32H33ZM31.9509 42.276L33.7749 43.596L34.4349 42.432L32.9349 41.808V41.448L34.4349 40.824L33.7749 39.66L31.9509 40.98V42.276ZM31.7829 40.86L32.0109 38.616L30.6669 38.628L30.8829 40.236L30.5709 40.416L29.2749 39.432L28.6029 40.584L30.6549 41.508L31.7829 40.86ZM30.6549 41.748L28.6029 42.672L29.2749 43.812L30.5709 42.84L30.8829 43.02L30.6789 44.616L32.0109 44.64L31.7829 42.396L30.6549 41.748ZM42.1687 43.596L40.3447 42.276V40.98L42.1687 39.66L42.8287 40.824L41.3287 41.448V41.808L42.8287 42.432L42.1687 43.596ZM40.4047 38.616L40.1767 40.86L39.0487 41.508L36.9967 40.584L37.6687 39.432L38.9647 40.416L39.2767 40.236L39.0607 38.628L40.4047 38.616ZM36.9967 42.672L39.0487 41.748L40.1767 42.396L40.4047 44.64L39.0727 44.616L39.2767 43.02L38.9647 42.84L37.6687 43.812L36.9967 42.672ZM48.7385 42.276L50.5625 43.596L51.2225 42.432L49.7225 41.808V41.448L51.2225 40.824L50.5625 39.66L48.7385 40.98V42.276ZM48.5705 40.86L48.7985 38.616L47.4545 38.628L47.6705 40.236L47.3585 40.416L46.0625 39.432L45.3905 40.584L47.4425 41.508L48.5705 40.86ZM47.4425 41.748L45.3905 42.672L46.0625 43.812L47.3585 42.84L47.6705 43.02L47.4665 44.616L48.7985 44.64L48.5705 42.396L47.4425 41.748Z"/>
</mask>
<path fill-rule="evenodd" clip-rule="evenodd" d="M33 32C29.134 32 26 35.134 26 39V44C26 47.866 29.134 51 33 51H43.9851C44.6117 48.1404 47.1594 46 50.207 46H50.4131L50.7133 44.9274C50.8329 44.4997 51.3596 44.3457 51.6908 44.6416L53.8447 46.566C54.1579 45.7715 54.3299 44.9058 54.3299 44V39C54.3299 35.134 51.1959 32 47.3299 32H33ZM31.9509 42.276L33.7749 43.596L34.4349 42.432L32.9349 41.808V41.448L34.4349 40.824L33.7749 39.66L31.9509 40.98V42.276ZM31.7829 40.86L32.0109 38.616L30.6669 38.628L30.8829 40.236L30.5709 40.416L29.2749 39.432L28.6029 40.584L30.6549 41.508L31.7829 40.86ZM30.6549 41.748L28.6029 42.672L29.2749 43.812L30.5709 42.84L30.8829 43.02L30.6789 44.616L32.0109 44.64L31.7829 42.396L30.6549 41.748ZM42.1687 43.596L40.3447 42.276V40.98L42.1687 39.66L42.8287 40.824L41.3287 41.448V41.808L42.8287 42.432L42.1687 43.596ZM40.4047 38.616L40.1767 40.86L39.0487 41.508L36.9967 40.584L37.6687 39.432L38.9647 40.416L39.2767 40.236L39.0607 38.628L40.4047 38.616ZM36.9967 42.672L39.0487 41.748L40.1767 42.396L40.4047 44.64L39.0727 44.616L39.2767 43.02L38.9647 42.84L37.6687 43.812L36.9967 42.672ZM48.7385 42.276L50.5625 43.596L51.2225 42.432L49.7225 41.808V41.448L51.2225 40.824L50.5625 39.66L48.7385 40.98V42.276ZM48.5705 40.86L48.7985 38.616L47.4545 38.628L47.6705 40.236L47.3585 40.416L46.0625 39.432L45.3905 40.584L47.4425 41.508L48.5705 40.86ZM47.4425 41.748L45.3905 42.672L46.0625 43.812L47.3585 42.84L47.6705 43.02L47.4665 44.616L48.7985 44.64L48.5705 42.396L47.4425 41.748Z" fill="#FAFCFB" fill-opacity="0.7"/>
<path d="M43.9851 51V51.228H44.1685L44.2078 51.0488L43.9851 51ZM50.4131 46V46.228H50.5861L50.6327 46.0614L50.4131 46ZM50.7133 44.9274L50.4937 44.8659L50.4937 44.8659L50.7133 44.9274ZM51.6908 44.6416L51.5389 44.8116L51.5389 44.8116L51.6908 44.6416ZM53.8447 46.566L53.6928 46.7361L53.9368 46.9541L54.0568 46.6497L53.8447 46.566ZM33.7749 43.596L33.6412 43.7807L33.8475 43.93L33.9732 43.7085L33.7749 43.596ZM31.9509 42.276H31.7229V42.3924L31.8172 42.4607L31.9509 42.276ZM34.4349 42.432L34.6332 42.5445L34.7602 42.3204L34.5224 42.2215L34.4349 42.432ZM32.9349 41.808H32.7069V41.9601L32.8473 42.0185L32.9349 41.808ZM32.9349 41.448L32.8473 41.2375L32.7069 41.2959V41.448H32.9349ZM34.4349 40.824L34.5224 41.0345L34.7602 40.9356L34.6332 40.7115L34.4349 40.824ZM33.7749 39.66L33.9732 39.5475L33.8475 39.326L33.6412 39.4753L33.7749 39.66ZM31.9509 40.98L31.8172 40.7953L31.7229 40.8636V40.98H31.9509ZM32.0109 38.616L32.2377 38.639L32.2634 38.3857L32.0088 38.388L32.0109 38.616ZM31.7829 40.86L31.8964 41.0577L31.9979 40.9994L32.0097 40.883L31.7829 40.86ZM30.6669 38.628L30.6648 38.4L30.4065 38.4023L30.4409 38.6584L30.6669 38.628ZM30.8829 40.236L30.9968 40.4335L31.1292 40.3571L31.1088 40.2056L30.8829 40.236ZM30.5709 40.416L30.433 40.5976L30.5536 40.6892L30.6848 40.6135L30.5709 40.416ZM29.2749 39.432L29.4127 39.2504L29.2077 39.0947L29.0779 39.3171L29.2749 39.432ZM28.6029 40.584L28.4059 40.4691L28.2783 40.6879L28.5092 40.7919L28.6029 40.584ZM30.6549 41.508L30.5612 41.7159L30.6674 41.7637L30.7684 41.7057L30.6549 41.508ZM28.6029 42.672L28.5092 42.4641L28.2772 42.5686L28.4064 42.7878L28.6029 42.672ZM30.6549 41.748L30.7684 41.5503L30.6674 41.4923L30.5612 41.5401L30.6549 41.748ZM29.2749 43.812L29.0784 43.9278L29.2078 44.1473L29.4117 43.9944L29.2749 43.812ZM30.5709 42.84L30.6848 42.6425L30.5544 42.5673L30.4341 42.6576L30.5709 42.84ZM30.8829 43.02L31.109 43.0489L31.1283 42.8984L30.9968 42.8225L30.8829 43.02ZM30.6789 44.616L30.4527 44.5871L30.4204 44.8394L30.6747 44.844L30.6789 44.616ZM32.0109 44.64L32.0067 44.868L32.2637 44.8726L32.2377 44.617L32.0109 44.64ZM31.7829 42.396L32.0097 42.373L31.9979 42.2566L31.8964 42.1983L31.7829 42.396ZM40.3447 42.276H40.1167V42.3924L40.211 42.4607L40.3447 42.276ZM42.1687 43.596L42.035 43.7807L42.2413 43.93L42.367 43.7085L42.1687 43.596ZM40.3447 40.98L40.211 40.7953L40.1167 40.8636V40.98H40.3447ZM42.1687 39.66L42.367 39.5475L42.2413 39.326L42.035 39.4753L42.1687 39.66ZM42.8287 40.824L42.9162 41.0345L43.154 40.9356L43.027 40.7115L42.8287 40.824ZM41.3287 41.448L41.2411 41.2375L41.1007 41.2959V41.448H41.3287ZM41.3287 41.808H41.1007V41.9601L41.2411 42.0185L41.3287 41.808ZM42.8287 42.432L43.027 42.5445L43.154 42.3204L42.9162 42.2215L42.8287 42.432ZM40.1767 40.86L40.2902 41.0577L40.3917 40.9994L40.4035 40.883L40.1767 40.86ZM40.4047 38.616L40.6315 38.639L40.6572 38.3857L40.4026 38.388L40.4047 38.616ZM39.0487 41.508L38.955 41.7159L39.0612 41.7637L39.1622 41.7057L39.0487 41.508ZM36.9967 40.584L36.7997 40.4691L36.6721 40.6879L36.903 40.7919L36.9967 40.584ZM37.6687 39.432L37.8065 39.2504L37.6015 39.0947L37.4717 39.3171L37.6687 39.432ZM38.9647 40.416L38.8268 40.5976L38.9474 40.6892L39.0786 40.6135L38.9647 40.416ZM39.2767 40.236L39.3906 40.4335L39.523 40.3571L39.5026 40.2056L39.2767 40.236ZM39.0607 38.628L39.0586 38.4L38.8003 38.4023L38.8347 38.6584L39.0607 38.628ZM39.0487 41.748L39.1622 41.5503L39.0612 41.4923L38.955 41.5401L39.0487 41.748ZM36.9967 42.672L36.903 42.4641L36.671 42.5686L36.8002 42.7878L36.9967 42.672ZM40.1767 42.396L40.4035 42.373L40.3917 42.2566L40.2902 42.1983L40.1767 42.396ZM40.4047 44.64L40.4005 44.868L40.6575 44.8726L40.6315 44.617L40.4047 44.64ZM39.0727 44.616L38.8465 44.5871L38.8143 44.8394L39.0686 44.844L39.0727 44.616ZM39.2767 43.02L39.5028 43.0489L39.5221 42.8984L39.3906 42.8225L39.2767 43.02ZM38.9647 42.84L39.0786 42.6425L38.9482 42.5673L38.8279 42.6576L38.9647 42.84ZM37.6687 43.812L37.4722 43.9278L37.6016 44.1473L37.8055 43.9944L37.6687 43.812ZM50.5625 43.596L50.4288 43.7807L50.6352 43.93L50.7608 43.7085L50.5625 43.596ZM48.7385 42.276H48.5105V42.3924L48.6048 42.4607L48.7385 42.276ZM51.2225 42.432L51.4208 42.5445L51.5478 42.3204L51.31 42.2215L51.2225 42.432ZM49.7225 41.808H49.4945V41.9601L49.6349 42.0185L49.7225 41.808ZM49.7225 41.448L49.6349 41.2375L49.4945 41.2959V41.448H49.7225ZM51.2225 40.824L51.31 41.0345L51.5478 40.9356L51.4208 40.7115L51.2225 40.824ZM50.5625 39.66L50.7608 39.5475L50.6352 39.326L50.4288 39.4753L50.5625 39.66ZM48.7385 40.98L48.6048 40.7953L48.5105 40.8636V40.98H48.7385ZM48.7985 38.616L49.0253 38.639L49.051 38.3857L48.7964 38.388L48.7985 38.616ZM48.5705 40.86L48.684 41.0577L48.7855 40.9994L48.7973 40.883L48.5705 40.86ZM47.4545 38.628L47.4524 38.4L47.1941 38.4023L47.2285 38.6584L47.4545 38.628ZM47.6705 40.236L47.7844 40.4335L47.9168 40.3571L47.8964 40.2056L47.6705 40.236ZM47.3585 40.416L47.2206 40.5976L47.3412 40.6892L47.4724 40.6135L47.3585 40.416ZM46.0625 39.432L46.2003 39.2504L45.9953 39.0947L45.8655 39.3171L46.0625 39.432ZM45.3905 40.584L45.1935 40.4691L45.0659 40.6879L45.2969 40.7919L45.3905 40.584ZM47.4425 41.508L47.3489 41.7159L47.455 41.7637L47.556 41.7057L47.4425 41.508ZM45.3905 42.672L45.2969 42.4641L45.0648 42.5686L45.1941 42.7878L45.3905 42.672ZM47.4425 41.748L47.556 41.5503L47.455 41.4923L47.3489 41.5401L47.4425 41.748ZM46.0625 43.812L45.8661 43.9278L45.9954 44.1473L46.1993 43.9944L46.0625 43.812ZM47.3585 42.84L47.4724 42.6425L47.3421 42.5673L47.2217 42.6576L47.3585 42.84ZM47.6705 43.02L47.8966 43.0489L47.9159 42.8984L47.7844 42.8225L47.6705 43.02ZM47.4665 44.616L47.2403 44.5871L47.2081 44.8394L47.4624 44.844L47.4665 44.616ZM48.7985 44.64L48.7944 44.868L49.0513 44.8726L49.0253 44.617L48.7985 44.64ZM48.5705 42.396L48.7973 42.373L48.7855 42.2566L48.684 42.1983L48.5705 42.396ZM26.228 39C26.228 35.2599 29.2599 32.228 33 32.228V31.772C29.0081 31.772 25.772 35.0081 25.772 39H26.228ZM26.228 44V39H25.772V44H26.228ZM33 50.772C29.2599 50.772 26.228 47.7401 26.228 44H25.772C25.772 47.9919 29.0081 51.228 33 51.228V50.772ZM43.9851 50.772H33V51.228H43.9851V50.772ZM50.207 45.772C47.05 45.772 44.4114 47.9892 43.7624 50.9512L44.2078 51.0488C44.8119 48.2916 47.2688 46.228 50.207 46.228V45.772ZM50.4131 45.772H50.207V46.228H50.4131V45.772ZM50.4937 44.8659L50.1936 45.9386L50.6327 46.0614L50.9328 44.9888L50.4937 44.8659ZM51.8427 44.4716C51.3857 44.0632 50.6588 44.2757 50.4937 44.8659L50.9328 44.9888C51.007 44.7236 51.3336 44.6282 51.5389 44.8116L51.8427 44.4716ZM53.9966 46.396L51.8427 44.4716L51.5389 44.8116L53.6928 46.7361L53.9966 46.396ZM54.1019 44C54.1019 44.8767 53.9354 45.7141 53.6326 46.4824L54.0568 46.6497C54.3803 45.8289 54.5579 44.9349 54.5579 44H54.1019ZM54.1019 39V44H54.5579V39H54.1019ZM47.3299 32.228C51.07 32.228 54.1019 35.2599 54.1019 39H54.5579C54.5579 35.0081 51.3219 31.772 47.3299 31.772V32.228ZM33 32.228H47.3299V31.772H33V32.228ZM33.9085 43.4113L32.0845 42.0913L31.8172 42.4607L33.6412 43.7807L33.9085 43.4113ZM34.2365 42.3195L33.5765 43.4835L33.9732 43.7085L34.6332 42.5445L34.2365 42.3195ZM32.8473 42.0185L34.3473 42.6425L34.5224 42.2215L33.0224 41.5975L32.8473 42.0185ZM32.7069 41.448V41.808H33.1629V41.448H32.7069ZM34.3473 40.6135L32.8473 41.2375L33.0224 41.6585L34.5224 41.0345L34.3473 40.6135ZM33.5765 39.7725L34.2365 40.9365L34.6332 40.7115L33.9732 39.5475L33.5765 39.7725ZM32.0845 41.1647L33.9085 39.8447L33.6412 39.4753L31.8172 40.7953L32.0845 41.1647ZM32.1789 42.276V40.98H31.7229V42.276H32.1789ZM31.784 38.593L31.556 40.837L32.0097 40.883L32.2377 38.639L31.784 38.593ZM30.6689 38.856L32.0129 38.844L32.0088 38.388L30.6648 38.4L30.6689 38.856ZM31.1088 40.2056L30.8928 38.5976L30.4409 38.6584L30.6569 40.2664L31.1088 40.2056ZM30.6848 40.6135L30.9968 40.4335L30.7689 40.0385L30.4569 40.2185L30.6848 40.6135ZM29.137 39.6136L30.433 40.5976L30.7087 40.2344L29.4127 39.2504L29.137 39.6136ZM28.7998 40.6989L29.4718 39.5469L29.0779 39.3171L28.4059 40.4691L28.7998 40.6989ZM30.7485 41.3001L28.6965 40.3761L28.5092 40.7919L30.5612 41.7159L30.7485 41.3001ZM31.6693 40.6623L30.5413 41.3103L30.7684 41.7057L31.8964 41.0577L31.6693 40.6623ZM28.6965 42.8799L30.7485 41.9559L30.5612 41.5401L28.5092 42.4641L28.6965 42.8799ZM29.4713 43.6962L28.7993 42.5562L28.4064 42.7878L29.0784 43.9278L29.4713 43.6962ZM30.4341 42.6576L29.1381 43.6296L29.4117 43.9944L30.7077 43.0224L30.4341 42.6576ZM30.9968 42.8225L30.6848 42.6425L30.4569 43.0375L30.7689 43.2175L30.9968 42.8225ZM30.905 44.6449L31.109 43.0489L30.6567 42.9911L30.4527 44.5871L30.905 44.6449ZM32.015 44.412L30.683 44.388L30.6747 44.844L32.0067 44.868L32.015 44.412ZM31.556 42.419L31.784 44.663L32.2377 44.617L32.0097 42.373L31.556 42.419ZM30.5413 41.9457L31.6693 42.5937L31.8964 42.1983L30.7684 41.5503L30.5413 41.9457ZM40.211 42.4607L42.035 43.7807L42.3023 43.4113L40.4783 42.0913L40.211 42.4607ZM40.1167 40.98V42.276H40.5727V40.98H40.1167ZM42.035 39.4753L40.211 40.7953L40.4783 41.1647L42.3023 39.8447L42.035 39.4753ZM43.027 40.7115L42.367 39.5475L41.9703 39.7725L42.6303 40.9365L43.027 40.7115ZM41.4162 41.6585L42.9162 41.0345L42.7411 40.6135L41.2411 41.2375L41.4162 41.6585ZM41.5567 41.808V41.448H41.1007V41.808H41.5567ZM42.9162 42.2215L41.4162 41.5975L41.2411 42.0185L42.7411 42.6425L42.9162 42.2215ZM42.367 43.7085L43.027 42.5445L42.6303 42.3195L41.9703 43.4835L42.367 43.7085ZM40.4035 40.883L40.6315 38.639L40.1778 38.593L39.9498 40.837L40.4035 40.883ZM39.1622 41.7057L40.2902 41.0577L40.0631 40.6623L38.9351 41.3103L39.1622 41.7057ZM36.903 40.7919L38.955 41.7159L39.1423 41.3001L37.0903 40.3761L36.903 40.7919ZM37.4717 39.3171L36.7997 40.4691L37.1936 40.6989L37.8656 39.5469L37.4717 39.3171ZM39.1025 40.2344L37.8065 39.2504L37.5308 39.6136L38.8268 40.5976L39.1025 40.2344ZM39.1627 40.0385L38.8507 40.2185L39.0786 40.6135L39.3906 40.4335L39.1627 40.0385ZM38.8347 38.6584L39.0507 40.2664L39.5026 40.2056L39.2866 38.5976L38.8347 38.6584ZM40.4026 38.388L39.0586 38.4L39.0627 38.856L40.4067 38.844L40.4026 38.388ZM38.955 41.5401L36.903 42.4641L37.0903 42.8799L39.1423 41.9559L38.955 41.5401ZM40.2902 42.1983L39.1622 41.5503L38.9351 41.9457L40.0631 42.5937L40.2902 42.1983ZM40.6315 44.617L40.4035 42.373L39.9498 42.419L40.1778 44.663L40.6315 44.617ZM39.0686 44.844L40.4005 44.868L40.4088 44.412L39.0768 44.388L39.0686 44.844ZM39.0505 42.9911L38.8465 44.5871L39.2988 44.6449L39.5028 43.0489L39.0505 42.9911ZM38.8507 43.0375L39.1627 43.2175L39.3906 42.8225L39.0786 42.6425L38.8507 43.0375ZM37.8055 43.9944L39.1015 43.0224L38.8279 42.6576L37.5319 43.6296L37.8055 43.9944ZM36.8002 42.7878L37.4722 43.9278L37.8651 43.6962L37.1931 42.5562L36.8002 42.7878ZM50.6961 43.4113L48.8721 42.0913L48.6048 42.4607L50.4288 43.7807L50.6961 43.4113ZM51.0241 42.3195L50.3641 43.4835L50.7608 43.7085L51.4208 42.5445L51.0241 42.3195ZM49.6349 42.0185L51.1349 42.6425L51.31 42.2215L49.81 41.5975L49.6349 42.0185ZM49.4945 41.448V41.808H49.9505V41.448H49.4945ZM51.1349 40.6135L49.6349 41.2375L49.81 41.6585L51.31 41.0345L51.1349 40.6135ZM50.3641 39.7725L51.0241 40.9365L51.4208 40.7115L50.7608 39.5475L50.3641 39.7725ZM48.8721 41.1647L50.6961 39.8447L50.4288 39.4753L48.6048 40.7953L48.8721 41.1647ZM48.9665 42.276V40.98H48.5105V42.276H48.9665ZM48.5716 38.593L48.3436 40.837L48.7973 40.883L49.0253 38.639L48.5716 38.593ZM47.4565 38.856L48.8005 38.844L48.7964 38.388L47.4524 38.4L47.4565 38.856ZM47.8964 40.2056L47.6804 38.5976L47.2285 38.6584L47.4445 40.2664L47.8964 40.2056ZM47.4724 40.6135L47.7844 40.4335L47.5565 40.0385L47.2445 40.2185L47.4724 40.6135ZM45.9246 39.6136L47.2206 40.5976L47.4963 40.2344L46.2003 39.2504L45.9246 39.6136ZM45.5874 40.6989L46.2594 39.5469L45.8655 39.3171L45.1935 40.4691L45.5874 40.6989ZM47.5361 41.3001L45.4841 40.3761L45.2969 40.7919L47.3489 41.7159L47.5361 41.3001ZM48.4569 40.6623L47.3289 41.3103L47.556 41.7057L48.684 41.0577L48.4569 40.6623ZM45.4841 42.8799L47.5361 41.9559L47.3489 41.5401L45.2969 42.4641L45.4841 42.8799ZM46.2589 43.6962L45.5869 42.5562L45.1941 42.7878L45.8661 43.9278L46.2589 43.6962ZM47.2217 42.6576L45.9257 43.6296L46.1993 43.9944L47.4953 43.0224L47.2217 42.6576ZM47.7844 42.8225L47.4724 42.6425L47.2445 43.0375L47.5565 43.2175L47.7844 42.8225ZM47.6926 44.6449L47.8966 43.0489L47.4443 42.9911L47.2403 44.5871L47.6926 44.6449ZM48.8026 44.412L47.4706 44.388L47.4624 44.844L48.7944 44.868L48.8026 44.412ZM48.3436 42.419L48.5716 44.663L49.0253 44.617L48.7973 42.373L48.3436 42.419ZM47.3289 41.9457L48.4569 42.5937L48.684 42.1983L47.556 41.5503L47.3289 41.9457Z" fill="url(#paint2_linear_3_3668)" mask="url(#path-5-inside-2_3_3668)"/>
</g>
<g filter="url(#filter3_b_3_3668)">
<path d="M54.0432 49.0361L52.1431 47.2252C51.9863 47.0758 51.8273 47 51.6705 47C51.4551 47 51.2037 47.1561 51.2037 47.596V48.2125C49.8232 48.2699 48.534 48.8095 47.5507 49.7465C46.5093 50.739 45.9356 52.0587 45.9355 53.4623C45.9355 53.5632 46.0032 53.6527 46.1036 53.6846C46.1292 53.6928 46.1554 53.6967 46.1814 53.6967C46.2573 53.6967 46.3307 53.6632 46.3781 53.6031C47.5391 52.1302 49.2871 51.2597 51.2037 51.191V51.798C51.2037 52.238 51.4551 52.3941 51.6705 52.3941H51.6705C51.8273 52.3941 51.9864 52.3183 52.1431 52.1689L54.0432 50.358C54.2279 50.182 54.3296 49.9473 54.3296 49.697C54.3296 49.4468 54.2279 49.2121 54.0432 49.0361Z" fill="#FAFCFB" fill-opacity="0.7"/>
<path d="M51.3177 48.3219L51.2084 48.3264C49.8549 48.3827 48.5921 48.9115 47.6294 49.8291C46.6098 50.8007 46.0496 52.0907 46.0495 53.4623L51.3177 48.3219ZM51.3177 48.3219V48.2125V47.596C51.3177 47.398 51.3738 47.2798 51.4388 47.2118C51.5044 47.1431 51.5898 47.114 51.6705 47.114C51.7884 47.114 51.9207 47.1707 52.0645 47.3077L53.9646 49.1186L54.0432 49.0361M51.3177 48.3219L54.0432 49.0361M54.0432 49.0361L53.9646 49.1186C54.1272 49.2736 54.2156 49.4787 54.2156 49.697C54.2156 49.9154 54.1272 50.1205 53.9646 50.2754L53.9646 50.2754L52.0645 52.0864C51.9207 52.2234 51.7884 52.2801 51.6705 52.2801H51.6705C51.5898 52.2801 51.5044 52.251 51.4388 52.1823C51.3738 52.1143 51.3177 51.996 51.3177 51.798V51.191V51.0729M54.0432 49.0361L51.3177 51.0729M51.3177 51.0729L51.1996 51.0771M51.3177 51.0729L51.1996 51.0771M51.1996 51.0771C49.2507 51.147 47.471 52.0325 46.2885 53.5325C46.264 53.5636 46.2244 53.5827 46.1814 53.5827C46.1669 53.5827 46.1524 53.5805 46.1381 53.576M51.1996 51.0771L46.1381 53.576M46.1381 53.576C46.0822 53.5582 46.0496 53.5106 46.0495 53.4623L46.1381 53.576Z" stroke="url(#paint3_linear_3_3668)" stroke-width="0.228"/>
</g>
</g>
<defs>
<filter id="filter0_b_3_3668" x="16.5479" y="20" width="47.8718" height="46" filterUnits="userSpaceOnUse" color-interpolation-filters="sRGB">
<feFlood flood-opacity="0" result="BackgroundImageFix"/>
<feGaussianBlur in="BackgroundImageFix" stdDeviation="2"/>
<feComposite in2="SourceAlpha" operator="in" result="effect1_backgroundBlur_3_3668"/>
<feBlend mode="normal" in="SourceGraphic" in2="effect1_backgroundBlur_3_3668" result="shape"/>
</filter>
<filter id="filter1_i_3_3668" x="22.6459" y="25.998" width="35.6759" height="34.2732" filterUnits="userSpaceOnUse" color-interpolation-filters="sRGB">
<feFlood flood-opacity="0" result="BackgroundImageFix"/>
<feBlend mode="normal" in="SourceGraphic" in2="BackgroundImageFix" result="shape"/>
<feColorMatrix in="SourceAlpha" type="matrix" values="0 0 0 0 0 0 0 0 0 0 0 0 0 0 0 0 0 0 127 0" result="hardAlpha"/>
<feOffset dy="0.272009"/>
<feGaussianBlur stdDeviation="0.993135"/>
<feComposite in2="hardAlpha" operator="arithmetic" k2="-1" k3="1"/>
<feColorMatrix type="matrix" values="0 0 0 0 1 0 0 0 0 1 0 0 0 0 1 0 0 0 0.65 0"/>
<feBlend mode="normal" in2="shape" result="effect1_innerShadow_3_3668"/>
</filter>
<filter id="filter2_bi_3_3668" x="22" y="28" width="36.33" height="27" filterUnits="userSpaceOnUse" color-interpolation-filters="sRGB">
<feFlood flood-opacity="0" result="BackgroundImageFix"/>
<feGaussianBlur in="BackgroundImageFix" stdDeviation="2"/>
<feComposite in2="SourceAlpha" operator="in" result="effect1_backgroundBlur_3_3668"/>
<feBlend mode="normal" in="SourceGraphic" in2="effect1_backgroundBlur_3_3668" result="shape"/>
<feColorMatrix in="SourceAlpha" type="matrix" values="0 0 0 0 0 0 0 0 0 0 0 0 0 0 0 0 0 0 127 0" result="hardAlpha"/>
<feOffset dy="4"/>
<feGaussianBlur stdDeviation="2"/>
<feComposite in2="hardAlpha" operator="arithmetic" k2="-1" k3="1"/>
<feColorMatrix type="matrix" values="0 0 0 0 0.980392 0 0 0 0 0.988235 0 0 0 0 0.984314 0 0 0 0.25 0"/>
<feBlend mode="normal" in2="shape" result="effect2_innerShadow_3_3668"/>
</filter>
<filter id="filter3_b_3_3668" x="41.9355" y="43" width="16.394" height="14.6967" filterUnits="userSpaceOnUse" color-interpolation-filters="sRGB">
<feFlood flood-opacity="0" result="BackgroundImageFix"/>
<feGaussianBlur in="BackgroundImageFix" stdDeviation="2"/>
<feComposite in2="SourceAlpha" operator="in" result="effect1_backgroundBlur_3_3668"/>
<feBlend mode="normal" in="SourceGraphic" in2="effect1_backgroundBlur_3_3668" result="shape"/>
</filter>
<linearGradient id="paint0_linear_3_3668" x1="17.2635" y1="-13" x2="17.2635" y2="88" gradientUnits="userSpaceOnUse">
<stop stop-color="white"/>
<stop offset="1" stop-color="white" stop-opacity="0"/>
</linearGradient>
<linearGradient id="paint1_linear_3_3668" x1="17.2635" y1="-13" x2="17.2635" y2="66" gradientUnits="userSpaceOnUse">
<stop stop-color="white"/>
<stop offset="1" stop-color="white" stop-opacity="0"/>
</linearGradient>
<linearGradient id="paint2_linear_3_3668" x1="40.165" y1="32" x2="40.165" y2="51" gradientUnits="userSpaceOnUse">
<stop stop-color="#999999" stop-opacity="0"/>
<stop offset="1" stop-color="white"/>
</linearGradient>
<linearGradient id="paint3_linear_3_3668" x1="50.1326" y1="47" x2="50.1326" y2="53.6967" gradientUnits="userSpaceOnUse">
<stop stop-color="#999999" stop-opacity="0"/>
<stop offset="1" stop-color="white"/>
</linearGradient>
<clipPath id="clip0_3_3668">
<rect width="62" height="76" fill="white"/>
</clipPath>
</defs>
</svg>
