<svg width="69" height="77" viewBox="0 0 69 77" fill="none" xmlns="http://www.w3.org/2000/svg">
<mask id="path-1-outside-1_473_4868" maskUnits="userSpaceOnUse" x="1.18457" y="14" width="32" height="44" fill="black">
<rect fill="white" x="1.18457" y="14" width="32" height="44"/>
<path d="M3.50384 57V48.7018C3.50384 46.9684 3.78045 45.4563 4.33366 44.1655C4.92375 42.8747 5.84577 41.7314 7.09972 40.7356C8.35366 39.7029 10.0133 38.744 12.0786 37.8589L18.6065 35.0375C20.2662 34.3368 21.4832 33.4701 22.2577 32.4374C23.0691 31.4047 23.4748 30.0955 23.4748 28.5096C23.4748 26.8868 22.9769 25.5591 21.9811 24.5265C20.9853 23.4938 19.5285 22.9775 17.6107 22.9775C15.6929 22.9775 14.2361 23.5123 13.2404 24.5818C12.2446 25.6513 11.7467 27.0897 11.7467 28.8968H2.95063C2.95063 26.3521 3.50384 24.0655 4.61026 22.037C5.71669 19.9717 7.35788 18.3489 9.53385 17.1688C11.7098 15.9886 14.4021 15.3985 17.6107 15.3985C20.8194 15.3985 23.4932 15.9701 25.6323 17.1134C27.8083 18.2567 29.4495 19.7873 30.5559 21.7051C31.6992 23.6229 32.2708 25.7804 32.2708 28.1777V28.8415C32.2708 31.9395 31.4226 34.5027 29.7261 36.5312C28.0296 38.5227 25.411 40.293 21.8705 41.842L15.3979 44.6634C14.2915 45.1428 13.4985 45.6407 13.0191 46.1571C12.5765 46.6734 12.3552 47.3741 12.3552 48.2593V51.0253L10.1977 49.1997H32.3262V57H3.50384Z"/>
</mask>
<path d="M3.50384 57V48.7018C3.50384 46.9684 3.78045 45.4563 4.33366 44.1655C4.92375 42.8747 5.84577 41.7314 7.09972 40.7356C8.35366 39.7029 10.0133 38.744 12.0786 37.8589L18.6065 35.0375C20.2662 34.3368 21.4832 33.4701 22.2577 32.4374C23.0691 31.4047 23.4748 30.0955 23.4748 28.5096C23.4748 26.8868 22.9769 25.5591 21.9811 24.5265C20.9853 23.4938 19.5285 22.9775 17.6107 22.9775C15.6929 22.9775 14.2361 23.5123 13.2404 24.5818C12.2446 25.6513 11.7467 27.0897 11.7467 28.8968H2.95063C2.95063 26.3521 3.50384 24.0655 4.61026 22.037C5.71669 19.9717 7.35788 18.3489 9.53385 17.1688C11.7098 15.9886 14.4021 15.3985 17.6107 15.3985C20.8194 15.3985 23.4932 15.9701 25.6323 17.1134C27.8083 18.2567 29.4495 19.7873 30.5559 21.7051C31.6992 23.6229 32.2708 25.7804 32.2708 28.1777V28.8415C32.2708 31.9395 31.4226 34.5027 29.7261 36.5312C28.0296 38.5227 25.411 40.293 21.8705 41.842L15.3979 44.6634C14.2915 45.1428 13.4985 45.6407 13.0191 46.1571C12.5765 46.6734 12.3552 47.3741 12.3552 48.2593V51.0253L10.1977 49.1997H32.3262V57H3.50384Z" fill="url(#paint0_linear_473_4868)" fill-opacity="0.5"/>
<path d="M3.50384 57H2.73549V57.7683H3.50384V57ZM4.33366 44.1655L3.63486 43.846L3.63105 43.8544L3.62743 43.8628L4.33366 44.1655ZM7.09972 40.7356L7.57761 41.3374L7.58816 41.3287L7.09972 40.7356ZM12.0786 37.8589L12.3813 38.5651L12.3835 38.5642L12.0786 37.8589ZM18.6065 35.0375L18.3076 34.3296L18.3017 34.3322L18.6065 35.0375ZM22.2577 32.4374L21.6535 31.9627L21.6482 31.9695L21.643 31.9764L22.2577 32.4374ZM21.9811 24.5265L21.428 25.0598L21.9811 24.5265ZM13.2404 24.5818L13.8027 25.1054L13.2404 24.5818ZM11.7467 28.8968V29.6652H12.515V28.8968H11.7467ZM2.95063 28.8968H2.18228V29.6652H2.95063V28.8968ZM4.61026 22.037L5.28481 22.405L5.28755 22.3999L4.61026 22.037ZM9.53385 17.1688L9.90017 17.8442L9.53385 17.1688ZM25.6323 17.1134L25.2701 17.7911L25.2749 17.7936L25.6323 17.1134ZM30.5559 21.7051L29.8903 22.0891L29.8959 22.0985L30.5559 21.7051ZM29.7261 36.5312L30.311 37.0294L30.3155 37.0241L29.7261 36.5312ZM21.8705 41.842L22.1775 42.5463L22.1784 42.5459L21.8705 41.842ZM15.3979 44.6634L15.7034 45.3684L15.7049 45.3677L15.3979 44.6634ZM13.0191 46.1571L12.456 45.6342L12.4456 45.6454L12.4357 45.657L13.0191 46.1571ZM12.3552 51.0253L11.8589 51.6119L13.1236 52.682V51.0253H12.3552ZM10.1977 49.1997V48.4314H8.10015L9.70139 49.7863L10.1977 49.1997ZM32.3262 49.1997H33.0945V48.4314H32.3262V49.1997ZM32.3262 57V57.7683H33.0945V57H32.3262ZM4.27219 57V48.7018H2.73549V57H4.27219ZM4.27219 48.7018C4.27219 47.0488 4.53606 45.6437 5.03988 44.4682L3.62743 43.8628C3.02483 45.2689 2.73549 46.8881 2.73549 48.7018H4.27219ZM5.03245 44.4849C5.56603 43.3177 6.4062 42.2675 7.57754 41.3373L6.62189 40.1339C5.28534 41.1953 4.28147 42.4316 3.63486 43.846L5.03245 44.4849ZM7.58816 41.3287C8.76897 40.3563 10.3593 39.4317 12.3813 38.5651L11.776 37.1527C9.66728 38.0564 7.93835 39.0496 6.61127 40.1425L7.58816 41.3287ZM12.3835 38.5642L18.9113 35.7428L18.3017 34.3322L11.7738 37.1536L12.3835 38.5642ZM18.9054 35.7453C20.6431 35.0116 21.9903 34.0746 22.8724 32.8984L21.643 31.9764C20.9762 32.8656 19.8892 33.6619 18.3077 34.3297L18.9054 35.7453ZM22.8619 32.9121C23.8004 31.7177 24.2431 30.2307 24.2431 28.5096H22.7064C22.7064 29.9602 22.3378 31.0918 21.6535 31.9627L22.8619 32.9121ZM24.2431 28.5096C24.2431 26.7162 23.6865 25.1882 22.5342 23.9931L21.428 25.0598C22.2672 25.9301 22.7064 27.0575 22.7064 28.5096H24.2431ZM22.5342 23.9931C21.3498 22.7648 19.6642 22.2091 17.6107 22.2091V23.7458C19.3929 23.7458 20.6209 24.2228 21.428 25.0598L22.5342 23.9931ZM17.6107 22.2091C15.5496 22.2091 13.8608 22.7878 12.678 24.0582L13.8027 25.1054C14.6115 24.2367 15.8362 23.7458 17.6107 23.7458V22.2091ZM12.678 24.0582C11.5203 25.3017 10.9783 26.9436 10.9783 28.8968H12.515C12.515 27.2358 12.9689 26.001 13.8027 25.1054L12.678 24.0582ZM11.7467 28.1285H2.95063V29.6652H11.7467V28.1285ZM3.71898 28.8968C3.71898 26.4673 4.24601 24.3094 5.28479 22.4049L3.93573 21.6691C2.76167 23.8215 2.18228 26.2368 2.18228 28.8968H3.71898ZM5.28755 22.3999C6.31898 20.4745 7.84833 18.957 9.90017 17.8442L9.16753 16.4934C6.86744 17.7409 5.11439 19.4689 3.93298 21.6742L5.28755 22.3999ZM9.90017 17.8442C11.9352 16.7404 14.4932 16.1668 17.6107 16.1668V14.6301C14.311 14.6301 11.4844 15.2368 9.16753 16.4934L9.90017 17.8442ZM17.6107 16.1668C20.7323 16.1668 23.2726 16.7234 25.2701 17.7911L25.9945 16.4358C23.7138 15.2168 20.9064 14.6301 17.6107 14.6301V16.1668ZM25.2749 17.7936C27.3369 18.877 28.8644 20.3108 29.8904 22.0891L31.2214 21.3211C30.0345 19.2638 28.2797 17.6365 25.9897 16.4333L25.2749 17.7936ZM29.8959 22.0985C30.9631 23.8886 31.5025 25.9084 31.5025 28.1777H33.0392C33.0392 25.6525 32.4353 23.3572 31.2159 21.3117L29.8959 22.0985ZM31.5025 28.1777V28.8415H33.0392V28.1777H31.5025ZM31.5025 28.8415C31.5025 31.7918 30.6983 34.171 29.1367 36.0382L30.3155 37.0241C32.1468 34.8344 33.0392 32.0872 33.0392 28.8415H31.5025ZM29.1412 36.0329C27.5475 37.9038 25.0432 39.6153 21.5625 41.1381L22.1784 42.5459C25.7789 40.9707 28.5116 39.1417 30.311 37.0294L29.1412 36.0329ZM21.5634 41.1377L15.0909 43.959L15.7049 45.3677L22.1775 42.5463L21.5634 41.1377ZM15.0924 43.9584C13.9481 44.4542 13.0418 45.0034 12.456 45.6342L13.5821 46.6799C13.9552 46.2781 14.6348 45.8314 15.7034 45.3684L15.0924 43.9584ZM12.4357 45.657C11.8416 46.3501 11.5869 47.2471 11.5869 48.2593H13.1236C13.1236 47.5012 13.3114 46.9966 13.6025 46.6571L12.4357 45.657ZM11.5869 48.2593V51.0253H13.1236V48.2593H11.5869ZM12.8515 50.4388L10.694 48.6132L9.70139 49.7863L11.8589 51.6119L12.8515 50.4388ZM10.1977 49.9681H32.3262V48.4314H10.1977V49.9681ZM31.5578 49.1997V57H33.0945V49.1997H31.5578ZM32.3262 56.2317H3.50384V57.7683H32.3262V56.2317Z" fill="url(#paint1_linear_473_4868)" fill-opacity="0.5" mask="url(#path-1-outside-1_473_4868)"/>
<rect x="24.001" y="15" width="43" height="43" rx="9.46" fill="#F15729"/>
<g filter="url(#filter0_i_473_4868)">
<rect x="26.2627" y="17.2617" width="38.475" height="38.475" rx="8.4645" fill="#F15729"/>
<rect x="26.2627" y="17.2617" width="38.475" height="38.475" rx="8.4645" fill="url(#paint2_radial_473_4868)" style="mix-blend-mode:overlay"/>
<rect x="26.2627" y="17.2617" width="38.475" height="38.475" rx="8.4645" fill="url(#paint3_radial_473_4868)" style="mix-blend-mode:overlay"/>
<rect x="26.2627" y="17.2617" width="38.475" height="38.475" rx="8.4645" fill="url(#paint4_radial_473_4868)" style="mix-blend-mode:overlay"/>
<rect x="26.2627" y="17.2617" width="38.475" height="38.475" rx="8.4645" fill="url(#paint5_radial_473_4868)" fill-opacity="0.6"/>
</g>
<g clip-path="url(#clip0_473_4868)">
<g filter="url(#filter1_d_473_4868)">
<path fill-rule="evenodd" clip-rule="evenodd" d="M53.1698 27.9337C53.4494 27.816 53.7555 27.7754 54.0561 27.8162C54.3568 27.8569 54.641 27.9775 54.8792 28.1653C55.1175 28.3532 55.301 28.6015 55.4107 28.8843C55.5204 29.1672 55.5523 29.4743 55.5031 29.7736L52.9367 45.3408C52.6877 46.8424 51.0401 47.7035 49.663 46.9555C48.511 46.3298 46.8001 45.3657 45.2612 44.3597C44.4917 43.8561 42.1346 42.2437 42.4243 41.0962C42.6732 40.1152 46.6338 36.4285 48.8969 34.2366C49.7852 33.3755 49.3801 32.8787 48.3311 33.6708C45.7262 35.6375 41.5439 38.6283 40.1611 39.4701C38.9413 40.2125 38.3053 40.3392 37.5449 40.2125C36.1576 39.9816 34.871 39.624 33.8209 39.1884C32.4019 38.6 32.4709 36.6491 33.8198 36.0811L53.1698 27.9337Z" fill="url(#paint6_linear_473_4868)"/>
<path d="M48.9867 34.3292L48.9867 34.3293C48.6779 34.6283 48.338 34.9547 47.9805 35.298C47.0256 36.2151 45.945 37.2529 44.997 38.2112C44.3456 38.8696 43.7591 39.4883 43.3206 40.0025C43.1012 40.2597 42.9204 40.4889 42.7874 40.6827C42.6521 40.8798 42.5745 41.0289 42.5493 41.128L42.4243 41.0962L42.5494 41.1278C42.4892 41.3662 42.563 41.6451 42.7477 41.953C42.9313 42.2589 43.2132 42.5744 43.5338 42.8754C44.1744 43.4767 44.9481 44.0007 45.3317 44.2517C46.8664 45.2549 48.5738 46.2171 49.7246 46.8422C51.0207 47.5462 52.5743 46.7373 52.8094 45.3198L48.9867 34.3292ZM48.9867 34.3292C49.2153 34.1076 49.3686 33.9022 49.4482 33.7269C49.523 33.5622 49.5525 33.3745 49.4357 33.2467C49.321 33.1212 49.1301 33.1265 48.95 33.1804C48.7583 33.2377 48.5225 33.3647 48.2534 33.5679C45.6483 35.5347 41.4707 38.5218 40.0941 39.36C39.4887 39.7283 39.0368 39.9385 38.6474 40.0426C38.2615 40.1457 37.9313 40.1461 37.5661 40.0852L37.5661 40.0852C36.1867 39.8557 34.9098 39.5005 33.8703 39.0692L33.8703 39.0692C32.5637 38.5274 32.6199 36.7264 33.8698 36.2C33.8698 36.2 33.8698 36.2 33.8698 36.2L53.2198 28.0526L48.9867 34.3292ZM55.3758 29.7527L52.8094 45.3197L53.2198 28.0526C53.4782 27.9438 53.761 27.9063 54.0388 27.944C54.3166 27.9816 54.5792 28.093 54.7993 28.2666C55.0195 28.4402 55.1891 28.6696 55.2904 28.931C55.3918 29.1923 55.4213 29.4761 55.3758 29.7527Z" stroke="white" stroke-width="0.258"/>
</g>
</g>
<g opacity="0.4" filter="url(#filter2_f_473_4868)">
<path d="M30.2662 58.6471C30.6893 58.2323 31.2581 58 31.8506 58H58.3917C59.0837 58 59.7376 58.3166 60.1669 58.8594L65.3036 65.3553L24.001 64.7895L30.2662 58.6471Z" fill="url(#paint7_linear_473_4868)"/>
</g>
<defs>
<filter id="filter0_i_473_4868" x="26.2627" y="17.2617" width="38.4751" height="38.7828" filterUnits="userSpaceOnUse" color-interpolation-filters="sRGB">
<feFlood flood-opacity="0" result="BackgroundImageFix"/>
<feBlend mode="normal" in="SourceGraphic" in2="BackgroundImageFix" result="shape"/>
<feColorMatrix in="SourceAlpha" type="matrix" values="0 0 0 0 0 0 0 0 0 0 0 0 0 0 0 0 0 0 127 0" result="hardAlpha"/>
<feOffset dy="0.3078"/>
<feGaussianBlur stdDeviation="1.12381"/>
<feComposite in2="hardAlpha" operator="arithmetic" k2="-1" k3="1"/>
<feColorMatrix type="matrix" values="0 0 0 0 1 0 0 0 0 1 0 0 0 0 1 0 0 0 0.65 0"/>
<feBlend mode="normal" in2="shape" result="effect1_innerShadow_473_4868"/>
</filter>
<filter id="filter1_d_473_4868" x="30.7182" y="26.9408" width="26.8714" height="23.5572" filterUnits="userSpaceOnUse" color-interpolation-filters="sRGB">
<feFlood flood-opacity="0" result="BackgroundImageFix"/>
<feColorMatrix in="SourceAlpha" type="matrix" values="0 0 0 0 0 0 0 0 0 0 0 0 0 0 0 0 0 0 127 0" result="hardAlpha"/>
<feOffset dy="1.204"/>
<feGaussianBlur stdDeviation="1.032"/>
<feComposite in2="hardAlpha" operator="out"/>
<feColorMatrix type="matrix" values="0 0 0 0 0 0 0 0 0 0 0 0 0 0 0 0 0 0 0.35 0"/>
<feBlend mode="normal" in2="BackgroundImageFix" result="effect1_dropShadow_473_4868"/>
<feBlend mode="normal" in="SourceGraphic" in2="effect1_dropShadow_473_4868" result="shape"/>
</filter>
<filter id="filter2_f_473_4868" x="20.6062" y="54.6053" width="48.0922" height="14.1447" filterUnits="userSpaceOnUse" color-interpolation-filters="sRGB">
<feFlood flood-opacity="0" result="BackgroundImageFix"/>
<feBlend mode="normal" in="SourceGraphic" in2="BackgroundImageFix" result="shape"/>
<feGaussianBlur stdDeviation="1.69737" result="effect1_foregroundBlur_473_4868"/>
</filter>
<linearGradient id="paint0_linear_473_4868" x1="17.6846" y1="0" x2="17.6846" y2="77" gradientUnits="userSpaceOnUse">
<stop stop-color="white"/>
<stop offset="1" stop-color="white" stop-opacity="0"/>
</linearGradient>
<linearGradient id="paint1_linear_473_4868" x1="17.6846" y1="0" x2="17.6846" y2="60.2277" gradientUnits="userSpaceOnUse">
<stop stop-color="white"/>
<stop offset="1" stop-color="white" stop-opacity="0"/>
</linearGradient>
<radialGradient id="paint2_radial_473_4868" cx="0" cy="0" r="1" gradientUnits="userSpaceOnUse" gradientTransform="translate(45.5002 19.885) rotate(-90) scale(12.6395 27.7417)">
<stop stop-color="white"/>
<stop offset="1" stop-color="white" stop-opacity="0"/>
</radialGradient>
<radialGradient id="paint3_radial_473_4868" cx="0" cy="0" r="1" gradientUnits="userSpaceOnUse" gradientTransform="translate(45.5002 57.2868) rotate(-90) scale(4.17342 18.6932)">
<stop stop-color="white"/>
<stop offset="1" stop-color="white" stop-opacity="0"/>
</radialGradient>
<radialGradient id="paint4_radial_473_4868" cx="0" cy="0" r="1" gradientUnits="userSpaceOnUse" gradientTransform="translate(45.5002 55.7367) rotate(-90) scale(7.67115 34.3599)">
<stop stop-color="white"/>
<stop offset="1" stop-color="white" stop-opacity="0"/>
</radialGradient>
<radialGradient id="paint5_radial_473_4868" cx="0" cy="0" r="1" gradientUnits="userSpaceOnUse" gradientTransform="translate(45.5006 38.1981) rotate(90) scale(20.3684)">
<stop offset="0.445" stop-color="#FEEF7E"/>
<stop offset="0.875" stop-color="#FEEF7E" stop-opacity="0"/>
</radialGradient>
<linearGradient id="paint6_linear_473_4868" x1="44.1539" y1="27.8008" x2="44.1539" y2="52.0873" gradientUnits="userSpaceOnUse">
<stop offset="0.565" stop-color="white"/>
<stop offset="1" stop-color="#FF9D6F"/>
</linearGradient>
<linearGradient id="paint7_linear_473_4868" x1="49.3031" y1="58" x2="49.3031" y2="64.7895" gradientUnits="userSpaceOnUse">
<stop stop-color="#FFF78B"/>
<stop offset="1" stop-color="#F46932"/>
</linearGradient>
<clipPath id="clip0_473_4868">
<rect width="27.1579" height="27.1579" fill="white" transform="translate(30.79 22.9219)"/>
</clipPath>
</defs>
</svg>
