<svg width="62" height="76" viewBox="0 0 62 76" fill="none" xmlns="http://www.w3.org/2000/svg">
<g clip-path="url(#clip0_8_2)">
<mask id="path-1-outside-1_8_2" maskUnits="userSpaceOnUse" x="2" y="8" width="43" height="57" fill="black">
<rect fill="white" x="2" y="8" width="43" height="57"/>
<path d="M23.32 63.368C19.24 63.368 15.688 62.624 12.664 61.136C9.688 59.6 7.408 57.536 5.824 54.944C4.24 52.352 3.448 49.424 3.448 46.16H14.824C14.824 48.368 15.568 50.168 17.056 51.56C18.544 52.904 20.632 53.576 23.32 53.576C25.096 53.576 26.608 53.24 27.856 52.568C29.104 51.896 30.064 50.984 30.736 49.832C31.408 48.632 31.744 47.288 31.744 45.8C31.744 43.496 31 41.6 29.512 40.112C28.072 38.624 26.008 37.88 23.32 37.88C21.88 37.88 20.608 38.096 19.504 38.528C18.448 38.96 17.536 39.488 16.768 40.112L11.44 31.112L27.352 20.744L26.704 19.52H5.608V9.44H41.032V20.384L22.672 32.048L16.912 30.464C17.872 30.176 18.88 29.96 19.936 29.816C21.04 29.624 22.216 29.528 23.464 29.528C27.544 29.528 31.048 30.2 33.976 31.544C36.904 32.888 39.16 34.784 40.744 37.232C42.376 39.632 43.192 42.44 43.192 45.656V46.52C43.192 49.736 42.376 52.616 40.744 55.16C39.16 57.704 36.88 59.72 33.904 61.208C30.976 62.648 27.448 63.368 23.32 63.368Z"/>
</mask>
<path d="M23.32 63.368C19.24 63.368 15.688 62.624 12.664 61.136C9.688 59.6 7.408 57.536 5.824 54.944C4.24 52.352 3.448 49.424 3.448 46.16H14.824C14.824 48.368 15.568 50.168 17.056 51.56C18.544 52.904 20.632 53.576 23.32 53.576C25.096 53.576 26.608 53.24 27.856 52.568C29.104 51.896 30.064 50.984 30.736 49.832C31.408 48.632 31.744 47.288 31.744 45.8C31.744 43.496 31 41.6 29.512 40.112C28.072 38.624 26.008 37.88 23.32 37.88C21.88 37.88 20.608 38.096 19.504 38.528C18.448 38.96 17.536 39.488 16.768 40.112L11.44 31.112L27.352 20.744L26.704 19.52H5.608V9.44H41.032V20.384L22.672 32.048L16.912 30.464C17.872 30.176 18.88 29.96 19.936 29.816C21.04 29.624 22.216 29.528 23.464 29.528C27.544 29.528 31.048 30.2 33.976 31.544C36.904 32.888 39.16 34.784 40.744 37.232C42.376 39.632 43.192 42.44 43.192 45.656V46.52C43.192 49.736 42.376 52.616 40.744 55.16C39.16 57.704 36.88 59.72 33.904 61.208C30.976 62.648 27.448 63.368 23.32 63.368Z" fill="url(#paint0_linear_8_2)" fill-opacity="0.07"/>
<path d="M12.664 61.136L12.2054 62.0246L12.2139 62.029L12.2225 62.0333L12.664 61.136ZM5.824 54.944L4.97072 55.4654L4.97072 55.4654L5.824 54.944ZM3.448 46.16V45.16H2.448V46.16H3.448ZM14.824 46.16H15.824V45.16H14.824V46.16ZM17.056 51.56L16.3728 52.2903L16.3792 52.2962L16.3857 52.3021L17.056 51.56ZM27.856 52.568L28.3301 53.4485L28.3301 53.4485L27.856 52.568ZM30.736 49.832L31.5998 50.3359L31.6042 50.3283L31.6085 50.3206L30.736 49.832ZM29.512 40.112L28.7934 40.8074L28.7991 40.8133L28.8049 40.8191L29.512 40.112ZM19.504 38.528L19.1396 37.5968L19.1325 37.5996L19.1254 37.6025L19.504 38.528ZM16.768 40.112L15.9075 40.6214L16.4984 41.6195L17.3986 40.8881L16.768 40.112ZM11.44 31.112L10.8941 30.2742L10.0915 30.7971L10.5795 31.6214L11.44 31.112ZM27.352 20.744L27.8979 21.5818L28.6631 21.0833L28.2358 20.2761L27.352 20.744ZM26.704 19.52L27.5878 19.0521L27.3061 18.52H26.704V19.52ZM5.608 19.52H4.608V20.52H5.608V19.52ZM5.608 9.44V8.44H4.608V9.44H5.608ZM41.032 9.44H42.032V8.44H41.032V9.44ZM41.032 20.384L41.5682 21.2281L42.032 20.9334V20.384H41.032ZM22.672 32.048L22.4068 33.0122L22.8342 33.1297L23.2082 32.8921L22.672 32.048ZM16.912 30.464L16.6247 29.5062L13.2926 30.5058L16.6468 31.4282L16.912 30.464ZM19.936 29.816L20.0711 30.8068L20.0893 30.8044L20.1073 30.8012L19.936 29.816ZM33.976 31.544L33.5588 32.4528L33.5588 32.4528L33.976 31.544ZM40.744 37.232L39.9044 37.7753L39.9106 37.7849L39.9171 37.7943L40.744 37.232ZM40.744 55.16L39.9022 54.62L39.8951 54.6314L40.744 55.16ZM33.904 61.208L34.3453 62.1054L34.3512 62.1024L33.904 61.208ZM23.32 62.368C19.3613 62.368 15.9662 61.6464 13.1055 60.2387L12.2225 62.0333C15.4098 63.6016 19.1187 64.368 23.32 64.368V62.368ZM13.1226 60.2474C10.2921 58.7865 8.15621 56.8426 6.67728 54.4225L4.97072 55.4654C6.65979 58.2294 9.08388 60.4135 12.2054 62.0246L13.1226 60.2474ZM6.67728 54.4225C5.1964 51.9993 4.448 49.2542 4.448 46.16H2.448C2.448 49.5938 3.2836 52.7047 4.97072 55.4654L6.67728 54.4225ZM3.448 47.16H14.824V45.16H3.448V47.16ZM13.824 46.16C13.824 48.619 14.6646 50.6922 16.3728 52.2903L17.7392 50.8297C16.4714 49.6438 15.824 48.117 15.824 46.16H13.824ZM16.3857 52.3021C18.1125 53.8617 20.47 54.576 23.32 54.576V52.576C20.794 52.576 18.9755 51.9463 17.7263 50.8179L16.3857 52.3021ZM23.32 54.576C25.2204 54.576 26.9041 54.2163 28.3301 53.4485L27.3819 51.6875C26.3119 52.2637 24.9716 52.576 23.32 52.576V54.576ZM28.3301 53.4485C29.7296 52.6949 30.8291 51.657 31.5998 50.3359L29.8722 49.3281C29.2989 50.311 28.4784 51.0971 27.3819 51.6875L28.3301 53.4485ZM31.6085 50.3206C32.3709 48.9592 32.744 47.4447 32.744 45.8H30.744C30.744 47.1313 30.4451 48.3048 29.8635 49.3434L31.6085 50.3206ZM32.744 45.8C32.744 43.2585 31.9134 41.0991 30.2191 39.4049L28.8049 40.8191C30.0867 42.1009 30.744 43.7335 30.744 45.8H32.744ZM30.2306 39.4166C28.5505 37.6805 26.1942 36.88 23.32 36.88V38.88C25.8218 38.88 27.5935 39.5675 28.7934 40.8074L30.2306 39.4166ZM23.32 36.88C21.7813 36.88 20.3817 37.1107 19.1396 37.5968L19.8684 39.4592C20.8343 39.0813 21.9787 38.88 23.32 38.88V36.88ZM19.1254 37.6025C17.9921 38.0661 16.9922 38.6414 16.1374 39.3359L17.3986 40.8881C18.0798 40.3346 18.9039 39.8539 19.8826 39.4535L19.1254 37.6025ZM17.6285 39.6026L12.3005 30.6026L10.5795 31.6214L15.9075 40.6214L17.6285 39.6026ZM11.9859 31.9498L27.8979 21.5818L26.8061 19.9062L10.8941 30.2742L11.9859 31.9498ZM28.2358 20.2761L27.5878 19.0521L25.8202 19.9879L26.4682 21.2119L28.2358 20.2761ZM26.704 18.52H5.608V20.52H26.704V18.52ZM6.608 19.52V9.44H4.608V19.52H6.608ZM5.608 10.44H41.032V8.44H5.608V10.44ZM40.032 9.44V20.384H42.032V9.44H40.032ZM40.4958 19.5399L22.1358 31.2039L23.2082 32.8921L41.5682 21.2281L40.4958 19.5399ZM22.9372 31.0838L17.1772 29.4998L16.6468 31.4282L22.4068 33.0122L22.9372 31.0838ZM17.1993 31.4218C18.1065 31.1497 19.0634 30.9442 20.0711 30.8068L19.8009 28.8252C18.6966 28.9758 17.6375 29.2023 16.6247 29.5062L17.1993 31.4218ZM20.1073 30.8012C21.1488 30.6201 22.2671 30.528 23.464 30.528V28.528C22.1649 28.528 20.9312 28.6279 19.7647 28.8308L20.1073 30.8012ZM23.464 30.528C27.4371 30.528 30.7917 31.1827 33.5588 32.4528L34.3932 30.6352C31.3043 29.2173 27.6509 28.528 23.464 28.528V30.528ZM33.5588 32.4528C36.3329 33.7262 38.4343 35.5032 39.9044 37.7753L41.5836 36.6887C39.8857 34.0648 37.4751 32.0498 34.3932 30.6352L33.5588 32.4528ZM39.9171 37.7943C41.4242 40.0107 42.192 42.618 42.192 45.656H44.192C44.192 42.262 43.3278 39.2533 41.5709 36.6697L39.9171 37.7943ZM42.192 45.656V46.52H44.192V45.656H42.192ZM42.192 46.52C42.192 49.5574 41.4242 52.2476 39.9023 54.62L41.5857 55.7C43.3278 52.9844 44.192 49.9146 44.192 46.52H42.192ZM39.8951 54.6314C38.4192 57.0019 36.2864 58.8987 33.4568 60.3136L34.3512 62.1024C37.4736 60.5413 39.9008 58.4061 41.5929 55.6886L39.8951 54.6314ZM33.4627 60.3107C30.7035 61.6676 27.3344 62.368 23.32 62.368V64.368C27.5616 64.368 31.2485 63.6284 34.3453 62.1053L33.4627 60.3107Z" fill="url(#paint1_linear_8_2)" fill-opacity="0.5" mask="url(#path-1-outside-1_8_2)"/>
<g opacity="0.4" filter="url(#filter0_b_8_2)">
<rect x="20.5508" y="25" width="39.8718" height="38" rx="8.36" fill="#D0D2D1"/>
</g>
<g opacity="0.4" filter="url(#filter1_i_8_2)">
<rect x="22.6488" y="26.998" width="35.676" height="34.0012" rx="7.48" fill="#D0D2D1"/>
</g>
<g clip-path="url(#clip1_8_2)">
<g filter="url(#filter2_bii_8_2)">
<path d="M46.7046 40.8898H45.9901V38.032C45.9901 34.8797 43.4268 32.3163 40.2745 32.3163C37.1223 32.3163 34.5589 34.8797 34.5589 38.032V40.8898H33.8444C32.6632 40.8898 31.701 41.8509 31.701 43.0332V53.0355C31.701 54.2178 32.6632 55.1789 33.8444 55.1789H46.7046C47.8858 55.1789 48.848 54.2178 48.848 53.0355V43.0332C48.848 41.8509 47.8858 40.8898 46.7046 40.8898ZM36.4641 38.032C36.4641 35.9305 38.173 34.2216 40.2745 34.2216C42.376 34.2216 44.0849 35.9305 44.0849 38.032V40.8898H36.4641V38.032Z" fill="url(#paint2_linear_8_2)" fill-opacity="0.7"/>
<path d="M45.8781 40.8898V41.0018H45.9901H46.7046C47.824 41.0018 48.7359 41.9128 48.7359 43.0332V53.0355C48.7359 54.1559 47.824 55.0669 46.7046 55.0669H33.8444C32.725 55.0669 31.8131 54.1559 31.8131 53.0355V43.0332C31.8131 41.9128 32.725 41.0018 33.8444 41.0018H34.5589H34.6709V40.8898V38.032C34.6709 34.9416 37.1841 32.4284 40.2745 32.4284C43.3649 32.4284 45.8781 34.9416 45.8781 38.032V40.8898ZM44.0849 41.0018H44.1969V40.8898V38.032C44.1969 35.8686 42.4379 34.1096 40.2745 34.1096C38.1111 34.1096 36.3521 35.8686 36.3521 38.032V40.8898V41.0018H36.4641H44.0849Z" stroke="url(#paint3_linear_8_2)" stroke-width="0.224089"/>
</g>
</g>
</g>
<defs>
<filter id="filter0_b_8_2" x="16.5508" y="21" width="47.8718" height="46" filterUnits="userSpaceOnUse" color-interpolation-filters="sRGB">
<feFlood flood-opacity="0" result="BackgroundImageFix"/>
<feGaussianBlur in="BackgroundImageFix" stdDeviation="2"/>
<feComposite in2="SourceAlpha" operator="in" result="effect1_backgroundBlur_8_2"/>
<feBlend mode="normal" in="SourceGraphic" in2="effect1_backgroundBlur_8_2" result="shape"/>
</filter>
<filter id="filter1_i_8_2" x="22.6488" y="26.998" width="35.6759" height="34.2732" filterUnits="userSpaceOnUse" color-interpolation-filters="sRGB">
<feFlood flood-opacity="0" result="BackgroundImageFix"/>
<feBlend mode="normal" in="SourceGraphic" in2="BackgroundImageFix" result="shape"/>
<feColorMatrix in="SourceAlpha" type="matrix" values="0 0 0 0 0 0 0 0 0 0 0 0 0 0 0 0 0 0 127 0" result="hardAlpha"/>
<feOffset dy="0.272009"/>
<feGaussianBlur stdDeviation="0.993135"/>
<feComposite in2="hardAlpha" operator="arithmetic" k2="-1" k3="1"/>
<feColorMatrix type="matrix" values="0 0 0 0 1 0 0 0 0 1 0 0 0 0 1 0 0 0 0.65 0"/>
<feBlend mode="normal" in2="shape" result="effect1_innerShadow_8_2"/>
</filter>
<filter id="filter2_bii_8_2" x="26.2676" y="26.8829" width="28.0139" height="33.7295" filterUnits="userSpaceOnUse" color-interpolation-filters="sRGB">
<feFlood flood-opacity="0" result="BackgroundImageFix"/>
<feGaussianBlur in="BackgroundImageFix" stdDeviation="2.71673"/>
<feComposite in2="SourceAlpha" operator="in" result="effect1_backgroundBlur_8_2"/>
<feBlend mode="normal" in="SourceGraphic" in2="effect1_backgroundBlur_8_2" result="shape"/>
<feColorMatrix in="SourceAlpha" type="matrix" values="0 0 0 0 0 0 0 0 0 0 0 0 0 0 0 0 0 0 127 0" result="hardAlpha"/>
<feOffset/>
<feGaussianBlur stdDeviation="1.73107"/>
<feComposite in2="hardAlpha" operator="arithmetic" k2="-1" k3="1"/>
<feColorMatrix type="matrix" values="0 0 0 0 1 0 0 0 0 1 0 0 0 0 1 0 0 0 0.08 0"/>
<feBlend mode="normal" in2="shape" result="effect2_innerShadow_8_2"/>
<feColorMatrix in="SourceAlpha" type="matrix" values="0 0 0 0 0 0 0 0 0 0 0 0 0 0 0 0 0 0 127 0" result="hardAlpha"/>
<feOffset dy="0.432768"/>
<feGaussianBlur stdDeviation="0.216384"/>
<feComposite in2="hardAlpha" operator="arithmetic" k2="-1" k3="1"/>
<feColorMatrix type="matrix" values="0 0 0 0 1 0 0 0 0 1 0 0 0 0 1 0 0 0 0.16 0"/>
<feBlend mode="normal" in2="effect2_innerShadow_8_2" result="effect3_innerShadow_8_2"/>
</filter>
<linearGradient id="paint0_linear_8_2" x1="25.1329" y1="-13" x2="25.1329" y2="88" gradientUnits="userSpaceOnUse">
<stop stop-color="white"/>
<stop offset="1" stop-color="white" stop-opacity="0"/>
</linearGradient>
<linearGradient id="paint1_linear_8_2" x1="25.1329" y1="-13" x2="25.1329" y2="66" gradientUnits="userSpaceOnUse">
<stop stop-color="white"/>
<stop offset="1" stop-color="white" stop-opacity="0"/>
</linearGradient>
<linearGradient id="paint2_linear_8_2" x1="40.2745" y1="32.3163" x2="40.2745" y2="72.7839" gradientUnits="userSpaceOnUse">
<stop offset="0.237654" stop-color="#FAFCFB"/>
<stop offset="1" stop-color="#DCDEDD" stop-opacity="0"/>
</linearGradient>
<linearGradient id="paint3_linear_8_2" x1="40.2745" y1="44.8663" x2="40.2745" y2="55.1789" gradientUnits="userSpaceOnUse">
<stop stop-color="#999999" stop-opacity="0"/>
<stop offset="1" stop-color="white"/>
</linearGradient>
<clipPath id="clip0_8_2">
<rect width="62" height="76" fill="white"/>
</clipPath>
<clipPath id="clip1_8_2">
<rect width="22.8626" height="22.8626" fill="white" transform="translate(28.8433 32.3163)"/>
</clipPath>
</defs>
</svg>
