<svg width="86" height="86" viewBox="0 0 86 86" fill="none" xmlns="http://www.w3.org/2000/svg">
<circle cx="43" cy="43" r="41" fill="#F15729"/>
<circle cx="43" cy="43" r="41" fill="url(#paint0_radial_545_34)" style="mix-blend-mode:overlay"/>
<circle cx="43" cy="43" r="41" fill="url(#paint1_radial_545_34)" style="mix-blend-mode:overlay"/>
<circle cx="43" cy="43" r="41" fill="url(#paint2_radial_545_34)" style="mix-blend-mode:overlay"/>
<circle cx="43" cy="43" r="41" fill="url(#paint3_radial_545_34)" fill-opacity="0.6"/>
<circle cx="43" cy="43" r="41" stroke="url(#paint4_linear_545_34)" stroke-width="4"/>
<circle cx="43" cy="43" r="41" stroke="white" stroke-width="4"/>
<g clip-path="url(#clip0_545_34)">
<g filter="url(#filter0_d_545_34)">
<path fill-rule="evenodd" clip-rule="evenodd" d="M25.0781 47.0881L28.048 47.1472L32.2016 42.9971L35.4946 46.2902C36.3555 45.1832 37.4137 44.2555 38.6435 43.5444L38.8596 43.4214L39.029 43.5995L38.3001 40.5149C37.7049 40.6666 37.0863 40.7448 36.4549 40.7448C34.4021 40.7448 32.4871 39.9198 31.0625 38.4265L30.8931 38.2484L30.677 38.3712C27.6636 40.1136 25.6818 43.1577 25.0996 46.9504L25.0781 47.0881ZM36.4549 39.2207C32.7212 39.2207 29.6834 36.1828 29.6834 32.4485C29.6834 28.7116 32.7212 25.6738 36.4549 25.6738C39.6871 25.6738 42.3974 27.9499 43.0675 30.9833C40.2352 31.9604 37.8352 35.2868 37.8095 39.0841C37.3717 39.1735 36.9188 39.2207 36.4549 39.2207Z" fill="url(#paint5_linear_545_34)"/>
<path d="M38.2045 40.6712L38.8241 43.2932L38.7958 43.3093L38.5797 43.4323L38.579 43.4327C37.3774 44.1275 36.3375 45.0268 35.4831 46.0964L32.2929 42.9059L32.2017 42.8147L32.1105 42.9058L27.9957 47.0171L25.2283 46.9621C25.8068 43.2075 27.7676 40.2027 30.7411 38.4831C30.7413 38.483 30.7414 38.4829 30.7416 38.4829L30.8691 38.4104L30.969 38.5154L30.9691 38.5155C32.4179 40.0341 34.3665 40.8738 36.4549 40.8738C37.0521 40.8738 37.6381 40.805 38.2045 40.6712ZM36.4549 39.0917C32.7924 39.0917 29.8124 36.1115 29.8124 32.4485C29.8124 28.7828 32.7925 25.8028 36.4549 25.8028C39.5857 25.8028 42.2179 27.9802 42.916 30.9003C40.1005 31.9343 37.7501 35.2249 37.6818 38.9777C37.2841 39.0524 36.8741 39.0917 36.4549 39.0917Z" stroke="white" stroke-width="0.258"/>
</g>
<g filter="url(#filter1_d_545_34)">
<path fill-rule="evenodd" clip-rule="evenodd" d="M41.2567 60.4536H62.4782C62.735 54.7943 60.7692 49.9519 55.4882 46.9017L55.2185 46.7457L54.9993 46.9716C53.1919 48.8662 50.7623 49.9129 48.1572 49.9129C45.5528 49.9129 43.1234 48.8662 41.3159 46.9716L41.1009 46.7457L40.827 46.9017C39.7088 47.5481 38.7394 48.2754 37.9076 49.0736L41.4507 52.6166H35.9062C36.157 55.309 37.158 57.5274 39.5385 59.227L41.2567 60.4536ZM48.1572 47.9794C43.4203 47.9794 39.5664 44.1252 39.5664 39.3876C39.5664 34.6467 43.4203 30.793 48.1572 30.793C52.8948 30.793 56.749 34.6467 56.749 39.3836C56.749 44.1212 52.8949 47.9794 48.1572 47.9794Z" fill="url(#paint6_linear_545_34)"/>
<path d="M39.6135 59.122C37.3106 57.4778 36.3181 55.3443 36.0486 52.7456H41.4507H41.7622L41.5419 52.5254L38.0924 49.0759C38.8947 48.3209 39.8241 47.6305 40.8911 47.0136C40.8913 47.0135 40.8914 47.0135 40.8915 47.0134L41.077 46.9077L41.2224 47.0605L41.2225 47.0606C43.0542 48.9805 45.5172 50.0419 48.1572 50.0419C50.7977 50.0419 53.2608 48.9806 55.0922 47.061C55.0923 47.0609 55.0925 47.0608 55.0926 47.0606L55.241 46.9077L55.4236 47.0134L55.4236 47.0134C60.6167 50.0128 62.5757 54.7566 62.3545 60.3246H41.298L39.6135 59.122ZM48.1572 47.8504C43.4916 47.8504 39.6954 44.054 39.6954 39.3876C39.6954 34.7179 43.4916 30.922 48.1572 30.922C52.8236 30.922 56.62 34.718 56.62 39.3836C56.62 44.05 52.8235 47.8504 48.1572 47.8504Z" stroke="white" stroke-width="0.258"/>
</g>
<g filter="url(#filter2_d_545_34)">
<path fill-rule="evenodd" clip-rule="evenodd" d="M31.7122 45.8398L25.7646 51.5206H29.1609C30.0115 57.2065 34.2583 59.6402 38.5051 60.4533C35.5313 58.4233 34.1755 55.5804 34.1755 51.5206H37.6546L31.7122 45.8398Z" fill="url(#paint7_linear_545_34)"/>
<path d="M37.333 51.3916H34.1755H34.0465V51.5206C34.0465 53.5647 34.3879 55.3106 35.109 56.8042C35.7486 58.129 36.6844 59.2498 37.9359 60.2021C36.0295 59.7664 34.1619 58.9863 32.6422 57.7153C30.9675 56.3147 29.7091 54.3132 29.2885 51.5015L29.2721 51.3916H29.1609H26.0865L31.7122 46.0183L37.333 51.3916Z" stroke="white" stroke-width="0.258"/>
</g>
</g>
<defs>
<filter id="filter0_d_545_34" x="23.0141" y="24.8138" width="22.1173" height="25.6007" filterUnits="userSpaceOnUse" color-interpolation-filters="sRGB">
<feFlood flood-opacity="0" result="BackgroundImageFix"/>
<feColorMatrix in="SourceAlpha" type="matrix" values="0 0 0 0 0 0 0 0 0 0 0 0 0 0 0 0 0 0 127 0" result="hardAlpha"/>
<feOffset dy="1.204"/>
<feGaussianBlur stdDeviation="1.032"/>
<feComposite in2="hardAlpha" operator="out"/>
<feColorMatrix type="matrix" values="0 0 0 0 0 0 0 0 0 0 0 0 0 0 0 0 0 0 0.35 0"/>
<feBlend mode="normal" in2="BackgroundImageFix" result="effect1_dropShadow_545_34"/>
<feBlend mode="normal" in="SourceGraphic" in2="effect1_dropShadow_545_34" result="shape"/>
</filter>
<filter id="filter1_d_545_34" x="33.8423" y="29.933" width="30.7217" height="33.7882" filterUnits="userSpaceOnUse" color-interpolation-filters="sRGB">
<feFlood flood-opacity="0" result="BackgroundImageFix"/>
<feColorMatrix in="SourceAlpha" type="matrix" values="0 0 0 0 0 0 0 0 0 0 0 0 0 0 0 0 0 0 127 0" result="hardAlpha"/>
<feOffset dy="1.204"/>
<feGaussianBlur stdDeviation="1.032"/>
<feComposite in2="hardAlpha" operator="out"/>
<feColorMatrix type="matrix" values="0 0 0 0 0 0 0 0 0 0 0 0 0 0 0 0 0 0 0.35 0"/>
<feBlend mode="normal" in2="BackgroundImageFix" result="effect1_dropShadow_545_34"/>
<feBlend mode="normal" in="SourceGraphic" in2="effect1_dropShadow_545_34" result="shape"/>
</filter>
<filter id="filter2_d_545_34" x="23.7006" y="44.9798" width="16.8682" height="18.7413" filterUnits="userSpaceOnUse" color-interpolation-filters="sRGB">
<feFlood flood-opacity="0" result="BackgroundImageFix"/>
<feColorMatrix in="SourceAlpha" type="matrix" values="0 0 0 0 0 0 0 0 0 0 0 0 0 0 0 0 0 0 127 0" result="hardAlpha"/>
<feOffset dy="1.204"/>
<feGaussianBlur stdDeviation="1.032"/>
<feComposite in2="hardAlpha" operator="out"/>
<feColorMatrix type="matrix" values="0 0 0 0 0 0 0 0 0 0 0 0 0 0 0 0 0 0 0.35 0"/>
<feBlend mode="normal" in2="BackgroundImageFix" result="effect1_dropShadow_545_34"/>
<feBlend mode="normal" in="SourceGraphic" in2="effect1_dropShadow_545_34" result="shape"/>
</filter>
<radialGradient id="paint0_radial_545_34" cx="0" cy="0" r="1" gradientUnits="userSpaceOnUse" gradientTransform="translate(43 5.86364) rotate(-90) scale(28.2521 62.0087)">
<stop stop-color="white"/>
<stop offset="1" stop-color="white" stop-opacity="0"/>
</radialGradient>
<radialGradient id="paint1_radial_545_34" cx="0" cy="0" r="1" gradientUnits="userSpaceOnUse" gradientTransform="translate(43 89.4649) rotate(-90) scale(9.32852 41.7834)">
<stop stop-color="white"/>
<stop offset="1" stop-color="white" stop-opacity="0"/>
</radialGradient>
<radialGradient id="paint2_radial_545_34" cx="0" cy="0" r="1" gradientUnits="userSpaceOnUse" gradientTransform="translate(43 86) rotate(-90) scale(17.1467 76.8018)">
<stop stop-color="white"/>
<stop offset="1" stop-color="white" stop-opacity="0"/>
</radialGradient>
<radialGradient id="paint3_radial_545_34" cx="0" cy="0" r="1" gradientUnits="userSpaceOnUse" gradientTransform="translate(43.001 46.7975) rotate(90) scale(45.5279)">
<stop offset="0.445" stop-color="#FEEF7E"/>
<stop offset="0.875" stop-color="#FEEF7E" stop-opacity="0"/>
</radialGradient>
<linearGradient id="paint4_linear_545_34" x1="43" y1="0" x2="43" y2="107.5" gradientUnits="userSpaceOnUse">
<stop offset="0.565" stop-color="white"/>
<stop offset="1" stop-color="#FF9D6F"/>
</linearGradient>
<linearGradient id="paint5_linear_545_34" x1="34.0728" y1="25.6738" x2="34.0728" y2="52.5155" gradientUnits="userSpaceOnUse">
<stop offset="0.565" stop-color="white"/>
<stop offset="1" stop-color="#FF9D6F"/>
</linearGradient>
<linearGradient id="paint6_linear_545_34" x1="49.2032" y1="30.793" x2="49.2032" y2="67.8687" gradientUnits="userSpaceOnUse">
<stop offset="0.565" stop-color="white"/>
<stop offset="1" stop-color="#FF9D6F"/>
</linearGradient>
<linearGradient id="paint7_linear_545_34" x1="32.1349" y1="45.8398" x2="32.1349" y2="64.1067" gradientUnits="userSpaceOnUse">
<stop offset="0.565" stop-color="white"/>
<stop offset="1" stop-color="#FF9D6F"/>
</linearGradient>
<clipPath id="clip0_545_34">
<rect width="52" height="52" fill="white" transform="translate(17 15)"/>
</clipPath>
</defs>
</svg>
