<svg width="62" height="76" viewBox="0 0 62 76" fill="none" xmlns="http://www.w3.org/2000/svg">
<g clip-path="url(#clip0_8_88)">
<mask id="path-1-outside-1_8_88" maskUnits="userSpaceOnUse" x="2" y="6" width="41" height="57" fill="black">
<rect fill="white" x="2" y="6" width="41" height="57"/>
<path d="M4.32 62V51.2C4.32 48.944 4.68 46.976 5.4 45.296C6.168 43.616 7.368 42.128 9 40.832C10.632 39.488 12.792 38.24 15.48 37.088L23.976 33.416C26.136 32.504 27.72 31.376 28.728 30.032C29.784 28.688 30.312 26.984 30.312 24.92C30.312 22.808 29.664 21.08 28.368 19.736C27.072 18.392 25.176 17.72 22.68 17.72C20.184 17.72 18.288 18.416 16.992 19.808C15.696 21.2 15.048 23.072 15.048 25.424H3.6C3.6 22.112 4.32 19.136 5.76 16.496C7.2 13.808 9.336 11.696 12.168 10.16C15 8.624 18.504 7.856 22.68 7.856C26.856 7.856 30.336 8.6 33.12 10.088C35.952 11.576 38.088 13.568 39.528 16.064C41.016 18.56 41.76 21.368 41.76 24.488V25.352C41.76 29.384 40.656 32.72 38.448 35.36C36.24 37.952 32.832 40.256 28.224 42.272L19.8 45.944C18.36 46.568 17.328 47.216 16.704 47.888C16.128 48.56 15.84 49.472 15.84 50.624V54.224L13.032 51.848H41.832V62H4.32Z"/>
</mask>
<path d="M4.32 62V51.2C4.32 48.944 4.68 46.976 5.4 45.296C6.168 43.616 7.368 42.128 9 40.832C10.632 39.488 12.792 38.24 15.48 37.088L23.976 33.416C26.136 32.504 27.72 31.376 28.728 30.032C29.784 28.688 30.312 26.984 30.312 24.92C30.312 22.808 29.664 21.08 28.368 19.736C27.072 18.392 25.176 17.72 22.68 17.72C20.184 17.72 18.288 18.416 16.992 19.808C15.696 21.2 15.048 23.072 15.048 25.424H3.6C3.6 22.112 4.32 19.136 5.76 16.496C7.2 13.808 9.336 11.696 12.168 10.16C15 8.624 18.504 7.856 22.68 7.856C26.856 7.856 30.336 8.6 33.12 10.088C35.952 11.576 38.088 13.568 39.528 16.064C41.016 18.56 41.76 21.368 41.76 24.488V25.352C41.76 29.384 40.656 32.72 38.448 35.36C36.24 37.952 32.832 40.256 28.224 42.272L19.8 45.944C18.36 46.568 17.328 47.216 16.704 47.888C16.128 48.56 15.84 49.472 15.84 50.624V54.224L13.032 51.848H41.832V62H4.32Z" fill="url(#paint0_linear_8_88)" fill-opacity="0.5"/>
<path d="M4.32 62H3.32V63H4.32V62ZM5.4 45.296L4.49053 44.8802L4.48556 44.8911L4.48086 44.9021L5.4 45.296ZM9 40.832L9.62188 41.6151L9.62884 41.6096L9.63571 41.6039L9 40.832ZM15.48 37.088L15.8739 38.0071L15.8767 38.0059L15.48 37.088ZM23.976 33.416L23.587 32.4947L23.5793 32.4981L23.976 33.416ZM28.728 30.032L27.9417 29.4142L27.9347 29.423L27.928 29.432L28.728 30.032ZM16.992 19.808L17.7239 20.4894L17.7239 20.4894L16.992 19.808ZM15.048 25.424V26.424H16.048V25.424H15.048ZM3.6 25.424H2.6V26.424H3.6V25.424ZM5.76 16.496L6.63792 16.9749L6.64148 16.9682L5.76 16.496ZM12.168 10.16L12.6448 11.039L12.6448 11.039L12.168 10.16ZM33.12 10.088L32.6486 10.97L32.6549 10.9732L33.12 10.088ZM39.528 16.064L38.6618 16.5637L38.6654 16.5699L38.6691 16.5761L39.528 16.064ZM38.448 35.36L39.2093 36.0085L39.2151 36.0016L38.448 35.36ZM28.224 42.272L28.6236 43.1887L28.6248 43.1882L28.224 42.272ZM19.8 45.944L20.1976 46.8616L20.1996 46.8607L19.8 45.944ZM16.704 47.888L15.9712 47.2075L15.9577 47.2221L15.9447 47.2372L16.704 47.888ZM15.84 54.224L15.1941 54.9874L16.84 56.3801V54.224H15.84ZM13.032 51.848V50.848H10.3021L12.3861 52.6114L13.032 51.848ZM41.832 51.848H42.832V50.848H41.832V51.848ZM41.832 62V63H42.832V62H41.832ZM5.32 62V51.2H3.32V62H5.32ZM5.32 51.2C5.32 49.0486 5.66342 47.2199 6.31915 45.6899L4.48086 44.9021C3.69658 46.7321 3.32 48.8394 3.32 51.2H5.32ZM6.30947 45.7118C7.00393 44.1926 8.09739 42.8257 9.62188 41.6151L8.37812 40.0489C6.63861 41.4303 5.33207 43.0394 4.49053 44.8802L6.30947 45.7118ZM9.63571 41.6039C11.1725 40.3383 13.2423 39.135 15.8739 38.0071L15.0861 36.1689C12.3417 37.345 10.0915 38.6377 8.36429 40.0601L9.63571 41.6039ZM15.8767 38.0059L24.3727 34.3339L23.5793 32.4981L15.0833 36.1701L15.8767 38.0059ZM24.365 34.3372C26.6266 33.3823 28.3799 32.1628 29.528 30.632L27.928 29.432C27.0601 30.5892 25.6454 31.6257 23.587 32.4947L24.365 34.3372ZM29.5143 30.6498C30.7358 29.0953 31.312 27.1601 31.312 24.92H29.312C29.312 26.8079 28.8323 28.2807 27.9417 29.4142L29.5143 30.6498ZM31.312 24.92C31.312 22.5859 30.5876 20.5972 29.0878 19.0419L27.6482 20.4301C28.7404 21.5628 29.312 23.0301 29.312 24.92H31.312ZM29.0878 19.0419C27.5463 17.4432 25.3526 16.72 22.68 16.72V18.72C24.9994 18.72 26.5977 19.3408 27.6482 20.4301L29.0878 19.0419ZM22.68 16.72C19.9975 16.72 17.7995 17.4731 16.2601 19.1266L17.7239 20.4894C18.7765 19.3589 20.3705 18.72 22.68 18.72V16.72ZM16.2601 19.1266C14.7533 20.745 14.048 22.8819 14.048 25.424H16.048C16.048 23.2621 16.6387 21.655 17.7239 20.4894L16.2601 19.1266ZM15.048 24.424H3.6V26.424H15.048V24.424ZM4.6 25.424C4.6 22.262 5.28593 19.4535 6.6379 16.9749L4.8821 16.0171C3.35408 18.8185 2.6 21.962 2.6 25.424H4.6ZM6.64148 16.9682C7.98388 14.4624 9.97431 12.4874 12.6448 11.039L11.6912 9.28097C8.69769 10.9046 6.41612 13.1536 4.87852 16.0238L6.64148 16.9682ZM12.6448 11.039C15.2934 9.60249 18.6226 8.856 22.68 8.856V6.856C18.3854 6.856 14.7066 7.64551 11.6912 9.28097L12.6448 11.039ZM22.68 8.856C26.7427 8.856 30.0489 9.58042 32.6486 10.9699L33.5914 9.20607C30.6231 7.61957 26.9693 6.856 22.68 6.856V8.856ZM32.6549 10.9732C35.3385 12.3833 37.3266 14.2493 38.6618 16.5637L40.3942 15.5643C38.8494 12.8867 36.5655 10.7687 33.5851 9.20275L32.6549 10.9732ZM38.6691 16.5761C40.0579 18.9058 40.76 21.5345 40.76 24.488H42.76C42.76 21.2015 41.9741 18.2142 40.3869 15.5519L38.6691 16.5761ZM40.76 24.488V25.352H42.76V24.488H40.76ZM40.76 25.352C40.76 29.1917 39.7134 32.2883 37.6809 34.7184L39.2151 36.0016C41.5986 33.1517 42.76 29.5763 42.76 25.352H40.76ZM37.6868 34.7115C35.6126 37.1464 32.3532 39.3739 27.8232 41.3558L28.6248 43.1882C33.3108 41.138 36.8674 38.7576 39.2092 36.0085L37.6868 34.7115ZM27.8244 41.3553L19.4004 45.0273L20.1996 46.8607L28.6236 43.1887L27.8244 41.3553ZM19.4024 45.0264C17.9132 45.6718 16.7336 46.3865 15.9712 47.2075L17.4368 48.5685C17.9224 48.0455 18.8068 47.4642 20.1976 46.8616L19.4024 45.0264ZM15.9447 47.2372C15.1715 48.1393 14.84 49.3066 14.84 50.624H16.84C16.84 49.6374 17.0845 48.9807 17.4633 48.5388L15.9447 47.2372ZM14.84 50.624V54.224H16.84V50.624H14.84ZM16.4859 53.4606L13.6779 51.0846L12.3861 52.6114L15.1941 54.9874L16.4859 53.4606ZM13.032 52.848H41.832V50.848H13.032V52.848ZM40.832 51.848V62H42.832V51.848H40.832ZM41.832 61H4.32V63H41.832V61Z" fill="url(#paint1_linear_8_88)" fill-opacity="0.5" mask="url(#path-1-outside-1_8_88)"/>
<g opacity="0.4" filter="url(#filter0_f_8_88)">
<path d="M29.0738 64.5719C29.4477 64.2053 29.9504 64 30.474 64H53.9289C54.5404 64 55.1184 64.2798 55.4977 64.7595L60.0371 70.5L23.5371 70L29.0738 64.5719Z" fill="url(#paint2_linear_8_88)"/>
</g>
<rect x="23.5371" y="26" width="38" height="38" rx="8.36" fill="#F15729"/>
<g filter="url(#filter1_i_8_88)">
<rect x="25.536" y="27.9988" width="34.0012" height="34.0012" rx="7.48025" fill="#F15729"/>
<rect x="25.536" y="27.9988" width="34.0012" height="34.0012" rx="7.48025" fill="url(#paint3_radial_8_88)" style="mix-blend-mode:overlay"/>
<rect x="25.536" y="27.9988" width="34.0012" height="34.0012" rx="7.48025" fill="url(#paint4_radial_8_88)" style="mix-blend-mode:overlay"/>
<rect x="25.536" y="27.9988" width="34.0012" height="34.0012" rx="7.48025" fill="url(#paint5_radial_8_88)" style="mix-blend-mode:overlay"/>
<rect x="25.536" y="27.9988" width="34.0012" height="34.0012" rx="7.48025" fill="url(#paint6_radial_8_88)" fill-opacity="0.6"/>
</g>
<g clip-path="url(#clip1_8_88)">
<g filter="url(#filter2_d_8_88)">
<path d="M49.3359 54.5469L47.5078 54.0781L46.6953 55.7734C46.4063 56.3672 45.5625 56.3672 45.2813 55.7656L43.6406 52.25C45.5391 52.0469 47.2891 51.3359 48.75 50.2656L50.2344 53.4531C50.5156 54.0547 49.9766 54.7031 49.3359 54.5469Z" fill="url(#paint7_linear_8_88)"/>
<path d="M45.3845 55.7173L43.8109 52.3452C45.6208 52.1241 47.2924 51.446 48.7049 50.4389L50.131 53.5013L50.1311 53.5014C50.3712 54.015 49.9122 54.5696 49.3636 54.4363L47.5361 53.9677L47.4455 53.9444L47.405 54.0289L46.5928 55.7235C46.5928 55.7236 46.5927 55.7237 46.5927 55.7238C46.3448 56.2324 45.6245 56.2305 45.3846 55.7174C45.3845 55.7174 45.3845 55.7174 45.3845 55.7173Z" stroke="white" stroke-width="0.228"/>
</g>
<g filter="url(#filter3_d_8_88)">
<path d="M41.3596 52.25L39.719 55.7656C39.4378 56.3672 38.594 56.3672 38.3049 55.7734L37.4924 54.0781L35.6643 54.5469C35.0237 54.7031 34.4846 54.0547 34.7659 53.4531L36.2503 50.2656C37.7112 51.3359 39.4612 52.0469 41.3596 52.25Z" fill="url(#paint8_linear_8_88)"/>
<path d="M37.5952 54.0289L37.5548 53.9444L37.4641 53.9677L35.6367 54.4363C35.0881 54.5696 34.629 54.015 34.8691 53.5014L34.8692 53.5013L36.2953 50.4389C37.7078 51.446 39.3794 52.1241 41.1894 52.3452L39.6157 55.7173C39.6157 55.7174 39.6157 55.7174 39.6157 55.7174C39.3757 56.2305 38.6555 56.2324 38.4076 55.7238C38.4075 55.7237 38.4075 55.7236 38.4074 55.7235L37.5952 54.0289Z" stroke="white" stroke-width="0.228"/>
</g>
<g filter="url(#filter4_d_8_88)">
<path d="M42.5 32.7812C37.5383 32.7812 33.5156 36.8039 33.5156 41.7656C33.5156 46.7273 37.5383 50.75 42.5 50.75C47.4617 50.75 51.4844 46.7273 51.4844 41.7656C51.4844 36.8039 47.4617 32.7812 42.5 32.7812ZM46.5539 41.5555L45.1094 42.9633L45.45 44.9516C45.5625 45.607 44.8742 46.1078 44.2852 45.7977L42.5 44.8594L40.7148 45.7977C40.1258 46.107 39.4375 45.607 39.55 44.9516L39.8906 42.9633L38.4461 41.5555C37.9695 41.0906 38.2328 40.282 38.8914 40.1859L40.8875 39.8961L41.7805 38.0875C42.075 37.4906 42.9258 37.4906 43.2203 38.0875L44.1133 39.8961L46.1094 40.1859C46.768 40.2812 47.0305 41.0906 46.5547 41.5555H46.5539Z" fill="url(#paint9_linear_8_88)"/>
<path d="M40.7679 45.8986L40.7679 45.8986L42.5 44.9882L44.232 45.8985C44.9049 46.2528 45.6908 45.6808 45.5624 44.9323C45.5624 44.9323 45.5624 44.9323 45.5624 44.9323L45.2319 43.0031L46.6003 41.6695H46.6011L46.6344 41.637C47.1775 41.1064 46.8781 40.182 46.1257 40.0731L44.189 39.7919L43.3225 38.0371C43.3225 38.037 43.3225 38.037 43.3225 38.037C42.9862 37.3554 42.0146 37.3554 41.6782 38.037C41.6782 38.037 41.6782 38.037 41.6782 38.0371L40.8118 39.7919L38.875 40.0731L38.8749 40.0731C38.1231 40.1828 37.8222 41.1062 38.3665 41.6371L38.3665 41.6371L39.7681 43.0031L39.4376 44.9323C39.4376 44.9323 39.4376 44.9323 39.4376 44.9323C39.3092 45.681 40.0953 46.2518 40.7679 45.8986ZM33.6296 41.7656C33.6296 36.8669 37.6012 32.8953 42.5 32.8953C47.3988 32.8953 51.3704 36.8669 51.3704 41.7656C51.3704 46.6644 47.3988 50.636 42.5 50.636C37.6012 50.636 33.6296 46.6644 33.6296 41.7656Z" stroke="white" stroke-width="0.228"/>
</g>
</g>
</g>
<defs>
<filter id="filter0_f_8_88" x="20.5371" y="61" width="42.5" height="12.5" filterUnits="userSpaceOnUse" color-interpolation-filters="sRGB">
<feFlood flood-opacity="0" result="BackgroundImageFix"/>
<feBlend mode="normal" in="SourceGraphic" in2="BackgroundImageFix" result="shape"/>
<feGaussianBlur stdDeviation="1.5" result="effect1_foregroundBlur_8_88"/>
</filter>
<filter id="filter1_i_8_88" x="25.536" y="27.9988" width="34.0011" height="34.2732" filterUnits="userSpaceOnUse" color-interpolation-filters="sRGB">
<feFlood flood-opacity="0" result="BackgroundImageFix"/>
<feBlend mode="normal" in="SourceGraphic" in2="BackgroundImageFix" result="shape"/>
<feColorMatrix in="SourceAlpha" type="matrix" values="0 0 0 0 0 0 0 0 0 0 0 0 0 0 0 0 0 0 127 0" result="hardAlpha"/>
<feOffset dy="0.272009"/>
<feGaussianBlur stdDeviation="0.993135"/>
<feComposite in2="hardAlpha" operator="arithmetic" k2="-1" k3="1"/>
<feColorMatrix type="matrix" values="0 0 0 0 1 0 0 0 0 1 0 0 0 0 1 0 0 0 0.65 0"/>
<feBlend mode="normal" in2="shape" result="effect1_innerShadow_8_88"/>
</filter>
<filter id="filter2_d_8_88" x="41.8166" y="49.5056" width="10.3182" height="9.60015" filterUnits="userSpaceOnUse" color-interpolation-filters="sRGB">
<feFlood flood-opacity="0" result="BackgroundImageFix"/>
<feColorMatrix in="SourceAlpha" type="matrix" values="0 0 0 0 0 0 0 0 0 0 0 0 0 0 0 0 0 0 127 0" result="hardAlpha"/>
<feOffset dy="1.064"/>
<feGaussianBlur stdDeviation="0.912"/>
<feComposite in2="hardAlpha" operator="out"/>
<feColorMatrix type="matrix" values="0 0 0 0 0 0 0 0 0 0 0 0 0 0 0 0 0 0 0.35 0"/>
<feBlend mode="normal" in2="BackgroundImageFix" result="effect1_dropShadow_8_88"/>
<feBlend mode="normal" in="SourceGraphic" in2="effect1_dropShadow_8_88" result="shape"/>
</filter>
<filter id="filter3_d_8_88" x="32.8655" y="49.5056" width="10.3182" height="9.60015" filterUnits="userSpaceOnUse" color-interpolation-filters="sRGB">
<feFlood flood-opacity="0" result="BackgroundImageFix"/>
<feColorMatrix in="SourceAlpha" type="matrix" values="0 0 0 0 0 0 0 0 0 0 0 0 0 0 0 0 0 0 127 0" result="hardAlpha"/>
<feOffset dy="1.064"/>
<feGaussianBlur stdDeviation="0.912"/>
<feComposite in2="hardAlpha" operator="out"/>
<feColorMatrix type="matrix" values="0 0 0 0 0 0 0 0 0 0 0 0 0 0 0 0 0 0 0.35 0"/>
<feBlend mode="normal" in2="BackgroundImageFix" result="effect1_dropShadow_8_88"/>
<feBlend mode="normal" in="SourceGraphic" in2="effect1_dropShadow_8_88" result="shape"/>
</filter>
<filter id="filter4_d_8_88" x="31.6916" y="32.0213" width="21.6168" height="21.6168" filterUnits="userSpaceOnUse" color-interpolation-filters="sRGB">
<feFlood flood-opacity="0" result="BackgroundImageFix"/>
<feColorMatrix in="SourceAlpha" type="matrix" values="0 0 0 0 0 0 0 0 0 0 0 0 0 0 0 0 0 0 127 0" result="hardAlpha"/>
<feOffset dy="1.064"/>
<feGaussianBlur stdDeviation="0.912"/>
<feComposite in2="hardAlpha" operator="out"/>
<feColorMatrix type="matrix" values="0 0 0 0 0 0 0 0 0 0 0 0 0 0 0 0 0 0 0.35 0"/>
<feBlend mode="normal" in2="BackgroundImageFix" result="effect1_dropShadow_8_88"/>
<feBlend mode="normal" in="SourceGraphic" in2="effect1_dropShadow_8_88" result="shape"/>
</filter>
<linearGradient id="paint0_linear_8_88" x1="24.1329" y1="-13" x2="24.1329" y2="88" gradientUnits="userSpaceOnUse">
<stop stop-color="white"/>
<stop offset="1" stop-color="white" stop-opacity="0"/>
</linearGradient>
<linearGradient id="paint1_linear_8_88" x1="24.1329" y1="-13" x2="24.1329" y2="66" gradientUnits="userSpaceOnUse">
<stop stop-color="white"/>
<stop offset="1" stop-color="white" stop-opacity="0"/>
</linearGradient>
<linearGradient id="paint2_linear_8_88" x1="45.8971" y1="64" x2="45.8971" y2="70" gradientUnits="userSpaceOnUse">
<stop stop-color="#FFF78B"/>
<stop offset="1" stop-color="#F46932"/>
</linearGradient>
<radialGradient id="paint3_radial_8_88" cx="0" cy="0" r="1" gradientUnits="userSpaceOnUse" gradientTransform="translate(42.5366 30.3171) rotate(-90) scale(11.1698 24.5159)">
<stop stop-color="white"/>
<stop offset="1" stop-color="white" stop-opacity="0"/>
</radialGradient>
<radialGradient id="paint4_radial_8_88" cx="0" cy="0" r="1" gradientUnits="userSpaceOnUse" gradientTransform="translate(42.5366 63.3699) rotate(-90) scale(3.68814 16.5196)">
<stop stop-color="white"/>
<stop offset="1" stop-color="white" stop-opacity="0"/>
</radialGradient>
<radialGradient id="paint5_radial_8_88" cx="0" cy="0" r="1" gradientUnits="userSpaceOnUse" gradientTransform="translate(42.5366 62) rotate(-90) scale(6.77916 30.3645)">
<stop stop-color="white"/>
<stop offset="1" stop-color="white" stop-opacity="0"/>
</radialGradient>
<radialGradient id="paint6_radial_8_88" cx="0" cy="0" r="1" gradientUnits="userSpaceOnUse" gradientTransform="translate(42.537 46.5008) rotate(90) scale(18)">
<stop offset="0.445" stop-color="#FEEF7E"/>
<stop offset="0.875" stop-color="#FEEF7E" stop-opacity="0"/>
</radialGradient>
<linearGradient id="paint7_linear_8_88" x1="45.4935" y1="50.2656" x2="45.4935" y2="56.2178" gradientUnits="userSpaceOnUse">
<stop offset="0.305162" stop-color="white"/>
<stop offset="1" stop-color="#FF9D6F"/>
</linearGradient>
<linearGradient id="paint8_linear_8_88" x1="36.5423" y1="50.2656" x2="36.5423" y2="56.2178" gradientUnits="userSpaceOnUse">
<stop offset="0.305162" stop-color="white"/>
<stop offset="1" stop-color="#FF9D6F"/>
</linearGradient>
<linearGradient id="paint9_linear_8_88" x1="38.5069" y1="32.7813" x2="38.5069" y2="50.75" gradientUnits="userSpaceOnUse">
<stop offset="0.305162" stop-color="white"/>
<stop offset="1" stop-color="#FF9D6F"/>
</linearGradient>
<clipPath id="clip0_8_88">
<rect width="62" height="76" fill="white"/>
</clipPath>
<clipPath id="clip1_8_88">
<rect width="25" height="25" fill="white" transform="translate(30 32)"/>
</clipPath>
</defs>
</svg>
