<svg width="122" height="45" viewBox="0 0 122 45" fill="none" xmlns="http://www.w3.org/2000/svg">
<g filter="url(#filter0_i_186_4676)">
<rect x="0.364136" width="120.665" height="45" rx="22.5" fill="#FF895B"/>
<rect x="0.364136" width="120.665" height="45" rx="22.5" fill="black" fill-opacity="0.2"/>
</g>
<rect x="1.36414" y="1" width="118.665" height="43" rx="21.5" stroke="url(#paint0_linear_186_4676)" stroke-width="2"/>
<rect x="1.36414" y="1" width="118.665" height="43" rx="21.5" stroke="black" stroke-opacity="0.2" stroke-width="2"/>
<mask id="path-3-inside-1_186_4676" fill="white">
<path d="M31.3815 12.365C31.4077 12.2658 31.5485 12.2658 31.5748 12.365L32.268 14.9827C32.2774 15.0182 32.3055 15.0457 32.3413 15.0543L35.0692 15.7105C35.1713 15.735 35.1713 15.8803 35.0692 15.9049L32.3413 16.5611C32.3055 16.5697 32.2774 16.5972 32.268 16.6327L31.5748 19.2504C31.5485 19.3496 31.4077 19.3496 31.3815 19.2504L30.6883 16.6327C30.6788 16.5972 30.6507 16.5697 30.615 16.5611L27.8871 15.9049C27.7849 15.8803 27.7849 15.735 27.8871 15.7105L30.615 15.0543C30.6507 15.0457 30.6788 15.0182 30.6883 14.9827L31.3815 12.365Z"/>
</mask>
<path d="M30.615 15.0543L29.6255 10.9409L30.615 15.0543ZM27.8871 15.9049L26.8976 20.0184L27.8871 15.9049ZM27.8871 15.7105L26.8976 11.597L27.8871 15.7105ZM30.6883 16.6327L34.778 15.5497L30.6883 16.6327ZM30.615 16.5611L31.6044 12.4476L30.615 16.5611ZM31.5748 19.2504L35.6646 20.3334L31.5748 19.2504ZM32.3413 16.5611L33.3307 20.6745L32.3413 16.5611ZM32.268 16.6327L28.1782 15.5497L32.268 16.6327ZM35.0692 15.9049L34.0797 11.7915L35.0692 15.9049ZM32.268 14.9827L28.1782 16.0657L32.268 14.9827ZM32.3413 15.0543L31.3518 19.1677L32.3413 15.0543ZM31.5748 12.365L35.6646 11.282L31.5748 12.365ZM31.3815 12.365L27.2917 11.282L31.3815 12.365ZM27.485 13.4481L28.1782 16.0657L36.3578 13.8996L35.6646 11.282L27.485 13.4481ZM31.3518 19.1677L34.0797 19.8239L36.0586 11.597L33.3307 10.9409L31.3518 19.1677ZM34.0797 11.7915L31.3518 12.4476L33.3307 20.6745L36.0586 20.0184L34.0797 11.7915ZM28.1782 15.5497L27.485 18.1673L35.6646 20.3334L36.3578 17.7158L28.1782 15.5497ZM35.4713 18.1673L34.778 15.5497L26.5985 17.7158L27.2917 20.3334L35.4713 18.1673ZM31.6044 12.4476L28.8765 11.7915L26.8976 20.0184L29.6255 20.6745L31.6044 12.4476ZM28.8765 19.8239L31.6044 19.1677L29.6255 10.9409L26.8976 11.597L28.8765 19.8239ZM34.778 16.0657L35.4713 13.4481L27.2917 11.282L26.5985 13.8996L34.778 16.0657ZM31.6044 19.1677C33.152 18.7955 34.3706 17.6044 34.778 16.0657L26.5985 13.8996C26.9871 12.432 28.1495 11.2959 29.6255 10.9409L31.6044 19.1677ZM28.8765 11.7915C33.0962 12.8065 33.0961 18.8089 28.8765 19.8239L26.8976 11.597C22.4738 12.6611 22.4737 18.9542 26.8976 20.0184L28.8765 11.7915ZM34.778 15.5497C34.3706 14.011 33.1519 12.8199 31.6044 12.4476L29.6255 20.6745C28.1495 20.3195 26.9871 19.1834 26.5985 17.7158L34.778 15.5497ZM27.485 18.1673C28.5702 14.0695 34.3861 14.0696 35.4713 18.1673L27.2917 20.3334C28.4294 24.6295 34.5269 24.6296 35.6646 20.3334L27.485 18.1673ZM31.3518 12.4476C29.8043 12.8199 28.5857 14.011 28.1782 15.5497L36.3578 17.7158C35.9691 19.1833 34.8068 20.3195 33.3307 20.6745L31.3518 12.4476ZM34.0797 19.8239C29.86 18.8089 29.8602 12.8064 34.0797 11.7915L36.0586 20.0184C40.4825 18.9542 40.4826 12.6612 36.0586 11.597L34.0797 19.8239ZM28.1782 16.0657C28.5857 17.6044 29.8043 18.7955 31.3518 19.1677L33.3307 10.9409C34.8068 11.2959 35.9691 12.432 36.3578 13.8996L28.1782 16.0657ZM35.6646 11.282C34.5269 6.98585 28.4294 6.9858 27.2917 11.282L35.4713 13.4481C34.3861 17.5459 28.5702 17.5458 27.485 13.4481L35.6646 11.282Z" fill="#CCCCCC" mask="url(#path-3-inside-1_186_4676)"/>
<mask id="path-5-inside-2_186_4676" fill="white">
<path d="M34.1413 23.8457L35.0368 26.7999L38.1365 27.6534L35.0368 28.5069L34.1413 31.4611L33.2457 28.5069L30.146 27.6534L33.2457 26.7999L34.1413 23.8457Z"/>
</mask>
<path d="M34.1413 23.8457L38.1901 22.6183L34.1413 9.26226L30.0925 22.6183L34.1413 23.8457ZM35.0368 26.7999L30.988 28.0273L31.6647 30.2596L33.9137 30.8789L35.0368 26.7999ZM38.1365 27.6534L39.2597 31.7324L54.0734 27.6534L39.2597 23.5744L38.1365 27.6534ZM35.0368 28.5069L33.9137 24.4279L31.6647 25.0472L30.988 27.2795L35.0368 28.5069ZM34.1413 31.4611L30.0925 32.6885L34.1413 46.0445L38.1901 32.6885L34.1413 31.4611ZM33.2457 28.5069L37.2945 27.2795L36.6178 25.0472L34.3689 24.4279L33.2457 28.5069ZM30.146 27.6534L29.0229 23.5744L14.2092 27.6534L29.0229 31.7324L30.146 27.6534ZM33.2457 26.7999L34.3689 30.8789L36.6178 30.2596L37.2945 28.0273L33.2457 26.7999ZM30.0925 25.0731L30.988 28.0273L39.0856 25.5725L38.1901 22.6183L30.0925 25.0731ZM33.9137 30.8789L37.0134 31.7324L39.2597 23.5744L36.16 22.7209L33.9137 30.8789ZM37.0134 23.5744L33.9137 24.4279L36.16 32.5859L39.2597 31.7324L37.0134 23.5744ZM30.988 27.2795L30.0925 30.2337L38.1901 32.6885L39.0856 29.7343L30.988 27.2795ZM38.1901 30.2337L37.2945 27.2795L29.1969 29.7343L30.0925 32.6885L38.1901 30.2337ZM34.3689 24.4279L31.2692 23.5744L29.0229 31.7324L32.1226 32.5859L34.3689 24.4279ZM31.2692 31.7324L34.3689 30.8789L32.1226 22.7209L29.0229 23.5744L31.2692 31.7324ZM37.2945 28.0273L38.1901 25.0731L30.0925 22.6183L29.1969 25.5725L37.2945 28.0273Z" fill="#CCCCCC" mask="url(#path-5-inside-2_186_4676)"/>
<path d="M47.8222 29.288C46.8515 29.288 46.0249 29.128 45.3422 28.808C44.6595 28.488 44.1369 28.0453 43.7742 27.48C43.4115 26.9147 43.2302 26.2747 43.2302 25.56H44.7982C44.7982 25.912 44.8889 26.264 45.0702 26.616C45.2622 26.968 45.5769 27.2613 46.0142 27.496C46.4622 27.7307 47.0649 27.848 47.8222 27.848C48.5262 27.848 49.1022 27.7467 49.5502 27.544C49.9982 27.3307 50.3289 27.0587 50.5422 26.728C50.7555 26.3867 50.8622 26.0187 50.8622 25.624C50.8622 25.144 50.6542 24.7493 50.2382 24.44C49.8222 24.12 49.2142 23.9227 48.4142 23.848L47.1182 23.736C46.0835 23.6507 45.2569 23.3307 44.6382 22.776C44.0195 22.2213 43.7102 21.4907 43.7102 20.584C43.7102 19.8693 43.8809 19.2453 44.2222 18.712C44.5742 18.1787 45.0595 17.7627 45.6782 17.464C46.2969 17.1547 47.0169 17 47.8382 17C48.6489 17 49.3635 17.1493 49.9822 17.448C50.6009 17.7467 51.0809 18.168 51.4222 18.712C51.7742 19.2453 51.9502 19.8853 51.9502 20.632H50.3822C50.3822 20.2587 50.2915 19.9067 50.1102 19.576C49.9395 19.2453 49.6675 18.9733 49.2942 18.76C48.9209 18.5467 48.4355 18.44 47.8382 18.44C47.2622 18.44 46.7822 18.5413 46.3982 18.744C46.0249 18.9467 45.7422 19.2133 45.5502 19.544C45.3689 19.864 45.2782 20.2107 45.2782 20.584C45.2782 21.0107 45.4435 21.3893 45.7742 21.72C46.1049 22.0507 46.5955 22.2427 47.2462 22.296L48.5422 22.408C49.3422 22.472 50.0302 22.6427 50.6062 22.92C51.1929 23.1867 51.6409 23.5493 51.9502 24.008C52.2702 24.456 52.4302 24.9947 52.4302 25.624C52.4302 26.3387 52.2382 26.9733 51.8542 27.528C51.4702 28.0827 50.9315 28.5147 50.2382 28.824C49.5449 29.1333 48.7395 29.288 47.8222 29.288ZM57.7974 29.256C56.7841 29.256 56.0054 28.9253 55.4614 28.264C54.9174 27.6027 54.6454 26.648 54.6454 25.4V20.44H56.1814V25.704C56.1814 26.376 56.3628 26.904 56.7254 27.288C57.0881 27.6613 57.5788 27.848 58.1974 27.848C58.8374 27.848 59.3601 27.6453 59.7654 27.24C60.1708 26.824 60.3734 26.2587 60.3734 25.544V20.44H61.9094V29H60.6934V25.336H60.8854C60.8854 26.1787 60.7734 26.8933 60.5494 27.48C60.3254 28.056 59.9894 28.4987 59.5414 28.808C59.1041 29.1067 58.5441 29.256 57.8614 29.256H57.7974ZM69.3963 29.288C68.6923 29.288 68.063 29.1333 67.5083 28.824C66.9643 28.5147 66.5323 28.0667 66.2123 27.48C65.8923 26.8827 65.7163 26.168 65.6843 25.336H66.1003V29H64.8843V17.32H66.4203V23L65.8763 24.168C65.919 23.24 66.1057 22.4827 66.4363 21.896C66.767 21.3093 67.199 20.8773 67.7323 20.6C68.2763 20.312 68.8737 20.168 69.5243 20.168C70.1323 20.168 70.687 20.2853 71.1883 20.52C71.6897 20.744 72.1217 21.0587 72.4843 21.464C72.847 21.8587 73.1243 22.3227 73.3163 22.856C73.5083 23.3787 73.6043 23.944 73.6043 24.552V24.84C73.6043 25.448 73.503 26.0187 73.3003 26.552C73.1083 27.0853 72.8257 27.56 72.4523 27.976C72.079 28.3813 71.631 28.7013 71.1083 28.936C70.5963 29.1707 70.0257 29.288 69.3963 29.288ZM69.2203 27.944C69.7963 27.944 70.2977 27.8053 70.7243 27.528C71.151 27.2507 71.4817 26.872 71.7163 26.392C71.951 25.9013 72.0683 25.336 72.0683 24.696C72.0683 24.056 71.9457 23.496 71.7003 23.016C71.4657 22.536 71.135 22.168 70.7083 21.912C70.2817 21.6453 69.7857 21.512 69.2203 21.512C68.7083 21.512 68.2337 21.6293 67.7963 21.864C67.359 22.088 67.007 22.4187 66.7403 22.856C66.4843 23.2827 66.3563 23.8 66.3563 24.408V25.144C66.3563 25.7307 66.4897 26.232 66.7563 26.648C67.023 27.064 67.375 27.384 67.8123 27.608C68.2497 27.832 68.719 27.944 69.2203 27.944ZM75.9156 29V20.456H77.1316V24.12H76.9396C76.9396 23.288 77.0462 22.584 77.2596 22.008C77.4836 21.4213 77.8142 20.9733 78.2516 20.664C78.6889 20.3547 79.2436 20.2 79.9156 20.2H79.9796C80.6516 20.2 81.2062 20.3547 81.6436 20.664C82.0916 20.9733 82.4222 21.4213 82.6356 22.008C82.8489 22.584 82.9556 23.288 82.9556 24.12H82.5076C82.5076 23.288 82.6196 22.584 82.8436 22.008C83.0676 21.4213 83.3982 20.9733 83.8356 20.664C84.2836 20.3547 84.8436 20.2 85.5156 20.2H85.5796C86.2516 20.2 86.8116 20.3547 87.2596 20.664C87.7076 20.9733 88.0382 21.4213 88.2516 22.008C88.4756 22.584 88.5876 23.288 88.5876 24.12V29H87.0516V23.784C87.0516 23.0907 86.8809 22.5573 86.5396 22.184C86.1982 21.8 85.7236 21.608 85.1156 21.608C84.4862 21.608 83.9796 21.8107 83.5956 22.216C83.2116 22.6107 83.0196 23.1653 83.0196 23.88V29H81.4836V23.784C81.4836 23.0907 81.3129 22.5573 80.9716 22.184C80.6302 21.8 80.1556 21.608 79.5476 21.608C78.9182 21.608 78.4116 21.8107 78.0276 22.216C77.6436 22.6107 77.4516 23.1653 77.4516 23.88V29H75.9156ZM91.8159 29V20.456H93.3519V29H91.8159ZM90.5039 21.672V20.456H93.3519V21.672H90.5039ZM92.2479 19.08C91.9066 19.08 91.6506 18.9893 91.4799 18.808C91.3199 18.6267 91.2399 18.3973 91.2399 18.12C91.2399 17.8427 91.3199 17.6133 91.4799 17.432C91.6506 17.2507 91.9066 17.16 92.2479 17.16C92.5893 17.16 92.8399 17.2507 92.9999 17.432C93.1706 17.6133 93.2559 17.8427 93.2559 18.12C93.2559 18.3973 93.1706 18.6267 92.9999 18.808C92.8399 18.9893 92.5893 19.08 92.2479 19.08ZM99.6498 29.096C99.0098 29.096 98.4552 29.0053 97.9858 28.824C97.5272 28.6427 97.1698 28.3333 96.9138 27.896C96.6685 27.448 96.5458 26.8453 96.5458 26.088V17.864H98.0178V26.28C98.0178 26.7387 98.1405 27.096 98.3858 27.352C98.6418 27.5973 98.9992 27.72 99.4578 27.72H100.962V29.096H99.6498ZM95.0738 21.608V20.456H100.962V21.608H95.0738Z" fill="white"/>
<path d="M47.8222 29.288C46.8515 29.288 46.0249 29.128 45.3422 28.808C44.6595 28.488 44.1369 28.0453 43.7742 27.48C43.4115 26.9147 43.2302 26.2747 43.2302 25.56H44.7982C44.7982 25.912 44.8889 26.264 45.0702 26.616C45.2622 26.968 45.5769 27.2613 46.0142 27.496C46.4622 27.7307 47.0649 27.848 47.8222 27.848C48.5262 27.848 49.1022 27.7467 49.5502 27.544C49.9982 27.3307 50.3289 27.0587 50.5422 26.728C50.7555 26.3867 50.8622 26.0187 50.8622 25.624C50.8622 25.144 50.6542 24.7493 50.2382 24.44C49.8222 24.12 49.2142 23.9227 48.4142 23.848L47.1182 23.736C46.0835 23.6507 45.2569 23.3307 44.6382 22.776C44.0195 22.2213 43.7102 21.4907 43.7102 20.584C43.7102 19.8693 43.8809 19.2453 44.2222 18.712C44.5742 18.1787 45.0595 17.7627 45.6782 17.464C46.2969 17.1547 47.0169 17 47.8382 17C48.6489 17 49.3635 17.1493 49.9822 17.448C50.6009 17.7467 51.0809 18.168 51.4222 18.712C51.7742 19.2453 51.9502 19.8853 51.9502 20.632H50.3822C50.3822 20.2587 50.2915 19.9067 50.1102 19.576C49.9395 19.2453 49.6675 18.9733 49.2942 18.76C48.9209 18.5467 48.4355 18.44 47.8382 18.44C47.2622 18.44 46.7822 18.5413 46.3982 18.744C46.0249 18.9467 45.7422 19.2133 45.5502 19.544C45.3689 19.864 45.2782 20.2107 45.2782 20.584C45.2782 21.0107 45.4435 21.3893 45.7742 21.72C46.1049 22.0507 46.5955 22.2427 47.2462 22.296L48.5422 22.408C49.3422 22.472 50.0302 22.6427 50.6062 22.92C51.1929 23.1867 51.6409 23.5493 51.9502 24.008C52.2702 24.456 52.4302 24.9947 52.4302 25.624C52.4302 26.3387 52.2382 26.9733 51.8542 27.528C51.4702 28.0827 50.9315 28.5147 50.2382 28.824C49.5449 29.1333 48.7395 29.288 47.8222 29.288ZM57.7974 29.256C56.7841 29.256 56.0054 28.9253 55.4614 28.264C54.9174 27.6027 54.6454 26.648 54.6454 25.4V20.44H56.1814V25.704C56.1814 26.376 56.3628 26.904 56.7254 27.288C57.0881 27.6613 57.5788 27.848 58.1974 27.848C58.8374 27.848 59.3601 27.6453 59.7654 27.24C60.1708 26.824 60.3734 26.2587 60.3734 25.544V20.44H61.9094V29H60.6934V25.336H60.8854C60.8854 26.1787 60.7734 26.8933 60.5494 27.48C60.3254 28.056 59.9894 28.4987 59.5414 28.808C59.1041 29.1067 58.5441 29.256 57.8614 29.256H57.7974ZM69.3963 29.288C68.6923 29.288 68.063 29.1333 67.5083 28.824C66.9643 28.5147 66.5323 28.0667 66.2123 27.48C65.8923 26.8827 65.7163 26.168 65.6843 25.336H66.1003V29H64.8843V17.32H66.4203V23L65.8763 24.168C65.919 23.24 66.1057 22.4827 66.4363 21.896C66.767 21.3093 67.199 20.8773 67.7323 20.6C68.2763 20.312 68.8737 20.168 69.5243 20.168C70.1323 20.168 70.687 20.2853 71.1883 20.52C71.6897 20.744 72.1217 21.0587 72.4843 21.464C72.847 21.8587 73.1243 22.3227 73.3163 22.856C73.5083 23.3787 73.6043 23.944 73.6043 24.552V24.84C73.6043 25.448 73.503 26.0187 73.3003 26.552C73.1083 27.0853 72.8257 27.56 72.4523 27.976C72.079 28.3813 71.631 28.7013 71.1083 28.936C70.5963 29.1707 70.0257 29.288 69.3963 29.288ZM69.2203 27.944C69.7963 27.944 70.2977 27.8053 70.7243 27.528C71.151 27.2507 71.4817 26.872 71.7163 26.392C71.951 25.9013 72.0683 25.336 72.0683 24.696C72.0683 24.056 71.9457 23.496 71.7003 23.016C71.4657 22.536 71.135 22.168 70.7083 21.912C70.2817 21.6453 69.7857 21.512 69.2203 21.512C68.7083 21.512 68.2337 21.6293 67.7963 21.864C67.359 22.088 67.007 22.4187 66.7403 22.856C66.4843 23.2827 66.3563 23.8 66.3563 24.408V25.144C66.3563 25.7307 66.4897 26.232 66.7563 26.648C67.023 27.064 67.375 27.384 67.8123 27.608C68.2497 27.832 68.719 27.944 69.2203 27.944ZM75.9156 29V20.456H77.1316V24.12H76.9396C76.9396 23.288 77.0462 22.584 77.2596 22.008C77.4836 21.4213 77.8142 20.9733 78.2516 20.664C78.6889 20.3547 79.2436 20.2 79.9156 20.2H79.9796C80.6516 20.2 81.2062 20.3547 81.6436 20.664C82.0916 20.9733 82.4222 21.4213 82.6356 22.008C82.8489 22.584 82.9556 23.288 82.9556 24.12H82.5076C82.5076 23.288 82.6196 22.584 82.8436 22.008C83.0676 21.4213 83.3982 20.9733 83.8356 20.664C84.2836 20.3547 84.8436 20.2 85.5156 20.2H85.5796C86.2516 20.2 86.8116 20.3547 87.2596 20.664C87.7076 20.9733 88.0382 21.4213 88.2516 22.008C88.4756 22.584 88.5876 23.288 88.5876 24.12V29H87.0516V23.784C87.0516 23.0907 86.8809 22.5573 86.5396 22.184C86.1982 21.8 85.7236 21.608 85.1156 21.608C84.4862 21.608 83.9796 21.8107 83.5956 22.216C83.2116 22.6107 83.0196 23.1653 83.0196 23.88V29H81.4836V23.784C81.4836 23.0907 81.3129 22.5573 80.9716 22.184C80.6302 21.8 80.1556 21.608 79.5476 21.608C78.9182 21.608 78.4116 21.8107 78.0276 22.216C77.6436 22.6107 77.4516 23.1653 77.4516 23.88V29H75.9156ZM91.8159 29V20.456H93.3519V29H91.8159ZM90.5039 21.672V20.456H93.3519V21.672H90.5039ZM92.2479 19.08C91.9066 19.08 91.6506 18.9893 91.4799 18.808C91.3199 18.6267 91.2399 18.3973 91.2399 18.12C91.2399 17.8427 91.3199 17.6133 91.4799 17.432C91.6506 17.2507 91.9066 17.16 92.2479 17.16C92.5893 17.16 92.8399 17.2507 92.9999 17.432C93.1706 17.6133 93.2559 17.8427 93.2559 18.12C93.2559 18.3973 93.1706 18.6267 92.9999 18.808C92.8399 18.9893 92.5893 19.08 92.2479 19.08ZM99.6498 29.096C99.0098 29.096 98.4552 29.0053 97.9858 28.824C97.5272 28.6427 97.1698 28.3333 96.9138 27.896C96.6685 27.448 96.5458 26.8453 96.5458 26.088V17.864H98.0178V26.28C98.0178 26.7387 98.1405 27.096 98.3858 27.352C98.6418 27.5973 98.9992 27.72 99.4578 27.72H100.962V29.096H99.6498ZM95.0738 21.608V20.456H100.962V21.608H95.0738Z" fill="black" fill-opacity="0.2"/>
<path fill-rule="evenodd" clip-rule="evenodd" d="M23.8942 17.9368L25.3204 21.1706L28.9442 21.4604L31.0962 21.6326L29.4289 23.004L26.7083 25.2418L27.5352 28.601L28.0322 30.6198L26.2315 29.5804L23.0746 27.758L19.9176 29.5804L18.1169 30.6198L18.6139 28.601L18.6185 28.5821L21.4616 27.0015L21.4718 26.9512L22.3246 26.4589L23.0746 26.026L23.8245 26.4589L25.7346 27.5615L25.2518 25.6004L25.0261 24.6834L25.7554 24.0834L27.2769 22.8319L25.2008 22.6658L24.3089 22.5945L23.9479 21.7759L23.0746 19.7955L22.2012 21.7759L21.8402 22.5945L20.9483 22.6658L18.8722 22.8319L20.3937 24.0834L20.779 24.4004H18.4178L16.7202 23.004L15.0529 21.6326L17.2049 21.4604L20.8287 21.1706L22.2549 17.9368L23.0746 16.0781L23.8942 17.9368Z" fill="#CCCCCC"/>
<defs>
<filter id="filter0_i_186_4676" x="0.364136" y="0" width="120.665" height="49" filterUnits="userSpaceOnUse" color-interpolation-filters="sRGB">
<feFlood flood-opacity="0" result="BackgroundImageFix"/>
<feBlend mode="normal" in="SourceGraphic" in2="BackgroundImageFix" result="shape"/>
<feColorMatrix in="SourceAlpha" type="matrix" values="0 0 0 0 0 0 0 0 0 0 0 0 0 0 0 0 0 0 127 0" result="hardAlpha"/>
<feOffset dy="4"/>
<feGaussianBlur stdDeviation="5"/>
<feComposite in2="hardAlpha" operator="arithmetic" k2="-1" k3="1"/>
<feColorMatrix type="matrix" values="0 0 0 0 1 0 0 0 0 1 0 0 0 0 1 0 0 0 0.3 0"/>
<feBlend mode="normal" in2="shape" result="effect1_innerShadow_186_4676"/>
</filter>
<linearGradient id="paint0_linear_186_4676" x1="60.6964" y1="0" x2="60.6964" y2="45" gradientUnits="userSpaceOnUse">
<stop offset="0.321699" stop-color="#FFE3B5"/>
<stop offset="1" stop-color="#D3390B"/>
</linearGradient>
</defs>
</svg>
