<svg width="28" height="27" viewBox="0 0 28 27" fill="none" xmlns="http://www.w3.org/2000/svg">
<circle cx="14.0052" cy="13.1654" r="12.4968" fill="#051A34" stroke="url(#paint0_linear_312_3596)" stroke-width="0.842615"/>
<circle cx="14.0045" cy="13.1666" r="10.887" stroke="#FFFFDD" stroke-width="0.421308"/>
<circle cx="14.0045" cy="13.1666" r="10.887" stroke="url(#paint1_linear_312_3596)" stroke-width="0.421308"/>
<circle cx="14.0045" cy="13.1666" r="10.887" stroke="#FFFFDD" stroke-width="0.421308"/>
<circle cx="14.0045" cy="13.1666" r="10.887" stroke="url(#paint2_linear_312_3596)" stroke-width="0.421308"/>
<mask id="mask0_312_3596" style="mask-type:alpha" maskUnits="userSpaceOnUse" x="8" y="4" width="12" height="19">
<path d="M19.6712 11.4609C18.1785 10.1983 16.4728 9.33171 14.595 8.71985C14.7685 8.39092 14.8938 8.15005 15.0662 7.81063C15.1052 7.7338 15.0285 7.63126 14.9446 7.65058C13.8626 7.89963 12.8095 8.2092 11.7095 8.47239C11.4563 8.53297 11.3307 8.82437 11.468 9.04555C11.4855 9.07373 11.503 9.1017 11.5207 9.12957C12.0904 10.0275 12.6613 10.9242 13.2322 11.8213C13.388 12.0657 13.4323 12.0636 13.573 11.8071C13.6165 11.7278 13.6595 11.6484 13.7042 11.5699C13.9126 11.2032 13.9134 11.2007 14.3202 11.2809C15.6233 11.5373 16.8825 11.9207 18.0674 12.5343C18.8121 12.9198 19.388 13.4502 19.69 14.2475C19.8683 14.7182 19.9142 15.2085 19.8875 15.7038C19.8232 16.895 19.4335 17.9629 18.5109 18.7519C17.5971 19.5333 16.5329 20.0399 15.3242 20.1953C15.1697 20.2149 15.1271 20.2717 15.1296 20.4174C15.1367 20.8343 15.1271 21.4439 15.1334 21.8607C15.1355 22.0023 15.0916 22.0595 14.9433 22.0578C14.4284 22.052 13.9134 22.0532 13.398 22.0578C13.2635 22.0591 13.2134 22.011 13.2151 21.8753C13.2197 21.4238 13.2076 20.7795 13.2184 20.3281C13.2226 20.1568 13.1667 20.0879 13 20.047C11.7717 19.7446 10.69 19.1662 9.782 18.2832C8.75875 17.2871 8.1494 16.0977 8.12518 14.6459C8.12434 14.5904 8.12643 14.5348 8.13228 14.4797C8.13395 14.4617 8.15232 14.4459 8.17488 14.4108C9.89769 15.893 11.9646 16.6427 14.154 17.2111C14.1292 17.252 13.8791 17.8653 13.7964 18.0494C13.7905 18.0627 13.7309 18.2118 13.6785 18.3411C13.6501 18.4112 13.7268 18.5 13.7999 18.4804C14.8988 18.185 15.9513 17.7801 17.0707 17.4602C17.3173 17.3897 17.433 17.1024 17.3027 16.8814C16.7075 15.8716 16.125 14.7296 15.5221 13.739C15.4747 13.661 15.3658 13.6607 15.3264 13.743C15.2014 14.0039 15.0929 14.3606 14.9709 14.5152C14.9229 14.5762 14.8076 14.638 14.7412 14.6225C13.6574 14.3728 12.5631 14.1573 11.5274 13.7367C10.9585 13.5057 10.4131 13.2326 9.93319 12.8404C8.92456 12.0168 8.65142 10.9489 8.89073 9.71554C9.22987 7.96933 10.373 6.97658 12.0027 6.46245C12.3589 6.3501 12.7319 6.2816 13.1019 6.22564C13.2986 6.19599 13.3563 6.12123 13.3542 5.93286C13.3462 5.30764 13.3563 5.11793 13.35 4.4927C13.3483 4.33066 13.3993 4.27218 13.5655 4.27553C14.0316 4.28471 14.4981 4.28471 14.9642 4.27803C15.1409 4.27553 15.2077 4.33107 15.2048 4.51776C15.1956 5.14299 15.2106 5.3327 15.2015 5.95792C15.1989 6.13877 15.2658 6.21227 15.4332 6.26156C16.373 6.53679 17.2634 6.91894 18.0753 7.47609C19.1792 8.23329 19.6733 9.30916 19.7372 10.6114C19.7505 10.8799 19.7392 11.1502 19.7392 11.4196C19.7167 11.4338 19.6937 11.4475 19.6712 11.4617V11.4609Z" fill="#FFFFDD"/>
</mask>
<g mask="url(#mask0_312_3596)">
<path d="M19.6712 11.4609C18.1785 10.1983 16.4728 9.33171 14.595 8.71985C14.7685 8.39092 14.8938 8.15005 15.0662 7.81063C15.1052 7.7338 15.0285 7.63126 14.9446 7.65058C13.8626 7.89963 12.8095 8.2092 11.7095 8.47239C11.4563 8.53297 11.3307 8.82437 11.468 9.04555C11.4855 9.07373 11.503 9.1017 11.5207 9.12957C12.0904 10.0275 12.6613 10.9242 13.2322 11.8213C13.388 12.0657 13.4323 12.0636 13.573 11.8071C13.6165 11.7278 13.6595 11.6484 13.7042 11.5699C13.9126 11.2032 13.9134 11.2007 14.3202 11.2809C15.6233 11.5373 16.8825 11.9207 18.0674 12.5343C18.8121 12.9198 19.388 13.4502 19.69 14.2475C19.8683 14.7182 19.9142 15.2085 19.8875 15.7038C19.8232 16.895 19.4335 17.9629 18.5109 18.7519C17.5971 19.5333 16.5329 20.0399 15.3242 20.1953C15.1697 20.2149 15.1271 20.2717 15.1296 20.4174C15.1367 20.8343 15.1271 21.4439 15.1334 21.8607C15.1355 22.0023 15.0916 22.0595 14.9433 22.0578C14.4284 22.052 13.9134 22.0532 13.398 22.0578C13.2635 22.0591 13.2134 22.011 13.2151 21.8753C13.2197 21.4238 13.2076 20.7795 13.2184 20.3281C13.2226 20.1568 13.1667 20.0879 13 20.047C11.7717 19.7446 10.69 19.1662 9.782 18.2832C8.75875 17.2871 8.1494 16.0977 8.12518 14.6459C8.12434 14.5904 8.12643 14.5348 8.13228 14.4797C8.13395 14.4617 8.15232 14.4459 8.17488 14.4108C9.89769 15.893 11.9646 16.6427 14.154 17.2111C14.1292 17.252 13.8791 17.8653 13.7964 18.0494C13.7905 18.0627 13.7309 18.2118 13.6785 18.3411C13.6501 18.4112 13.7268 18.5 13.7999 18.4804C14.8988 18.185 15.9513 17.7801 17.0707 17.4602C17.3173 17.3897 17.433 17.1024 17.3027 16.8814C16.7075 15.8716 16.125 14.7296 15.5221 13.739C15.4747 13.661 15.3658 13.6607 15.3264 13.743C15.2014 14.0039 15.0929 14.3606 14.9709 14.5152C14.9229 14.5762 14.8076 14.638 14.7412 14.6225C13.6574 14.3728 12.5631 14.1573 11.5274 13.7367C10.9585 13.5057 10.4131 13.2326 9.93319 12.8404C8.92456 12.0168 8.65142 10.9489 8.89073 9.71554C9.22987 7.96933 10.373 6.97658 12.0027 6.46245C12.3589 6.3501 12.7319 6.2816 13.1019 6.22564C13.2986 6.19599 13.3563 6.12123 13.3542 5.93286C13.3462 5.30764 13.3563 5.11793 13.35 4.4927C13.3483 4.33066 13.3993 4.27218 13.5655 4.27553C14.0316 4.28471 14.4981 4.28471 14.9642 4.27803C15.1409 4.27553 15.2077 4.33107 15.2048 4.51776C15.1956 5.14299 15.2106 5.3327 15.2015 5.95792C15.1989 6.13877 15.2658 6.21227 15.4332 6.26156C16.373 6.53679 17.2634 6.91894 18.0753 7.47609C19.1792 8.23329 19.6733 9.30916 19.7372 10.6114C19.7505 10.8799 19.7392 11.1502 19.7392 11.4196C19.7167 11.4338 19.6937 11.4475 19.6712 11.4617V11.4609Z" fill="#FFFFDD"/>
</g>
<defs>
<linearGradient id="paint0_linear_312_3596" x1="14.0052" y1="1.08984" x2="16.9313" y2="23.9051" gradientUnits="userSpaceOnUse">
<stop stop-color="#FFFFDD"/>
<stop offset="0.260417" stop-color="#E6CD9B"/>
<stop offset="0.520833" stop-color="#878764"/>
<stop offset="0.760417" stop-color="#EEDDAF"/>
<stop offset="1" stop-color="#FFFFDD"/>
</linearGradient>
<linearGradient id="paint1_linear_312_3596" x1="14.0045" y1="2.49023" x2="16.5915" y2="22.6619" gradientUnits="userSpaceOnUse">
<stop stop-color="#FFFFDD"/>
<stop offset="0.260417" stop-color="#E6CD9B"/>
<stop offset="0.520833" stop-color="#878764"/>
<stop offset="0.760417" stop-color="#EEDDAF"/>
<stop offset="1" stop-color="#FFFFDD"/>
</linearGradient>
<linearGradient id="paint2_linear_312_3596" x1="14.0045" y1="2.49023" x2="16.5915" y2="22.6619" gradientUnits="userSpaceOnUse">
<stop stop-color="#FFFFDD"/>
<stop offset="0.260417" stop-color="#E6CD9B"/>
<stop offset="0.520833" stop-color="#878764"/>
<stop offset="0.760417" stop-color="#EEDDAF"/>
<stop offset="1" stop-color="#FFFFDD"/>
</linearGradient>
</defs>
</svg>
