<svg width="62" height="76" viewBox="0 0 62 76" fill="none" xmlns="http://www.w3.org/2000/svg">
<g clip-path="url(#clip0_1_3604)">
<mask id="path-1-outside-1_1_3604" maskUnits="userSpaceOnUse" x="2" y="8" width="43" height="57" fill="black">
<rect fill="white" x="2" y="8" width="43" height="57"/>
<path d="M23.32 63.368C19.24 63.368 15.688 62.624 12.664 61.136C9.688 59.6 7.408 57.536 5.824 54.944C4.24 52.352 3.448 49.424 3.448 46.16H14.824C14.824 48.368 15.568 50.168 17.056 51.56C18.544 52.904 20.632 53.576 23.32 53.576C25.096 53.576 26.608 53.24 27.856 52.568C29.104 51.896 30.064 50.984 30.736 49.832C31.408 48.632 31.744 47.288 31.744 45.8C31.744 43.496 31 41.6 29.512 40.112C28.072 38.624 26.008 37.88 23.32 37.88C21.88 37.88 20.608 38.096 19.504 38.528C18.448 38.96 17.536 39.488 16.768 40.112L11.44 31.112L27.352 20.744L26.704 19.52H5.608V9.44H41.032V20.384L22.672 32.048L16.912 30.464C17.872 30.176 18.88 29.96 19.936 29.816C21.04 29.624 22.216 29.528 23.464 29.528C27.544 29.528 31.048 30.2 33.976 31.544C36.904 32.888 39.16 34.784 40.744 37.232C42.376 39.632 43.192 42.44 43.192 45.656V46.52C43.192 49.736 42.376 52.616 40.744 55.16C39.16 57.704 36.88 59.72 33.904 61.208C30.976 62.648 27.448 63.368 23.32 63.368Z"/>
</mask>
<path d="M23.32 63.368C19.24 63.368 15.688 62.624 12.664 61.136C9.688 59.6 7.408 57.536 5.824 54.944C4.24 52.352 3.448 49.424 3.448 46.16H14.824C14.824 48.368 15.568 50.168 17.056 51.56C18.544 52.904 20.632 53.576 23.32 53.576C25.096 53.576 26.608 53.24 27.856 52.568C29.104 51.896 30.064 50.984 30.736 49.832C31.408 48.632 31.744 47.288 31.744 45.8C31.744 43.496 31 41.6 29.512 40.112C28.072 38.624 26.008 37.88 23.32 37.88C21.88 37.88 20.608 38.096 19.504 38.528C18.448 38.96 17.536 39.488 16.768 40.112L11.44 31.112L27.352 20.744L26.704 19.52H5.608V9.44H41.032V20.384L22.672 32.048L16.912 30.464C17.872 30.176 18.88 29.96 19.936 29.816C21.04 29.624 22.216 29.528 23.464 29.528C27.544 29.528 31.048 30.2 33.976 31.544C36.904 32.888 39.16 34.784 40.744 37.232C42.376 39.632 43.192 42.44 43.192 45.656V46.52C43.192 49.736 42.376 52.616 40.744 55.16C39.16 57.704 36.88 59.72 33.904 61.208C30.976 62.648 27.448 63.368 23.32 63.368Z" fill="url(#paint0_linear_1_3604)" fill-opacity="0.5"/>
<path d="M12.664 61.136L12.2054 62.0246L12.2139 62.029L12.2225 62.0333L12.664 61.136ZM5.824 54.944L4.97072 55.4654L4.97072 55.4654L5.824 54.944ZM3.448 46.16V45.16H2.448V46.16H3.448ZM14.824 46.16H15.824V45.16H14.824V46.16ZM17.056 51.56L16.3728 52.2903L16.3792 52.2962L16.3857 52.3021L17.056 51.56ZM27.856 52.568L28.3301 53.4485L28.3301 53.4485L27.856 52.568ZM30.736 49.832L31.5998 50.3359L31.6042 50.3283L31.6085 50.3206L30.736 49.832ZM29.512 40.112L28.7934 40.8074L28.7991 40.8133L28.8049 40.8191L29.512 40.112ZM19.504 38.528L19.1396 37.5968L19.1325 37.5996L19.1254 37.6025L19.504 38.528ZM16.768 40.112L15.9075 40.6214L16.4984 41.6195L17.3986 40.8881L16.768 40.112ZM11.44 31.112L10.8941 30.2742L10.0915 30.7971L10.5795 31.6214L11.44 31.112ZM27.352 20.744L27.8979 21.5818L28.6631 21.0833L28.2358 20.2761L27.352 20.744ZM26.704 19.52L27.5878 19.0521L27.3061 18.52H26.704V19.52ZM5.608 19.52H4.608V20.52H5.608V19.52ZM5.608 9.44V8.44H4.608V9.44H5.608ZM41.032 9.44H42.032V8.44H41.032V9.44ZM41.032 20.384L41.5682 21.2281L42.032 20.9334V20.384H41.032ZM22.672 32.048L22.4068 33.0122L22.8342 33.1297L23.2082 32.8921L22.672 32.048ZM16.912 30.464L16.6247 29.5062L13.2926 30.5058L16.6468 31.4282L16.912 30.464ZM19.936 29.816L20.0711 30.8068L20.0893 30.8044L20.1073 30.8012L19.936 29.816ZM33.976 31.544L33.5588 32.4528L33.5588 32.4528L33.976 31.544ZM40.744 37.232L39.9044 37.7753L39.9106 37.7849L39.9171 37.7943L40.744 37.232ZM40.744 55.16L39.9022 54.62L39.8951 54.6314L40.744 55.16ZM33.904 61.208L34.3453 62.1054L34.3512 62.1024L33.904 61.208ZM23.32 62.368C19.3613 62.368 15.9662 61.6464 13.1055 60.2387L12.2225 62.0333C15.4098 63.6016 19.1187 64.368 23.32 64.368V62.368ZM13.1226 60.2474C10.2921 58.7865 8.15621 56.8426 6.67728 54.4225L4.97072 55.4654C6.65979 58.2294 9.08388 60.4135 12.2054 62.0246L13.1226 60.2474ZM6.67728 54.4225C5.1964 51.9993 4.448 49.2542 4.448 46.16H2.448C2.448 49.5938 3.2836 52.7047 4.97072 55.4654L6.67728 54.4225ZM3.448 47.16H14.824V45.16H3.448V47.16ZM13.824 46.16C13.824 48.619 14.6646 50.6922 16.3728 52.2903L17.7392 50.8297C16.4714 49.6438 15.824 48.117 15.824 46.16H13.824ZM16.3857 52.3021C18.1125 53.8617 20.47 54.576 23.32 54.576V52.576C20.794 52.576 18.9755 51.9463 17.7263 50.8179L16.3857 52.3021ZM23.32 54.576C25.2204 54.576 26.9041 54.2163 28.3301 53.4485L27.3819 51.6875C26.3119 52.2637 24.9716 52.576 23.32 52.576V54.576ZM28.3301 53.4485C29.7296 52.6949 30.8291 51.657 31.5998 50.3359L29.8722 49.3281C29.2989 50.311 28.4784 51.0971 27.3819 51.6875L28.3301 53.4485ZM31.6085 50.3206C32.3709 48.9592 32.744 47.4447 32.744 45.8H30.744C30.744 47.1313 30.4451 48.3048 29.8635 49.3434L31.6085 50.3206ZM32.744 45.8C32.744 43.2585 31.9134 41.0991 30.2191 39.4049L28.8049 40.8191C30.0867 42.1009 30.744 43.7335 30.744 45.8H32.744ZM30.2306 39.4166C28.5505 37.6805 26.1942 36.88 23.32 36.88V38.88C25.8218 38.88 27.5935 39.5675 28.7934 40.8074L30.2306 39.4166ZM23.32 36.88C21.7813 36.88 20.3817 37.1107 19.1396 37.5968L19.8684 39.4592C20.8343 39.0813 21.9787 38.88 23.32 38.88V36.88ZM19.1254 37.6025C17.9921 38.0661 16.9922 38.6414 16.1374 39.3359L17.3986 40.8881C18.0798 40.3346 18.9039 39.8539 19.8826 39.4535L19.1254 37.6025ZM17.6285 39.6026L12.3005 30.6026L10.5795 31.6214L15.9075 40.6214L17.6285 39.6026ZM11.9859 31.9498L27.8979 21.5818L26.8061 19.9062L10.8941 30.2742L11.9859 31.9498ZM28.2358 20.2761L27.5878 19.0521L25.8202 19.9879L26.4682 21.2119L28.2358 20.2761ZM26.704 18.52H5.608V20.52H26.704V18.52ZM6.608 19.52V9.44H4.608V19.52H6.608ZM5.608 10.44H41.032V8.44H5.608V10.44ZM40.032 9.44V20.384H42.032V9.44H40.032ZM40.4958 19.5399L22.1358 31.2039L23.2082 32.8921L41.5682 21.2281L40.4958 19.5399ZM22.9372 31.0838L17.1772 29.4998L16.6468 31.4282L22.4068 33.0122L22.9372 31.0838ZM17.1993 31.4218C18.1065 31.1497 19.0634 30.9442 20.0711 30.8068L19.8009 28.8252C18.6966 28.9758 17.6375 29.2023 16.6247 29.5062L17.1993 31.4218ZM20.1073 30.8012C21.1488 30.6201 22.2671 30.528 23.464 30.528V28.528C22.1649 28.528 20.9312 28.6279 19.7647 28.8308L20.1073 30.8012ZM23.464 30.528C27.4371 30.528 30.7917 31.1827 33.5588 32.4528L34.3932 30.6352C31.3043 29.2173 27.6509 28.528 23.464 28.528V30.528ZM33.5588 32.4528C36.3329 33.7262 38.4343 35.5032 39.9044 37.7753L41.5836 36.6887C39.8857 34.0648 37.4751 32.0498 34.3932 30.6352L33.5588 32.4528ZM39.9171 37.7943C41.4242 40.0107 42.192 42.618 42.192 45.656H44.192C44.192 42.262 43.3278 39.2533 41.5709 36.6697L39.9171 37.7943ZM42.192 45.656V46.52H44.192V45.656H42.192ZM42.192 46.52C42.192 49.5574 41.4242 52.2476 39.9023 54.62L41.5857 55.7C43.3278 52.9844 44.192 49.9146 44.192 46.52H42.192ZM39.8951 54.6314C38.4192 57.0019 36.2864 58.8987 33.4568 60.3136L34.3512 62.1024C37.4736 60.5413 39.9008 58.4061 41.5929 55.6886L39.8951 54.6314ZM33.4627 60.3107C30.7035 61.6676 27.3344 62.368 23.32 62.368V64.368C27.5616 64.368 31.2485 63.6284 34.3453 62.1053L33.4627 60.3107Z" fill="url(#paint1_linear_1_3604)" fill-opacity="0.5" mask="url(#path-1-outside-1_1_3604)"/>
<rect x="23.4883" y="25" width="38" height="38" rx="8.36" fill="#F15729"/>
<g filter="url(#filter0_i_1_3604)">
<rect x="25.4872" y="26.9988" width="34.0012" height="34.0012" rx="7.48025" fill="#F15729"/>
<rect x="25.4872" y="26.9988" width="34.0012" height="34.0012" rx="7.48025" fill="url(#paint2_radial_1_3604)" style="mix-blend-mode:overlay"/>
<rect x="25.4872" y="26.9988" width="34.0012" height="34.0012" rx="7.48025" fill="url(#paint3_radial_1_3604)" style="mix-blend-mode:overlay"/>
<rect x="25.4872" y="26.9988" width="34.0012" height="34.0012" rx="7.48025" fill="url(#paint4_radial_1_3604)" style="mix-blend-mode:overlay"/>
<rect x="25.4872" y="26.9988" width="34.0012" height="34.0012" rx="7.48025" fill="url(#paint5_radial_1_3604)"/>
</g>
<g filter="url(#filter1_d_1_3604)">
<path d="M52.9377 33L43.8809 39.7266L45.5557 35.758L52.9377 33Z" fill="#E2761B" stroke="#E2761B" stroke-width="0.0910232" stroke-linecap="round" stroke-linejoin="round"/>
<path d="M32.03 33L41.014 39.7903L39.421 35.758L32.03 33ZM49.6794 48.5923L47.2672 52.2878L52.4283 53.7078L53.9119 48.6742L49.6794 48.5923ZM31.0742 48.6742L32.5488 53.7078L37.7098 52.2878L35.2977 48.5923L31.0742 48.6742Z" fill="#E4761B" stroke="#E4761B" stroke-width="0.0910232" stroke-linecap="round" stroke-linejoin="round"/>
<path d="M37.4186 42.3492L35.9805 44.5247L41.1051 44.7523L40.923 39.2454L37.4186 42.3492ZM47.5495 42.3492L43.9996 39.1816L43.8813 44.7523L48.9968 44.5247L47.5495 42.3492ZM37.7099 52.289L40.7865 50.7871L38.1286 48.7118L37.7099 52.289ZM44.1817 50.7871L47.2673 52.289L46.8395 48.7118L44.1817 50.7871Z" fill="#E4761B" stroke="#E4761B" stroke-width="0.0910232" stroke-linecap="round" stroke-linejoin="round"/>
<path d="M47.2674 52.287L44.1817 50.7852L44.4275 52.7968L44.4002 53.6433L47.2674 52.287ZM37.71 52.287L40.5772 53.6433L40.559 52.7968L40.7865 50.7852L37.71 52.287Z" fill="#D7C1B3" stroke="#D7C1B3" stroke-width="0.0910232" stroke-linecap="round" stroke-linejoin="round"/>
<path d="M40.6235 47.3826L38.0566 46.6271L39.868 45.7988L40.6235 47.3826ZM44.3463 47.3826L45.1018 45.7988L46.9223 46.6271L44.3463 47.3826Z" fill="#233447" stroke="#233447" stroke-width="0.0910232" stroke-linecap="round" stroke-linejoin="round"/>
<path d="M37.709 52.2877L38.1459 48.5922L35.2969 48.6741L37.709 52.2877ZM46.8295 48.5922L47.2664 52.2877L49.6785 48.6741L46.8295 48.5922ZM48.9959 44.5234L43.8804 44.751L44.3537 47.3816L45.1092 45.7978L46.9296 46.6261L48.9959 44.5234ZM38.0549 46.6261L39.8753 45.7978L40.6217 47.3816L41.1042 44.751L35.9795 44.5234L38.0549 46.6261Z" fill="#CD6116" stroke="#CD6116" stroke-width="0.0910232" stroke-linecap="round" stroke-linejoin="round"/>
<path d="M35.9805 44.5234L38.1286 48.7105L38.0558 46.6261L35.9805 44.5234ZM46.9306 46.6261L46.8395 48.7105L48.9968 44.5234L46.9306 46.6261ZM41.1051 44.751L40.6227 47.3816L41.2234 50.4855L41.3599 46.3985L41.1051 44.751ZM43.8813 44.751L43.6355 46.3894L43.7447 50.4855L44.3546 47.3816L43.8813 44.751Z" fill="#E4751F" stroke="#E4751F" stroke-width="0.0910232" stroke-linecap="round" stroke-linejoin="round"/>
<path d="M44.3554 47.3805L43.7456 50.4844L44.1825 50.7848L46.8404 48.7094L46.9314 46.625L44.3554 47.3805ZM38.0566 46.625L38.1295 48.7094L40.7873 50.7848L41.2242 50.4844L40.6235 47.3805L38.0566 46.625Z" fill="#F6851B" stroke="#F6851B" stroke-width="0.0910232" stroke-linecap="round" stroke-linejoin="round"/>
<path d="M44.4002 53.6434L44.4275 52.7968L44.1999 52.5966H40.7683L40.559 52.7968L40.5772 53.6434L37.71 52.2871L38.7112 53.1063L40.741 54.5172H44.2272L46.2661 53.1063L47.2674 52.2871L44.4002 53.6434Z" fill="#C0AD9E" stroke="#C0AD9E" stroke-width="0.0910232" stroke-linecap="round" stroke-linejoin="round"/>
<path d="M44.1813 50.7867L43.7444 50.4863H41.2231L40.7862 50.7867L40.5586 52.7983L40.7679 52.5981H44.1995L44.4271 52.7983L44.1813 50.7867Z" fill="#161616" stroke="#161616" stroke-width="0.0910232" stroke-linecap="round" stroke-linejoin="round"/>
<path d="M53.32 40.1635L54.0937 36.4498L52.9377 33L44.1813 39.4991L47.5492 42.3481L52.3097 43.7407L53.3655 42.5119L52.9104 42.1842L53.6386 41.5198L53.0743 41.0829L53.8025 40.5276L53.32 40.1635ZM30.8828 36.4498L31.6565 40.1635L31.165 40.5276L31.8932 41.0829L31.3379 41.5198L32.0661 42.1842L31.611 42.5119L32.6578 43.7407L37.4183 42.3481L40.7861 39.4991L32.0297 33L30.8828 36.4498Z" fill="#763D16" stroke="#763D16" stroke-width="0.0910232" stroke-linecap="round" stroke-linejoin="round"/>
<path d="M52.3099 43.7405L47.5494 42.3479L48.9967 44.5233L46.8394 48.7104L49.6794 48.674H53.9119L52.3099 43.7405ZM37.4185 42.3479L32.658 43.7405L31.0742 48.674H35.2977L38.1285 48.7104L35.9804 44.5233L37.4185 42.3479ZM43.8812 44.7509L44.1816 39.4989L45.5651 35.7578H39.421L40.7864 39.4989L41.105 44.7509L41.2142 46.4075L41.2233 50.4854H43.7447L43.7629 46.4075L43.8812 44.7509Z" fill="#F6851B" stroke="#F6851B" stroke-width="0.0910232" stroke-linecap="round" stroke-linejoin="round"/>
</g>
<g opacity="0.4" filter="url(#filter2_f_1_3604)">
<path d="M26.845 63.5386C27.2154 63.1925 27.7035 63 28.2104 63H52.9654C53.5604 63 54.1246 63.265 54.5045 63.7229L59.2979 69.5L21 69L26.845 63.5386Z" fill="url(#paint6_linear_1_3604)"/>
</g>
</g>
<defs>
<filter id="filter0_i_1_3604" x="25.4872" y="26.9988" width="34.0011" height="34.2732" filterUnits="userSpaceOnUse" color-interpolation-filters="sRGB">
<feFlood flood-opacity="0" result="BackgroundImageFix"/>
<feBlend mode="normal" in="SourceGraphic" in2="BackgroundImageFix" result="shape"/>
<feColorMatrix in="SourceAlpha" type="matrix" values="0 0 0 0 0 0 0 0 0 0 0 0 0 0 0 0 0 0 127 0" result="hardAlpha"/>
<feOffset dy="0.272009"/>
<feGaussianBlur stdDeviation="0.993135"/>
<feComposite in2="hardAlpha" operator="arithmetic" k2="-1" k3="1"/>
<feColorMatrix type="matrix" values="0 0 0 0 1 0 0 0 0 1 0 0 0 0 1 0 0 0 0.65 0"/>
<feBlend mode="normal" in2="shape" result="effect1_innerShadow_1_3604"/>
</filter>
<filter id="filter1_d_1_3604" x="26.8373" y="29.9545" width="31.302" height="29.6082" filterUnits="userSpaceOnUse" color-interpolation-filters="sRGB">
<feFlood flood-opacity="0" result="BackgroundImageFix"/>
<feColorMatrix in="SourceAlpha" type="matrix" values="0 0 0 0 0 0 0 0 0 0 0 0 0 0 0 0 0 0 127 0" result="hardAlpha"/>
<feOffset dy="1"/>
<feGaussianBlur stdDeviation="2"/>
<feComposite in2="hardAlpha" operator="out"/>
<feColorMatrix type="matrix" values="0 0 0 0 1 0 0 0 0 0.984314 0 0 0 0 0.576471 0 0 0 1 0"/>
<feBlend mode="normal" in2="BackgroundImageFix" result="effect1_dropShadow_1_3604"/>
<feBlend mode="normal" in="SourceGraphic" in2="effect1_dropShadow_1_3604" result="shape"/>
</filter>
<filter id="filter2_f_1_3604" x="18" y="60" width="44.2979" height="12.5" filterUnits="userSpaceOnUse" color-interpolation-filters="sRGB">
<feFlood flood-opacity="0" result="BackgroundImageFix"/>
<feBlend mode="normal" in="SourceGraphic" in2="BackgroundImageFix" result="shape"/>
<feGaussianBlur stdDeviation="1.5" result="effect1_foregroundBlur_1_3604"/>
</filter>
<linearGradient id="paint0_linear_1_3604" x1="25.1329" y1="-13" x2="25.1329" y2="88" gradientUnits="userSpaceOnUse">
<stop stop-color="white"/>
<stop offset="1" stop-color="white" stop-opacity="0"/>
</linearGradient>
<linearGradient id="paint1_linear_1_3604" x1="25.1329" y1="-13" x2="25.1329" y2="66" gradientUnits="userSpaceOnUse">
<stop stop-color="white"/>
<stop offset="1" stop-color="white" stop-opacity="0"/>
</linearGradient>
<radialGradient id="paint2_radial_1_3604" cx="0" cy="0" r="1" gradientUnits="userSpaceOnUse" gradientTransform="translate(42.4878 29.3171) rotate(-90) scale(11.1698 24.5159)">
<stop stop-color="white"/>
<stop offset="1" stop-color="white" stop-opacity="0"/>
</radialGradient>
<radialGradient id="paint3_radial_1_3604" cx="0" cy="0" r="1" gradientUnits="userSpaceOnUse" gradientTransform="translate(42.4878 62.3699) rotate(-90) scale(3.68814 16.5196)">
<stop stop-color="white"/>
<stop offset="1" stop-color="white" stop-opacity="0"/>
</radialGradient>
<radialGradient id="paint4_radial_1_3604" cx="0" cy="0" r="1" gradientUnits="userSpaceOnUse" gradientTransform="translate(42.4878 61) rotate(-90) scale(6.77916 30.3645)">
<stop stop-color="white"/>
<stop offset="1" stop-color="white" stop-opacity="0"/>
</radialGradient>
<radialGradient id="paint5_radial_1_3604" cx="0" cy="0" r="1" gradientUnits="userSpaceOnUse" gradientTransform="translate(42.4882 45.5008) rotate(90) scale(18)">
<stop offset="0.445" stop-color="#FEEF7E"/>
<stop offset="0.875" stop-color="#FEEF7E" stop-opacity="0"/>
</radialGradient>
<linearGradient id="paint6_linear_1_3604" x1="44.4614" y1="63" x2="44.4614" y2="69" gradientUnits="userSpaceOnUse">
<stop stop-color="#FFF78B"/>
<stop offset="1" stop-color="#F46932"/>
</linearGradient>
<clipPath id="clip0_1_3604">
<rect width="62" height="76" fill="white"/>
</clipPath>
</defs>
</svg>
