<svg width="62" height="76" viewBox="0 0 62 76" fill="none" xmlns="http://www.w3.org/2000/svg">
<g clip-path="url(#clip0_3_3685)">
<mask id="path-1-outside-1_3_3685" maskUnits="userSpaceOnUse" x="2" y="8" width="43" height="57" fill="black">
<rect fill="white" x="2" y="8" width="43" height="57"/>
<path d="M23.32 63.368C19.24 63.368 15.688 62.624 12.664 61.136C9.688 59.6 7.408 57.536 5.824 54.944C4.24 52.352 3.448 49.424 3.448 46.16H14.824C14.824 48.368 15.568 50.168 17.056 51.56C18.544 52.904 20.632 53.576 23.32 53.576C25.096 53.576 26.608 53.24 27.856 52.568C29.104 51.896 30.064 50.984 30.736 49.832C31.408 48.632 31.744 47.288 31.744 45.8C31.744 43.496 31 41.6 29.512 40.112C28.072 38.624 26.008 37.88 23.32 37.88C21.88 37.88 20.608 38.096 19.504 38.528C18.448 38.96 17.536 39.488 16.768 40.112L11.44 31.112L27.352 20.744L26.704 19.52H5.608V9.44H41.032V20.384L22.672 32.048L16.912 30.464C17.872 30.176 18.88 29.96 19.936 29.816C21.04 29.624 22.216 29.528 23.464 29.528C27.544 29.528 31.048 30.2 33.976 31.544C36.904 32.888 39.16 34.784 40.744 37.232C42.376 39.632 43.192 42.44 43.192 45.656V46.52C43.192 49.736 42.376 52.616 40.744 55.16C39.16 57.704 36.88 59.72 33.904 61.208C30.976 62.648 27.448 63.368 23.32 63.368Z"/>
</mask>
<path d="M23.32 63.368C19.24 63.368 15.688 62.624 12.664 61.136C9.688 59.6 7.408 57.536 5.824 54.944C4.24 52.352 3.448 49.424 3.448 46.16H14.824C14.824 48.368 15.568 50.168 17.056 51.56C18.544 52.904 20.632 53.576 23.32 53.576C25.096 53.576 26.608 53.24 27.856 52.568C29.104 51.896 30.064 50.984 30.736 49.832C31.408 48.632 31.744 47.288 31.744 45.8C31.744 43.496 31 41.6 29.512 40.112C28.072 38.624 26.008 37.88 23.32 37.88C21.88 37.88 20.608 38.096 19.504 38.528C18.448 38.96 17.536 39.488 16.768 40.112L11.44 31.112L27.352 20.744L26.704 19.52H5.608V9.44H41.032V20.384L22.672 32.048L16.912 30.464C17.872 30.176 18.88 29.96 19.936 29.816C21.04 29.624 22.216 29.528 23.464 29.528C27.544 29.528 31.048 30.2 33.976 31.544C36.904 32.888 39.16 34.784 40.744 37.232C42.376 39.632 43.192 42.44 43.192 45.656V46.52C43.192 49.736 42.376 52.616 40.744 55.16C39.16 57.704 36.88 59.72 33.904 61.208C30.976 62.648 27.448 63.368 23.32 63.368Z" fill="url(#paint0_linear_3_3685)" fill-opacity="0.07"/>
<path d="M12.664 61.136L12.2054 62.0246L12.2139 62.029L12.2225 62.0333L12.664 61.136ZM5.824 54.944L4.97072 55.4654L4.97072 55.4654L5.824 54.944ZM3.448 46.16V45.16H2.448V46.16H3.448ZM14.824 46.16H15.824V45.16H14.824V46.16ZM17.056 51.56L16.3728 52.2903L16.3792 52.2962L16.3857 52.3021L17.056 51.56ZM27.856 52.568L28.3301 53.4485L28.3301 53.4485L27.856 52.568ZM30.736 49.832L31.5998 50.3359L31.6042 50.3283L31.6085 50.3206L30.736 49.832ZM29.512 40.112L28.7934 40.8074L28.7991 40.8133L28.8049 40.8191L29.512 40.112ZM19.504 38.528L19.1396 37.5968L19.1325 37.5996L19.1254 37.6025L19.504 38.528ZM16.768 40.112L15.9075 40.6214L16.4984 41.6195L17.3986 40.8881L16.768 40.112ZM11.44 31.112L10.8941 30.2742L10.0915 30.7971L10.5795 31.6214L11.44 31.112ZM27.352 20.744L27.8979 21.5818L28.6631 21.0833L28.2358 20.2761L27.352 20.744ZM26.704 19.52L27.5878 19.0521L27.3061 18.52H26.704V19.52ZM5.608 19.52H4.608V20.52H5.608V19.52ZM5.608 9.44V8.44H4.608V9.44H5.608ZM41.032 9.44H42.032V8.44H41.032V9.44ZM41.032 20.384L41.5682 21.2281L42.032 20.9334V20.384H41.032ZM22.672 32.048L22.4068 33.0122L22.8342 33.1297L23.2082 32.8921L22.672 32.048ZM16.912 30.464L16.6247 29.5062L13.2926 30.5058L16.6468 31.4282L16.912 30.464ZM19.936 29.816L20.0711 30.8068L20.0893 30.8044L20.1073 30.8012L19.936 29.816ZM33.976 31.544L33.5588 32.4528L33.5588 32.4528L33.976 31.544ZM40.744 37.232L39.9044 37.7753L39.9106 37.7849L39.9171 37.7943L40.744 37.232ZM40.744 55.16L39.9022 54.62L39.8951 54.6314L40.744 55.16ZM33.904 61.208L34.3453 62.1054L34.3512 62.1024L33.904 61.208ZM23.32 62.368C19.3613 62.368 15.9662 61.6464 13.1055 60.2387L12.2225 62.0333C15.4098 63.6016 19.1187 64.368 23.32 64.368V62.368ZM13.1226 60.2474C10.2921 58.7865 8.15621 56.8426 6.67728 54.4225L4.97072 55.4654C6.65979 58.2294 9.08388 60.4135 12.2054 62.0246L13.1226 60.2474ZM6.67728 54.4225C5.1964 51.9993 4.448 49.2542 4.448 46.16H2.448C2.448 49.5938 3.2836 52.7047 4.97072 55.4654L6.67728 54.4225ZM3.448 47.16H14.824V45.16H3.448V47.16ZM13.824 46.16C13.824 48.619 14.6646 50.6922 16.3728 52.2903L17.7392 50.8297C16.4714 49.6438 15.824 48.117 15.824 46.16H13.824ZM16.3857 52.3021C18.1125 53.8617 20.47 54.576 23.32 54.576V52.576C20.794 52.576 18.9755 51.9463 17.7263 50.8179L16.3857 52.3021ZM23.32 54.576C25.2204 54.576 26.9041 54.2163 28.3301 53.4485L27.3819 51.6875C26.3119 52.2637 24.9716 52.576 23.32 52.576V54.576ZM28.3301 53.4485C29.7296 52.6949 30.8291 51.657 31.5998 50.3359L29.8722 49.3281C29.2989 50.311 28.4784 51.0971 27.3819 51.6875L28.3301 53.4485ZM31.6085 50.3206C32.3709 48.9592 32.744 47.4447 32.744 45.8H30.744C30.744 47.1313 30.4451 48.3048 29.8635 49.3434L31.6085 50.3206ZM32.744 45.8C32.744 43.2585 31.9134 41.0991 30.2191 39.4049L28.8049 40.8191C30.0867 42.1009 30.744 43.7335 30.744 45.8H32.744ZM30.2306 39.4166C28.5505 37.6805 26.1942 36.88 23.32 36.88V38.88C25.8218 38.88 27.5935 39.5675 28.7934 40.8074L30.2306 39.4166ZM23.32 36.88C21.7813 36.88 20.3817 37.1107 19.1396 37.5968L19.8684 39.4592C20.8343 39.0813 21.9787 38.88 23.32 38.88V36.88ZM19.1254 37.6025C17.9921 38.0661 16.9922 38.6414 16.1374 39.3359L17.3986 40.8881C18.0798 40.3346 18.9039 39.8539 19.8826 39.4535L19.1254 37.6025ZM17.6285 39.6026L12.3005 30.6026L10.5795 31.6214L15.9075 40.6214L17.6285 39.6026ZM11.9859 31.9498L27.8979 21.5818L26.8061 19.9062L10.8941 30.2742L11.9859 31.9498ZM28.2358 20.2761L27.5878 19.0521L25.8202 19.9879L26.4682 21.2119L28.2358 20.2761ZM26.704 18.52H5.608V20.52H26.704V18.52ZM6.608 19.52V9.44H4.608V19.52H6.608ZM5.608 10.44H41.032V8.44H5.608V10.44ZM40.032 9.44V20.384H42.032V9.44H40.032ZM40.4958 19.5399L22.1358 31.2039L23.2082 32.8921L41.5682 21.2281L40.4958 19.5399ZM22.9372 31.0838L17.1772 29.4998L16.6468 31.4282L22.4068 33.0122L22.9372 31.0838ZM17.1993 31.4218C18.1065 31.1497 19.0634 30.9442 20.0711 30.8068L19.8009 28.8252C18.6966 28.9758 17.6375 29.2023 16.6247 29.5062L17.1993 31.4218ZM20.1073 30.8012C21.1488 30.6201 22.2671 30.528 23.464 30.528V28.528C22.1649 28.528 20.9312 28.6279 19.7647 28.8308L20.1073 30.8012ZM23.464 30.528C27.4371 30.528 30.7917 31.1827 33.5588 32.4528L34.3932 30.6352C31.3043 29.2173 27.6509 28.528 23.464 28.528V30.528ZM33.5588 32.4528C36.3329 33.7262 38.4343 35.5032 39.9044 37.7753L41.5836 36.6887C39.8857 34.0648 37.4751 32.0498 34.3932 30.6352L33.5588 32.4528ZM39.9171 37.7943C41.4242 40.0107 42.192 42.618 42.192 45.656H44.192C44.192 42.262 43.3278 39.2533 41.5709 36.6697L39.9171 37.7943ZM42.192 45.656V46.52H44.192V45.656H42.192ZM42.192 46.52C42.192 49.5574 41.4242 52.2476 39.9023 54.62L41.5857 55.7C43.3278 52.9844 44.192 49.9146 44.192 46.52H42.192ZM39.8951 54.6314C38.4192 57.0019 36.2864 58.8987 33.4568 60.3136L34.3512 62.1024C37.4736 60.5413 39.9008 58.4061 41.5929 55.6886L39.8951 54.6314ZM33.4627 60.3107C30.7035 61.6676 27.3344 62.368 23.32 62.368V64.368C27.5616 64.368 31.2485 63.6284 34.3453 62.1053L33.4627 60.3107Z" fill="url(#paint1_linear_3_3685)" fill-opacity="0.5" mask="url(#path-1-outside-1_3_3685)"/>
<g opacity="0.4" filter="url(#filter0_b_3_3685)">
<rect x="20.5508" y="25" width="39.8718" height="38" rx="8.36" fill="#D0D2D1"/>
</g>
<g opacity="0.4" filter="url(#filter1_i_3_3685)">
<rect x="22.6488" y="26.998" width="35.676" height="34.0012" rx="7.48" fill="#D0D2D1"/>
</g>
<path d="M51.0369 33L41.5339 39.7266L43.2913 35.758L51.0369 33Z" fill="#CCCCCC"/>
<path d="M48.0301 48.5918L45.4992 52.2873L50.9144 53.7073L52.4712 48.6737L48.0301 48.5918ZM28.5085 48.6737L30.0558 53.7073L35.471 52.2873L32.9401 48.5918L28.5085 48.6737Z" fill="#B1B1B1" stroke="#EBE8E8" stroke-width="0.0910232" stroke-linecap="round" stroke-linejoin="round"/>
<path d="M38.9379 39.7903L29.5114 33L37.2665 35.758L38.9379 39.7903Z" fill="#CCCCCC" stroke="#EBE8E8" stroke-width="0.0910232" stroke-linecap="round" stroke-linejoin="round"/>
<path d="M35.1654 42.3492L33.6564 44.5247L39.0334 44.7523L38.8424 39.2454L35.1654 42.3492ZM45.7953 42.3492L42.0705 39.1816L41.9464 44.7523L47.3138 44.5247L45.7953 42.3492ZM35.471 52.289L38.6991 50.7871L35.9103 48.7118L35.471 52.289ZM42.2615 50.7871L45.4992 52.289L45.0503 48.7118L42.2615 50.7871Z" fill="#EBE8E8" stroke="#EBE8E8" stroke-width="0.0910232" stroke-linecap="round" stroke-linejoin="round"/>
<path d="M45.4994 52.287L42.2617 50.7852L42.5196 52.7968L42.4909 53.6433L45.4994 52.287ZM35.4712 52.287L38.4797 53.6433L38.4606 52.7968L38.6993 50.7852L35.4712 52.287Z" fill="#E0E0E0"/>
<path d="M38.5279 47.3826L35.8346 46.6271L37.7352 45.7988L38.5279 47.3826ZM42.4341 47.3826L43.2268 45.7988L45.137 46.6271L42.4341 47.3826Z" fill="#9A9A9A"/>
<path d="M35.4704 52.2877L35.9288 48.5922L32.9395 48.6741L35.4704 52.2877ZM45.0402 48.5922L45.4986 52.2877L48.0295 48.6741L45.0402 48.5922ZM47.3132 44.5234L41.9457 44.751L42.4424 47.3816L43.2351 45.7978L45.1452 46.6261L47.3132 44.5234ZM35.8333 46.6261L37.7434 45.7978L38.5266 47.3816L39.0328 44.751L33.6558 44.5234L35.8333 46.6261Z" fill="#C2C2C2"/>
<path d="M33.6564 44.5234L35.9103 48.7105L35.8339 46.6261L33.6564 44.5234ZM45.1458 46.6261L45.0503 48.7105L47.3138 44.5234L45.1458 46.6261ZM39.0334 44.751L38.5272 47.3816L39.1576 50.4855L39.3008 46.3985L39.0334 44.751ZM41.9464 44.751L41.6885 46.3894L41.8031 50.4855L42.443 47.3816L41.9464 44.751Z" fill="#EBE8E8"/>
<path d="M42.4437 47.3805L41.8038 50.4844L42.2622 50.7848L45.051 48.7094L45.1465 46.625L42.4437 47.3805ZM35.8346 46.625L35.911 48.7094L38.6998 50.7848L39.1582 50.4844L38.5279 47.3805L35.8346 46.625Z" fill="#CCCCCC"/>
<path d="M42.4909 53.6434L42.5196 52.7968L42.2808 52.5966H38.6802L38.4606 52.7968L38.4797 53.6434L35.4712 52.2871L36.5218 53.1063L38.6516 54.5172H42.3095L44.4488 53.1063L45.4994 52.2871L42.4909 53.6434Z" fill="#E0E0E0"/>
<path d="M42.2606 50.7867L41.8022 50.4863H39.1567L38.6982 50.7867L38.4595 52.7983L38.6791 52.5981H42.2797L42.5185 52.7983L42.2606 50.7867Z" fill="#9A9A9A"/>
<path d="M51.85 40.1635L52.6618 36.4498L51.4489 33L42.2612 39.4991L45.7949 42.3481L50.7899 43.7407L51.8978 42.5119L51.4203 42.1842L52.1843 41.5198L51.5922 41.0829L52.3562 40.5276L51.85 40.1635ZM28.3076 36.4498L29.1194 40.1635L28.6037 40.5276L29.3677 41.0829L28.7852 41.5198L29.5492 42.1842L29.0717 42.5119L30.17 43.7407L35.165 42.3481L38.6988 39.4991L29.511 33L28.3076 36.4498Z" fill="#AEAEAE"/>
<path d="M50.7903 43.7405L45.7953 42.3479L47.3138 44.5233L45.0503 48.7104L48.0301 48.674H52.4712L50.7903 43.7405ZM35.1654 42.3479L30.1704 43.7405L28.5085 48.674H32.9401L35.9103 48.7104L33.6564 44.5233L35.1654 42.3479ZM41.9463 44.7509L42.2615 39.4989L43.7132 35.7578H37.2665L38.6991 39.4989L39.0334 44.7509L39.148 46.4075L39.1575 50.4854H41.8031L41.8222 46.4075L41.9463 44.7509Z" fill="#E0E0E0" stroke="#EBE8E8" stroke-width="0.0910232" stroke-linecap="round" stroke-linejoin="round"/>
</g>
<defs>
<filter id="filter0_b_3_3685" x="16.5508" y="21" width="47.8718" height="46" filterUnits="userSpaceOnUse" color-interpolation-filters="sRGB">
<feFlood flood-opacity="0" result="BackgroundImageFix"/>
<feGaussianBlur in="BackgroundImageFix" stdDeviation="2"/>
<feComposite in2="SourceAlpha" operator="in" result="effect1_backgroundBlur_3_3685"/>
<feBlend mode="normal" in="SourceGraphic" in2="effect1_backgroundBlur_3_3685" result="shape"/>
</filter>
<filter id="filter1_i_3_3685" x="22.6488" y="26.998" width="35.6759" height="34.2732" filterUnits="userSpaceOnUse" color-interpolation-filters="sRGB">
<feFlood flood-opacity="0" result="BackgroundImageFix"/>
<feBlend mode="normal" in="SourceGraphic" in2="BackgroundImageFix" result="shape"/>
<feColorMatrix in="SourceAlpha" type="matrix" values="0 0 0 0 0 0 0 0 0 0 0 0 0 0 0 0 0 0 127 0" result="hardAlpha"/>
<feOffset dy="0.272009"/>
<feGaussianBlur stdDeviation="0.993135"/>
<feComposite in2="hardAlpha" operator="arithmetic" k2="-1" k3="1"/>
<feColorMatrix type="matrix" values="0 0 0 0 1 0 0 0 0 1 0 0 0 0 1 0 0 0 0.65 0"/>
<feBlend mode="normal" in2="shape" result="effect1_innerShadow_3_3685"/>
</filter>
<linearGradient id="paint0_linear_3_3685" x1="25.1329" y1="-13" x2="25.1329" y2="88" gradientUnits="userSpaceOnUse">
<stop stop-color="white"/>
<stop offset="1" stop-color="white" stop-opacity="0"/>
</linearGradient>
<linearGradient id="paint1_linear_3_3685" x1="25.1329" y1="-13" x2="25.1329" y2="66" gradientUnits="userSpaceOnUse">
<stop stop-color="white"/>
<stop offset="1" stop-color="white" stop-opacity="0"/>
</linearGradient>
<clipPath id="clip0_3_3685">
<rect width="62" height="76" fill="white"/>
</clipPath>
</defs>
</svg>
