<svg width="139" height="54" viewBox="0 0 139 54" fill="none" xmlns="http://www.w3.org/2000/svg">
<path d="M96.937 49.2998C95.8268 49.2998 94.8775 49.1055 94.0893 48.7169C93.3121 48.3283 92.6848 47.8232 92.2074 47.2014C91.73 46.5797 91.3803 45.908 91.1582 45.1863C90.9362 44.4536 90.8252 43.7486 90.8252 43.0713V42.705C90.8252 41.9722 90.9362 41.2395 91.1582 40.5067C91.3914 39.7739 91.7467 39.1078 92.2241 38.5083C92.7015 37.9088 93.3232 37.4258 94.0893 37.0594C94.8553 36.693 95.7713 36.5099 96.8371 36.5099C97.9251 36.5099 98.8577 36.6986 99.6349 37.0761C100.412 37.4536 101.028 37.9809 101.483 38.6582C101.939 39.3354 102.216 40.1348 102.316 41.0563H100.651C100.562 40.3679 100.34 39.8017 99.9846 39.3576C99.6293 38.9024 99.1797 38.5638 98.6357 38.3417C98.1028 38.1197 97.5032 38.0087 96.8371 38.0087C96.1154 38.0087 95.4826 38.1364 94.9386 38.3917C94.3946 38.636 93.9394 38.9857 93.573 39.4409C93.2177 39.885 92.9457 40.4012 92.757 40.9897C92.5793 41.5781 92.4905 42.2165 92.4905 42.9048C92.4905 43.5598 92.5793 44.1816 92.757 44.77C92.9457 45.3584 93.2233 45.8802 93.5897 46.3354C93.9671 46.7906 94.4334 47.1515 94.9886 47.4179C95.5437 47.6733 96.1932 47.8009 96.937 47.8009C97.9806 47.8009 98.8577 47.54 99.5683 47.0182C100.279 46.4964 100.712 45.7415 100.867 44.7534H102.533C102.422 45.586 102.138 46.3465 101.683 47.0349C101.239 47.7232 100.617 48.2728 99.8181 48.6836C99.0298 49.0944 98.0695 49.2998 96.937 49.2998ZM104.896 49V36.8429H106.528V49H104.896ZM106.195 49V47.5345H111.757V49H106.195ZM118.475 49.2998C117.376 49.2998 116.449 49.0888 115.694 48.6669C114.95 48.2339 114.384 47.6344 113.995 46.8683C113.618 46.0912 113.429 45.1919 113.429 44.1705V36.8429H115.061V44.3703C115.061 45.0476 115.189 45.6471 115.444 46.1689C115.71 46.6796 116.099 47.0793 116.61 47.368C117.12 47.6566 117.742 47.8009 118.475 47.8009C119.208 47.8009 119.824 47.6622 120.323 47.3846C120.834 47.0959 121.217 46.6963 121.472 46.1856C121.739 45.6637 121.872 45.0587 121.872 44.3703V36.8429H123.504V44.1705C123.504 45.1919 123.315 46.0912 122.938 46.8683C122.561 47.6344 122 48.2339 121.256 48.6669C120.512 49.0888 119.585 49.2998 118.475 49.2998ZM128.102 49.0666V47.6344H131.499C132.154 47.6344 132.659 47.4512 133.014 47.0848C133.381 46.7074 133.564 46.2078 133.564 45.586C133.564 44.9532 133.386 44.4591 133.031 44.1039C132.676 43.7375 132.165 43.5543 131.499 43.5543H128.102V42.4885H131.266C132.043 42.4885 132.726 42.5828 133.314 42.7716C133.914 42.9603 134.38 43.2767 134.713 43.7208C135.057 44.1538 135.229 44.7478 135.229 45.5028V45.7359C135.229 46.4465 135.085 47.0515 134.796 47.5511C134.508 48.0396 134.069 48.4171 133.481 48.6836C132.892 48.9389 132.154 49.0666 131.266 49.0666H128.102ZM126.803 49.0666V36.7763H128.435V49.0666H126.803ZM128.102 43.2545V42.1887H131.049C131.738 42.1887 132.243 42.0055 132.565 41.6391C132.898 41.2617 133.064 40.7843 133.064 40.2069C133.064 39.6185 132.898 39.1411 132.565 38.7747C132.243 38.3973 131.738 38.2085 131.049 38.2085H128.102V36.7763H130.766C132.098 36.7763 133.092 37.0594 133.747 37.6256C134.402 38.1808 134.73 38.9857 134.73 40.0404V40.2736C134.73 41.0174 134.563 41.6114 134.23 42.0555C133.897 42.4885 133.431 42.7993 132.831 42.9881C132.243 43.1657 131.554 43.2545 130.766 43.2545H128.102Z" fill="white"/>
<path d="M44.1387 27.1123V26.6424L55.4604 9.86078H44.9373V6.64844H62.1098V7.13207L50.8519 23.8863H61.8381V27.1123H44.1387Z" fill="white"/>
<path d="M64.3008 27.1123V6.64844H79.1303V9.86078H68.144V14.906H77.217V18.1183H68.144V23.9027H79.1303V27.1151H64.3008V27.1123Z" fill="white"/>
<path d="M81.6816 27.1123V6.64844H96.5111V9.86078H85.5249V14.906H94.5978V18.1183H85.5249V23.9027H96.5111V27.1151H81.6816V27.1123Z" fill="white"/>
<path d="M99.0614 27.1123V6.64844H108.165C109.718 6.64844 110.99 6.92598 111.983 7.47831C112.976 8.0334 113.716 8.73962 114.199 9.60247C114.681 10.4653 114.925 11.3557 114.925 12.2735C114.925 13.4001 114.626 14.3564 114.024 15.1451C113.422 15.931 112.607 16.4613 111.575 16.7361V16.0244C113.02 16.3184 114.118 16.9285 114.87 17.8573C115.618 18.7861 115.993 19.8413 115.993 21.0257C115.993 22.21 115.732 23.3009 115.211 24.2078C114.689 25.1173 113.916 25.8291 112.89 26.3402C111.864 26.8513 110.597 27.1068 109.088 27.1068H99.0586L99.0614 27.1123ZM102.952 14.8208H108.118C108.669 14.8208 109.166 14.7274 109.601 14.5378C110.037 14.3482 110.383 14.0679 110.638 13.6996C110.893 13.3314 111.021 12.8753 111.021 12.3367C111.021 11.625 110.766 11.0341 110.256 10.5615C109.745 10.0889 109.033 9.84979 108.118 9.84979H102.952V14.8236V14.8208ZM102.952 23.8863H108.611C109.282 23.8863 109.881 23.7654 110.414 23.5235C110.946 23.2817 111.362 22.941 111.664 22.5013C111.966 22.0616 112.119 21.5368 112.119 20.9322C112.119 20.3826 111.986 19.8908 111.72 19.4538C111.453 19.0197 111.065 18.6707 110.555 18.4096C110.045 18.1486 109.435 18.0194 108.722 18.0194H102.949V23.889L102.952 23.8863Z" fill="white"/>
<path d="M127.517 27.5383C125.69 27.5383 124.082 27.2058 122.695 26.5435C121.309 25.8813 120.224 24.947 119.442 23.7434C118.661 22.5398 118.27 21.1301 118.27 19.5088V6.67866L122.16 6.65118V19.4264C122.16 20.193 122.307 20.88 122.598 21.4873C122.889 22.0946 123.286 22.6085 123.785 23.0289C124.284 23.4521 124.858 23.7708 125.507 23.9879C126.156 24.205 126.824 24.3149 127.517 24.3149C128.21 24.3149 128.906 24.2023 129.55 23.9797C130.193 23.7571 130.764 23.4356 131.263 23.0124C131.762 22.592 132.156 22.0781 132.445 21.4708C132.73 20.8635 132.874 20.182 132.874 19.4236V6.64844H136.765V19.5088C136.765 21.1301 136.374 22.5398 135.592 23.7434C134.81 24.947 133.726 25.8785 132.339 26.5435C130.953 27.2058 129.345 27.5383 127.517 27.5383Z" fill="white"/>
<path d="M32.0761 24.7998L29.9659 28.4216C29.5555 29.1251 28.7902 29.5647 27.9694 29.5647L6.89258 29.5565L10.1008 24.0524L17.6792 24.0606H17.6819L25.7067 24.0689C25.9563 24.0689 26.1837 23.937 26.3084 23.7254L29.7025 17.875L32.0761 21.9474C32.5863 22.8268 32.5863 23.9205 32.0761 24.7998Z" fill="white"/>
<path d="M32.0735 11.0443L29.101 16.161L25.3076 22.6983L18.8828 22.6901L29.6971 4.125L32.0707 8.18645C32.5837 9.06854 32.5865 10.1622 32.0735 11.0443Z" fill="white"/>
<path d="M16.5051 10.3125L5.69354 28.8693L3.32271 24.8079C2.80695 23.9285 2.80695 22.8349 3.31994 21.9528L6.28417 16.8444C6.28417 16.8444 6.28695 16.8444 6.28695 16.8416L10.0747 10.3125H16.5051Z" fill="white"/>
<path d="M28.4971 3.43518L25.2916 8.93931H9.67464C9.42508 8.93931 9.1977 9.07121 9.07292 9.28555L5.68444 15.1222L3.31638 11.047C2.80339 10.1649 2.80339 9.07121 3.31638 8.19187L5.42656 4.57283C5.83695 3.86661 6.60227 3.42969 7.42305 3.42969L28.4971 3.43518Z" fill="white"/>
</svg>
