<svg width="30" height="30" viewBox="0 0 30 30" fill="none" xmlns="http://www.w3.org/2000/svg">
<g filter="url(#filter0_bii_1182_37615)">
<rect width="30" height="30" rx="15" fill="url(#paint0_linear_1182_37615)" fill-opacity="0.8"/>
<rect x="1" y="1" width="28" height="28" rx="14" stroke="url(#paint1_linear_1182_37615)" stroke-opacity="0.2" stroke-width="2"/>
</g>
<path d="M15 9.16675V12.6667L16.1667 11.5001" stroke="black" stroke-linecap="round" stroke-linejoin="round"/>
<path d="M15.0007 12.6667L13.834 11.5" stroke="black" stroke-linecap="round" stroke-linejoin="round"/>
<path d="M12.0833 15C9.75 15 9.75 16.0442 9.75 17.3333V17.9167C9.75 19.5267 9.75 20.8333 12.6667 20.8333H17.3333C19.6667 20.8333 20.25 19.5267 20.25 17.9167V17.3333C20.25 16.0442 20.25 15 17.9167 15C17.3333 15 17.17 15.1225 16.8667 15.35L16.2717 15.98C15.5833 16.715 14.4167 16.715 13.7225 15.98L13.1333 15.35C12.83 15.1225 12.6667 15 12.0833 15Z" stroke="black" stroke-miterlimit="10" stroke-linecap="round" stroke-linejoin="round"/>
<path d="M10.916 15V12.6667C10.916 11.4942 10.916 10.5259 12.666 10.3567" stroke="black" stroke-miterlimit="10" stroke-linecap="round" stroke-linejoin="round"/>
<path d="M19.084 15V12.6667C19.084 11.4942 19.084 10.5259 17.334 10.3567" stroke="black" stroke-miterlimit="10" stroke-linecap="round" stroke-linejoin="round"/>
<defs>
<filter id="filter0_bii_1182_37615" x="-50" y="-50" width="130" height="130" filterUnits="userSpaceOnUse" color-interpolation-filters="sRGB">
<feFlood flood-opacity="0" result="BackgroundImageFix"/>
<feGaussianBlur in="BackgroundImageFix" stdDeviation="25"/>
<feComposite in2="SourceAlpha" operator="in" result="effect1_backgroundBlur_1182_37615"/>
<feBlend mode="normal" in="SourceGraphic" in2="effect1_backgroundBlur_1182_37615" result="shape"/>
<feColorMatrix in="SourceAlpha" type="matrix" values="0 0 0 0 0 0 0 0 0 0 0 0 0 0 0 0 0 0 127 0" result="hardAlpha"/>
<feOffset dy="3"/>
<feGaussianBlur stdDeviation="3"/>
<feComposite in2="hardAlpha" operator="arithmetic" k2="-1" k3="1"/>
<feColorMatrix type="matrix" values="0 0 0 0 1 0 0 0 0 1 0 0 0 0 1 0 0 0 0.25 0"/>
<feBlend mode="overlay" in2="shape" result="effect2_innerShadow_1182_37615"/>
<feColorMatrix in="SourceAlpha" type="matrix" values="0 0 0 0 0 0 0 0 0 0 0 0 0 0 0 0 0 0 127 0" result="hardAlpha"/>
<feOffset dy="-6"/>
<feGaussianBlur stdDeviation="3"/>
<feComposite in2="hardAlpha" operator="arithmetic" k2="-1" k3="1"/>
<feColorMatrix type="matrix" values="0 0 0 0 1 0 0 0 0 1 0 0 0 0 1 0 0 0 0.2 0"/>
<feBlend mode="overlay" in2="effect2_innerShadow_1182_37615" result="effect3_innerShadow_1182_37615"/>
</filter>
<linearGradient id="paint0_linear_1182_37615" x1="28.1792" y1="0.642854" x2="-3.65693" y2="23.2683" gradientUnits="userSpaceOnUse">
<stop stop-color="white" stop-opacity="0.7"/>
<stop offset="1" stop-color="white" stop-opacity="0.5"/>
</linearGradient>
<linearGradient id="paint1_linear_1182_37615" x1="28.1717" y1="0.457318" x2="-0.765336" y2="24.5343" gradientUnits="userSpaceOnUse">
<stop stop-color="white"/>
<stop offset="1" stop-color="white"/>
</linearGradient>
</defs>
</svg>
