<svg width="30" height="30" viewBox="0 0 30 30" fill="none" xmlns="http://www.w3.org/2000/svg">
<g filter="url(#filter0_bii_1182_37608)">
<rect width="30" height="30" rx="15" fill="url(#paint0_linear_1182_37608)" fill-opacity="0.2"/>
<rect x="0.5" y="0.5" width="29" height="29" rx="14.5" stroke="url(#paint1_linear_1182_37608)" stroke-opacity="0.2"/>
</g>
<path d="M16.319 17.3323H13.4023" stroke="black" stroke-miterlimit="10" stroke-linecap="round" stroke-linejoin="round"/>
<path d="M15.3842 9.46899L15.3667 9.50983L13.6751 13.4357H12.0126C11.6159 13.4357 11.2367 13.5173 10.8926 13.6632L11.9134 11.2248L11.9367 11.1665L11.9776 11.0732C11.9892 11.0382 12.0009 11.0032 12.0184 10.974C12.7826 9.20649 13.6459 8.80399 15.3842 9.46899Z" stroke="black" stroke-linecap="round" stroke-linejoin="round"/>
<path d="M18.5291 13.5523C18.2666 13.4707 17.9866 13.4357 17.7066 13.4357H13.6758L15.3674 9.50983L15.3849 9.46899C15.4724 9.49816 15.5541 9.53899 15.6416 9.57399L16.9308 10.1165C17.6483 10.414 18.1499 10.7232 18.4533 11.0965C18.5116 11.1665 18.5583 11.2307 18.5991 11.3065C18.6516 11.3882 18.6924 11.4698 18.7158 11.5573C18.7391 11.6098 18.7566 11.6623 18.7683 11.709C18.9258 12.199 18.8324 12.7998 18.5291 13.5523Z" stroke="black" stroke-linecap="round" stroke-linejoin="round"/>
<path d="M20.5547 16.2825V17.42C20.5547 17.5366 20.5488 17.6533 20.543 17.77C20.4322 19.8058 19.2947 20.8325 17.1363 20.8325H12.5863C12.4463 20.8325 12.3063 20.8208 12.1722 20.8033C10.3172 20.6808 9.32549 19.6891 9.20299 17.8341C9.18549 17.7 9.17383 17.56 9.17383 17.42V16.2825C9.17383 15.11 9.88549 14.1008 10.9005 13.6633C11.2505 13.5175 11.6238 13.4358 12.0205 13.4358H17.7138C17.9997 13.4358 18.2797 13.4766 18.5363 13.5525C19.6972 13.9083 20.5547 14.9933 20.5547 16.2825Z" stroke="black" stroke-linecap="round" stroke-linejoin="round"/>
<path d="M11.9135 11.2249L10.8927 13.6632C9.87768 14.1007 9.16602 15.1099 9.16602 16.2824V14.5732C9.16602 12.9165 10.3443 11.534 11.9135 11.2249Z" stroke="black" stroke-linecap="round" stroke-linejoin="round"/>
<path d="M20.5535 14.5727V16.2819C20.5535 14.9986 19.7018 13.9077 18.5352 13.5577C18.8385 12.7994 18.926 12.2044 18.7802 11.7086C18.7685 11.6561 18.751 11.6036 18.7277 11.5569C19.8127 12.1169 20.5535 13.2661 20.5535 14.5727Z" stroke="black" stroke-linecap="round" stroke-linejoin="round"/>
<defs>
<filter id="filter0_bii_1182_37608" x="-50" y="-50" width="130" height="130" filterUnits="userSpaceOnUse" color-interpolation-filters="sRGB">
<feFlood flood-opacity="0" result="BackgroundImageFix"/>
<feGaussianBlur in="BackgroundImageFix" stdDeviation="25"/>
<feComposite in2="SourceAlpha" operator="in" result="effect1_backgroundBlur_1182_37608"/>
<feBlend mode="normal" in="SourceGraphic" in2="effect1_backgroundBlur_1182_37608" result="shape"/>
<feColorMatrix in="SourceAlpha" type="matrix" values="0 0 0 0 0 0 0 0 0 0 0 0 0 0 0 0 0 0 127 0" result="hardAlpha"/>
<feOffset dy="3"/>
<feGaussianBlur stdDeviation="3"/>
<feComposite in2="hardAlpha" operator="arithmetic" k2="-1" k3="1"/>
<feColorMatrix type="matrix" values="0 0 0 0 1 0 0 0 0 1 0 0 0 0 1 0 0 0 0.25 0"/>
<feBlend mode="overlay" in2="shape" result="effect2_innerShadow_1182_37608"/>
<feColorMatrix in="SourceAlpha" type="matrix" values="0 0 0 0 0 0 0 0 0 0 0 0 0 0 0 0 0 0 127 0" result="hardAlpha"/>
<feOffset dy="-6"/>
<feGaussianBlur stdDeviation="3"/>
<feComposite in2="hardAlpha" operator="arithmetic" k2="-1" k3="1"/>
<feColorMatrix type="matrix" values="0 0 0 0 1 0 0 0 0 1 0 0 0 0 1 0 0 0 0.2 0"/>
<feBlend mode="overlay" in2="effect2_innerShadow_1182_37608" result="effect3_innerShadow_1182_37608"/>
</filter>
<linearGradient id="paint0_linear_1182_37608" x1="28.1792" y1="0.642854" x2="-3.65693" y2="23.2683" gradientUnits="userSpaceOnUse">
<stop stop-color="white" stop-opacity="0.7"/>
<stop offset="1" stop-color="white" stop-opacity="0.5"/>
</linearGradient>
<linearGradient id="paint1_linear_1182_37608" x1="28.1717" y1="0.457318" x2="-0.765336" y2="24.5343" gradientUnits="userSpaceOnUse">
<stop stop-color="white"/>
<stop offset="1" stop-color="white"/>
</linearGradient>
</defs>
</svg>
